<svg xmlns:osb="http://www.openswatchbook.org/uri/2009/osb" xmlns="http://www.w3.org/2000/svg" viewBox="0 0 33.212685 11" id="svg2" width="33.213" height="11"><defs id="defs4"><linearGradient id="linearGradient5588" osb:paint="solid"><stop offset="0" id="stop5590" stop-color="#ffff0a"/></linearGradient><style id="style6">.cls-1{fill:none;stroke:#e0e718;stroke-miterlimit:10;stroke-width:3px}</style><clipPath id="clipPath5596"><path id="rect5598" fill-opacity="0" stroke="#009100" stroke-width="1.087" d="M34.512-21.672h33.213V26.73H34.512z"/></clipPath></defs><title id="title8">wave_1</title><g id="Layer_2" data-name="Layer 2" transform="translate(-32.175 -.584)"><g id="Layer_1-2" data-name="Layer 1" transform="translate(-2.337 .584)" clip-path="url(#clipPath5596)"><path class="cls-1" d="M222 9.5c-8.54 0-8.54-8-17.07-8-8.53 0-8.54 8-17.07 8-8.53 0-8.54-8-17.07-8-8.53 0-8.54 8-17.08 8s-8.54-8-17.07-8c-8.53 0-8.54 8-17.08 8s-8.54-8-17.08-8-8.54 8-17.08 8-8.54-8-17.07-8c-8.53 0-8.54 8-17.08 8s-8.54-8-17.08-8-8.54 8-17.08 8-8.55-8-17.09-8" id="path12" fill="none" stroke="#e0e718" stroke-width="3" stroke-miterlimit="10"/></g></g></svg>