<svg id="Layer_1" data-name="Layer 1" xmlns="http://www.w3.org/2000/svg" viewBox="0 0 217.6 55.77"><defs><style>.cls-1{fill:#e2e71f;}.cls-2{fill:#7d868c;}</style></defs><title>footer-logo</title><path class="cls-1" d="M5619.91,2268.56a1.1,1.1,0,0,0-1.09,1.09v25.89a1.09,1.09,0,0,0,1.09,1.09h18a1.09,1.09,0,0,0,1.09-1.09v-3a1.09,1.09,0,0,0-1.09-1.09h-11.16a2.48,2.48,0,0,1-2.48-2.48v-19.34a1.09,1.09,0,0,0-1.09-1.09h-3.23Zm18,29.46h-18a2.48,2.48,0,0,1-2.48-2.48v-25.89a2.48,2.48,0,0,1,2.48-2.48h3.23a2.48,2.48,0,0,1,2.48,2.48V2289a1.09,1.09,0,0,0,1.09,1.09h11.16a2.48,2.48,0,0,1,2.48,2.47v3a2.48,2.48,0,0,1-2.48,2.48" transform="translate(-5617.43 -2267.18)"/><path class="cls-1" d="M5623.31,2268.56a1.1,1.1,0,0,0-1.09,1.09v14.56a1.09,1.09,0,0,0,1.09,1.09h21.36a1.09,1.09,0,0,0,1.09-1.09v-14.56a1.1,1.1,0,0,0-1.09-1.09h-21.36Zm21.36,18.13h-21.36a2.48,2.48,0,0,1-2.48-2.48v-14.56a2.48,2.48,0,0,1,2.48-2.48h21.36a2.48,2.48,0,0,1,2.48,2.48v14.56a2.48,2.48,0,0,1-2.48,2.48" transform="translate(-5617.43 -2267.18)"/><path class="cls-1" d="M5619.91,2316.24a1.09,1.09,0,0,0-1.09,1.09v3.14a1.1,1.1,0,0,0,1.09,1.09h15.69a1.09,1.09,0,0,0,1.09-1.09v-13.88a1.08,1.08,0,0,0-1.08-1.08l-8.81.07a2.48,2.48,0,0,1-2.48-2.46v-0.55a2.47,2.47,0,0,1,2.46-2.48h8.81a1.09,1.09,0,0,0,1.09-1.09v-4a1.09,1.09,0,0,0-1.09-1.09h-15.69a1.09,1.09,0,0,0-1.09,1.09v14.78a1.1,1.1,0,0,0,1.09,1.09h7.44a2.48,2.48,0,0,1,2.47,2.48v0.46a2.48,2.48,0,0,1-2.47,2.48h-7.44Zm15.69,6.71h-15.69a2.48,2.48,0,0,1-2.48-2.48v-3.14a2.48,2.48,0,0,1,2.48-2.48h7.44a1.09,1.09,0,0,0,1.09-1.09v-0.46a1.09,1.09,0,0,0-1.09-1.09h-7.44a2.48,2.48,0,0,1-2.48-2.48V2295a2.48,2.48,0,0,1,2.48-2.48h15.69a2.48,2.48,0,0,1,2.48,2.48v4a2.48,2.48,0,0,1-2.48,2.47h-8.81a1.09,1.09,0,0,0-1.08,1.09v0.56a1.09,1.09,0,0,0,1.09,1.08l8.81-.07a2.47,2.47,0,0,1,2.46,2.47v13.88a2.48,2.48,0,0,1-2.48,2.48" transform="translate(-5617.43 -2267.18)"/><path class="cls-1" d="M5657.3,2299.56a1.09,1.09,0,0,0-1.09,1.09v4.72a1.09,1.09,0,0,0,1.09,1.09h13.43a1.09,1.09,0,0,0,1.09-1.09v-18a1.07,1.07,0,0,0-1.07-1.07l-7.37.08a2.47,2.47,0,0,1-2.47-2.45v-1.52a2.47,2.47,0,0,1,2.47-2.48h7.36a1.09,1.09,0,0,0,1.09-1.09v-5.82a1.09,1.09,0,0,0-1.09-1.09H5657.3a1.09,1.09,0,0,0-1.09,1.09v19.07a1.09,1.09,0,0,0,1.09,1.09h6.14a2.48,2.48,0,0,1,2.48,2.48v1.4a2.48,2.48,0,0,1-2.48,2.47h-6.14Zm13.43,8.28H5657.3a2.48,2.48,0,0,1-2.48-2.47v-4.72a2.48,2.48,0,0,1,2.48-2.47h6.14a1.09,1.09,0,0,0,1.09-1.09v-1.4a1.09,1.09,0,0,0-1.09-1.09h-6.14a2.48,2.48,0,0,1-2.48-2.48v-19.07a2.48,2.48,0,0,1,2.48-2.48h13.43a2.48,2.48,0,0,1,2.47,2.48v5.82a2.48,2.48,0,0,1-2.47,2.48h-7.36a1.09,1.09,0,0,0-1.09,1.09V2284a1.09,1.09,0,0,0,1.08,1.08l7.37-.08a2.46,2.46,0,0,1,2.46,2.46v18a2.48,2.48,0,0,1-2.47,2.47" transform="translate(-5617.43 -2267.18)"/><path class="cls-1" d="M5663.37,2315.49a1.53,1.53,0,0,1,1.46,1.74v3.24a1.1,1.1,0,0,0,1.09,1.09h4.8a1.09,1.09,0,0,0,1.09-1.09V2298a1.09,1.09,0,0,0-1.09-1.09h-26.65A1.1,1.1,0,0,0,5643,2298v22.49a1.1,1.1,0,0,0,1.09,1.09h4.34a1.1,1.1,0,0,0,1.09-1.09v-3.23a1.52,1.52,0,0,1,1.46-1.74,2,2,0,0,1,1.1.37l4,2.65a2.23,2.23,0,0,0,2.21,0l4-2.66a2,2,0,0,1,1.1-.37m7.36,7.46h-4.8a2.48,2.48,0,0,1-2.48-2.48v-3.24a0.66,0.66,0,0,0-.07-0.36h0a0.7,0.7,0,0,0-.33.14l-4,2.66a3.6,3.6,0,0,1-3.74,0l-4-2.65a0.71,0.71,0,0,0-.33-0.14h0a0.65,0.65,0,0,0-.07.36v3.23a2.48,2.48,0,0,1-2.48,2.48h-4.34a2.48,2.48,0,0,1-2.48-2.48V2298a2.48,2.48,0,0,1,2.48-2.48h26.65a2.48,2.48,0,0,1,2.47,2.48v22.49a2.48,2.48,0,0,1-2.47,2.48" transform="translate(-5617.43 -2267.18)"/><path class="cls-1" d="M5630.1,2274.23a1.09,1.09,0,0,0-1.09,1.09v3.23a1.09,1.09,0,0,0,1.09,1.09h7.76a1.09,1.09,0,0,0,1.09-1.09v-3.23a1.09,1.09,0,0,0-1.09-1.09h-7.76Zm7.76,6.8h-7.76a2.48,2.48,0,0,1-2.48-2.48v-3.23a2.48,2.48,0,0,1,2.48-2.47h7.76a2.48,2.48,0,0,1,2.48,2.47v3.23a2.48,2.48,0,0,1-2.48,2.48" transform="translate(-5617.43 -2267.18)"/><path class="cls-1" d="M5648.23,2268.56a1.09,1.09,0,0,0-1.09,1.09v22.49a1.09,1.09,0,0,0,1.09,1.09h22.49a0.84,0.84,0,0,0,.31,0,0.81,0.81,0,0,0-.15-0.27l-7.63-10.18a1.49,1.49,0,0,1,1.27-2.54h6.21a1.09,1.09,0,0,0,1.09-1.09v-9.46a1.09,1.09,0,0,0-1.09-1.09h-22.49Zm22.49,26.06h-22.49a2.48,2.48,0,0,1-2.48-2.48v-22.49a2.48,2.48,0,0,1,2.48-2.48h22.49a2.48,2.48,0,0,1,2.47,2.48v9.46a2.48,2.48,0,0,1-2.47,2.48h-6.21a0.77,0.77,0,0,0-.31,0,0.84,0.84,0,0,0,.15.27l7.63,10.18a1.49,1.49,0,0,1-1.26,2.54" transform="translate(-5617.43 -2267.18)"/><path class="cls-1" d="M5635.77,2272a1.09,1.09,0,0,0-1.09,1.09v15.7a1.09,1.09,0,0,0,1.09,1.09h21.35a1.09,1.09,0,0,0,1.09-1.09v-15.7a1.09,1.09,0,0,0-1.09-1.09h-4.22a1.11,1.11,0,0,0-1.1,1.1l-0.06,8.9a2.49,2.49,0,0,1-2.49,2.47h-5.61a2.5,2.5,0,0,1-2.49-2.47l-0.06-8.9a1.11,1.11,0,0,0-1.1-1.1h-4.22Zm21.35,19.26h-21.35a2.48,2.48,0,0,1-2.48-2.47v-15.7a2.48,2.48,0,0,1,2.48-2.48H5640a2.5,2.5,0,0,1,2.49,2.47l0.06,8.9a1.11,1.11,0,0,0,1.1,1.09h5.61a1.1,1.1,0,0,0,1.1-1.09l0.06-8.9a2.5,2.5,0,0,1,2.49-2.47h4.22a2.48,2.48,0,0,1,2.48,2.48v15.7a2.48,2.48,0,0,1-2.48,2.47" transform="translate(-5617.43 -2267.18)"/><path class="cls-1" d="M5625.57,2301.42a1.09,1.09,0,0,0-1.09,1.09v18a1.1,1.1,0,0,0,1.09,1.09h19.09a1.1,1.1,0,0,0,1.09-1.09v-3.16a1.1,1.1,0,0,0-1.1-1.1l-11.1-.05a2.5,2.5,0,0,1-2.47-2.49v-4.36a2.48,2.48,0,0,1,2.48-2.48h11.09a1.09,1.09,0,0,0,1.09-1.09v-3.23a1.09,1.09,0,0,0-1.09-1.09h-19.09Zm19.09,21.53h-19.09a2.48,2.48,0,0,1-2.48-2.48v-18a2.48,2.48,0,0,1,2.48-2.48h19.09a2.48,2.48,0,0,1,2.48,2.48v3.23a2.48,2.48,0,0,1-2.48,2.47h-11.09a1.09,1.09,0,0,0-1.09,1.09v4.36a1.1,1.1,0,0,0,1.1,1.1l11.09,0.05a2.49,2.49,0,0,1,2.47,2.48v3.16a2.48,2.48,0,0,1-2.48,2.48" transform="translate(-5617.43 -2267.18)"/><path class="cls-2" d="M5688.43,2307.91h4v-4h-4V2280h-4v23.9C5684.44,2307.91,5688.43,2307.91,5688.43,2307.91Z" transform="translate(-5617.43 -2267.18)"/><path class="cls-2" d="M5724.28,2280h-4s-4,0-4,4v23.9h4V2284h4v-4Z" transform="translate(-5617.43 -2267.18)"/><path class="cls-2" d="M5740.22,2303.93h-8V2280h-4v23.9c0,4,4,4,4,4h8s4,0,4-4V2280h-4v23.9Z" transform="translate(-5617.43 -2267.18)"/><path class="cls-2" d="M5760.14,2292h-8v-8h8v-4h-8s-4,0-4,4v8c0,4,4,4,4,4h8v8h-12v4h12c4,0,4-4,4-4v-8C5764.12,2292,5760.14,2292,5760.14,2292Z" transform="translate(-5617.43 -2267.18)"/><path class="cls-2" d="M5791.21,2303.93v-8s0-4-4-4h-8v-8h8v-4h-8c-4,0-4,4-4,4v8s0,4,4,4h8v8h-12v4h12C5791.21,2307.91,5791.21,2303.93,5791.21,2303.93Z" transform="translate(-5617.43 -2267.18)"/><path class="cls-2" d="M5795.19,2284v19.92c0,4,4,4,4,4h4v-4h-4V2284h4v-4h-4S5795.19,2280,5795.19,2284Z" transform="translate(-5617.43 -2267.18)"/><path class="cls-2" d="M5831,2280h-19.92s-4,0-4,4v23.9h4V2284h8v23.9h4V2284h8v23.9h4V2284C5835,2280,5831,2280,5831,2280Z" transform="translate(-5617.43 -2267.18)"/><path class="cls-2" d="M5712.33,2284c0-4-4-4-4-4h-8s-4,0-4,4v19.92c0,4,4,4,4,4h8s4,0,4-4V2284Zm-4,19.92h-8V2284h8v19.92Z" transform="translate(-5617.43 -2267.18)"/><rect class="cls-2" x="98.81" y="48.08" width="0.78" height="7.31"/><polygon class="cls-2" points="106.44 53.93 102.55 48.08 101.81 48.08 101.81 55.39 102.59 55.39 102.59 49.53 106.48 55.39 107.22 55.39 107.22 48.08 106.44 48.08 106.44 53.93"/><polygon class="cls-2" points="114.58 48.08 113.63 48.08 110.22 52.28 110.22 48.08 109.44 48.08 109.44 55.39 110.22 55.39 110.22 53.35 111.76 51.5 113.99 55.39 114.91 55.39 112.28 50.91 114.58 48.08"/><polygon class="cls-2" points="95.81 51.36 92.34 51.36 92.34 48.08 91.56 48.08 91.56 55.39 92.34 55.39 92.34 52.06 95.81 52.06 95.81 55.39 96.59 55.39 96.59 48.08 95.81 48.08 95.81 51.36"/><polygon class="cls-2" points="127.94 53.98 126.33 48.08 125.63 48.08 124.02 53.98 122.59 48.08 121.76 48.08 123.63 55.39 124.36 55.39 125.98 49.54 127.61 55.39 128.34 55.39 130.21 48.08 129.38 48.08 127.94 53.98"/><polygon class="cls-2" points="73.43 53.98 71.82 48.08 71.12 48.08 69.51 53.98 68.08 48.08 67.25 48.08 69.12 55.39 69.85 55.39 71.47 49.54 73.09 55.39 73.82 55.39 75.69 48.08 74.86 48.08 73.43 53.98"/><polygon class="cls-2" points="85.08 48.78 87.19 48.78 87.19 55.39 87.97 55.39 87.97 48.78 90.09 48.78 90.09 48.08 85.08 48.08 85.08 48.78"/><polygon class="cls-2" points="77.02 55.39 81.56 55.39 81.56 54.7 77.8 54.7 77.8 52.06 81 52.06 81 51.36 77.8 51.36 77.8 48.78 81.56 48.78 81.56 48.08 77.02 48.08 77.02 55.39"/><path class="cls-2" d="M5768.54,2315.2a2.59,2.59,0,0,0-1.87.76c-0.69.69-.69,1.41-0.69,3s0,2.27.69,3a2.68,2.68,0,0,0,3.74,0c0.69-.69.69-1.41,0.69-3s0-2.27-.69-3A2.59,2.59,0,0,0,5768.54,2315.2Zm1.27,6.22a1.79,1.79,0,0,1-2.53,0c-0.46-.47-0.51-1-0.51-2.5s0.05-2,.51-2.5a1.79,1.79,0,0,1,2.53,0c0.46,0.47.51,1,.51,2.5S5770.26,2320.94,5769.81,2321.41Z" transform="translate(-5617.43 -2267.18)"/><polygon class="cls-2" points="161.22 55.39 165.76 55.39 165.76 54.7 162 54.7 162 52.06 165.21 52.06 165.21 51.36 162 51.36 162 48.78 165.76 48.78 165.76 48.08 161.22 48.08 161.22 55.39"/><polygon class="cls-2" points="143.51 53.27 141.12 48.08 140.34 48.08 140.34 55.39 141.12 55.39 141.12 49.84 143.16 54.25 143.82 54.25 145.83 49.84 145.83 55.39 146.61 55.39 146.61 48.08 145.83 48.08 143.51 53.27"/><polygon class="cls-2" points="157.25 54 155.35 48.08 154.53 48.08 156.93 55.39 157.57 55.39 159.97 48.08 159.15 48.08 157.25 54"/><polygon class="cls-2" points="131.53 55.39 136.07 55.39 136.07 54.7 132.31 54.7 132.31 52.06 135.52 52.06 135.52 51.36 132.31 51.36 132.31 48.78 136.07 48.78 136.07 48.08 131.53 48.08 131.53 55.39"/><rect class="cls-2" x="116.83" y="51.42" width="3.18" height="0.64"/></svg>