<svg id="Layer_1" data-name="Layer 1" xmlns="http://www.w3.org/2000/svg" viewBox="0 0 942.01 429.34"><title>house</title><path d="M14309.16,5453.42" transform="translate(-13486.99 -5033.81)" style="fill:none;stroke:#ccc;stroke-miterlimit:10"/><path d="M14482,5315.86" transform="translate(-13486.99 -5033.81)" style="fill:none;stroke:#ccc;stroke-miterlimit:10;stroke-width:10px"/><polygon points="694.57 179.04 360.69 0.57 26.81 179.04 694.57 179.04" style="fill:none;stroke:#e2e71f;stroke-miterlimit:10"/><path d="M13727.62,5414.16" transform="translate(-13486.99 -5033.81)" style="fill:none;stroke:#e2e71f;stroke-miterlimit:10"/><path d="M13727.62,5463.16" transform="translate(-13486.99 -5033.81)" style="fill:none;stroke:#e2e71f;stroke-miterlimit:10"/><path d="M13967.75,5414.16" transform="translate(-13486.99 -5033.81)" style="fill:none;stroke:#e2e71f;stroke-miterlimit:10"/><path d="M13967.44,5414.16" transform="translate(-13486.99 -5033.81)" style="fill:none;stroke:#e2e71f;stroke-miterlimit:10"/><polyline points="0.5 429.34 0.5 380.34 720.57 380.34 720.57 429.34" style="fill:none;stroke:#e2e71f;stroke-miterlimit:10"/><path d="M13727.62,5463.16" transform="translate(-13486.99 -5033.81)" style="fill:none;stroke:#e2e71f;stroke-miterlimit:10"/><path d="M13727.62,5414.16" transform="translate(-13486.99 -5033.81)" style="fill:none;stroke:#e2e71f;stroke-miterlimit:10"/><line x1="83.5" y1="379.5" x2="83.5" y2="315.43" style="fill:none;stroke:#e2e71f;stroke-miterlimit:10"/><line x1="268.27" y1="325.34" x2="268.27" y2="369.59" style="fill:none;stroke:#e2e71f;stroke-miterlimit:10"/><line x1="268.27" y1="369.59" x2="268.27" y2="325.34" style="fill:none;stroke:#e2e71f;stroke-miterlimit:10"/><line x1="453.04" y1="325.34" x2="453.04" y2="369.59" style="fill:none;stroke:#e2e71f;stroke-miterlimit:10"/><line x1="452.8" y1="369.59" x2="452.8" y2="325.34" style="fill:none;stroke:#e2e71f;stroke-miterlimit:10"/><line x1="637.57" y1="315.43" x2="637.57" y2="379.5" style="fill:none;stroke:#e2e71f;stroke-miterlimit:10"/><line x1="242.39" y1="179.04" x2="242.39" y2="315.69" style="fill:none;stroke:#e2e71f;stroke-miterlimit:10"/><line x1="83.5" y1="315.69" x2="83.5" y2="179.04" style="fill:none;stroke:#e2e71f;stroke-miterlimit:10"/><line x1="432.75" y1="179.04" x2="432.75" y2="315.69" style="fill:none;stroke:#e2e71f;stroke-miterlimit:10"/><line x1="288.56" y1="315.69" x2="288.56" y2="179.04" style="fill:none;stroke:#e2e71f;stroke-miterlimit:10"/><line x1="637.57" y1="179.04" x2="637.57" y2="315.69" style="fill:none;stroke:#e2e71f;stroke-miterlimit:10"/><line x1="476.53" y1="315.69" x2="476.53" y2="179.04" style="fill:none;stroke:#e2e71f;stroke-miterlimit:10"/><path d="M13538.39,5434v9.44h-1.22V5435h-4.38v8.42h-1.22V5434h6.82Z" transform="translate(-13486.99 -5033.81)"/><path d="M13540.27,5438.88c0-.87,0-1.57-0.06-2.21h1.11l0.06,1.16h0a2.67,2.67,0,0,1,2.41-1.32c1.64,0,2.87,1.39,2.87,3.45,0,2.44-1.49,3.64-3.08,3.64a2.38,2.38,0,0,1-2.09-1.06h0v3.68h-1.22v-7.34Zm1.22,1.81a2.83,2.83,0,0,0,.06.5,1.9,1.9,0,0,0,1.85,1.44c1.3,0,2.06-1.06,2.06-2.62,0-1.36-.71-2.52-2-2.52a2,2,0,0,0-1.86,1.53,2,2,0,0,0-.08.5v1.16Z" transform="translate(-13486.99 -5033.81)"/><path d="M13549.29,5436.66v2.86c0,1.08,0,1.75-.07,2.72h0c0.41-.83.64-1.3,1.09-2.09l2.12-3.5h1.44v6.78h-1.18v-2.87c0-1.11,0-1.68.08-2.77h0c-0.43.87-.73,1.41-1.12,2.1-0.64,1.05-1.39,2.35-2.12,3.54h-1.42v-6.78h1.16Z" transform="translate(-13486.99 -5033.81)"/><path d="M13561.94,5440a3.31,3.31,0,0,1-3.38,3.6,3.22,3.22,0,0,1-3.25-3.49,3.31,3.31,0,0,1,3.36-3.6A3.21,3.21,0,0,1,13561.94,5440Zm-5.38.07c0,1.48.85,2.61,2.06,2.61s2.06-1.11,2.06-2.63c0-1.15-.57-2.61-2-2.61S13556.56,5438.78,13556.56,5440.07Z" transform="translate(-13486.99 -5033.81)"/><path d="M13563.32,5438.88c0-.87,0-1.57-0.06-2.21h1.11l0.06,1.16h0a2.67,2.67,0,0,1,2.41-1.32c1.64,0,2.87,1.39,2.87,3.45,0,2.44-1.49,3.64-3.08,3.64a2.38,2.38,0,0,1-2.09-1.06h0v3.68h-1.22v-7.34Zm1.22,1.81a2.83,2.83,0,0,0,.06.5,1.9,1.9,0,0,0,1.85,1.44c1.3,0,2.06-1.06,2.06-2.62,0-1.36-.71-2.52-2-2.52a2,2,0,0,0-1.86,1.53,2,2,0,0,0-.08.5v1.16Z" transform="translate(-13486.99 -5033.81)"/><path d="M13572.33,5436.66v2.86c0,1.08,0,1.75-.07,2.72h0c0.41-.83.64-1.3,1.09-2.09l2.12-3.5h1.44v6.78h-1.18v-2.87c0-1.11,0-1.68.08-2.77h0c-0.43.87-.73,1.41-1.12,2.1-0.64,1.05-1.39,2.35-2.12,3.54h-1.42v-6.78h1.16Z" transform="translate(-13486.99 -5033.81)"/><path d="M13583.46,5436.66v1h-2.12v5.8h-1.22v-5.8H13578v-1h5.45Z" transform="translate(-13486.99 -5033.81)"/><path d="M13585.15,5440.28a2.17,2.17,0,0,0,2.33,2.35,4.45,4.45,0,0,0,1.88-.35l0.21,0.88a5.48,5.48,0,0,1-2.25.42,3.15,3.15,0,0,1-3.33-3.42c0-2,1.21-3.66,3.18-3.66,2.21,0,2.8,1.95,2.8,3.19a4.73,4.73,0,0,1,0,.57h-4.76Zm3.61-.88a1.76,1.76,0,0,0-1.71-2,2,2,0,0,0-1.89,2h3.6Z" transform="translate(-13486.99 -5033.81)"/><path d="M13596,5436.66v1h-2.11v5.8h-1.22v-5.8h-2.12v-1h5.45Z" transform="translate(-13486.99 -5033.81)"/><path d="M13598.29,5436.66V5439a5.81,5.81,0,0,1,1.11-.08c1.46,0,2.93.6,2.93,2.27a1.92,1.92,0,0,1-.7,1.57,4.27,4.27,0,0,1-2.73.78,16.9,16.9,0,0,1-1.82-.1v-6.75h1.22Zm0,5.93a6.91,6.91,0,0,0,.85.06c0.94,0,2-.39,2-1.44s-1-1.43-1.9-1.43a5.62,5.62,0,0,0-.91.07v2.75Zm6.11-5.93v6.78h-1.22v-6.78h1.22Z" transform="translate(-13486.99 -5033.81)"/><path d="M13610.59,5436.66v2.94h0.29l2.55-2.94h1.5l-3,3.07c1.09,0.11,1.75.84,2.28,2.06a14.33,14.33,0,0,0,.73,1.65h-1.29a9,9,0,0,1-.63-1.39,2.2,2.2,0,0,0-2.24-1.6h-0.24v3h-1.22v-6.78h1.22Z" transform="translate(-13486.99 -5033.81)"/><path d="M13621.57,5436.66v6.78h-1.22v-5.81H13618v1.76c0,1.91-.18,3.18-1.06,3.75a2,2,0,0,1-1.34.42l-0.13-1a1.52,1.52,0,0,0,.67-0.28c0.63-.46.7-1.41,0.7-2.93v-2.73h4.71Z" transform="translate(-13486.99 -5033.81)"/><path d="M13624.56,5436.66v2.86c0,1.08,0,1.75-.07,2.72h0c0.41-.83.64-1.3,1.09-2.09l2.12-3.5h1.44v6.78H13628v-2.87c0-1.11,0-1.68.08-2.77h0c-0.43.87-.73,1.41-1.12,2.1-0.64,1.05-1.39,2.35-2.12,3.54h-1.42v-6.78h1.16Z" transform="translate(-13486.99 -5033.81)"/><path d="M13631.76,5440.28a2.17,2.17,0,0,0,2.33,2.35,4.45,4.45,0,0,0,1.88-.35l0.21,0.88a5.48,5.48,0,0,1-2.25.42,3.15,3.15,0,0,1-3.33-3.42c0-2,1.21-3.66,3.18-3.66,2.21,0,2.8,1.95,2.8,3.19a4.73,4.73,0,0,1,0,.57h-4.76Zm3.61-.88a1.76,1.76,0,0,0-1.71-2,2,2,0,0,0-1.89,2h3.6Z" transform="translate(-13486.99 -5033.81)"/><path d="M13639.16,5436.66v2.73h3.22v-2.73h1.22v6.78h-1.22v-3.07h-3.22v3.07h-1.22v-6.78h1.22Z" transform="translate(-13486.99 -5033.81)"/><path d="M13650.11,5436.66v1H13648v5.8h-1.22v-5.8h-2.12v-1h5.45Z" transform="translate(-13486.99 -5033.81)"/><path d="M13655,5443.44l-0.1-.85h0a2.52,2.52,0,0,1-2.07,1,1.93,1.93,0,0,1-2.07-1.95c0-1.64,1.46-2.54,4.08-2.52V5439a1.4,1.4,0,0,0-1.54-1.57,3.38,3.38,0,0,0-1.76.5l-0.28-.81a4.21,4.21,0,0,1,2.23-.6c2.07,0,2.58,1.41,2.58,2.77v2.54a9.55,9.55,0,0,0,.11,1.63H13655Zm-0.18-3.46c-1.34,0-2.87.21-2.87,1.53a1.09,1.09,0,0,0,1.16,1.18,1.69,1.69,0,0,0,1.64-1.13,1.29,1.29,0,0,0,.07-0.39V5440Z" transform="translate(-13486.99 -5033.81)"/><path d="M13637.78,5386a6,6,0,0,1-2.49.45,4.41,4.41,0,0,1-4.67-4.78,4.7,4.7,0,0,1,4.93-5,5.05,5.05,0,0,1,2.24.42l-0.29,1a4.44,4.44,0,0,0-1.91-.39c-2.21,0-3.68,1.42-3.68,3.89,0,2.31,1.33,3.8,3.63,3.8a4.88,4.88,0,0,0,2-.39Z" transform="translate(-13486.99 -5033.81)"/><path d="M13643,5379.5v1h-2.12v5.8h-1.22v-5.8h-2.12v-1h5.45Z" transform="translate(-13486.99 -5033.81)"/><path d="M13647.8,5386.28l-0.1-.85h0a2.53,2.53,0,0,1-2.07,1,1.93,1.93,0,0,1-2.07-1.95c0-1.64,1.46-2.54,4.08-2.52v-0.14a1.4,1.4,0,0,0-1.54-1.57,3.38,3.38,0,0,0-1.76.5l-0.28-.81a4.21,4.21,0,0,1,2.23-.6c2.07,0,2.58,1.41,2.58,2.77v2.54a9.55,9.55,0,0,0,.11,1.63h-1.12Zm-0.18-3.46c-1.34,0-2.87.21-2.87,1.53a1.09,1.09,0,0,0,1.16,1.18,1.69,1.69,0,0,0,1.64-1.13,1.29,1.29,0,0,0,.07-0.39v-1.18Z" transform="translate(-13486.99 -5033.81)"/><path d="M13651.8,5379.5v2.73h3.22v-2.73h1.22v6.78H13655v-3.07h-3.22v3.07h-1.22v-6.78h1.22Z" transform="translate(-13486.99 -5033.81)"/><path d="M13663.45,5379.5v5.86h0.7l-0.07,3.07h-1l-0.06-2.16h-4.69l-0.06,2.16h-1l-0.06-3.07h0.57a5.28,5.28,0,0,0,.67-1.39,8.94,8.94,0,0,0,.39-2.7v-1.77h4.52Zm-3.43,2.06a9,9,0,0,1-.35,2.52,6.44,6.44,0,0,1-.55,1.26h3.12v-4.9H13660v1.12Z" transform="translate(-13486.99 -5033.81)"/><path d="M13669.33,5386.28l-0.1-.85h0a2.53,2.53,0,0,1-2.07,1,1.93,1.93,0,0,1-2.07-1.95c0-1.64,1.46-2.54,4.08-2.52v-0.14a1.4,1.4,0,0,0-1.54-1.57,3.38,3.38,0,0,0-1.76.5l-0.28-.81a4.21,4.21,0,0,1,2.23-.6c2.07,0,2.58,1.41,2.58,2.77v2.54a9.55,9.55,0,0,0,.11,1.63h-1.12Zm-0.18-3.46c-1.34,0-2.87.21-2.87,1.53a1.09,1.09,0,0,0,1.16,1.18,1.69,1.69,0,0,0,1.64-1.13,1.29,1.29,0,0,0,.07-0.39v-1.18Z" transform="translate(-13486.99 -5033.81)"/><path d="M13672.12,5381.71c0-.87,0-1.57-0.06-2.21h1.11l0.06,1.16h0a2.67,2.67,0,0,1,2.41-1.32c1.64,0,2.87,1.39,2.87,3.45,0,2.44-1.49,3.64-3.08,3.64a2.38,2.38,0,0,1-2.09-1.06h0v3.68h-1.22v-7.34Zm1.22,1.81a2.83,2.83,0,0,0,.06.5,1.9,1.9,0,0,0,1.85,1.44c1.3,0,2.06-1.06,2.06-2.62,0-1.36-.71-2.52-2-2.52a2,2,0,0,0-1.86,1.53,2,2,0,0,0-.08.5v1.16Z" transform="translate(-13486.99 -5033.81)"/><path d="M13684.56,5379.5v1h-2.12v5.8h-1.22v-5.8h-2.12v-1h5.45Z" transform="translate(-13486.99 -5033.81)"/><path d="M13686.84,5379.5v2.31a5.81,5.81,0,0,1,1.11-.08c1.46,0,2.93.6,2.93,2.27a1.92,1.92,0,0,1-.7,1.57,4.27,4.27,0,0,1-2.73.78,16.9,16.9,0,0,1-1.82-.1v-6.75h1.22Zm0,5.93a6.91,6.91,0,0,0,.85.06c0.94,0,2-.39,2-1.44s-1-1.43-1.9-1.43a5.62,5.62,0,0,0-.91.07v2.75Zm6.11-5.93v6.78h-1.22v-6.78h1.22Z" transform="translate(-13486.99 -5033.81)"/><path d="M13711.1,5137.61v9.44h-1.23v-8.42h-3.12v2.86c0,2-.08,4.33-1.42,5.23a2.84,2.84,0,0,1-1.44.45l-0.15-1a2.16,2.16,0,0,0,1-.5c0.76-.74.83-2.58,0.83-4.09v-4h5.55Z" transform="translate(-13486.99 -5033.81)"/><path d="M13713.53,5140.28l1.49,4c0.15,0.45.32,1,.43,1.39h0c0.13-.41.27-0.92,0.43-1.42l1.34-4h1.3l-1.85,4.83c-0.88,2.33-1.48,3.52-2.33,4.24a3.34,3.34,0,0,1-1.51.8l-0.31-1a3.26,3.26,0,0,0,1.08-.6,3.75,3.75,0,0,0,1-1.37,0.87,0.87,0,0,0,.1-0.29,1.08,1.08,0,0,0-.08-0.32l-2.51-6.25h1.34Z" transform="translate(-13486.99 -5033.81)"/><path d="M13720.78,5140.28v2.23a1.24,1.24,0,0,0,1.4,1.44,2.55,2.55,0,0,0,1.46-.48v-3.19h1.22v6.78h-1.22v-2.72h0a3.56,3.56,0,0,1-1.83.52,2,2,0,0,1-2.23-2.21v-2.37h1.23Z" transform="translate(-13486.99 -5033.81)"/><path d="M13727.88,5140.28v5.81h2.37v-5.81h1.21v5.81h2.37v-5.81h1.22v6.78h-8.36v-6.78h1.21Z" transform="translate(-13486.99 -5033.81)"/><path d="M13737.64,5143.89a2.17,2.17,0,0,0,2.33,2.35,4.45,4.45,0,0,0,1.88-.35l0.21,0.88a5.48,5.48,0,0,1-2.25.42,3.15,3.15,0,0,1-3.33-3.42c0-2,1.21-3.66,3.18-3.66,2.21,0,2.8,1.95,2.8,3.19a4.73,4.73,0,0,1,0,.57h-4.76Zm3.61-.88a1.76,1.76,0,0,0-1.71-2,2,2,0,0,0-1.89,2h3.6Z" transform="translate(-13486.99 -5033.81)"/><path d="M13744.63,5143.89a2.17,2.17,0,0,0,2.33,2.35,4.45,4.45,0,0,0,1.88-.35l0.21,0.88a5.48,5.48,0,0,1-2.25.42,3.15,3.15,0,0,1-3.33-3.42c0-2,1.21-3.66,3.18-3.66,2.21,0,2.8,1.95,2.8,3.19a4.73,4.73,0,0,1,0,.57h-4.76Zm3.61-.88a1.76,1.76,0,0,0-1.71-2,2,2,0,0,0-1.89,2h3.6Z" transform="translate(-13486.99 -5033.81)"/><path d="M13755.14,5140.28v2.94h0.29l2.55-2.94h1.5l-3,3.07c1.09,0.11,1.75.84,2.28,2.06a14.33,14.33,0,0,0,.73,1.65h-1.29a9,9,0,0,1-.63-1.39,2.2,2.2,0,0,0-2.24-1.6h-0.24v3h-1.22v-6.78h1.22Z" transform="translate(-13486.99 -5033.81)"/><path d="M13764.34,5147.06l-0.1-.85h0a2.52,2.52,0,0,1-2.07,1,1.93,1.93,0,0,1-2.07-1.95c0-1.64,1.46-2.54,4.08-2.52v-0.14a1.4,1.4,0,0,0-1.54-1.57,3.38,3.38,0,0,0-1.76.5l-0.28-.81a4.21,4.21,0,0,1,2.23-.6c2.07,0,2.58,1.41,2.58,2.77v2.54a9.55,9.55,0,0,0,.11,1.63h-1.12Zm-0.18-3.46c-1.34,0-2.87.21-2.87,1.53a1.09,1.09,0,0,0,1.16,1.18,1.69,1.69,0,0,0,1.64-1.13,1.29,1.29,0,0,0,.07-0.39v-1.18Z" transform="translate(-13486.99 -5033.81)"/><path d="M13768,5140.28v2.23a1.24,1.24,0,0,0,1.4,1.44,2.55,2.55,0,0,0,1.46-.48v-3.19h1.22v6.78h-1.22v-2.72h0a3.56,3.56,0,0,1-1.83.52,2,2,0,0,1-2.23-2.21v-2.37h1.23Z" transform="translate(-13486.99 -5033.81)"/><path d="M13774.67,5143.89a2.17,2.17,0,0,0,2.33,2.35,4.45,4.45,0,0,0,1.88-.35l0.21,0.88a5.48,5.48,0,0,1-2.25.42,3.15,3.15,0,0,1-3.33-3.42c0-2,1.21-3.66,3.18-3.66,2.21,0,2.8,1.95,2.8,3.19a4.73,4.73,0,0,1,0,.57h-4.76Zm3.61-.88a1.76,1.76,0,0,0-1.71-2,2,2,0,0,0-1.89,2h3.6Z" transform="translate(-13486.99 -5033.81)"/><path d="M13785.8,5146.8a4.55,4.55,0,0,1-1.95.39,3.22,3.22,0,0,1-3.38-3.46,3.44,3.44,0,0,1,3.64-3.6,4.11,4.11,0,0,1,1.71.35l-0.28,1a2.86,2.86,0,0,0-1.43-.32,2.56,2.56,0,0,0,0,5.1,3.5,3.5,0,0,0,1.51-.34Z" transform="translate(-13486.99 -5033.81)"/><path d="M13792,5140.28v1h-2.12v5.8h-1.22v-5.8h-2.12v-1h5.45Z" transform="translate(-13486.99 -5033.81)"/><path d="M13793.09,5140.36a14.47,14.47,0,0,1,2.16-.15c1.13,0,3,.18,3,1.69a1.6,1.6,0,0,1-1.41,1.53v0a1.73,1.73,0,0,1,1.72,1.68c0,1.78-2.24,2-3.57,2-0.76,0-1.54-.06-1.91-0.08v-6.7Zm1.16,5.88a7.47,7.47,0,0,0,1,.06c0.83,0,2.06-.2,2.06-1.18s-1-1.19-2.16-1.19h-0.9v2.31Zm0-3.12h0.92c0.91,0,1.85-.27,1.85-1.06s-0.59-1-1.82-1a8.79,8.79,0,0,0-1,.06v2Z" transform="translate(-13486.99 -5033.81)"/><path d="M13806.17,5143.61a3.31,3.31,0,0,1-3.38,3.6,3.22,3.22,0,0,1-3.25-3.49,3.31,3.31,0,0,1,3.36-3.6A3.21,3.21,0,0,1,13806.17,5143.61Zm-5.38.07c0,1.48.85,2.61,2.06,2.61s2.06-1.11,2.06-2.63c0-1.15-.57-2.61-2-2.61S13800.79,5142.39,13800.79,5143.68Z" transform="translate(-13486.99 -5033.81)"/><path d="M13604.11,5186.07v9.44h-1.23v-8.42h-3.12V5190c0,2-.08,4.33-1.41,5.23a2.84,2.84,0,0,1-1.44.45l-0.15-1a2.16,2.16,0,0,0,1-.5c0.76-.74.83-2.58,0.83-4.09v-4h5.55Z" transform="translate(-13486.99 -5033.81)"/><path d="M13606.54,5188.74l1.49,4c0.15,0.45.32,1,.43,1.39h0c0.13-.41.27-0.92,0.43-1.42l1.34-4h1.3l-1.85,4.83c-0.88,2.33-1.48,3.52-2.33,4.24a3.34,3.34,0,0,1-1.51.8l-0.31-1a3.26,3.26,0,0,0,1.08-.6,3.75,3.75,0,0,0,1-1.37,0.87,0.87,0,0,0,.1-0.29,1.08,1.08,0,0,0-.08-0.32l-2.51-6.25h1.34Z" transform="translate(-13486.99 -5033.81)"/><path d="M13613.79,5188.74V5191a1.24,1.24,0,0,0,1.4,1.44,2.55,2.55,0,0,0,1.46-.48v-3.19h1.22v6.78h-1.22v-2.72h0a3.56,3.56,0,0,1-1.83.52,2,2,0,0,1-2.23-2.21v-2.37h1.23Z" transform="translate(-13486.99 -5033.81)"/><path d="M13620.89,5188.74v5.81h2.37v-5.81h1.21v5.81h2.37v-5.81h1.22v6.78h-8.36v-6.78h1.21Z" transform="translate(-13486.99 -5033.81)"/><path d="M13633.67,5195.52l-0.1-.85h0a2.52,2.52,0,0,1-2.07,1,1.93,1.93,0,0,1-2.07-1.95c0-1.64,1.46-2.54,4.08-2.52v-0.14a1.4,1.4,0,0,0-1.54-1.57,3.38,3.38,0,0,0-1.76.5l-0.28-.81a4.21,4.21,0,0,1,2.23-.6c2.07,0,2.58,1.41,2.58,2.77v2.54a9.55,9.55,0,0,0,.11,1.63h-1.12Zm-0.18-3.46c-1.34,0-2.87.21-2.87,1.53a1.09,1.09,0,0,0,1.16,1.18,1.69,1.69,0,0,0,1.64-1.13,1.29,1.29,0,0,0,.07-0.39v-1.18Z" transform="translate(-13486.99 -5033.81)"/><path d="M13641.59,5195.52h-1.22v-2.84h-0.91a1.6,1.6,0,0,0-1.13.38,4.71,4.71,0,0,0-1,1.9,4.19,4.19,0,0,1-.28.56h-1.32a4.39,4.39,0,0,0,.42-0.77,5.2,5.2,0,0,1,1.06-2,1.62,1.62,0,0,1,.77-0.39v0a1.8,1.8,0,0,1-1.79-1.68,1.63,1.63,0,0,1,.9-1.47,4.75,4.75,0,0,1,2.27-.46,18.91,18.91,0,0,1,2.18.14v6.72Zm-1.22-6a6.9,6.9,0,0,0-1-.07c-0.84,0-1.83.24-1.83,1.18s1.08,1.18,1.81,1.18h1.05v-2.28Z" transform="translate(-13486.99 -5033.81)"/><path d="M13651.68,5186.44a9.24,9.24,0,0,1-1.42.31,3.32,3.32,0,0,0-2.41,1.27,4.83,4.83,0,0,0-.74,2.24h0a2.57,2.57,0,0,1,2.35-1.53c1.67,0,2.88,1.19,2.88,3.35s-1.15,3.59-3.14,3.59c-2.38,0-3.17-2.28-3.17-4.54a6,6,0,0,1,1.05-3.75,4.07,4.07,0,0,1,2.91-1.6,9.84,9.84,0,0,0,1.68-.36Zm-2.42,3.21a1.65,1.65,0,0,0-1.53.92,3,3,0,0,0-.34,1.44c0,1.12.55,2.73,1.89,2.73s1.86-1.32,1.86-2.56S13650.72,5189.65,13649.26,5189.65Z" transform="translate(-13486.99 -5033.81)"/><path d="M13654.6,5192.35a2.17,2.17,0,0,0,2.33,2.35,4.45,4.45,0,0,0,1.88-.35l0.21,0.88a5.48,5.48,0,0,1-2.25.42,3.15,3.15,0,0,1-3.33-3.42c0-2,1.21-3.66,3.18-3.66,2.21,0,2.8,1.95,2.8,3.19a4.73,4.73,0,0,1,0,.57h-4.76Zm3.61-.88a1.76,1.76,0,0,0-1.71-2,2,2,0,0,0-1.89,2h3.6Z" transform="translate(-13486.99 -5033.81)"/><path d="M13661.33,5191.58h0.59c1,0,1.74-.48,1.74-1.11a1.12,1.12,0,0,0-1.32-1,3.27,3.27,0,0,0-1.64.48l-0.31-.76a4.3,4.3,0,0,1,2.25-.62c1,0,2.3.46,2.3,1.78a1.73,1.73,0,0,1-1.53,1.54v0a1.8,1.8,0,0,1,1.85,1.69c0,1.47-1.5,2-2.93,2a4.64,4.64,0,0,1-2.2-.55l0.32-.83a3.91,3.91,0,0,0,1.79.46c1,0,1.67-.49,1.67-1.16,0-.91-1-1.16-2-1.16h-0.62v-0.84Z" transform="translate(-13486.99 -5033.81)"/><path d="M13672.86,5192.07a3.31,3.31,0,0,1-3.38,3.6,3.22,3.22,0,0,1-3.25-3.49,3.31,3.31,0,0,1,3.36-3.6A3.21,3.21,0,0,1,13672.86,5192.07Zm-5.38.07c0,1.48.85,2.61,2.06,2.61s2.06-1.11,2.06-2.63c0-1.15-.57-2.61-2-2.61S13667.48,5190.85,13667.48,5192.14Z" transform="translate(-13486.99 -5033.81)"/><path d="M13679.87,5188.74v6.78h-1.23v-5.8h-3.15v5.8h-1.22v-6.78h5.6Z" transform="translate(-13486.99 -5033.81)"/><path d="M13685.47,5195.52l-0.1-.85h0a2.53,2.53,0,0,1-2.07,1,1.93,1.93,0,0,1-2.07-1.95c0-1.64,1.46-2.54,4.08-2.52v-0.14a1.4,1.4,0,0,0-1.54-1.57,3.38,3.38,0,0,0-1.76.5l-0.28-.81a4.21,4.21,0,0,1,2.23-.6c2.07,0,2.58,1.41,2.58,2.77v2.54a9.55,9.55,0,0,0,.11,1.63h-1.12Zm-0.18-3.46c-1.34,0-2.87.21-2.87,1.53a1.09,1.09,0,0,0,1.16,1.18,1.69,1.69,0,0,0,1.64-1.13,1.29,1.29,0,0,0,.07-0.39v-1.18Z" transform="translate(-13486.99 -5033.81)"/><path d="M13693.09,5195.26a4.55,4.55,0,0,1-1.95.39,3.22,3.22,0,0,1-3.38-3.46,3.44,3.44,0,0,1,3.64-3.6,4.11,4.11,0,0,1,1.71.35l-0.28,1a2.86,2.86,0,0,0-1.43-.32,2.56,2.56,0,0,0,0,5.1,3.5,3.5,0,0,0,1.51-.34Z" transform="translate(-13486.99 -5033.81)"/><path d="M13695.51,5188.74v2.73h3.22v-2.73h1.22v6.78h-1.22v-3.07h-3.22v3.07h-1.22v-6.78h1.22Z" transform="translate(-13486.99 -5033.81)"/><path d="M13708,5192.07a3.31,3.31,0,0,1-3.38,3.6,3.22,3.22,0,0,1-3.25-3.49,3.31,3.31,0,0,1,3.36-3.6A3.21,3.21,0,0,1,13708,5192.07Zm-5.38.07c0,1.48.85,2.61,2.06,2.61s2.06-1.11,2.06-2.63c0-1.15-.57-2.61-2-2.61S13702.61,5190.85,13702.61,5192.14Z" transform="translate(-13486.99 -5033.81)"/><path d="M13714.33,5195.26a4.55,4.55,0,0,1-1.95.39,3.22,3.22,0,0,1-3.38-3.46,3.44,3.44,0,0,1,3.64-3.6,4.11,4.11,0,0,1,1.71.35l-0.28,1a2.86,2.86,0,0,0-1.43-.32,2.56,2.56,0,0,0,0,5.1,3.5,3.5,0,0,0,1.51-.34Z" transform="translate(-13486.99 -5033.81)"/><path d="M13720.57,5188.74v1h-2.12v5.8h-1.22v-5.8h-2.12v-1h5.45Z" transform="translate(-13486.99 -5033.81)"/><path d="M13722.84,5188.74v2.3a6.86,6.86,0,0,1,1.12-.07c1.53,0,3.14.48,3.14,2.28a1.92,1.92,0,0,1-.71,1.55,4.71,4.71,0,0,1-2.94.78,16.9,16.9,0,0,1-1.82-.1v-6.75h1.22Zm0,5.93a7.16,7.16,0,0,0,.91.06c0.92,0,2.12-.31,2.12-1.44s-1.23-1.43-2.14-1.43a5.79,5.79,0,0,0-.88.07v2.75Z" transform="translate(-13486.99 -5033.81)"/><path d="M13809,5186.07v9.44h-1.23v-8.42h-3.12V5190c0,2-.08,4.33-1.42,5.23a2.84,2.84,0,0,1-1.44.45l-0.15-1a2.16,2.16,0,0,0,1-.5c0.76-.74.83-2.58,0.83-4.09v-4h5.55Z" transform="translate(-13486.99 -5033.81)"/><path d="M13811.4,5188.74l1.49,4c0.15,0.45.32,1,.43,1.39h0c0.13-.41.27-0.92,0.43-1.42l1.34-4h1.3l-1.85,4.83c-0.88,2.33-1.48,3.52-2.33,4.24a3.34,3.34,0,0,1-1.51.8l-0.31-1a3.26,3.26,0,0,0,1.08-.6,3.75,3.75,0,0,0,1-1.37,0.87,0.87,0,0,0,.1-0.29,1.08,1.08,0,0,0-.08-0.32l-2.51-6.25h1.34Z" transform="translate(-13486.99 -5033.81)"/><path d="M13818.65,5188.74V5191a1.24,1.24,0,0,0,1.4,1.44,2.55,2.55,0,0,0,1.46-.48v-3.19h1.22v6.78h-1.22v-2.72h0a3.56,3.56,0,0,1-1.83.52,2,2,0,0,1-2.23-2.21v-2.37h1.23Z" transform="translate(-13486.99 -5033.81)"/><path d="M13825.75,5188.74v5.81h2.37v-5.81h1.21v5.81h2.37v-5.81h1.22v6.78h-8.36v-6.78h1.21Z" transform="translate(-13486.99 -5033.81)"/><path d="M13835.89,5188.74v2.86c0,1.08,0,1.75-.07,2.72h0c0.41-.83.64-1.3,1.09-2.09l2.12-3.5h1.44v6.78h-1.18v-2.87c0-1.11,0-1.68.08-2.77h0c-0.43.87-.73,1.41-1.12,2.1-0.64,1.05-1.39,2.35-2.12,3.54h-1.42v-6.78h1.16Z" transform="translate(-13486.99 -5033.81)"/><path d="M13843.09,5192.35a2.17,2.17,0,0,0,2.33,2.35,4.45,4.45,0,0,0,1.88-.35l0.21,0.88a5.48,5.48,0,0,1-2.25.42,3.15,3.15,0,0,1-3.33-3.42c0-2,1.21-3.66,3.18-3.66,2.21,0,2.8,1.95,2.8,3.19a4.73,4.73,0,0,1,0,.57h-4.76Zm3.61-.88a1.76,1.76,0,0,0-1.71-2,2,2,0,0,0-1.89,2h3.6Z" transform="translate(-13486.99 -5033.81)"/><path d="M13857.22,5195.26a4.55,4.55,0,0,1-1.95.39,3.22,3.22,0,0,1-3.38-3.46,3.44,3.44,0,0,1,3.64-3.6,4.11,4.11,0,0,1,1.71.35l-0.28,1a2.86,2.86,0,0,0-1.43-.32,2.56,2.56,0,0,0,0,5.1,3.5,3.5,0,0,0,1.51-.34Z" transform="translate(-13486.99 -5033.81)"/><path d="M13858.47,5190.95c0-.87,0-1.57-0.06-2.21h1.11l0.06,1.16h0a2.67,2.67,0,0,1,2.41-1.32c1.64,0,2.87,1.39,2.87,3.45,0,2.44-1.49,3.64-3.08,3.64a2.38,2.38,0,0,1-2.09-1.06h0v3.68h-1.22v-7.34Zm1.22,1.81a2.83,2.83,0,0,0,.06.5,1.9,1.9,0,0,0,1.85,1.44c1.3,0,2.06-1.06,2.06-2.62,0-1.36-.71-2.52-2-2.52a2,2,0,0,0-1.86,1.53,2,2,0,0,0-.08.5v1.16Z" transform="translate(-13486.99 -5033.81)"/><path d="M13872.53,5192.07a3.31,3.31,0,0,1-3.38,3.6,3.22,3.22,0,0,1-3.25-3.49,3.31,3.31,0,0,1,3.36-3.6A3.21,3.21,0,0,1,13872.53,5192.07Zm-5.38.07c0,1.48.85,2.61,2.06,2.61s2.06-1.11,2.06-2.63c0-1.15-.57-2.61-2-2.61S13867.15,5190.85,13867.15,5192.14Z" transform="translate(-13486.99 -5033.81)"/><path d="M13875.17,5188.74v2.94h0.29l2.55-2.94h1.5l-3,3.07c1.09,0.11,1.75.84,2.28,2.06a14.33,14.33,0,0,0,.73,1.65h-1.29a9,9,0,0,1-.63-1.39,2.2,2.2,0,0,0-2.24-1.6h-0.24v3H13874v-6.78h1.22Z" transform="translate(-13486.99 -5033.81)"/><path d="M13881.76,5188.74v2.86c0,1.08,0,1.75-.07,2.72h0c0.41-.83.64-1.3,1.09-2.09l2.12-3.5h1.44v6.78h-1.18v-2.87c0-1.11,0-1.68.08-2.77h0c-0.43.87-.73,1.41-1.12,2.1-0.64,1.05-1.39,2.35-2.12,3.54h-1.42v-6.78h1.16Z" transform="translate(-13486.99 -5033.81)"/><path d="M13980.72,5186.07v9.44h-1.23v-8.42h-3.12V5190c0,2-.08,4.33-1.42,5.23a2.84,2.84,0,0,1-1.44.45l-0.15-1a2.16,2.16,0,0,0,1-.5c0.76-.74.83-2.58,0.83-4.09v-4h5.55Z" transform="translate(-13486.99 -5033.81)"/><path d="M13983.14,5188.74l1.49,4c0.15,0.45.32,1,.43,1.39h0c0.13-.41.27-0.92,0.43-1.42l1.34-4h1.3l-1.85,4.83c-0.88,2.33-1.48,3.52-2.33,4.24a3.34,3.34,0,0,1-1.51.8l-0.31-1a3.26,3.26,0,0,0,1.08-.6,3.75,3.75,0,0,0,1-1.37,0.87,0.87,0,0,0,.1-0.29,1.08,1.08,0,0,0-.08-0.32l-2.51-6.25h1.34Z" transform="translate(-13486.99 -5033.81)"/><path d="M13990.4,5188.74V5191a1.24,1.24,0,0,0,1.4,1.44,2.55,2.55,0,0,0,1.46-.48v-3.19h1.22v6.78h-1.22v-2.72h0a3.56,3.56,0,0,1-1.83.52,2,2,0,0,1-2.23-2.21v-2.37h1.23Z" transform="translate(-13486.99 -5033.81)"/><path d="M13997.5,5188.74v5.81h2.37v-5.81h1.21v5.81h2.37v-5.81h1.22v6.78h-8.36v-6.78h1.21Z" transform="translate(-13486.99 -5033.81)"/><path d="M14010.28,5195.52l-0.1-.85h0a2.53,2.53,0,0,1-2.07,1,1.93,1.93,0,0,1-2.07-1.95c0-1.64,1.46-2.54,4.08-2.52v-0.14a1.4,1.4,0,0,0-1.54-1.57,3.38,3.38,0,0,0-1.76.5l-0.28-.81a4.21,4.21,0,0,1,2.23-.6c2.07,0,2.58,1.41,2.58,2.77v2.54a9.55,9.55,0,0,0,.11,1.63h-1.12Zm-0.18-3.46c-1.34,0-2.87.21-2.87,1.53a1.09,1.09,0,0,0,1.16,1.18,1.69,1.69,0,0,0,1.64-1.13,1.29,1.29,0,0,0,.07-0.39v-1.18Z" transform="translate(-13486.99 -5033.81)"/><path d="M14018.2,5195.52H14017v-2.84h-0.91a1.6,1.6,0,0,0-1.13.38,4.69,4.69,0,0,0-1,1.9,4.08,4.08,0,0,1-.28.56h-1.32a4.39,4.39,0,0,0,.42-0.77,5.2,5.2,0,0,1,1.06-2,1.62,1.62,0,0,1,.77-0.39v0a1.8,1.8,0,0,1-1.79-1.68,1.63,1.63,0,0,1,.9-1.47,4.75,4.75,0,0,1,2.27-.46,18.91,18.91,0,0,1,2.18.14v6.72Zm-1.22-6a6.9,6.9,0,0,0-1-.07c-0.84,0-1.83.24-1.83,1.18s1.08,1.18,1.81,1.18h1.05v-2.28Z" transform="translate(-13486.99 -5033.81)"/><path d="M14023.23,5188.74h1.51l1.23,3.42c0.17,0.5.46,1.33,0.62,1.86h0c0.15-.5.53-1.58,0.8-2.33l1.09-3h1.53l0.48,6.78h-1.18l-0.15-3.24c0-.73-0.1-1.6-0.13-2.42h0c-0.18.62-.36,1.16-0.74,2.2l-1.3,3.42h-0.9l-1.21-3.35c-0.21-.64-0.5-1.62-0.67-2.26h-0.06c0,0.8-.07,1.69-0.11,2.44l-0.17,3.21h-1.13Z" transform="translate(-13486.99 -5033.81)"/><path d="M14038.19,5192.07a3.31,3.31,0,0,1-3.38,3.6,3.22,3.22,0,0,1-3.25-3.49,3.31,3.31,0,0,1,3.36-3.6A3.21,3.21,0,0,1,14038.19,5192.07Zm-5.38.07c0,1.48.85,2.61,2.06,2.61s2.06-1.11,2.06-2.63c0-1.15-.57-2.61-2-2.61S14032.81,5190.85,14032.81,5192.14Z" transform="translate(-13486.99 -5033.81)"/><path d="M14044.18,5188.74v1h-2.11v5.8h-1.22v-5.8h-2.12v-1h5.45Z" transform="translate(-13486.99 -5033.81)"/><path d="M14046.4,5188.74v2.86c0,1.08,0,1.75-.07,2.72h0c0.41-.83.64-1.3,1.09-2.09l2.12-3.5h1.44v6.78h-1.18v-2.87c0-1.11,0-1.68.08-2.77h0c-0.43.87-.73,1.41-1.12,2.1-0.64,1.05-1.39,2.35-2.12,3.54h-1.42v-6.78h1.16Z" transform="translate(-13486.99 -5033.81)"/><path d="M14052.83,5188.82a14.47,14.47,0,0,1,2.16-.15c1.13,0,3,.18,3,1.69a1.6,1.6,0,0,1-1.41,1.53v0a1.73,1.73,0,0,1,1.72,1.68c0,1.78-2.24,2-3.57,2-0.76,0-1.54-.06-1.91-0.08v-6.7Zm1.16,5.88a7.47,7.47,0,0,0,1,.06c0.83,0,2.06-.2,2.06-1.18s-1-1.19-2.16-1.19h-0.9v2.31Zm0-3.12h0.92c0.91,0,1.85-.27,1.85-1.06s-0.59-1-1.82-1a8.79,8.79,0,0,0-1,.06v2Z" transform="translate(-13486.99 -5033.81)"/><path d="M14063.6,5195.52l-0.1-.85h0a2.52,2.52,0,0,1-2.07,1,1.93,1.93,0,0,1-2.07-1.95c0-1.64,1.46-2.54,4.08-2.52v-0.14a1.4,1.4,0,0,0-1.54-1.57,3.38,3.38,0,0,0-1.76.5l-0.28-.81a4.21,4.21,0,0,1,2.23-.6c2.07,0,2.58,1.41,2.58,2.77v2.54a9.55,9.55,0,0,0,.11,1.63h-1.12Zm-0.18-3.46c-1.34,0-2.87.21-2.87,1.53a1.09,1.09,0,0,0,1.16,1.18,1.69,1.69,0,0,0,1.64-1.13,1.29,1.29,0,0,0,.07-0.39v-1.18Z" transform="translate(-13486.99 -5033.81)"/><path d="M14067.6,5188.74v5.81h3.12v-5.81h1.22v5.86h0.7l-0.07,3.07h-1l-0.06-2.16h-5.18v-6.78h1.22Z" transform="translate(-13486.99 -5033.81)"/><path d="M14075.13,5188.74v2.86c0,1.08,0,1.75-.07,2.72h0c0.41-.83.64-1.3,1.09-2.09l2.12-3.5h1.44v6.78h-1.18v-2.87c0-1.11,0-1.68.08-2.77h0c-0.43.87-.73,1.41-1.12,2.1-0.64,1.05-1.39,2.35-2.12,3.54H14074v-6.78h1.16Z" transform="translate(-13486.99 -5033.81)"/><path d="M14086.65,5195.52h-1.22v-2.84h-0.91a1.6,1.6,0,0,0-1.13.38,4.69,4.69,0,0,0-1,1.9,4.08,4.08,0,0,1-.28.56h-1.32a4.39,4.39,0,0,0,.42-0.77,5.2,5.2,0,0,1,1.06-2,1.62,1.62,0,0,1,.77-0.39v0a1.8,1.8,0,0,1-1.79-1.68,1.63,1.63,0,0,1,.9-1.47,4.75,4.75,0,0,1,2.27-.46,18.91,18.91,0,0,1,2.18.14v6.72Zm-1.22-6a6.9,6.9,0,0,0-1-.07c-0.84,0-1.83.24-1.83,1.18s1.08,1.18,1.81,1.18h1.05v-2.28Z" transform="translate(-13486.99 -5033.81)"/><path d="M13894.49,5147.57a6,6,0,0,1-2.49.45,4.41,4.41,0,0,1-4.67-4.78,4.7,4.7,0,0,1,4.93-5,5.05,5.05,0,0,1,2.24.42l-0.29,1a4.44,4.44,0,0,0-1.91-.39c-2.21,0-3.68,1.42-3.68,3.89,0,2.31,1.33,3.8,3.63,3.8a4.88,4.88,0,0,0,2-.39Z" transform="translate(-13486.99 -5033.81)"/><path d="M13899.62,5147.88l-0.1-.85h0a2.53,2.53,0,0,1-2.07,1,1.93,1.93,0,0,1-2.07-1.95c0-1.64,1.46-2.54,4.08-2.52v-0.14a1.4,1.4,0,0,0-1.54-1.57,3.38,3.38,0,0,0-1.76.5l-0.28-.81a4.21,4.21,0,0,1,2.23-.6c2.07,0,2.58,1.41,2.58,2.77v2.54a9.55,9.55,0,0,0,.11,1.63h-1.12Zm-0.18-3.46c-1.34,0-2.87.21-2.87,1.53a1.09,1.09,0,0,0,1.16,1.18,1.69,1.69,0,0,0,1.64-1.13,1.29,1.29,0,0,0,.07-0.39v-1.18Z" transform="translate(-13486.99 -5033.81)"/><path d="M13902.61,5141.1h1.51l1.23,3.42c0.17,0.5.46,1.33,0.62,1.86h0c0.15-.5.53-1.58,0.8-2.33l1.09-3h1.53l0.48,6.78h-1.18l-0.15-3.24c0-.73-0.1-1.6-0.13-2.42h0c-0.18.62-.36,1.16-0.74,2.2l-1.3,3.42h-0.9l-1.21-3.35c-0.21-.64-0.5-1.62-0.67-2.26h-0.06c0,0.8-.07,1.69-0.11,2.44l-0.17,3.21h-1.13Z" transform="translate(-13486.99 -5033.81)"/><path d="M13915.18,5147.88l-0.1-.85h0a2.52,2.52,0,0,1-2.07,1,1.93,1.93,0,0,1-2.07-1.95c0-1.64,1.46-2.54,4.08-2.52v-0.14a1.4,1.4,0,0,0-1.54-1.57,3.38,3.38,0,0,0-1.76.5l-0.28-.81a4.21,4.21,0,0,1,2.23-.6c2.07,0,2.58,1.41,2.58,2.77v2.54a9.55,9.55,0,0,0,.11,1.63h-1.12Zm-0.18-3.46c-1.34,0-2.87.21-2.87,1.53a1.09,1.09,0,0,0,1.16,1.18,1.69,1.69,0,0,0,1.64-1.13,1.29,1.29,0,0,0,.07-0.39v-1.18Z" transform="translate(-13486.99 -5033.81)"/><path d="M13923.1,5147.88h-1.22V5145H13921a1.6,1.6,0,0,0-1.13.38,4.71,4.71,0,0,0-1,1.9,4.19,4.19,0,0,1-.28.56h-1.32a4.39,4.39,0,0,0,.42-0.77,5.2,5.2,0,0,1,1.06-2,1.62,1.62,0,0,1,.77-0.39v0a1.8,1.8,0,0,1-1.79-1.68,1.63,1.63,0,0,1,.9-1.47,4.75,4.75,0,0,1,2.27-.46,18.91,18.91,0,0,1,2.18.14v6.72Zm-1.22-6a6.9,6.9,0,0,0-1-.07c-0.84,0-1.83.24-1.83,1.18s1.08,1.18,1.81,1.18h1.05v-2.28Z" transform="translate(-13486.99 -5033.81)"/><path d="M13929.26,5141.1v2.73h3.22v-2.73h1.22v6.78h-1.22v-3.07h-3.22v3.07H13928v-6.78h1.22Z" transform="translate(-13486.99 -5033.81)"/><path d="M13936.68,5141.1V5144c0,1.08,0,1.75-.07,2.72h0c0.41-.83.64-1.3,1.09-2.09l2.12-3.5h1.44v6.78h-1.18V5145c0-1.11,0-1.68.08-2.77h0c-0.43.87-.73,1.41-1.12,2.1-0.64,1.05-1.39,2.35-2.12,3.54h-1.42v-6.78h1.16Z" transform="translate(-13486.99 -5033.81)"/><path d="M13943.67,5143.94h0.59c1,0,1.74-.48,1.74-1.11a1.12,1.12,0,0,0-1.32-1,3.27,3.27,0,0,0-1.64.48l-0.31-.76a4.3,4.3,0,0,1,2.25-.62c1,0,2.3.46,2.3,1.78a1.73,1.73,0,0,1-1.53,1.54v0a1.8,1.8,0,0,1,1.85,1.69c0,1.47-1.5,2-2.93,2a4.64,4.64,0,0,1-2.2-.55l0.32-.83a3.91,3.91,0,0,0,1.79.46c1,0,1.67-.49,1.67-1.16,0-.91-1-1.16-2-1.16h-0.62v-0.84Z" transform="translate(-13486.99 -5033.81)"/><path d="M13950.24,5141.1V5144h0.29l2.55-2.94h1.5l-3,3.07c1.09,0.11,1.75.84,2.28,2.06a14.33,14.33,0,0,0,.73,1.65h-1.29a9,9,0,0,1-.63-1.39,2.2,2.2,0,0,0-2.24-1.6h-0.24v3H13949v-6.78h1.22Z" transform="translate(-13486.99 -5033.81)"/><path d="M13959.43,5147.88l-0.1-.85h0a2.53,2.53,0,0,1-2.07,1,1.93,1.93,0,0,1-2.07-1.95c0-1.64,1.46-2.54,4.08-2.52v-0.14a1.4,1.4,0,0,0-1.54-1.57,3.38,3.38,0,0,0-1.76.5l-0.28-.81a4.21,4.21,0,0,1,2.23-.6c2.07,0,2.58,1.41,2.58,2.77v2.54a9.55,9.55,0,0,0,.11,1.63h-1.12Zm-0.18-3.46c-1.34,0-2.87.21-2.87,1.53a1.09,1.09,0,0,0,1.16,1.18,1.69,1.69,0,0,0,1.64-1.13,1.29,1.29,0,0,0,.07-0.39v-1.18Z" transform="translate(-13486.99 -5033.81)"/><path d="M13967.35,5147.88h-1.22V5145h-0.91a1.6,1.6,0,0,0-1.13.38,4.69,4.69,0,0,0-1,1.9,4.08,4.08,0,0,1-.28.56h-1.32a4.39,4.39,0,0,0,.42-0.77,5.2,5.2,0,0,1,1.06-2,1.62,1.62,0,0,1,.77-0.39v0a1.8,1.8,0,0,1-1.79-1.68,1.63,1.63,0,0,1,.9-1.47,4.75,4.75,0,0,1,2.27-.46,18.91,18.91,0,0,1,2.18.14v6.72Zm-1.22-6a6.9,6.9,0,0,0-1-.07c-0.84,0-1.83.24-1.83,1.18s1.08,1.18,1.81,1.18h1.05v-2.28Z" transform="translate(-13486.99 -5033.81)"/><path d="M13973.51,5141.1v5.81h3.12v-5.81h1.22V5147h0.7l-0.07,3.07h-1l-0.06-2.16h-5.18v-6.78h1.22Z" transform="translate(-13486.99 -5033.81)"/><path d="M13980.54,5144.71a2.17,2.17,0,0,0,2.33,2.35,4.45,4.45,0,0,0,1.88-.35l0.21,0.88a5.48,5.48,0,0,1-2.25.42,3.15,3.15,0,0,1-3.33-3.42c0-2,1.21-3.66,3.18-3.66,2.21,0,2.8,1.95,2.8,3.19a4.73,4.73,0,0,1,0,.57h-4.76Zm3.61-.88a1.76,1.76,0,0,0-1.71-2,2,2,0,0,0-1.89,2h3.6Z" transform="translate(-13486.99 -5033.81)"/><path d="M13987.94,5141.1v2.73h3.22v-2.73h1.22v6.78h-1.22v-3.07h-3.22v3.07h-1.22v-6.78h1.22Z" transform="translate(-13486.99 -5033.81)"/><path d="M13998,5147.88l-0.1-.85h0a2.52,2.52,0,0,1-2.07,1,1.93,1.93,0,0,1-2.07-1.95c0-1.64,1.46-2.54,4.08-2.52v-0.14a1.4,1.4,0,0,0-1.54-1.57,3.38,3.38,0,0,0-1.76.5l-0.28-.81a4.21,4.21,0,0,1,2.23-.6c2.07,0,2.58,1.41,2.58,2.77v2.54a9.55,9.55,0,0,0,.11,1.63H13998Zm-0.18-3.46c-1.34,0-2.87.21-2.87,1.53a1.09,1.09,0,0,0,1.16,1.18,1.69,1.69,0,0,0,1.64-1.13,1.29,1.29,0,0,0,.07-0.39v-1.18Z" transform="translate(-13486.99 -5033.81)"/><path d="M13825.19,5080v14.43h7.42V5080h2.11v14.47l1.42,0-0.14,5.54h-1.66l-0.14-3.89h-11.09V5080h2.09Z" transform="translate(-13486.99 -5033.81)"/><path d="M13839.43,5090.76a3.72,3.72,0,0,0,4,4,7.64,7.64,0,0,0,3.22-.6l0.36,1.51a9.41,9.41,0,0,1-3.86.72c-3.58,0-5.71-2.35-5.71-5.86s2.06-6.26,5.45-6.26c3.79,0,4.8,3.34,4.8,5.47a7.88,7.88,0,0,1-.07,1h-8.16Zm6.19-1.51c0-1.34-.55-3.43-2.93-3.43-2.14,0-3.07,2-3.24,3.43h6.17Z" transform="translate(-13486.99 -5033.81)"/><path d="M13859,5084.56v11.62h-2.09v-10h-4v3c0,3.26-.31,5.45-1.82,6.43a3.39,3.39,0,0,1-2.3.72l-0.22-1.66a2.62,2.62,0,0,0,1.15-.48c1.08-.79,1.2-2.42,1.2-5v-4.68h8.06Z" transform="translate(-13486.99 -5033.81)"/><path d="M13864,5084.56v4.9c0,1.85,0,3-.12,4.66l0.07,0c0.7-1.42,1.1-2.23,1.87-3.58l3.62-6h2.47v11.62h-2v-4.92c0-1.9,0-2.88.14-4.75H13870c-0.74,1.49-1.25,2.42-1.92,3.6-1.1,1.8-2.38,4-3.62,6.07H13862v-11.62h2Z" transform="translate(-13486.99 -5033.81)"/><path d="M14400.64,5117.34v8.42h4.33v-8.42h1.23v8.45l0.83,0-0.08,3.24h-1l-0.08-2.27h-6.47v-9.44h1.22Z" transform="translate(-13486.99 -5033.81)"/><path d="M14409,5123.61a2.17,2.17,0,0,0,2.33,2.35,4.45,4.45,0,0,0,1.88-.35l0.21,0.88a5.48,5.48,0,0,1-2.25.42,3.15,3.15,0,0,1-3.33-3.42c0-2,1.21-3.66,3.18-3.66,2.21,0,2.8,1.95,2.8,3.19a4.73,4.73,0,0,1,0,.57H14409Zm3.61-.88a1.76,1.76,0,0,0-1.71-2,2,2,0,0,0-1.89,2h3.6Z" transform="translate(-13486.99 -5033.81)"/><path d="M14420.42,5120v6.78h-1.22V5121h-2.33v1.76c0,1.91-.18,3.18-1.06,3.75a2,2,0,0,1-1.34.42l-0.13-1a1.52,1.52,0,0,0,.67-0.28c0.63-.46.7-1.41,0.7-2.93V5120h4.71Z" transform="translate(-13486.99 -5033.81)"/><path d="M14423.4,5120v2.86c0,1.08,0,1.75-.07,2.72h0c0.41-.83.64-1.3,1.09-2.09l2.12-3.5h1.44v6.78h-1.18v-2.87c0-1.11,0-1.68.08-2.77h0c-0.43.87-.73,1.41-1.12,2.1-0.64,1.05-1.39,2.35-2.12,3.54h-1.42V5120h1.16Z" transform="translate(-13486.99 -5033.81)"/><path d="M14396.39,5278c0,3.25-2,5-4.38,5s-4.25-1.93-4.25-4.79,1.86-5,4.38-5S14396.39,5275.2,14396.39,5278Zm-7.33.15c0,2,1.09,3.82,3,3.82s3-1.78,3-3.92c0-1.88-1-3.84-3-3.84S14389.06,5276.08,14389.06,5278.15Z" transform="translate(-13486.99 -5033.81)"/><path d="M14403.42,5276v6.78h-1.23V5277H14399v5.8h-1.22V5276h5.6Z" transform="translate(-13486.99 -5033.81)"/><path d="M14411.45,5279.37a3.31,3.31,0,0,1-3.38,3.6,3.22,3.22,0,0,1-3.25-3.49,3.31,3.31,0,0,1,3.36-3.6A3.21,3.21,0,0,1,14411.45,5279.37Zm-5.38.07c0,1.48.85,2.61,2.06,2.61s2.06-1.11,2.06-2.63c0-1.15-.57-2.61-2-2.61S14406.08,5278.15,14406.08,5279.44Z" transform="translate(-13486.99 -5033.81)"/><path d="M14412.83,5278.25c0-.87,0-1.57-0.06-2.21h1.11l0.06,1.16h0a2.67,2.67,0,0,1,2.41-1.32c1.64,0,2.87,1.39,2.87,3.45,0,2.44-1.49,3.64-3.08,3.64a2.38,2.38,0,0,1-2.09-1.06h0v3.68h-1.22v-7.34Zm1.22,1.81a2.83,2.83,0,0,0,.06.5,1.9,1.9,0,0,0,1.85,1.44c1.3,0,2.06-1.06,2.06-2.62,0-1.36-.71-2.52-2-2.52a2,2,0,0,0-1.86,1.53,2,2,0,0,0-.08.5v1.16Z" transform="translate(-13486.99 -5033.81)"/><path d="M14421.9,5276v2.31a5.81,5.81,0,0,1,1.11-.08c1.46,0,2.93.6,2.93,2.27a1.92,1.92,0,0,1-.7,1.57,4.27,4.27,0,0,1-2.73.78,16.9,16.9,0,0,1-1.82-.1V5276h1.22Zm0,5.93a6.91,6.91,0,0,0,.85.06c0.94,0,2-.39,2-1.44s-1-1.43-1.9-1.43a5.62,5.62,0,0,0-.91.07V5282Zm6.11-5.93v6.78h-1.22V5276h1.22Z" transform="translate(-13486.99 -5033.81)"/><path d="M14355.33,5292.84v5.86h0.7l-0.07,3.07h-1l-0.06-2.16h-4.69l-0.06,2.16h-1l-0.06-3.07h0.57a5.28,5.28,0,0,0,.67-1.39,8.94,8.94,0,0,0,.39-2.7v-1.77h4.52Zm-3.43,2.06a9,9,0,0,1-.35,2.52,6.44,6.44,0,0,1-.55,1.26h3.12v-4.9h-2.23v1.12Z" transform="translate(-13486.99 -5033.81)"/><path d="M14362.84,5292.84v6.78h-1.22v-5.81h-2.33v1.76c0,1.91-.18,3.18-1.06,3.75a2,2,0,0,1-1.34.42l-0.13-1a1.52,1.52,0,0,0,.67-0.28c0.63-.46.7-1.41,0.7-2.93v-2.73h4.71Z" transform="translate(-13486.99 -5033.81)"/><path d="M14369.74,5299.62h-1.22v-2.84h-0.91a1.6,1.6,0,0,0-1.13.38,4.69,4.69,0,0,0-1,1.9,4.08,4.08,0,0,1-.28.56h-1.32a4.39,4.39,0,0,0,.42-0.77,5.2,5.2,0,0,1,1.06-2,1.62,1.62,0,0,1,.77-0.39v0a1.8,1.8,0,0,1-1.79-1.68,1.63,1.63,0,0,1,.9-1.47,4.75,4.75,0,0,1,2.27-.46,18.91,18.91,0,0,1,2.18.14v6.72Zm-1.22-6a6.9,6.9,0,0,0-1-.07c-0.84,0-1.83.24-1.83,1.18s1.08,1.18,1.81,1.18h1.05v-2.28Z" transform="translate(-13486.99 -5033.81)"/><path d="M14374.71,5295.05c0-.87,0-1.57-0.06-2.21h1.11l0.06,1.16h0a2.67,2.67,0,0,1,2.41-1.32c1.64,0,2.87,1.39,2.87,3.45,0,2.44-1.49,3.64-3.08,3.64a2.38,2.38,0,0,1-2.09-1.06h0v3.68h-1.22v-7.34Zm1.22,1.81a2.83,2.83,0,0,0,.06.5,1.9,1.9,0,0,0,1.85,1.44c1.3,0,2.06-1.06,2.06-2.62,0-1.36-.71-2.52-2-2.52a2,2,0,0,0-1.86,1.53,2,2,0,0,0-.08.5v1.16Z" transform="translate(-13486.99 -5033.81)"/><path d="M14386.36,5299.62l-0.1-.85h0a2.53,2.53,0,0,1-2.07,1,1.93,1.93,0,0,1-2.07-1.95c0-1.64,1.46-2.54,4.08-2.52v-0.14a1.4,1.4,0,0,0-1.54-1.57,3.38,3.38,0,0,0-1.76.5l-0.28-.81a4.21,4.21,0,0,1,2.23-.6c2.07,0,2.58,1.41,2.58,2.77V5298a9.55,9.55,0,0,0,.11,1.63h-1.12Zm-0.18-3.46c-1.34,0-2.87.21-2.87,1.53a1.09,1.09,0,0,0,1.16,1.18,1.69,1.69,0,0,0,1.64-1.13,1.29,1.29,0,0,0,.07-0.39v-1.18Z" transform="translate(-13486.99 -5033.81)"/><path d="M14389.77,5295.68h0.59c1,0,1.74-.48,1.74-1.11a1.12,1.12,0,0,0-1.32-1,3.27,3.27,0,0,0-1.64.48l-0.31-.76a4.3,4.3,0,0,1,2.25-.62c1,0,2.3.46,2.3,1.78a1.73,1.73,0,0,1-1.53,1.54v0a1.8,1.8,0,0,1,1.85,1.69c0,1.47-1.5,2-2.93,2a4.64,4.64,0,0,1-2.2-.55l0.32-.83a3.91,3.91,0,0,0,1.79.46c1,0,1.67-.49,1.67-1.16,0-.91-1-1.16-2-1.16h-0.62v-0.84Z" transform="translate(-13486.99 -5033.81)"/><path d="M14395.1,5292.92a14.47,14.47,0,0,1,2.16-.15c1.13,0,3,.18,3,1.69a1.6,1.6,0,0,1-1.41,1.53v0a1.73,1.73,0,0,1,1.72,1.68c0,1.78-2.24,2-3.57,2-0.76,0-1.54-.06-1.91-0.08v-6.7Zm1.16,5.88a7.47,7.47,0,0,0,1,.06c0.83,0,2.06-.2,2.06-1.18s-1-1.19-2.16-1.19h-0.9v2.31Zm0-3.12h0.92c0.91,0,1.85-.27,1.85-1.06s-0.59-1-1.82-1a8.81,8.81,0,0,0-1,.06v2Z" transform="translate(-13486.99 -5033.81)"/><path d="M14403.15,5292.84v2.86c0,1.08,0,1.75-.07,2.72h0c0.41-.83.64-1.3,1.09-2.09l2.12-3.5h1.44v6.78h-1.18v-2.87c0-1.11,0-1.68.08-2.77h0c-0.43.87-.73,1.41-1.12,2.1-0.64,1.05-1.39,2.35-2.12,3.54H14402v-6.78h1.16Z" transform="translate(-13486.99 -5033.81)"/><path d="M14414.28,5292.84v1h-2.12v5.8h-1.22v-5.8h-2.12v-1h5.45Z" transform="translate(-13486.99 -5033.81)"/><path d="M14416.5,5292.84v2.86c0,1.08,0,1.75-.07,2.72h0c0.41-.83.64-1.3,1.09-2.09l2.12-3.5h1.44v6.78h-1.18v-2.87c0-1.11,0-1.68.08-2.77h0c-0.43.87-.73,1.41-1.12,2.1-0.64,1.05-1.39,2.35-2.12,3.54h-1.42v-6.78h1.16Z" transform="translate(-13486.99 -5033.81)"/><path d="M14428,5299.62h-1.22v-2.84h-0.91a1.6,1.6,0,0,0-1.13.38,4.69,4.69,0,0,0-1,1.9,4.08,4.08,0,0,1-.28.56h-1.32a4.39,4.39,0,0,0,.42-0.77,5.2,5.2,0,0,1,1.06-2,1.62,1.62,0,0,1,.77-0.39v0a1.8,1.8,0,0,1-1.79-1.68,1.63,1.63,0,0,1,.9-1.47,4.75,4.75,0,0,1,2.27-.46,18.91,18.91,0,0,1,2.18.14v6.72Zm-1.22-6a6.9,6.9,0,0,0-1-.07c-0.84,0-1.83.24-1.83,1.18s1.08,1.18,1.81,1.18h1.05v-2.28Z" transform="translate(-13486.99 -5033.81)"/><path d="M14335.25,5376.75a14.12,14.12,0,0,1,2.34-.18,3.88,3.88,0,0,1,2.65.78,2.54,2.54,0,0,1,.83,2,2.78,2.78,0,0,1-.73,2,3.91,3.91,0,0,1-2.89,1,4.18,4.18,0,0,1-1-.08v3.78h-1.22v-9.33Zm1.22,4.55a4.1,4.1,0,0,0,1,.1c1.47,0,2.37-.71,2.37-2s-0.88-1.85-2.23-1.85a5.14,5.14,0,0,0-1.15.1v3.67Z" transform="translate(-13486.99 -5033.81)"/><path d="M14346.13,5386.08l-0.1-.85h0a2.52,2.52,0,0,1-2.07,1,1.93,1.93,0,0,1-2.07-1.95c0-1.64,1.46-2.54,4.08-2.52v-0.14a1.4,1.4,0,0,0-1.54-1.57,3.38,3.38,0,0,0-1.76.5l-0.28-.81a4.21,4.21,0,0,1,2.23-.6c2.07,0,2.58,1.41,2.58,2.77v2.54a9.55,9.55,0,0,0,.11,1.63h-1.12Zm-0.18-3.46c-1.34,0-2.87.21-2.87,1.53a1.09,1.09,0,0,0,1.16,1.18,1.69,1.69,0,0,0,1.64-1.13,1.29,1.29,0,0,0,.07-0.39v-1.18Z" transform="translate(-13486.99 -5033.81)"/><path d="M14354.11,5377a9.24,9.24,0,0,1-1.42.31,3.32,3.32,0,0,0-2.41,1.27,4.83,4.83,0,0,0-.74,2.24h0a2.57,2.57,0,0,1,2.35-1.53c1.67,0,2.88,1.19,2.88,3.35s-1.15,3.59-3.14,3.59c-2.38,0-3.17-2.28-3.17-4.54a6,6,0,0,1,1.05-3.75,4.07,4.07,0,0,1,2.91-1.6,9.83,9.83,0,0,0,1.68-.36Zm-2.42,3.21a1.65,1.65,0,0,0-1.53.92,3,3,0,0,0-.34,1.44c0,1.12.55,2.73,1.89,2.73s1.86-1.32,1.86-2.56S14353.15,5380.21,14351.69,5380.21Z" transform="translate(-13486.99 -5033.81)"/><path d="M14362.48,5382.63a3.31,3.31,0,0,1-3.38,3.6,3.22,3.22,0,0,1-3.25-3.49,3.31,3.31,0,0,1,3.36-3.6A3.21,3.21,0,0,1,14362.48,5382.63Zm-5.38.07c0,1.48.85,2.61,2.06,2.61s2.06-1.11,2.06-2.63c0-1.15-.57-2.61-2-2.61S14357.1,5381.41,14357.1,5382.7Z" transform="translate(-13486.99 -5033.81)"/><path d="M14364.9,5379.3v2.23a1.24,1.24,0,0,0,1.4,1.44,2.55,2.55,0,0,0,1.46-.48v-3.19h1.22v6.78h-1.22v-2.72h0a3.56,3.56,0,0,1-1.83.52,2,2,0,0,1-2.23-2.21v-2.37h1.23Z" transform="translate(-13486.99 -5033.81)"/><path d="M14374.58,5386.08l-0.1-.85h0a2.53,2.53,0,0,1-2.07,1,1.93,1.93,0,0,1-2.07-1.95c0-1.64,1.46-2.54,4.08-2.52v-0.14a1.4,1.4,0,0,0-1.54-1.57,3.38,3.38,0,0,0-1.76.5l-0.28-.81a4.21,4.21,0,0,1,2.23-.6c2.07,0,2.58,1.41,2.58,2.77v2.54a9.55,9.55,0,0,0,.11,1.63h-1.12Zm-0.18-3.46c-1.34,0-2.87.21-2.87,1.53a1.09,1.09,0,0,0,1.16,1.18,1.69,1.69,0,0,0,1.64-1.13,1.29,1.29,0,0,0,.07-0.39v-1.18Z" transform="translate(-13486.99 -5033.81)"/><path d="M14382.5,5386.08h-1.22v-2.84h-0.91a1.6,1.6,0,0,0-1.13.38,4.69,4.69,0,0,0-1,1.9,4.08,4.08,0,0,1-.28.56h-1.32a4.39,4.39,0,0,0,.42-0.77,5.2,5.2,0,0,1,1.06-2,1.62,1.62,0,0,1,.77-0.39v0a1.8,1.8,0,0,1-1.79-1.68,1.63,1.63,0,0,1,.9-1.47,4.75,4.75,0,0,1,2.27-.46,18.91,18.91,0,0,1,2.18.14v6.72Zm-1.22-6a6.9,6.9,0,0,0-1-.07c-0.84,0-1.83.24-1.83,1.18s1.08,1.18,1.81,1.18h1.05v-2.28Z" transform="translate(-13486.99 -5033.81)"/><path d="M14393.61,5382.63a3.31,3.31,0,0,1-3.38,3.6,3.22,3.22,0,0,1-3.25-3.49,3.31,3.31,0,0,1,3.36-3.6A3.21,3.21,0,0,1,14393.61,5382.63Zm-5.38.07c0,1.48.85,2.61,2.06,2.61s2.06-1.11,2.06-2.63c0-1.15-.57-2.61-2-2.61S14388.23,5381.41,14388.23,5382.7Z" transform="translate(-13486.99 -5033.81)"/><path d="M14400,5385.82a4.55,4.55,0,0,1-1.95.39,3.22,3.22,0,0,1-3.38-3.46,3.44,3.44,0,0,1,3.64-3.6,4.11,4.11,0,0,1,1.71.35l-0.28,1a2.86,2.86,0,0,0-1.43-.32,2.56,2.56,0,0,0,0,5.1,3.5,3.5,0,0,0,1.51-.34Z" transform="translate(-13486.99 -5033.81)"/><path d="M14402.37,5379.3V5382h3.22v-2.73h1.22v6.78h-1.22V5383h-3.22v3.07h-1.22v-6.78h1.22Z" transform="translate(-13486.99 -5033.81)"/><path d="M14414.85,5382.63a3.31,3.31,0,0,1-3.38,3.6,3.22,3.22,0,0,1-3.25-3.49,3.31,3.31,0,0,1,3.36-3.6A3.21,3.21,0,0,1,14414.85,5382.63Zm-5.38.07c0,1.48.85,2.61,2.06,2.61s2.06-1.11,2.06-2.63c0-1.15-.57-2.61-2-2.61S14409.47,5381.41,14409.47,5382.7Z" transform="translate(-13486.99 -5033.81)"/><path d="M14416.26,5379.38a14.47,14.47,0,0,1,2.16-.15c1.13,0,3,.18,3,1.69a1.6,1.6,0,0,1-1.41,1.53v0a1.73,1.73,0,0,1,1.72,1.68c0,1.78-2.24,2-3.57,2-0.76,0-1.54-.06-1.91-0.08v-6.7Zm1.16,5.88a7.47,7.47,0,0,0,1,.06c0.83,0,2.06-.2,2.06-1.18s-1-1.19-2.16-1.19h-0.9v2.31Zm0-3.12h0.92c0.91,0,1.85-.27,1.85-1.06s-0.59-1-1.82-1a8.81,8.81,0,0,0-1,.06v2Z" transform="translate(-13486.99 -5033.81)"/><path d="M14427,5386.08l-0.1-.85h0a2.53,2.53,0,0,1-2.07,1,1.93,1.93,0,0,1-2.07-1.95c0-1.64,1.46-2.54,4.08-2.52v-0.14a1.4,1.4,0,0,0-1.54-1.57,3.38,3.38,0,0,0-1.76.5l-0.28-.81a4.21,4.21,0,0,1,2.23-.6c2.07,0,2.58,1.41,2.58,2.77v2.54a9.55,9.55,0,0,0,.11,1.63H14427Zm-0.18-3.46c-1.34,0-2.87.21-2.87,1.53a1.09,1.09,0,0,0,1.16,1.18,1.69,1.69,0,0,0,1.64-1.13,1.29,1.29,0,0,0,.07-0.39v-1.18Z" transform="translate(-13486.99 -5033.81)"/><path d="M14311.52,5438.62c0,3.25-2,5-4.38,5s-4.25-1.93-4.25-4.79,1.86-5,4.38-5S14311.52,5435.82,14311.52,5438.62Zm-7.33.15c0,2,1.09,3.82,3,3.82s3-1.78,3-3.92c0-1.88-1-3.84-3-3.84S14304.2,5436.7,14304.2,5438.78Z" transform="translate(-13486.99 -5033.81)"/><path d="M14317.84,5443.19a4.55,4.55,0,0,1-1.95.39,3.22,3.22,0,0,1-3.38-3.46,3.44,3.44,0,0,1,3.64-3.6,4.11,4.11,0,0,1,1.71.35l-0.28,1a2.86,2.86,0,0,0-1.43-.32,2.56,2.56,0,0,0,0,5.1,3.5,3.5,0,0,0,1.51-.34Z" transform="translate(-13486.99 -5033.81)"/><path d="M14320.26,5436.66v2.73h3.22v-2.73h1.22v6.78h-1.22v-3.07h-3.22v3.07H14319v-6.78h1.22Z" transform="translate(-13486.99 -5033.81)"/><path d="M14332.74,5440a3.31,3.31,0,0,1-3.38,3.6,3.22,3.22,0,0,1-3.25-3.49,3.31,3.31,0,0,1,3.36-3.6A3.21,3.21,0,0,1,14332.74,5440Zm-5.38.07c0,1.48.85,2.61,2.06,2.61s2.06-1.11,2.06-2.63c0-1.15-.57-2.61-2-2.61S14327.36,5438.78,14327.36,5440.07Z" transform="translate(-13486.99 -5033.81)"/><path d="M14334.15,5436.75a14.47,14.47,0,0,1,2.16-.15c1.13,0,3,.18,3,1.69a1.6,1.6,0,0,1-1.41,1.53v0a1.73,1.73,0,0,1,1.72,1.68c0,1.78-2.24,2-3.57,2-0.76,0-1.54-.06-1.91-0.08v-6.7Zm1.16,5.88a7.47,7.47,0,0,0,1,.06c0.83,0,2.06-.2,2.06-1.18s-1-1.19-2.16-1.19h-0.9v2.31Zm0-3.12h0.92c0.91,0,1.85-.27,1.85-1.06s-0.59-1-1.82-1a8.79,8.79,0,0,0-1,.06v2Z" transform="translate(-13486.99 -5033.81)"/><path d="M14342.26,5436.66v2.73h3.22v-2.73h1.22v6.78h-1.22v-3.07h-3.22v3.07H14341v-6.78h1.22Z" transform="translate(-13486.99 -5033.81)"/><path d="M14349.74,5436.66V5439a5.81,5.81,0,0,1,1.11-.08c1.46,0,2.93.6,2.93,2.27a1.92,1.92,0,0,1-.7,1.57,4.27,4.27,0,0,1-2.73.78,16.9,16.9,0,0,1-1.82-.1v-6.75h1.22Zm0,5.93a6.91,6.91,0,0,0,.85.06c0.94,0,2-.39,2-1.44s-1-1.43-1.9-1.43a5.61,5.61,0,0,0-.91.07v2.75Zm6.11-5.93v6.78h-1.22v-6.78h1.22Z" transform="translate(-13486.99 -5033.81)"/><path d="M14358.44,5440.28a2.17,2.17,0,0,0,2.33,2.35,4.45,4.45,0,0,0,1.88-.35l0.21,0.88a5.48,5.48,0,0,1-2.25.42,3.15,3.15,0,0,1-3.33-3.42c0-2,1.21-3.66,3.18-3.66,2.21,0,2.8,1.95,2.8,3.19a4.73,4.73,0,0,1,0,.57h-4.76Zm3.61-.88a1.76,1.76,0,0,0-1.71-2,2,2,0,0,0-1.89,2h3.6Z" transform="translate(-13486.99 -5033.81)"/><path d="M14373.31,5436.66v6.78h-1.23v-5.8h-3.15v5.8h-1.22v-6.78h5.6Z" transform="translate(-13486.99 -5033.81)"/><path d="M14375.15,5438.88c0-.87,0-1.57-0.06-2.21h1.11l0.06,1.16h0a2.67,2.67,0,0,1,2.41-1.32c1.64,0,2.87,1.39,2.87,3.45,0,2.44-1.49,3.64-3.08,3.64a2.38,2.38,0,0,1-2.09-1.06h0v3.68h-1.22v-7.34Zm1.22,1.81a2.83,2.83,0,0,0,.06.5,1.9,1.9,0,0,0,1.85,1.44c1.3,0,2.06-1.06,2.06-2.62,0-1.36-.71-2.52-2-2.52a2,2,0,0,0-1.86,1.53,2,2,0,0,0-.08.5v1.16Z" transform="translate(-13486.99 -5033.81)"/><path d="M14384.16,5436.66v2.86c0,1.08,0,1.75-.07,2.72h0c0.41-.83.64-1.3,1.09-2.09l2.12-3.5h1.44v6.78h-1.18v-2.87c0-1.11,0-1.68.08-2.77h0c-0.43.87-.73,1.41-1.12,2.1-0.64,1.05-1.39,2.35-2.12,3.54H14383v-6.78h1.16Z" transform="translate(-13486.99 -5033.81)"/><path d="M14391.82,5436.66v2.73h3.22v-2.73h1.22v6.78H14395v-3.07h-3.22v3.07h-1.22v-6.78h1.22Z" transform="translate(-13486.99 -5033.81)"/><path d="M14399.3,5436.66v5.81h3.12v-5.81h1.22v5.86h0.7l-0.07,3.07h-1l-0.06-2.16h-5.18v-6.78h1.22Z" transform="translate(-13486.99 -5033.81)"/><path d="M14406.83,5436.66v2.86c0,1.08,0,1.75-.07,2.72h0c0.41-.83.64-1.3,1.09-2.09l2.12-3.5h1.44v6.78h-1.18v-2.87c0-1.11,0-1.68.08-2.77h0c-0.43.87-.73,1.41-1.12,2.1-0.64,1.05-1.39,2.35-2.12,3.54h-1.42v-6.78h1.16Z" transform="translate(-13486.99 -5033.81)"/><path d="M14418.87,5436.66v6.78h-1.23v-5.8h-3.15v5.8h-1.22v-6.78h5.6Z" transform="translate(-13486.99 -5033.81)"/><path d="M14421.9,5436.66V5439a5.81,5.81,0,0,1,1.11-.08c1.46,0,2.93.6,2.93,2.27a1.92,1.92,0,0,1-.7,1.57,4.27,4.27,0,0,1-2.73.78,16.9,16.9,0,0,1-1.82-.1v-6.75h1.22Zm0,5.93a6.91,6.91,0,0,0,.85.06c0.94,0,2-.39,2-1.44s-1-1.43-1.9-1.43a5.61,5.61,0,0,0-.91.07v2.75Zm6.11-5.93v6.78h-1.22v-6.78h1.22Z" transform="translate(-13486.99 -5033.81)"/><path d="M14010.21,5376.84h1.22v4.55h0c0.25-.36.5-0.7,0.74-1l2.89-3.54h1.51l-3.42,4,3.68,5.44h-1.44l-3.11-4.64-0.9,1v3.6h-1.22v-9.44Z" transform="translate(-13486.99 -5033.81)"/><path d="M14019.71,5383.31l-1,3h-1.26l3.21-9.44h1.47l3.22,9.44h-1.3l-1-3h-3.35Zm3.1-1-0.92-2.72c-0.21-.62-0.35-1.18-0.49-1.72h0c-0.14.56-.29,1.13-0.48,1.71l-0.92,2.73h2.84Z" transform="translate(-13486.99 -5033.81)"/><path d="M14027.78,5376.84v9.44h-1.22v-9.44h1.22Z" transform="translate(-13486.99 -5033.81)"/><path d="M14029,5385.56l5.24-7.66v0h-4.79v-1h6.37v0.74l-5.21,7.63v0h5.28v1H14029v-0.71Z" transform="translate(-13486.99 -5033.81)"/><path d="M14042,5381.85h-3.67v3.4h4.09v1h-5.31v-9.44h5.1v1h-3.88v3h3.67v1Z" transform="translate(-13486.99 -5033.81)"/><path d="M14043.79,5386.28v-9.44h1.33l3,4.78a26.73,26.73,0,0,1,1.7,3.07h0c-0.11-1.26-.14-2.41-0.14-3.88v-3.95h1.15v9.44h-1.23l-3-4.79a30.08,30.08,0,0,1-1.76-3.15h0c0.07,1.19.1,2.33,0.1,3.89v4h-1.15Z" transform="translate(-13486.99 -5033.81)"/><path d="M13811,5367.74a11.79,11.79,0,0,1,2.23-.2,3.9,3.9,0,0,1,2.59.69,2,2,0,0,1,.79,1.67,2.24,2.24,0,0,1-1.6,2.07v0a2.43,2.43,0,0,1,1.95,2.37,2.55,2.55,0,0,1-.8,1.89,4.75,4.75,0,0,1-3.26.88,14.33,14.33,0,0,1-1.89-.11v-9.29Zm1.22,3.87h1.11c1.29,0,2-.67,2-1.58,0-1.11-.84-1.54-2.07-1.54a5.23,5.23,0,0,0-1.08.08v3Zm0,4.52a6.52,6.52,0,0,0,1,.06c1.26,0,2.42-.46,2.42-1.83s-1.11-1.82-2.44-1.82h-1v3.6Z" transform="translate(-13486.99 -5033.81)"/><path d="M13819.57,5370.28v2.86c0,1.08,0,1.75-.07,2.72h0c0.41-.83.64-1.3,1.09-2.09l2.12-3.5h1.44v6.78H13823v-2.87c0-1.11,0-1.68.08-2.77h0c-0.43.87-.73,1.41-1.12,2.1-0.64,1.05-1.39,2.35-2.12,3.54h-1.42v-6.78h1.16Z" transform="translate(-13486.99 -5033.81)"/><path d="M13826.56,5373.12h0.59c1,0,1.74-.48,1.74-1.11a1.12,1.12,0,0,0-1.32-1,3.27,3.27,0,0,0-1.64.48l-0.31-.76a4.3,4.3,0,0,1,2.25-.62c1,0,2.3.46,2.3,1.78a1.73,1.73,0,0,1-1.53,1.54v0a1.8,1.8,0,0,1,1.85,1.69c0,1.47-1.5,2-2.93,2a4.64,4.64,0,0,1-2.2-.55l0.32-.83a3.91,3.91,0,0,0,1.79.46c1,0,1.67-.49,1.67-1.16,0-.91-1-1.16-2-1.16h-0.62v-0.84Z" transform="translate(-13486.99 -5033.81)"/><path d="M13832.28,5370.28l1.49,4c0.15,0.45.32,1,.43,1.39h0c0.13-.41.27-0.92,0.43-1.42l1.34-4h1.3l-1.85,4.83c-0.88,2.33-1.48,3.52-2.33,4.24a3.34,3.34,0,0,1-1.51.8l-0.31-1a3.26,3.26,0,0,0,1.08-.6,3.75,3.75,0,0,0,1-1.37,0.87,0.87,0,0,0,.1-0.29,1.08,1.08,0,0,0-.08-0.32l-2.51-6.25h1.34Z" transform="translate(-13486.99 -5033.81)"/><path d="M13842.08,5377.06l-0.1-.85h0a2.52,2.52,0,0,1-2.07,1,1.93,1.93,0,0,1-2.07-1.95c0-1.64,1.46-2.54,4.08-2.52v-0.14a1.4,1.4,0,0,0-1.54-1.57,3.38,3.38,0,0,0-1.76.5l-0.28-.81a4.21,4.21,0,0,1,2.23-.6c2.07,0,2.58,1.41,2.58,2.77v2.54a9.55,9.55,0,0,0,.11,1.63h-1.12Zm-0.18-3.46c-1.34,0-2.87.21-2.87,1.53a1.09,1.09,0,0,0,1.16,1.18,1.69,1.69,0,0,0,1.64-1.13,1.29,1.29,0,0,0,.07-0.39v-1.18Z" transform="translate(-13486.99 -5033.81)"/><path d="M13850.18,5370.28v6.78H13849v-5.81h-2.33V5373c0,1.91-.18,3.18-1.06,3.75a2,2,0,0,1-1.34.42l-0.13-1a1.52,1.52,0,0,0,.67-0.28c0.63-.46.7-1.41,0.7-2.93v-2.73h4.71Z" transform="translate(-13486.99 -5033.81)"/><path d="M13853.22,5370.28v2.3a6.86,6.86,0,0,1,1.12-.07c1.53,0,3.14.48,3.14,2.28a1.92,1.92,0,0,1-.71,1.55,4.71,4.71,0,0,1-2.94.78,16.9,16.9,0,0,1-1.82-.1v-6.75h1.22Zm0,5.93a7.16,7.16,0,0,0,.91.06c0.92,0,2.12-.31,2.12-1.44s-1.23-1.43-2.14-1.43a5.79,5.79,0,0,0-.88.07v2.75Z" transform="translate(-13486.99 -5033.81)"/><path d="M13859.94,5370.28V5373h3.22v-2.73h1.22v6.78h-1.22V5374h-3.22v3.07h-1.22v-6.78h1.22Z" transform="translate(-13486.99 -5033.81)"/><path d="M13867.42,5370.28v2.31a5.81,5.81,0,0,1,1.11-.08c1.46,0,2.93.6,2.93,2.27a1.92,1.92,0,0,1-.7,1.57,4.27,4.27,0,0,1-2.73.78,16.9,16.9,0,0,1-1.82-.1v-6.75h1.22Zm0,5.93a6.91,6.91,0,0,0,.85.06c0.94,0,2-.39,2-1.44s-1-1.43-1.9-1.43a5.62,5.62,0,0,0-.91.07v2.75Zm6.11-5.93v6.78h-1.22v-6.78h1.22Z" transform="translate(-13486.99 -5033.81)"/><path d="M13876.52,5370.28v2.86c0,1.08,0,1.75-.07,2.72h0c0.41-.83.64-1.3,1.09-2.09l2.12-3.5h1.44v6.78H13880v-2.87c0-1.11,0-1.68.08-2.77h0c-0.43.87-.73,1.41-1.12,2.1-0.64,1.05-1.39,2.35-2.12,3.54h-1.42v-6.78h1.16Zm0.8-2.76a1,1,0,0,0,.9,1.06,1,1,0,0,0,1-1.06h0.88a1.7,1.7,0,0,1-1.86,1.74,1.63,1.63,0,0,1-1.76-1.74h0.9Z" transform="translate(-13486.99 -5033.81)"/><path d="M13810.3,5387.08h1.51l1.23,3.42c0.17,0.5.46,1.33,0.62,1.86h0c0.15-.5.53-1.58,0.8-2.33l1.09-3h1.53l0.48,6.78h-1.18l-0.15-3.24c0-.73-0.1-1.6-0.13-2.42h0c-0.18.62-.36,1.16-0.74,2.2l-1.3,3.42h-0.9l-1.21-3.35c-0.21-.64-0.5-1.62-0.67-2.26h-0.06c0,0.8-.07,1.69-0.11,2.44l-0.17,3.21h-1.13Z" transform="translate(-13486.99 -5033.81)"/><path d="M13819.84,5390.69a2.17,2.17,0,0,0,2.33,2.35,4.45,4.45,0,0,0,1.88-.35l0.21,0.88a5.48,5.48,0,0,1-2.25.42,3.15,3.15,0,0,1-3.33-3.42c0-2,1.21-3.66,3.18-3.66,2.21,0,2.8,1.95,2.8,3.19a4.73,4.73,0,0,1,0,.57h-4.76Zm3.61-.88a1.76,1.76,0,0,0-1.71-2,2,2,0,0,0-1.89,2h3.6Z" transform="translate(-13486.99 -5033.81)"/><path d="M13827.24,5387.08v2.73h3.22v-2.73h1.22v6.78h-1.22v-3.07h-3.22v3.07H13826v-6.78h1.22Z" transform="translate(-13486.99 -5033.81)"/><path d="M13834.27,5390.69a2.17,2.17,0,0,0,2.33,2.35,4.45,4.45,0,0,0,1.88-.35l0.21,0.88a5.48,5.48,0,0,1-2.25.42,3.15,3.15,0,0,1-3.33-3.42c0-2,1.21-3.66,3.18-3.66,2.21,0,2.8,1.95,2.8,3.19a4.73,4.73,0,0,1,0,.57h-4.76Zm3.61-.88a1.76,1.76,0,0,0-1.71-2,2,2,0,0,0-1.89,2h3.6Z" transform="translate(-13486.99 -5033.81)"/><path d="M13845.84,5387.08v5.86h0.7l-0.07,3.07h-1l-0.06-2.16h-4.69l-0.06,2.16h-1l-0.06-3.07h0.57a5.28,5.28,0,0,0,.67-1.39,8.94,8.94,0,0,0,.39-2.7v-1.77h4.52Zm-3.43,2.06a9,9,0,0,1-.35,2.52,6.44,6.44,0,0,1-.55,1.26h3.12V5388h-2.23v1.12Z" transform="translate(-13486.99 -5033.81)"/><path d="M13848.81,5387.08l2.24,3h0.25v-3h1.18v3h0.24l2.24-3h1.42l-2.68,3.08a2.37,2.37,0,0,1,2,1.79,16.38,16.38,0,0,0,.74,1.91h-1.23a9.94,9.94,0,0,1-.62-1.55,1.87,1.87,0,0,0-1.93-1.44h-0.21v3h-1.18v-3h-0.22a1.86,1.86,0,0,0-1.95,1.46,11.84,11.84,0,0,1-.64,1.54h-1.19a19.72,19.72,0,0,0,.74-1.89,2.4,2.4,0,0,1,2-1.81l-2.69-3.08h1.42Z" transform="translate(-13486.99 -5033.81)"/><path d="M13857.8,5387.08h1.51l1.23,3.42c0.17,0.5.46,1.33,0.62,1.86h0c0.15-.5.53-1.58,0.8-2.33l1.09-3h1.53l0.48,6.78h-1.18l-0.15-3.24c0-.73-0.1-1.6-0.13-2.42h0c-0.18.62-.36,1.16-0.74,2.2l-1.3,3.42h-0.9l-1.21-3.35c-0.21-.64-0.5-1.62-0.67-2.26h-0.06c0,0.8-.07,1.69-0.11,2.44l-0.17,3.21h-1.13Z" transform="translate(-13486.99 -5033.81)"/><path d="M13867.34,5390.69a2.17,2.17,0,0,0,2.33,2.35,4.45,4.45,0,0,0,1.88-.35l0.21,0.88a5.48,5.48,0,0,1-2.25.42,3.15,3.15,0,0,1-3.33-3.42c0-2,1.21-3.66,3.18-3.66,2.21,0,2.8,1.95,2.8,3.19a4.73,4.73,0,0,1,0,.57h-4.76Zm3.61-.88a1.76,1.76,0,0,0-1.71-2,2,2,0,0,0-1.89,2h3.6Z" transform="translate(-13486.99 -5033.81)"/><path d="M13874.74,5387.08v2.73h3.22v-2.73h1.22v6.78H13878v-3.07h-3.22v3.07h-1.22v-6.78h1.22Z" transform="translate(-13486.99 -5033.81)"/><path d="M13885.7,5387.08v1h-2.11v5.8h-1.22v-5.8h-2.12v-1h5.45Z" transform="translate(-13486.99 -5033.81)"/><path d="M13645.25,5276.35h1.22v6.32c0,2.51-1.23,3.28-2.86,3.28a4,4,0,0,1-1.3-.22l0.18-1a2.9,2.9,0,0,0,1,.18c1.09,0,1.74-.49,1.74-2.34v-6.22Z" transform="translate(-13486.99 -5033.81)"/><path d="M13649.65,5276.35v9.44h-1.22v-9.44h1.22Z" transform="translate(-13486.99 -5033.81)"/><path d="M13653.53,5277.38h-2.87v-1h7v1h-2.89v8.4h-1.23v-8.4Z" transform="translate(-13486.99 -5033.81)"/><path d="M13998.67,5280.47h4.4a3.23,3.23,0,0,0-3.24-3.26,4.92,4.92,0,0,0-2,.48l-0.29-.94a6,6,0,0,1,2.38-.55c3,0,4.48,2.14,4.48,4.89,0,3.1-2,4.86-4.55,4.86a6,6,0,0,1-2.47-.49l0.27-1a5.2,5.2,0,0,0,2,.43,3.35,3.35,0,0,0,3.42-3.47h-4.41v-1Z" transform="translate(-13486.99 -5033.81)"/><path d="M14009.9,5275.84v3a3.52,3.52,0,0,1,0,7v2.65h-1.12v-2.63a3.35,3.35,0,0,1-3.4-3.47,3.41,3.41,0,0,1,3.4-3.57v-3h1.12Zm-1.12,3.88a2.73,2.73,0,0,0,0,5.35v-5.35Zm1.12,5.35a2.55,2.55,0,0,0,2.19-2.69,2.52,2.52,0,0,0-2.19-2.66v5.35Z" transform="translate(-13486.99 -5033.81)"/><path d="M14018.85,5275.84v3a3.52,3.52,0,0,1,0,7v2.65h-1.12v-2.63a3.35,3.35,0,0,1-3.4-3.47,3.41,3.41,0,0,1,3.4-3.57v-3h1.12Zm-1.12,3.88a2.73,2.73,0,0,0,0,5.35v-5.35Zm1.12,5.35a2.55,2.55,0,0,0,2.19-2.69,2.52,2.52,0,0,0-2.19-2.66v5.35Z" transform="translate(-13486.99 -5033.81)"/><path d="M14024.45,5282.62a2.17,2.17,0,0,0,2.33,2.35,4.45,4.45,0,0,0,1.88-.35l0.21,0.88a5.48,5.48,0,0,1-2.25.42,3.15,3.15,0,0,1-3.33-3.42c0-2,1.21-3.66,3.18-3.66,2.21,0,2.8,1.95,2.8,3.19a4.73,4.73,0,0,1,0,.57h-4.76Zm3.61-.88a1.76,1.76,0,0,0-1.71-2,2,2,0,0,0-1.89,2h3.6Z" transform="translate(-13486.99 -5033.81)"/><path d="M14031.87,5279V5282h0.29l2.55-2.94h1.5l-3,3.07c1.09,0.11,1.75.84,2.28,2.06a14.33,14.33,0,0,0,.73,1.65H14035a9,9,0,0,1-.63-1.39,2.2,2.2,0,0,0-2.24-1.6h-0.24v3h-1.22V5279h1.22Z" transform="translate(-13486.99 -5033.81)"/><path d="M14042.29,5279v1h-2.12v5.8H14039V5280h-2.12v-1h5.45Z" transform="translate(-13486.99 -5033.81)"/><path d="M14044.51,5279v2.86c0,1.08,0,1.75-.07,2.72h0c0.41-.83.64-1.3,1.09-2.09l2.12-3.5h1.44v6.78H14048v-2.87c0-1.11,0-1.68.08-2.77h0c-0.43.87-.73,1.41-1.12,2.1-0.64,1.05-1.39,2.35-2.12,3.54h-1.42V5279h1.16Z" transform="translate(-13486.99 -5033.81)"/><path d="M14050.95,5279.09a14.47,14.47,0,0,1,2.16-.15c1.13,0,3,.18,3,1.69a1.6,1.6,0,0,1-1.41,1.53v0a1.73,1.73,0,0,1,1.72,1.68c0,1.78-2.24,2-3.57,2-0.76,0-1.54-.06-1.91-0.08v-6.7Zm1.16,5.88a7.47,7.47,0,0,0,1,.06c0.83,0,2.06-.2,2.06-1.18s-1-1.19-2.16-1.19h-0.9V5285Zm0-3.12h0.92c0.91,0,1.85-.27,1.85-1.06s-0.59-1-1.82-1a8.79,8.79,0,0,0-1,.06v2Z" transform="translate(-13486.99 -5033.81)"/><path d="M14059.05,5279v2.73h3.22V5279h1.22v6.78h-1.22v-3.07h-3.22v3.07h-1.22V5279h1.22Z" transform="translate(-13486.99 -5033.81)"/><path d="M14071.53,5282.34a3.31,3.31,0,0,1-3.38,3.6,3.22,3.22,0,0,1-3.25-3.49,3.31,3.31,0,0,1,3.36-3.6A3.21,3.21,0,0,1,14071.53,5282.34Zm-5.38.07c0,1.48.85,2.61,2.06,2.61s2.06-1.11,2.06-2.63c0-1.15-.57-2.61-2-2.61S14066.15,5281.12,14066.15,5282.41Z" transform="translate(-13486.99 -5033.81)"/><path d="M14077.87,5285.54a4.55,4.55,0,0,1-1.95.39,3.22,3.22,0,0,1-3.38-3.46,3.44,3.44,0,0,1,3.64-3.6,4.11,4.11,0,0,1,1.71.35l-0.28,1a2.86,2.86,0,0,0-1.43-.32,2.56,2.56,0,0,0,0,5.1,3.5,3.5,0,0,0,1.51-.34Z" transform="translate(-13486.99 -5033.81)"/><path d="M14084.11,5279v1H14082v5.8h-1.22V5280h-2.12v-1h5.45Z" transform="translate(-13486.99 -5033.81)"/><path d="M14086.38,5279v2.3a6.86,6.86,0,0,1,1.12-.07c1.53,0,3.14.48,3.14,2.28a1.92,1.92,0,0,1-.71,1.55,4.71,4.71,0,0,1-2.94.78,16.9,16.9,0,0,1-1.82-.1V5279h1.22Zm0,5.93a7.16,7.16,0,0,0,.91.06c0.92,0,2.12-.31,2.12-1.44s-1.23-1.43-2.14-1.43a5.79,5.79,0,0,0-.88.07v2.75Z" transform="translate(-13486.99 -5033.81)"/><path d="M13821.72,5267.13v4.19h0.38l3.24-4.19h1.47l-3.57,4.33c1.55,0.21,2.16,1.16,2.65,2.44a24.71,24.71,0,0,0,1,2.68h-1.32a16.74,16.74,0,0,1-.85-2.23c-0.43-1.25-1-2.1-2.63-2.1h-0.39v4.33h-1.21v-9.44h1.21Z" transform="translate(-13486.99 -5033.81)"/><path d="M13833.9,5273.12a3.31,3.31,0,0,1-3.38,3.6,3.22,3.22,0,0,1-3.25-3.49,3.31,3.31,0,0,1,3.36-3.6A3.21,3.21,0,0,1,13833.9,5273.12Zm-5.38.07c0,1.48.85,2.61,2.06,2.61s2.06-1.11,2.06-2.63c0-1.15-.57-2.61-2-2.61S13828.52,5271.9,13828.52,5273.19Z" transform="translate(-13486.99 -5033.81)"/><path d="M13835.46,5269.79h1.51l1.23,3.42c0.17,0.5.46,1.33,0.62,1.86h0c0.15-.5.53-1.58,0.8-2.33l1.09-3h1.53l0.48,6.78h-1.18l-0.15-3.24c0-.73-0.1-1.6-0.13-2.42h0c-0.18.62-.36,1.16-0.74,2.2l-1.3,3.42h-0.9l-1.21-3.35c-0.21-.64-0.5-1.62-0.67-2.26h-0.06c0,0.8-.07,1.69-0.11,2.44l-0.17,3.21H13835Z" transform="translate(-13486.99 -5033.81)"/><path d="M13844.46,5269.79h1.51l1.23,3.42c0.17,0.5.46,1.33,0.62,1.86h0c0.15-.5.53-1.58,0.8-2.33l1.09-3h1.53l0.48,6.78h-1.18l-0.15-3.24c0-.73-0.1-1.6-0.13-2.42h0c-0.18.62-.36,1.16-0.74,2.2l-1.3,3.42h-0.9l-1.21-3.35c-0.21-.64-0.5-1.62-0.67-2.26h-0.06c0,0.8-.07,1.69-0.11,2.44l-0.17,3.21H13844Z" transform="translate(-13486.99 -5033.81)"/><path d="M13857,5276.57l-0.1-.85h0a2.53,2.53,0,0,1-2.07,1,1.93,1.93,0,0,1-2.07-1.95c0-1.64,1.46-2.54,4.08-2.52v-0.14a1.4,1.4,0,0,0-1.54-1.57,3.38,3.38,0,0,0-1.76.5l-0.28-.81a4.21,4.21,0,0,1,2.23-.6c2.07,0,2.58,1.41,2.58,2.77v2.54a9.55,9.55,0,0,0,.11,1.63H13857Zm-0.18-3.46c-1.34,0-2.87.21-2.87,1.53a1.09,1.09,0,0,0,1.16,1.18,1.69,1.69,0,0,0,1.64-1.13,1.29,1.29,0,0,0,.07-0.39v-1.18Z" transform="translate(-13486.99 -5033.81)"/><path d="M13861,5269.79v2.73h3.22v-2.73h1.22v6.78h-1.22v-3.07H13861v3.07h-1.22v-6.78h1.22Z" transform="translate(-13486.99 -5033.81)"/><path d="M13872.67,5269.79v5.86h0.7l-0.07,3.07h-1l-0.06-2.16h-4.69l-0.06,2.16h-1l-0.06-3.07h0.57a5.28,5.28,0,0,0,.67-1.39,8.94,8.94,0,0,0,.39-2.7v-1.77h4.52Zm-3.43,2.06a9,9,0,0,1-.35,2.52,6.44,6.44,0,0,1-.55,1.26h3.12v-4.9h-2.23v1.12Z" transform="translate(-13486.99 -5033.81)"/><path d="M13878.56,5276.57l-0.1-.85h0a2.52,2.52,0,0,1-2.07,1,1.93,1.93,0,0,1-2.07-1.95c0-1.64,1.46-2.54,4.08-2.52v-0.14a1.4,1.4,0,0,0-1.54-1.57,3.38,3.38,0,0,0-1.76.5l-0.28-.81a4.21,4.21,0,0,1,2.23-.6c2.07,0,2.58,1.41,2.58,2.77v2.54a9.55,9.55,0,0,0,.11,1.63h-1.12Zm-0.18-3.46c-1.34,0-2.87.21-2.87,1.53a1.09,1.09,0,0,0,1.16,1.18,1.69,1.69,0,0,0,1.64-1.13,1.29,1.29,0,0,0,.07-0.39v-1.18Z" transform="translate(-13486.99 -5033.81)"/><path d="M13805.6,5286.59v6.78h-1.23v-5.8h-3.15v5.8H13800v-6.78h5.6Z" transform="translate(-13486.99 -5033.81)"/><path d="M13807.44,5288.8c0-.87,0-1.57-0.06-2.21h1.11l0.06,1.16h0a2.67,2.67,0,0,1,2.41-1.32c1.64,0,2.87,1.39,2.87,3.45,0,2.44-1.49,3.64-3.08,3.64a2.38,2.38,0,0,1-2.09-1.06h0v3.68h-1.22v-7.34Zm1.22,1.81a2.83,2.83,0,0,0,.06.5,1.9,1.9,0,0,0,1.85,1.44c1.3,0,2.06-1.06,2.06-2.62,0-1.36-.71-2.52-2-2.52a2,2,0,0,0-1.86,1.53,2,2,0,0,0-.08.5v1.16Z" transform="translate(-13486.99 -5033.81)"/><path d="M13821.5,5289.92a3.31,3.31,0,0,1-3.38,3.6,3.22,3.22,0,0,1-3.25-3.49,3.31,3.31,0,0,1,3.36-3.6A3.21,3.21,0,0,1,13821.5,5289.92Zm-5.38.07c0,1.48.85,2.61,2.06,2.61s2.06-1.11,2.06-2.63c0-1.15-.57-2.61-2-2.61S13816.12,5288.7,13816.12,5290Z" transform="translate(-13486.99 -5033.81)"/><path d="M13827,5283.42v3a3.52,3.52,0,0,1,0,7v2.65h-1.12v-2.63a3.35,3.35,0,0,1-3.4-3.47,3.41,3.41,0,0,1,3.4-3.57v-3h1.12Zm-1.12,3.88a2.73,2.73,0,0,0,0,5.35v-5.35Zm1.12,5.35a2.55,2.55,0,0,0,2.19-2.69,2.52,2.52,0,0,0-2.19-2.66v5.35Z" transform="translate(-13486.99 -5033.81)"/><path d="M13832.65,5290.2a2.17,2.17,0,0,0,2.33,2.35,4.45,4.45,0,0,0,1.88-.35l0.21,0.88a5.48,5.48,0,0,1-2.25.42,3.15,3.15,0,0,1-3.33-3.42c0-2,1.21-3.66,3.18-3.66,2.21,0,2.8,1.95,2.8,3.19a4.73,4.73,0,0,1,0,.57h-4.76Zm3.61-.88a1.76,1.76,0,0,0-1.71-2,2,2,0,0,0-1.89,2h3.6Z" transform="translate(-13486.99 -5033.81)"/><path d="M13843.78,5293.11a4.55,4.55,0,0,1-1.95.39,3.22,3.22,0,0,1-3.38-3.46,3.44,3.44,0,0,1,3.64-3.6,4.11,4.11,0,0,1,1.71.35l-0.28,1a2.86,2.86,0,0,0-1.43-.32,2.56,2.56,0,0,0,0,5.1,3.5,3.5,0,0,0,1.51-.34Z" transform="translate(-13486.99 -5033.81)"/><path d="M13849.73,5293.11a4.55,4.55,0,0,1-1.95.39,3.22,3.22,0,0,1-3.38-3.46,3.44,3.44,0,0,1,3.64-3.6,4.11,4.11,0,0,1,1.71.35l-0.28,1a2.86,2.86,0,0,0-1.43-.32,2.56,2.56,0,0,0,0,5.1,3.5,3.5,0,0,0,1.51-.34Z" transform="translate(-13486.99 -5033.81)"/><path d="M13852.09,5286.59v2.86c0,1.08,0,1.75-.07,2.72h0c0.41-.83.64-1.3,1.09-2.09l2.12-3.5h1.44v6.78h-1.18v-2.87c0-1.11,0-1.68.08-2.77h0c-0.43.87-.73,1.41-1.12,2.1-0.64,1.05-1.39,2.35-2.12,3.54h-1.42v-6.78h1.16Z" transform="translate(-13486.99 -5033.81)"/><path d="M13864.75,5289.92a3.31,3.31,0,0,1-3.38,3.6,3.22,3.22,0,0,1-3.25-3.49,3.31,3.31,0,0,1,3.36-3.6A3.21,3.21,0,0,1,13864.75,5289.92Zm-5.38.07c0,1.48.85,2.61,2.06,2.61s2.06-1.11,2.06-2.63c0-1.15-.57-2.61-2-2.61S13859.37,5288.7,13859.37,5290Z" transform="translate(-13486.99 -5033.81)"/><path d="M13867.38,5286.59v2.73h3.22v-2.73h1.22v6.78h-1.22v-3.07h-3.22v3.07h-1.22v-6.78h1.22Z" transform="translate(-13486.99 -5033.81)"/><path d="M13877.42,5293.37l-0.1-.85h0a2.53,2.53,0,0,1-2.07,1,1.93,1.93,0,0,1-2.07-1.95c0-1.64,1.46-2.54,4.08-2.52v-0.14a1.4,1.4,0,0,0-1.54-1.57,3.38,3.38,0,0,0-1.76.5l-0.28-.81a4.21,4.21,0,0,1,2.23-.6c2.07,0,2.58,1.41,2.58,2.77v2.54a9.55,9.55,0,0,0,.11,1.63h-1.12Zm-0.18-3.46c-1.34,0-2.87.21-2.87,1.53a1.09,1.09,0,0,0,1.16,1.18,1.69,1.69,0,0,0,1.64-1.13,1.29,1.29,0,0,0,.07-0.39v-1.18Z" transform="translate(-13486.99 -5033.81)"/><path d="M13885.52,5286.59v6.78h-1.22v-5.81H13882v1.76c0,1.91-.18,3.18-1.06,3.75a2,2,0,0,1-1.34.42l-0.13-1a1.52,1.52,0,0,0,.67-0.28c0.63-.46.7-1.41,0.7-2.93v-2.73h4.71Z" transform="translate(-13486.99 -5033.81)"/><path d="M13893.56,5289.92a3.31,3.31,0,0,1-3.38,3.6,3.22,3.22,0,0,1-3.25-3.49,3.31,3.31,0,0,1,3.36-3.6A3.21,3.21,0,0,1,13893.56,5289.92Zm-5.38.07c0,1.48.85,2.61,2.06,2.61s2.06-1.11,2.06-2.63c0-1.15-.57-2.61-2-2.61S13888.18,5288.7,13888.18,5290Z" transform="translate(-13486.99 -5033.81)"/><path d="M13895,5286.67a14.47,14.47,0,0,1,2.16-.15c1.13,0,3,.18,3,1.69a1.6,1.6,0,0,1-1.41,1.53v0a1.73,1.73,0,0,1,1.72,1.68c0,1.78-2.24,2-3.57,2-0.76,0-1.54-.06-1.91-0.08v-6.7Zm1.16,5.88a7.47,7.47,0,0,0,1,.06c0.83,0,2.06-.2,2.06-1.18s-1-1.19-2.16-1.19h-0.9v2.31Zm0-3.12h0.92c0.91,0,1.85-.27,1.85-1.06s-0.59-1-1.82-1a8.81,8.81,0,0,0-1,.06v2Z" transform="translate(-13486.99 -5033.81)"/><path d="M13790.74,5434l1.88,4c0.24,0.56.46,1.11,0.69,1.67h0c0.17-.49.35-1,0.59-1.71l1.47-4h1.29l-2,4.85a18.22,18.22,0,0,1-1.76,3.59,2.67,2.67,0,0,1-2.14,1.16,2.1,2.1,0,0,1-.69-0.08l0.13-1a1.72,1.72,0,0,0,.45,0,2.31,2.31,0,0,0,1.85-1.62,0.57,0.57,0,0,0,0-.57l-3.14-6.36h1.39Z" transform="translate(-13486.99 -5033.81)"/><path d="M13797.13,5436.75a14.47,14.47,0,0,1,2.16-.15c1.13,0,3,.18,3,1.69a1.6,1.6,0,0,1-1.41,1.53v0a1.73,1.73,0,0,1,1.72,1.68c0,1.78-2.24,2-3.57,2-0.76,0-1.54-.06-1.91-0.08v-6.7Zm1.16,5.88a7.47,7.47,0,0,0,1,.06c0.83,0,2.06-.2,2.06-1.18s-1-1.19-2.16-1.19h-0.9v2.31Zm0-3.12h0.92c0.91,0,1.85-.27,1.85-1.06s-0.59-1-1.82-1a8.79,8.79,0,0,0-1,.06v2Z" transform="translate(-13486.99 -5033.81)"/><path d="M13807.89,5443.44l-0.1-.85h0a2.52,2.52,0,0,1-2.07,1,1.93,1.93,0,0,1-2.07-1.95c0-1.64,1.46-2.54,4.08-2.52V5439a1.4,1.4,0,0,0-1.54-1.57,3.38,3.38,0,0,0-1.76.5l-0.28-.81a4.21,4.21,0,0,1,2.23-.6c2.07,0,2.58,1.41,2.58,2.77v2.54a9.55,9.55,0,0,0,.11,1.63h-1.12Zm-0.18-3.46c-1.34,0-2.87.21-2.87,1.53a1.09,1.09,0,0,0,1.16,1.18,1.69,1.69,0,0,0,1.64-1.13,1.29,1.29,0,0,0,.07-0.39V5440Z" transform="translate(-13486.99 -5033.81)"/><path d="M13811.47,5436.66l2.24,3h0.25v-3h1.18v3h0.24l2.24-3h1.42l-2.68,3.08a2.37,2.37,0,0,1,2,1.79,16.38,16.38,0,0,0,.74,1.91h-1.23a9.94,9.94,0,0,1-.62-1.55,1.87,1.87,0,0,0-1.93-1.44h-0.21v3H13814v-3h-0.22a1.86,1.86,0,0,0-1.95,1.46,11.84,11.84,0,0,1-.64,1.54H13810a19.72,19.72,0,0,0,.74-1.89,2.4,2.4,0,0,1,2-1.81l-2.69-3.08h1.42Z" transform="translate(-13486.99 -5033.81)"/><path d="M13820.74,5440.28a2.17,2.17,0,0,0,2.33,2.35,4.45,4.45,0,0,0,1.88-.35l0.21,0.88a5.48,5.48,0,0,1-2.25.42,3.15,3.15,0,0,1-3.33-3.42c0-2,1.21-3.66,3.18-3.66,2.21,0,2.8,1.95,2.8,3.19a4.73,4.73,0,0,1,0,.57h-4.76Zm3.61-.88a1.76,1.76,0,0,0-1.71-2,2,2,0,0,0-1.89,2h3.6Z" transform="translate(-13486.99 -5033.81)"/><path d="M13828.14,5436.66v2.73h3.22v-2.73h1.22v6.78h-1.22v-3.07h-3.22v3.07h-1.22v-6.78h1.22Z" transform="translate(-13486.99 -5033.81)"/><path d="M13835.56,5436.66v2.86c0,1.08,0,1.75-.07,2.72h0c0.41-.83.64-1.3,1.09-2.09l2.12-3.5h1.44v6.78H13839v-2.87c0-1.11,0-1.68.08-2.77h0c-0.43.87-.73,1.41-1.12,2.1-0.64,1.05-1.39,2.35-2.12,3.54h-1.42v-6.78h1.16Z" transform="translate(-13486.99 -5033.81)"/><path d="M13842.77,5440.28a2.17,2.17,0,0,0,2.33,2.35,4.45,4.45,0,0,0,1.88-.35l0.21,0.88a5.48,5.48,0,0,1-2.25.42,3.15,3.15,0,0,1-3.33-3.42c0-2,1.21-3.66,3.18-3.66,2.21,0,2.8,1.95,2.8,3.19a4.73,4.73,0,0,1,0,.57h-4.76Zm3.61-.88a1.76,1.76,0,0,0-1.71-2,2,2,0,0,0-1.89,2h3.6Z" transform="translate(-13486.99 -5033.81)"/><path d="M13853.28,5436.66v2.94h0.29l2.55-2.94h1.5l-3,3.07c1.09,0.11,1.75.84,2.28,2.06a14.33,14.33,0,0,0,.73,1.65h-1.29a9,9,0,0,1-.63-1.39,2.2,2.2,0,0,0-2.24-1.6h-0.24v3h-1.22v-6.78h1.22Z" transform="translate(-13486.99 -5033.81)"/><path d="M13866.82,5436.66v6.78h-1.22v-5.81h-2.33v1.76c0,1.91-.18,3.18-1.06,3.75a2,2,0,0,1-1.34.42l-0.13-1a1.52,1.52,0,0,0,.67-0.28c0.63-.46.7-1.41,0.7-2.93v-2.73h4.71Z" transform="translate(-13486.99 -5033.81)"/><path d="M13869.85,5436.66v2.86h1.16a3.09,3.09,0,0,1,3-3c1.77,0,3,1.4,3,3.49s-1.34,3.6-3.05,3.6-2.82-1.21-3-3.14h-1.13v3h-1.21v-6.78h1.21Zm5.91,3.36c0-1.27-.57-2.59-1.78-2.59s-1.82,1.29-1.82,2.66,0.6,2.59,1.79,2.59S13875.76,5441.31,13875.76,5440Z" transform="translate(-13486.99 -5033.81)"/><path d="M13883.64,5436.66v5.86h0.7l-0.07,3.07h-1l-0.06-2.16h-4.69l-0.06,2.16h-1l-0.06-3.07h0.57a5.28,5.28,0,0,0,.67-1.39,8.94,8.94,0,0,0,.39-2.7v-1.77h4.52Zm-3.43,2.06a9,9,0,0,1-.35,2.52,6.44,6.44,0,0,1-.55,1.26h3.12v-4.9h-2.23v1.12Z" transform="translate(-13486.99 -5033.81)"/><path d="M13890.94,5443.44h-1.22v-2.84h-0.91a1.6,1.6,0,0,0-1.13.38,4.71,4.71,0,0,0-1,1.9,4.19,4.19,0,0,1-.28.56h-1.32a4.39,4.39,0,0,0,.42-0.77,5.2,5.2,0,0,1,1.06-2,1.62,1.62,0,0,1,.77-0.39v0a1.8,1.8,0,0,1-1.79-1.68,1.63,1.63,0,0,1,.9-1.47,4.75,4.75,0,0,1,2.27-.46,18.91,18.91,0,0,1,2.18.14v6.72Zm-1.22-6a6.9,6.9,0,0,0-1-.07c-0.84,0-1.83.24-1.83,1.18s1.08,1.18,1.81,1.18h1.05v-2.28Z" transform="translate(-13486.99 -5033.81)"/><path d="M13893,5436.66h1.51l1.23,3.42c0.17,0.5.46,1.33,0.62,1.86h0c0.15-.5.53-1.58,0.8-2.33l1.09-3h1.53l0.48,6.78h-1.18l-0.15-3.24c0-.73-0.1-1.6-0.13-2.42h0c-0.18.62-.36,1.16-0.74,2.2l-1.3,3.42h-0.9l-1.21-3.35c-0.21-.64-0.5-1.62-0.67-2.26h-0.06c0,0.8-.07,1.69-0.11,2.44l-0.17,3.21h-1.13Z" transform="translate(-13486.99 -5033.81)"/><path d="M14008.51,5434V5438h4.57V5434h1.23v9.44h-1.23V5439h-4.57v4.43h-1.22V5434h1.22Z" transform="translate(-13486.99 -5033.81)"/><path d="M14016.93,5440.28a2.17,2.17,0,0,0,2.33,2.35,4.45,4.45,0,0,0,1.88-.35l0.21,0.88a5.48,5.48,0,0,1-2.25.42,3.15,3.15,0,0,1-3.33-3.42c0-2,1.21-3.66,3.18-3.66,2.21,0,2.8,1.95,2.8,3.19a4.73,4.73,0,0,1,0,.57h-4.76Zm3.61-.88a1.76,1.76,0,0,0-1.71-2,2,2,0,0,0-1.89,2h3.6Z" transform="translate(-13486.99 -5033.81)"/><path d="M14028.72,5436.66v6.78h-1.23v-5.8h-3.15v5.8h-1.22v-6.78h5.6Z" transform="translate(-13486.99 -5033.81)"/><path d="M14030.56,5438.88c0-.87,0-1.57-0.06-2.21h1.11l0.06,1.16h0a2.67,2.67,0,0,1,2.41-1.32c1.64,0,2.87,1.39,2.87,3.45,0,2.44-1.49,3.64-3.08,3.64a2.38,2.38,0,0,1-2.09-1.06h0v3.68h-1.22v-7.34Zm1.22,1.81a2.83,2.83,0,0,0,.06.5,1.9,1.9,0,0,0,1.85,1.44c1.3,0,2.06-1.06,2.06-2.62,0-1.36-.71-2.52-2-2.52a2,2,0,0,0-1.86,1.53,2,2,0,0,0-.08.5v1.16Z" transform="translate(-13486.99 -5033.81)"/><path d="M14039.17,5440.28a2.17,2.17,0,0,0,2.33,2.35,4.45,4.45,0,0,0,1.88-.35l0.21,0.88a5.48,5.48,0,0,1-2.25.42,3.15,3.15,0,0,1-3.33-3.42c0-2,1.21-3.66,3.18-3.66,2.21,0,2.8,1.95,2.8,3.19a4.73,4.73,0,0,1,0,.57h-4.76Zm3.61-.88a1.76,1.76,0,0,0-1.71-2,2,2,0,0,0-1.89,2h3.6Z" transform="translate(-13486.99 -5033.81)"/><path d="M14045.34,5438.88c0-.87,0-1.57-0.06-2.21h1.11l0.06,1.16h0a2.67,2.67,0,0,1,2.41-1.32c1.64,0,2.87,1.39,2.87,3.45,0,2.44-1.49,3.64-3.08,3.64a2.38,2.38,0,0,1-2.09-1.06h0v3.68h-1.22v-7.34Zm1.22,1.81a2.83,2.83,0,0,0,.06.5,1.9,1.9,0,0,0,1.85,1.44c1.3,0,2.06-1.06,2.06-2.62,0-1.36-.71-2.52-2-2.52a2,2,0,0,0-1.86,1.53,2,2,0,0,0-.08.5v1.16Z" transform="translate(-13486.99 -5033.81)"/><path d="M14054.41,5436.66V5439a5.81,5.81,0,0,1,1.11-.08c1.46,0,2.93.6,2.93,2.27a1.92,1.92,0,0,1-.7,1.57,4.27,4.27,0,0,1-2.73.78,16.9,16.9,0,0,1-1.82-.1v-6.75h1.22Zm0,5.93a6.91,6.91,0,0,0,.85.06c0.94,0,2-.39,2-1.44s-1-1.43-1.9-1.43a5.62,5.62,0,0,0-.91.07v2.75Zm6.11-5.93v6.78h-1.22v-6.78h1.22Z" transform="translate(-13486.99 -5033.81)"/><path d="M14062.34,5436.75a14.47,14.47,0,0,1,2.16-.15c1.13,0,3,.18,3,1.69a1.6,1.6,0,0,1-1.41,1.53v0a1.73,1.73,0,0,1,1.72,1.68c0,1.78-2.24,2-3.57,2-0.76,0-1.54-.06-1.91-0.08v-6.7Zm1.16,5.88a7.47,7.47,0,0,0,1,.06c0.83,0,2.06-.2,2.06-1.18s-1-1.19-2.16-1.19h-0.9v2.31Zm0-3.12h0.92c0.91,0,1.85-.27,1.85-1.06s-0.59-1-1.82-1a8.81,8.81,0,0,0-1,.06v2Z" transform="translate(-13486.99 -5033.81)"/><path d="M14070.45,5436.66v2.73h3.22v-2.73h1.22v6.78h-1.22v-3.07h-3.22v3.07h-1.22v-6.78h1.22Z" transform="translate(-13486.99 -5033.81)"/><path d="M14082.93,5440a3.31,3.31,0,0,1-3.38,3.6,3.22,3.22,0,0,1-3.25-3.49,3.31,3.31,0,0,1,3.36-3.6A3.21,3.21,0,0,1,14082.93,5440Zm-5.38.07c0,1.48.85,2.61,2.06,2.61s2.06-1.11,2.06-2.63c0-1.15-.57-2.61-2-2.61S14077.55,5438.78,14077.55,5440.07Z" transform="translate(-13486.99 -5033.81)"/><path d="M14085.13,5440.28a2.17,2.17,0,0,0,2.33,2.35,4.45,4.45,0,0,0,1.88-.35l0.21,0.88a5.48,5.48,0,0,1-2.25.42,3.15,3.15,0,0,1-3.33-3.42c0-2,1.21-3.66,3.18-3.66,2.21,0,2.8,1.95,2.8,3.19a4.73,4.73,0,0,1,0,.57h-4.76Zm3.61-.88a1.76,1.76,0,0,0-1.71-2,2,2,0,0,0-1.89,2h3.6Z" transform="translate(-13486.99 -5033.81)"/><path d="M14094.87,5436.66l1.49,4c0.15,0.45.32,1,.43,1.39h0c0.13-.41.27-0.92,0.43-1.42l1.34-4h1.3l-1.85,4.83c-0.88,2.33-1.48,3.52-2.33,4.24a3.34,3.34,0,0,1-1.51.8l-0.31-1a3.26,3.26,0,0,0,1.08-.6,3.75,3.75,0,0,0,1-1.37,0.87,0.87,0,0,0,.1-0.29,1.08,1.08,0,0,0-.08-0.32l-2.51-6.25h1.34Z" transform="translate(-13486.99 -5033.81)"/><path d="M14105.84,5436.66v6.78h-1.22v-5.81h-2.33v1.76c0,1.91-.18,3.18-1.06,3.75a2,2,0,0,1-1.34.42l-0.13-1a1.52,1.52,0,0,0,.67-0.28c0.63-.46.7-1.41,0.7-2.93v-2.73h4.71Z" transform="translate(-13486.99 -5033.81)"/><path d="M14108.24,5436.66l1.49,4c0.15,0.45.32,1,.43,1.39h0c0.13-.41.27-0.92,0.43-1.42l1.34-4h1.3l-1.85,4.83c-0.88,2.33-1.48,3.52-2.33,4.24a3.34,3.34,0,0,1-1.51.8l-0.31-1a3.26,3.26,0,0,0,1.08-.6,3.75,3.75,0,0,0,1-1.37,0.87,0.87,0,0,0,.1-0.29,1.08,1.08,0,0,0-.08-0.32l-2.51-6.25h1.34Z" transform="translate(-13486.99 -5033.81)"/><path d="M14115.49,5436.66v2.23a1.24,1.24,0,0,0,1.4,1.44,2.55,2.55,0,0,0,1.46-.48v-3.19h1.22v6.78h-1.22v-2.72h0a3.56,3.56,0,0,1-1.83.52,2,2,0,0,1-2.23-2.21v-2.37h1.23Z" transform="translate(-13486.99 -5033.81)"/><path d="M14122.59,5436.66v5.81h2.37v-5.81h1.21v5.81h2.37v-5.81h1.22v6.78h-8.36v-6.78h1.21Z" transform="translate(-13486.99 -5033.81)"/><path d="M14132.35,5440.28a2.17,2.17,0,0,0,2.33,2.35,4.45,4.45,0,0,0,1.88-.35l0.21,0.88a5.48,5.48,0,0,1-2.25.42,3.15,3.15,0,0,1-3.33-3.42c0-2,1.21-3.66,3.18-3.66,2.21,0,2.8,1.95,2.8,3.19a4.73,4.73,0,0,1,0,.57h-4.76Zm3.61-.88a1.76,1.76,0,0,0-1.71-2,2,2,0,0,0-1.89,2h3.6Z" transform="translate(-13486.99 -5033.81)"/><path d="M14139.75,5436.66v2.73h3.22v-2.73h1.22v6.78H14143v-3.07h-3.22v3.07h-1.22v-6.78h1.22Z" transform="translate(-13486.99 -5033.81)"/><path d="M14147.18,5436.66v2.86c0,1.08,0,1.75-.07,2.72h0c0.41-.83.64-1.3,1.09-2.09l2.12-3.5h1.44v6.78h-1.18v-2.87c0-1.11,0-1.68.08-2.77h0c-0.43.87-.73,1.41-1.12,2.1-0.64,1.05-1.39,2.35-2.12,3.54H14146v-6.78h1.16Z" transform="translate(-13486.99 -5033.81)"/><path d="M14154.38,5440.28a2.17,2.17,0,0,0,2.33,2.35,4.45,4.45,0,0,0,1.88-.35l0.21,0.88a5.48,5.48,0,0,1-2.25.42,3.15,3.15,0,0,1-3.33-3.42c0-2,1.21-3.66,3.18-3.66,2.21,0,2.8,1.95,2.8,3.19a4.73,4.73,0,0,1,0,.57h-4.76Zm3.61-.88a1.76,1.76,0,0,0-1.71-2,2,2,0,0,0-1.89,2h3.6Z" transform="translate(-13486.99 -5033.81)"/><line x1="114.09" y1="133.21" x2="608.82" y2="133.21" style="fill:none;stroke:#e2e71f;stroke-miterlimit:10"/><line x1="201.84" y1="85.04" x2="520.86" y2="85.04" style="fill:none;stroke:#e2e71f;stroke-miterlimit:10"/><line x1="637.57" y1="315.69" x2="84.5" y2="315.69" style="fill:none;stroke:#e2e71f;stroke-miterlimit:10"/><path d="M13729.38,5212.86" transform="translate(-13486.99 -5033.81)" style="fill:none;stroke:#e2e71f;stroke-miterlimit:10"/><path d="M13570.49,5212.86" transform="translate(-13486.99 -5033.81)" style="fill:none;stroke:#e2e71f;stroke-miterlimit:10"/><line x1="454.64" y1="140.22" x2="454.64" y2="171.7" style="fill:none;stroke:#e2e71f;stroke-miterlimit:10"/><line x1="268.27" y1="140.22" x2="268.27" y2="171.7" style="fill:none;stroke:#e2e71f;stroke-miterlimit:10"/><line x1="360.53" y1="92.96" x2="360.53" y2="124.44" style="fill:none;stroke:#e2e71f;stroke-miterlimit:10"/><line x1="240.63" y1="418.34" x2="240.63" y2="391.34" style="fill:none;stroke:#e2e71f;stroke-miterlimit:10"/><line x1="240.63" y1="391.34" x2="240.63" y2="418.34" style="fill:none;stroke:#e2e71f;stroke-miterlimit:10"/><line x1="480.44" y1="418.34" x2="480.44" y2="391.34" style="fill:none;stroke:#e2e71f;stroke-miterlimit:10"/><line x1="942.01" y1="179.04" x2="711.01" y2="179.04" style="fill:none;stroke:#ccc;stroke-miterlimit:10"/><line x1="942.01" y1="315.43" x2="674.01" y2="315.43" style="fill:none;stroke:#ccc;stroke-miterlimit:10"/><line x1="942.01" y1="379.92" x2="734.01" y2="379.92" style="fill:none;stroke:#ccc;stroke-miterlimit:10"/><line x1="942.01" y1="0.57" x2="387.01" y2="0.57" style="fill:none;stroke:#ccc;stroke-miterlimit:10"/><path d="M13948.13,5088.07a65.3,65.3,0,0,1,115.17,61.56" transform="translate(-13486.99 -5033.81)" style="fill:#e2e71f"/></svg>