<svg xmlns="http://www.w3.org/2000/svg" viewBox="0 0 92.24 47.98"><defs><style>.cls-1{opacity:.6}.cls-2,.cls-3{fill:none;stroke:#141414;stroke-miterlimit:10}.cls-3{stroke-dasharray:6}</style></defs><title>calendar</title><g id="Layer_2" data-name="Layer 2"><g id="Layer_1-2" data-name="Layer 1"><g class="cls-1"><path class="cls-2" d="M6.13 3.27v6.92m36.2-6.93v6.91m-18.07-6.9v6.91M8.94 32.76h6.74v4.77H8.94zm11.95 0h6.74v4.77h-6.74zm11.95-.01h6.74v4.77h-6.74zm-23.9-7.77h6.74v4.77H8.94zm11.95 0h6.74v4.77h-6.74zm11.94-.01h6.74v4.77h-6.74zM8.94 17.2h6.74v4.77H8.94zm11.94 0h6.74v4.77h-6.74zm11.95-.01h6.74v4.77h-6.74z"/><rect class="cls-2" x=".51" y="7.1" width="47" height="37" rx="2" ry="2"/></g><g class="cls-1"><circle class="cls-2" cx="68.25" cy="23.99" r="13.08" transform="rotate(-4.54 68.278 24.057)"/><path class="cls-2" d="M66.91 11.2l1.02 12.82 4.67-13.24"/></g><g class="cls-1"><path class="cls-3" d="M55.66 4.16A23.49 23.49 0 1 1 53.11 42"/></g></g></g></svg>