<svg xmlns="http://www.w3.org/2000/svg" viewBox="0 0 30.36 43.56"><defs><style>.cls-1{opacity:.3}.cls-2,.cls-3{fill:none;stroke:#000;stroke-miterlimit:10}.cls-3{stroke-width:.25px}</style></defs><title>Asset 9</title><g id="Layer_2" data-name="Layer 2"><g class="cls-1" id="Layer_1-2" data-name="Layer 1"><path class="cls-2" d="M8.84 2.19H2.13A1.68 1.68 0 0 0 .5 3.92v37.41a1.68 1.68 0 0 0 1.63 1.73h26.1a1.68 1.68 0 0 0 1.63-1.73V3.92a1.68 1.68 0 0 0-1.63-1.73h-6.71"/><path class="cls-2" d="M8.84.5h12.68v3.45H8.84zM4.51 37.72h21.34"/><path class="cls-3" d="M4.51 19.28h14.11"/><path class="cls-2" d="M25.85 29.08H4.51V13.75m0 20.48h10.67"/><path class="cls-2" d="M21.1 16.3L14.72 24a1.28 1.28 0 0 1-2 0l-1.27-1.52a1.28 1.28 0 0 0-2 0l-2.84 3.29"/><path class="cls-3" d="M18.62 29.08v-9.8"/></g></g></svg>