<svg xmlns="http://www.w3.org/2000/svg" width="725" height="433.156" viewBox="0 0 725 433.156"><path fill="none" stroke="#E2E63F" stroke-miterlimit="10" d="M696.995 182.855L363.117 4.379 29.24 182.855zM2.926 433.156v-49h720.069v49M85.926 383.315v-64.076m554.069-.001v64.076M244.814 182.855V319.5m-158.888 0V182.855m349.252 0V319.5m-144.195 0V182.855m349.012 0V319.5m-161.038 0V182.855M116.521 137.02h494.728M204.266 88.855H523.29M639.995 319.5H86.926"/><path fill="#E2E63F" stroke="#DBDF4E" stroke-miterlimit="10" d="M463.563 58.073c11-20.534 32.661-34.501 57.585-34.501 36.056 0 65.284 29.229 65.284 65.283 0 11.132-2.786 21.612-7.699 30.783"/></svg>