<svg xmlns="http://www.w3.org/2000/svg" viewBox="0 0 59.91 54.53"><defs><style>.cls-1{opacity:.3}.cls-2{fill:none;stroke:#000;stroke-miterlimit:10}</style></defs><title>loader</title><g id="Layer_2" data-name="Layer 2"><g class="cls-1" id="Layer_1-2" data-name="Layer 1"><path class="cls-2" d="M26.67 47.17h-8.16m-17.45 0H.5V32.55h15.23a1 1 0 0 1 1 1v4.35a1 1 0 0 0 1 1h3.81a1 1 0 0 1 1 1 1 1 0 0 0 1.62.69L30 34.81a1 1 0 0 1 .66-.26h4.76v6.3"/><circle class="cls-2" cx="9.79" cy="47.53" r="6.49"/><circle class="cls-2" cx="9.79" cy="47.53" r="3.23"/><circle class="cls-2" cx="35.04" cy="47.53" r="6.49"/><circle class="cls-2" cx="35.04" cy="47.53" r="3.23"/><path class="cls-2" d="M45.85 47.17h-3.74V0M7.82 32.67l.11-19.5a3 3 0 0 1 3-3h10.95a10 10 0 0 1 9.16 6c1.59 3.69 3 9.4 3 18"/><path class="cls-2" d="M7.91 21.17h1.5a3 3 0 0 1 3 2.46l1.55 8.54m18.95-8h-.55a6 6 0 0 0-6 5.42l-.81 9.49m2.12-12.41l-2.26-.92m1-3.58l-2.83 6.16m21.83-9.66v31.5h14.5M45.85 24.6h-3.74"/><path class="cls-2" d="M45.41 32.17h10.67v18H45.41zm0-10h8.11v10h-8.11z"/></g></g></svg>