<svg xmlns="http://www.w3.org/2000/svg" viewBox="0 0 97.19 41.13"><defs><style>.cls-1{opacity:.6}.cls-2{fill:none;stroke:#141414;stroke-miterlimit:10}</style></defs><title>money</title><g id="Layer_2" data-name="Layer 2"><g id="Layer_1-2" data-name="Layer 1"><g class="cls-1"><path class="cls-2" d="M77.36 36.51V7.07m0 0h11.52a7.81 7.81 0 0 1 7.81 7.81 7.81 7.81 0 0 1-7.81 7.81h-17m13.54 5.47H71.9"/></g><g class="cls-1"><path class="cls-2" d="M28.55 38.17H9.84V12.93h15.35m10.49 0h29.38v25.24H40.14"/><path class="cls-2" d="M26.13 33.5H5.17V8.26h20.1m10.41 0h24.71V33.5H37.73"/><path class="cls-2" d="M25.13 28.83H.5V3.59h24.77m10.41 0h20.04v25.24H35.79"/><path class="cls-2" d="M32.95 30.54V.5h-4.77v30.04l5.28 10.09h4.75l-5.26-10.09z"/></g></g></g></svg>