<svg xmlns="http://www.w3.org/2000/svg" viewBox="0 0 66.68 37.06"><defs><style>.cls-1{opacity:.3}.cls-2,.cls-3{fill:none}.cls-2{stroke:#000;stroke-miterlimit:10}</style></defs><title>pl</title><g id="Layer_2" data-name="Layer 2"><g class="cls-1" id="Layer_1-2" data-name="Layer 1"><circle class="cls-2" cx="45.05" cy="18.57" r="17.99"/><path class="cls-2" d="M32.65 31.27h6.37m-9.49-4.32h13.03m-15.31-4.33H44.7M27.06 18.3H44.8m-16.82-4.33H43.8M29.6 9.64h12.99m-9.73-4.32h6.01"/><path class="cls-3" d="M26.73 18.81a18.3 18.3 0 0 0 9.09 15.81A18.3 18.3 0 0 0 35.83 3a18.3 18.3 0 0 0-9.1 15.81z"/><path class="cls-2" d="M0 18.17h16.08m-4.55-5.47L17 18.17l-5.47 5.47"/><path class="cls-2" d="M11.41 27.32c3.13 6 8.89 9.07 15.5 9.07A17.94 17.94 0 1 0 26.92.5a18.6 18.6 0 0 0-15.5 8.82"/><circle class="cls-2" cx="63.04" cy="18.62" r="3.14"/></g></g></svg>