<svg xmlns="http://www.w3.org/2000/svg" viewBox="0 0 217.6 55.77"><defs><style>.cls-1{fill:#e0e718}.cls-2{fill:#7a868c}</style></defs><title>logo</title><g id="Layer_2" data-name="Layer 2"><g id="Layer_1-2" data-name="Layer 1"><path class="cls-1" d="M2.48 1.38a1.1 1.1 0 0 0-1.1 1.1v25.89a1.09 1.09 0 0 0 1.09 1.09h18a1.09 1.09 0 0 0 1.09-1.09v-3a1.09 1.09 0 0 0-1.09-1.09H9.28a2.48 2.48 0 0 1-2.48-2.46V2.48a1.09 1.09 0 0 0-1.1-1.1zm18 29.46h-18A2.48 2.48 0 0 1 0 28.37V2.48A2.48 2.48 0 0 1 2.48 0H5.7a2.48 2.48 0 0 1 2.48 2.48v19.34a1.09 1.09 0 0 0 1.09 1.09h11.17a2.48 2.48 0 0 1 2.48 2.47v3a2.48 2.48 0 0 1-2.48 2.48"/><path class="cls-1" d="M5.88 1.38a1.1 1.1 0 0 0-1.1 1.1V17a1.09 1.09 0 0 0 1.09 1.09h21.36a1.09 1.09 0 0 0 1.1-1.09V2.48a1.1 1.1 0 0 0-1.09-1.09zm21.35 18.13H5.88A2.48 2.48 0 0 1 3.4 17V2.48A2.48 2.48 0 0 1 5.88 0h21.35a2.48 2.48 0 0 1 2.48 2.48V17a2.48 2.48 0 0 1-2.48 2.48M2.48 49.06a1.09 1.09 0 0 0-1.09 1.09v3.15a1.1 1.1 0 0 0 1.09 1.09h15.69a1.09 1.09 0 0 0 1.09-1.09V39.42a1.08 1.08 0 0 0-1.08-1.08l-8.81.07a2.48 2.48 0 0 1-2.47-2.46v-.55a2.47 2.47 0 0 1 2.46-2.48h8.81a1.09 1.09 0 0 0 1.09-1.09v-4a1.09 1.09 0 0 0-1.09-1.09H2.48a1.09 1.09 0 0 0-1.09 1.09v14.73a1.1 1.1 0 0 0 1.09 1.09h7.44a2.48 2.48 0 0 1 2.47 2.48v.46a2.48 2.48 0 0 1-2.47 2.48zm15.69 6.71H2.48A2.48 2.48 0 0 1 0 53.3v-3.15a2.48 2.48 0 0 1 2.48-2.48h7.44A1.09 1.09 0 0 0 11 46.59v-.46A1.09 1.09 0 0 0 9.92 45H2.48A2.48 2.48 0 0 1 0 42.56V27.78a2.48 2.48 0 0 1 2.48-2.48h15.69a2.48 2.48 0 0 1 2.48 2.48v4a2.48 2.48 0 0 1-2.48 2.47H9.36a1.09 1.09 0 0 0-1.08 1.09v.56A1.09 1.09 0 0 0 9.37 37h8.81a2.47 2.47 0 0 1 2.46 2.47V53.3a2.48 2.48 0 0 1-2.48 2.48m21.71-23.39a1.09 1.09 0 0 0-1.09 1.09v4.72a1.09 1.09 0 0 0 1.09 1.09H53.3a1.09 1.09 0 0 0 1.09-1.09v-18a1.07 1.07 0 0 0-1.07-1.07l-7.37.08a2.47 2.47 0 0 1-2.47-2.45v-1.49a2.47 2.47 0 0 1 2.47-2.48h7.35a1.09 1.09 0 0 0 1.09-1.09V5.88a1.09 1.09 0 0 0-1.09-1.09H39.87a1.09 1.09 0 0 0-1.09 1.09v19.07A1.09 1.09 0 0 0 39.87 26H46a2.48 2.48 0 0 1 2.48 2.48v1.4A2.48 2.48 0 0 1 46 32.39zm13.43 8.28H39.87a2.48 2.48 0 0 1-2.48-2.47v-4.72A2.48 2.48 0 0 1 39.87 31H46a1.09 1.09 0 0 0 1.09-1.09v-1.4A1.09 1.09 0 0 0 46 27.42h-6.13a2.48 2.48 0 0 1-2.48-2.48V5.88a2.48 2.48 0 0 1 2.48-2.48H53.3a2.48 2.48 0 0 1 2.47 2.48v5.82a2.48 2.48 0 0 1-2.47 2.48h-7.36a1.09 1.09 0 0 0-1.09 1.09v1.52a1.09 1.09 0 0 0 1.08 1.08l7.37-.08a2.46 2.46 0 0 1 2.46 2.46v18a2.48 2.48 0 0 1-2.47 2.47"/><path class="cls-1" d="M45.94 48.32c.73 0 1.46.54 1.46 1.74v3.24a1.1 1.1 0 0 0 1.09 1.09h4.8a1.09 1.09 0 0 0 1.09-1.09V30.8a1.09 1.09 0 0 0-1.09-1.09H26.64a1.1 1.1 0 0 0-1.09 1.09v22.5a1.1 1.1 0 0 0 1.09 1.09H31a1.1 1.1 0 0 0 1.09-1.09v-3.24c0-1.2.74-1.74 1.46-1.74a2 2 0 0 1 1.1.37l4 2.65a2.23 2.23 0 0 0 2.21 0l4-2.66a2 2 0 0 1 1.1-.37m7.36 7.46H48.5A2.48 2.48 0 0 1 46 53.3v-3.24a.66.66 0 0 0-.07-.36.7.7 0 0 0-.33.14l-4 2.66a3.6 3.6 0 0 1-3.74 0l-4-2.65a.71.71 0 0 0-.33-.14.65.65 0 0 0-.07.36v3.23A2.48 2.48 0 0 1 31 55.77h-4.36a2.48 2.48 0 0 1-2.48-2.48V30.8a2.48 2.48 0 0 1 2.48-2.48H53.3a2.48 2.48 0 0 1 2.47 2.48v22.5a2.48 2.48 0 0 1-2.47 2.48M12.67 7.05a1.09 1.09 0 0 0-1.09 1.09v3.23a1.09 1.09 0 0 0 1.09 1.09h7.76a1.09 1.09 0 0 0 1.09-1.09V8.14a1.09 1.09 0 0 0-1.09-1.09zm7.76 6.8h-7.76a2.48 2.48 0 0 1-2.48-2.48V8.14a2.48 2.48 0 0 1 2.48-2.47h7.76a2.48 2.48 0 0 1 2.48 2.47v3.23a2.48 2.48 0 0 1-2.48 2.48M30.8 1.39a1.09 1.09 0 0 0-1.09 1.09V25a1.09 1.09 0 0 0 1.09 1.09h22.5a.84.84 0 0 0 .31 0 .81.81 0 0 0-.15-.27l-7.64-10.25a1.65 1.65 0 0 1-.3-1.73 1.64 1.64 0 0 1 1.56-.8h6.22a1.09 1.09 0 0 0 1.09-1.09V2.48a1.09 1.09 0 0 0-1.09-1.09zm22.5 26.06H30.8A2.48 2.48 0 0 1 28.33 25V2.48A2.48 2.48 0 0 1 30.8 0h22.5a2.48 2.48 0 0 1 2.47 2.48v9.46a2.48 2.48 0 0 1-2.47 2.48h-6.21a.77.77 0 0 0-.31 0 .84.84 0 0 0 .15.27l7.63 10.18a1.49 1.49 0 0 1-1.26 2.54"/><path class="cls-1" d="M18.34 4.79a1.09 1.09 0 0 0-1.09 1.09v15.7a1.09 1.09 0 0 0 1.09 1.09h21.35a1.09 1.09 0 0 0 1.09-1.09V5.88a1.09 1.09 0 0 0-1.09-1.09h-4.21a1.11 1.11 0 0 0-1.1 1.1l-.06 8.9a2.49 2.49 0 0 1-2.49 2.47h-5.62a2.5 2.5 0 0 1-2.49-2.47l-.06-8.9a1.11 1.11 0 0 0-1.1-1.1zM39.69 24H18.34a2.48 2.48 0 0 1-2.48-2.47V5.88a2.48 2.48 0 0 1 2.48-2.48h4.22A2.5 2.5 0 0 1 25 5.87l.06 8.9a1.11 1.11 0 0 0 1.1 1.09h5.61a1.1 1.1 0 0 0 1.1-1.09l.13-8.9a2.5 2.5 0 0 1 2.48-2.47h4.22a2.48 2.48 0 0 1 2.48 2.48v15.7A2.48 2.48 0 0 1 39.69 24M8.14 34.25A1.09 1.09 0 0 0 7 35.34v18a1.1 1.1 0 0 0 1.09 1.09h19.14a1.1 1.1 0 0 0 1.09-1.09v-3.2a1.1 1.1 0 0 0-1.1-1.1L16.14 49a2.5 2.5 0 0 1-2.47-2.49v-4.37a2.48 2.48 0 0 1 2.48-2.48h11.08a1.09 1.09 0 0 0 1.09-1.09v-3.23a1.09 1.09 0 0 0-1.09-1.09zm19.09 21.52H8.14a2.48 2.48 0 0 1-2.48-2.47v-18a2.48 2.48 0 0 1 2.48-2.48h19.09a2.48 2.48 0 0 1 2.48 2.48v3.23A2.48 2.48 0 0 1 27.23 41H16.14A1.09 1.09 0 0 0 15 42.14v4.36a1.1 1.1 0 0 0 1.1 1.1l11.09.05a2.49 2.49 0 0 1 2.47 2.48v3.17a2.48 2.48 0 0 1-2.48 2.48"/><path class="cls-2" d="M71 40.74h4v-4h-4V12.85h-4v23.9c0 3.99 4 3.99 4 3.99zm35.85-27.89h-4s-4 0-4 4v23.9h4V16.83h4zm15.94 23.9h-8v-23.9h-4v23.9c0 4 4 4 4 4h8s4 0 4-4v-23.9h-4zm19.92-11.95h-8v-8h8v-4h-8s-4 0-4 4v8c0 4 4 4 4 4h8v8h-12v4h12c4 0 4-4 4-4v-8c-.02-4-4-4-4-4zm31.07 11.95v-8s0-4-4-4h-8v-8h8v-4h-8c-4 0-4 4-4 4v8s0 4 4 4h8v8h-12v4h12c4-.01 4-4 4-4zm3.98-19.92v19.92c0 4 4 4 4 4h4v-4h-4V16.83h4v-4h-4s-4 .02-4 4zm35.86-3.98H193.7s-4 0-4 4v23.9h4V16.83h8v23.9h4v-23.9h8v23.9h4v-23.9c-.1-3.98-4.08-3.98-4.08-3.98zM94.9 16.83c0-4-4-4-4-4h-8s-4 0-4 4v19.92c0 4 4 4 4 4h8s4 0 4-4zm-4 19.92h-8V16.83h8zm7.91 11.33h.78v7.31h-.78zm7.63 5.85l-3.89-5.85h-.74v7.31h.78v-5.86l3.89 5.86h.74v-7.31h-.78v5.85zm8.14-5.85h-.95l-3.41 4.2v-4.2h-.78v7.31h.78v-2.04l1.54-1.85 2.23 3.89h.92l-2.63-4.48 2.3-2.83zm-18.77 3.28h-3.47v-3.28h-.78v7.31h.78v-3.33h3.47v3.33h.78v-7.31h-.78v3.28zm32.13 2.62l-1.61-5.9h-.7l-1.61 5.9-1.43-5.9h-.83l1.87 7.31h.73l1.62-5.85 1.63 5.85h.73l1.87-7.31h-.83l-1.44 5.9zm-54.51 0l-1.61-5.9h-.7l-1.61 5.9-1.43-5.9h-.83l1.87 7.31h.73l1.62-5.85 1.62 5.85h.73l1.87-7.31h-.83l-1.43 5.9zm11.65-5.2h2.11v6.61h.78v-6.61h2.12v-.7h-5.01v.7zm-8.06 6.61h4.54v-.69H77.8v-2.64H81v-.7h-3.2v-2.58h3.76v-.7h-4.54v7.31zM151.11 48a2.59 2.59 0 0 0-1.87.76c-.69.69-.69 1.41-.69 3s0 2.27.69 3a2.68 2.68 0 0 0 3.74 0c.69-.69.69-1.41.69-3s0-2.27-.69-3a2.59 2.59 0 0 0-1.87-.76zm1.27 6.22a1.79 1.79 0 0 1-2.53 0c-.46-.47-.51-1-.51-2.5s.05-2 .51-2.5a1.79 1.79 0 0 1 2.53 0c.46.47.51 1 .51 2.5s-.06 2.04-.52 2.52zm8.84 1.17h4.54v-.69H162v-2.64h3.21v-.7H162v-2.58h3.76v-.7h-4.54v7.31zm-17.71-2.12l-2.39-5.19h-.78v7.31h.78v-5.55l2.04 4.41h.66l2.01-4.41v5.55h.78v-7.31h-.78l-2.32 5.19zm13.74.73l-1.9-5.92h-.82l2.4 7.31h.64l2.4-7.31h-.82l-1.9 5.92zm-25.72 1.39h4.54v-.69h-3.76v-2.64h3.21v-.7h-3.21v-2.58h3.76v-.7h-4.54v7.31zm-14.7-3.97h3.18v.64h-3.18z"/></g></g></svg>