<svg data-name="Layer 1" xmlns="http://www.w3.org/2000/svg" viewBox="0 0 1139.54 1846.2"><title>through-service-line</title><path d="M839.15 780.31H464.36a200 200 0 0 0-118 38.52L46.87 1040.14a90 90 0 0 0-36.51 72.24l-.08 50.2m-.21 416.33v32.25a10 10 0 0 0 5.51 8.94l27.51 13.81a20 20 0 0 1 12.91 18.7v49.42a16 16 0 0 1-16 16H21.04a16 16 0 0 1-16-16v-18.94a16 16 0 0 1 16-16h51.48a70 70 0 0 1 49.5 20.5l155.1 155.1" fill="none" stroke="#d1d1d1" stroke-miterlimit="10" stroke-width="10"/><path d="M1134.54 490v229.72a21 21 0 0 1-21 21H976a21 21 0 0 0-21 21v43.17a24.58 24.58 0 0 0 24.58 24.58h52.84a24.58 24.58 0 0 0 24.58-24.58 24.58 24.58 0 0 0-24.58-24.58h-.42a20 20 0 0 0-20 20v38.78a20 20 0 0 1-20 20h-62.66a20 20 0 0 1-20-20v-38.78a20 20 0 0 0-20-20h-50.19" fill="none" stroke="#e2e71f" stroke-miterlimit="10" stroke-width="10"/><path fill="none" stroke="#d1d1d1" stroke-miterlimit="10" stroke-width="10" d="M10.28 1162.58v6"/><path fill="none" stroke="#d1d1d1" stroke-miterlimit="10" stroke-width="10" stroke-dasharray="12.269413948059082,12.269413948059082" d="M10.27 1180.85l-.32 386.49"/><path fill="none" stroke="#d1d1d1" stroke-miterlimit="10" stroke-width="10" d="M9.95 1573.47l-.01 6"/><path d="M994.02 0v22.5c0 11-7 20-18 20h-11a15.41 15.41 0 0 0-15.41 15.41v216.18a15.48 15.48 0 0 0 15.46 15.48l60 .06a15.55 15.55 0 0 0 15.5-15.54V201.4a15.55 15.55 0 0 1 15.55-15.55h21.37a15.55 15.55 0 0 1 15.55 15.56l-.07 293.37a15.55 15.55 0 0 1-15.55 15.54h-38.77a15.55 15.55 0 0 1-15.55-15.55v-4.9a15.55 15.55 0 0 1 15.55-15.55h80.2a15.74 15.74 0 0 1 15.69 15.69" fill="none" stroke="#e2e71f" stroke-miterlimit="10" stroke-width="10"/></svg>