<svg id="Layer_1" data-name="Layer 1" xmlns="http://www.w3.org/2000/svg" xmlns:xlink="http://www.w3.org/1999/xlink" viewBox="0 0 208 603.77"><defs><clipPath id="clip-path"><rect x="-96.2" y="69.54" width="306.62" height="577.16" style="fill:none"/></clipPath></defs><title>mobile-inner-bg</title><g id="Layer_1-2" data-name="Layer 1"><g style="clip-path:url(#clip-path)"><path d="M173.62,593.53c-1.39,1.93-6.43,3.26-7,5-0.41,1.38,4.25,3.28,6.3,4.53s9.2,1.19,9.94-4.62S175,591.6,173.62,593.53Z" style="fill:#fafaf9"/><path d="M135.62,539.3c-1.26-.77-1.17-3,1.27-5.27s-0.5-4.49-4.21-5.12-0.55-3.35-3.85-4.67-4.92-7.87-3.36-9,3.76-6.53,1.52-6-3.41-2.54-.65-3.89,0.48-5.74,1.66-8.75-1.74-1.75-2.66.47-1.45,1.67-4.42,2-2.32,4.17-2.82,7.81,4.85,5.51,3.2,8.22,1.29,5.66.52,7.29,2.86,5.92,6.57,5.86-1.06,3.53-.52,6.88-4.72,4.56-8.58,5.93-3.81,7.67-5.36,9.51-1.81,2.61-.29,2.61,4.43,5.48,7.3,5.37,7.79-12.44,9.26-12.71,1.06,3.13,2.11,2.21C133.7,546.72,136.89,540.06,135.62,539.3Z" style="fill:#fafaf9"/><path d="M126.62,489c0.13-3.4,3,1.12,4.85-1.23s3.61,1.5,4.69-.62,3.15,1.92,4,4.05,5.74-.92,8.51-0.16,7.31-3.87,5.65-4.68c-2-1-4.59,1.16-6.37-.16s-2.5,1.26-4.86-.87,4.79-9.63,1.57-12.51-1.92-5.35-3.65-6.4-3,5.61-4.28,7.37-3.88-2.13-7.21-.9-4,9.41-6.48,13.47S126.45,492.37,126.62,489Z" style="fill:#fafaf9"/><path d="M136.62,515c2.67,0.92,6.53-7.26,4.44-8-0.9-.31-2.68-1.63-3.87,0s0-4.2,2.31-4.86,4.93-4.9,3-6.75-10.94,3.8-11.24,5.7,3.14,0.52,1.43,2.26S133.93,514.11,136.62,515Z" style="fill:#fafaf9"/><path d="M158.62,513.58c-4.17.48-4.84,2.63-5.13,5.24s4-2,8.07-3.68,12.4-3.57,12.55-5.37C174.29,507.33,162.8,513.11,158.62,513.58Z" style="fill:#fafaf9"/><path d="M130,495c0.23,2.45,5.28,1.24,5.58-.32C136,492.61,129.8,492.55,130,495Z" style="fill:#fafaf9"/><path d="M139.83,528.9c1-2.66,2.87-8.25-1.32-9.17S139.14,530.76,139.83,528.9Z" style="fill:#fafaf9"/><path d="M51.47,317.56c-4.25-2.59-13.8-2.13-14.63-.78s-4.95,2.1-4.67,4.13,3.88,1.43,4.8-.09,4-.85,8.93-0.14,9.9,8.68,11.64,6.39C58.62,325.64,55.72,320.15,51.47,317.56Z" style="fill:#fafaf9"/><path d="M29.49,317.18c-3.51-1-3.27,3.59-1.78,6.81s3,5.76,1.78.63S31.62,317.78,29.49,317.18Z" style="fill:#fafaf9"/><path d="M131.34,405c-2-1.24-1-2.94-.62-5.72s-6.2-4.71-8.19-5.69-0.55-4,1.5-1.41,3.5,0.28,5.08,1.93,4.55,2.46,4,.51-1-5.8.13-7.66-2.49-4.06-3.62-2.21-1.82-1.26-4.82-4.48,0.27-2.94-3.24-5.31-10-10.1-11.63-14.55,1.59-4.74,1-8.37,0.4-6.67,3.23-4.95,7.66,0.52,7.81-1.49-10.49-5.45-12.69-6.79c-1.44-.88-1.22-4.52-2.77-8.21a12,12,0,0,0-4.44-5.47c-6.72-4.55-7.57.74-8.82,0s-3.18,1.31-5.73,2.32-7.76-4.26-9.53-9.51-0.54-16.83-4.83-18.28-6.27-7.07-9.84-9-2.16,2.85-1.38,4,2.38,4.93,1.4,6.2,2.42,3.1,3.7,6-2.5,7.3-.87,9.93,1.1,7.4-1.63,5.51-4.24-.49-3.37,3.05,8.37,9.28,6.73,12.69,8,19.76,13.39,25.12a46.07,46.07,0,0,1,3.18,3.64c5.31,6.62,12,17,14.06,18,2.47,1.27,5.46-2.95,7.51-1.7s7.67-1.6,12.27-.66-3.18,14.09-3,17.68,8.38,11.38,11.08,9.08,5.05,1.22,6.84-.95C134.9,406.23,133.39,406.23,131.34,405Z" style="fill:#fafaf9"/><path d="M5.84,272.59c-1.84.09,3.68,10.41,4.81,8.85S7.68,272.49,5.84,272.59Z" style="fill:#fafaf9"/><path d="M1.08,270c2.89-2.08,1.1-9.78.47-10.34S-1.14,271.63,1.08,270Z" style="fill:#fafaf9"/><path d="M10.11,267.69c1.08-2.83-1.54-6.51-3.5-6.48S9,270.62,10.11,267.69Z" style="fill:#fafaf9"/><path d="M23.08,306.78c1.25-1.34,1.11-12.47-1.55-12.33C16.62,294.71,21.85,308.11,23.08,306.78Z" style="fill:#fafaf9"/><path d="M17.35,293.53c0.51-.56-0.87-6.8-2.09-6.67S16.44,294.55,17.35,293.53Z" style="fill:#fafaf9"/><path d="M3.84,256.21c0.15-.78-1.06-5.7-3.29-5.49S3.62,257.54,3.84,256.21Z" style="fill:#fafaf9"/><path d="M111.85,176.9c-1.41.19-2.47,5.11-1.25,5s-3,6.86-5.57,9.67-1.94,2.66.6,1.94,1.26,5.11.83,6.6-0.81,6.12,1.5,6.83-1.15,3.48,1,4.25,0.46,4.29-1.75,7.13,0.91,1.42,1,3.2,1.61,1.33,3.22,1.62,0,3.67-1.1,4.73-1.47,2.94-.55,5.41a4.78,4.78,0,0,1-.79,5.28c-1.12,1.58,5.62,13.35,7.56,15.22s-1.5,3.26-1.09,4.73-1.26,5-3,7.78,1.06,5.7-.45,7.91-1.76,5-3.55,7.42,1.49,5.26.76,6.73,2,1.42,4.21,2.39,0.18,3.95-1.83,6.73-3.89,8.25-3.09,10.65-2,7.31-1.66,8.57,5.09-.39,6-2.1,2.4-3.42,4.08-3.79,2.31-5.39,4.58-5.92,4.37-6.92,6.66-9.88,4.26-6.46,7-7.76,5.06-4.59,8.59-4,5.83,5.29,4.71,6.88,1.44,4.54,3.25,5.29,1.2,3.87,2.48,7.61,4.91,2.3,4.19,5.34-0.13,3.93.91,6.47,0.44,2.19-2.18,2.51-3.35,2.31-3.41,4.54-1.83.62-5.05,0.59-1.86,3-4.09,2.73-2.18,2-.52,3.52,2.53-1.24,3.4-1.06-0.52,4,.15,4.27,4.92-1.7,5.09.67,5.93,7.8,8.3,9.76,1,6,2.94,6.32,0.85-1.92.32-5,8,0.16,9.77,2.29,0.73-2,2.53-.72,4.33-2.06,7-2.91,2.33-2.76,4.68-2.9,3.24-1.34,2.7-5,2.5-2,3.11,1,2.38,4.06,3.58,1.83,2.82,0.14,1,2.35,1.7,2.79,1.32,4.47,0.71,5.48,2.32,6.29,2.69-1,4.23,0,2.43,0.26,3.28-1.66,2.28,1.56,4.21,2.39,1.47-2.41,2.49-2,2.11-1.33,3.64-.4,3.54-2.89,4.46-4.94,1.82,2.33,3.67,2.75,1-2.38,1.81-4.82,2.06-1.53,3.43-1.92,0.65,3.71-.5,5.61,1.93,1.35,5.52.23,3-6.53,4.34-6.59a75.34,75.34,0,0,0,12.63-3.46c4.41-1.67,8.57,3.47,11.15,3s3.65,1.71,6.16,1.32,7.2-1.19,6.54.67,4.38,3.18,7.38,2.23,6.92-1,9,.08,4.09-2.21,5.38-2.47-1,3-1.57,3.92,2.82-.37,5.27-2.54,0.24-4.91,3.71-6.63,6.83-3.5,6.52-8.58-0.33-8.21,1.57-9.49,0.43,5.14,1.41,4.86-0.47-4.28.94-5,0.62,6.3,1.92,5.35,0.65-13,2.46-16.27-0.93-9.1,2.09-13.54,3.26-14.39,3.25-16,4.21-3.18,5.83-6.9,3.92-4.06,5.93-2.83,3-3.06.91-4.67-0.26-2.77-1.65-6.06-7.68-6.25-9.69-7.47-4.61,1.73-7.4.2-3.1-.49-5.48.5-8.21-3.26-14.23-7.46-10-3.81-12.63-1.58c-2.26,1.89-6.86-.7-9.71,0s-4.47-.11-8.92-3.16-10.32-3-14-3.51-8.85-4.34-12.14-5.3-1-5.82-4.4-7.38-4-3.82-5.71-4.7-0.65-2.13-2.07-3.52-0.25-2.77,1.81-3.78-1.55-3-1.78-7.7,2.21-3.88,2.57-7.15-0.85-3.12-5.37-1-5.73-1.75-7.94,1.08-6.86,4.88-7.58,2.35,2.57-1.56,7.2-6.77,4.65-1,6-2.43-3.41-5.56-5.26-2.51-3.65,3.87-4-.14,4.28-4.37,4.58-5.93-2.95-1.27-4.05-2.12c-2-1.51-1.78-8.23.32-10.61s4.35-4.49,1.66-9.1-0.93-4-3.89-5.84-7.54-8.08-8.26-10.61-6.6-2.45-9.28.1-4-2.25-1.7-2.26,1.26-3.94.14-2.36-2.68,2.55-2.11.28-1.56-3.56-1.45-5.59-0.15-3.74-.92-2.47-1.94,2.13-4.3,1.74-4.39.29-7.47,0.85-11.58-4.1-12.41-4.6-5.94,6.83-8.81,10.49-6.33,2.42-9.35,6.32-11.88,9.14-13.17,8.87a5.32,5.32,0,0,0-5.58,2c-1.59,2.34-5.93,3.36-7.71,6.28s-5.41,5.42-5.71,6.45-1.07,4.41-4.08,5.36S113.26,176.69,111.85,176.9Z" style="fill:#fafaf9"/><path d="M177.45,350.79c-0.56-1.74-7.23-4.06-7.93-2.39S178.31,353.42,177.45,350.79Z" style="fill:#fafaf9"/><path d="M202.76,114c3.42,1.55,6.07,8,7.39,8.32,1.53,0.41,1.44-11.66,4.48-12.94S215,97.88,213,96.13s-2.88,1.55-4.34.49-2,1.08-3,2.2-0.92-2.48-2.68-2.5-3.44,6.44-5.33,5.29-4.38,6.38-5.1,8.91S199.34,112.39,202.76,114Z" style="fill:#fafaf9"/><path d="M53.7,24.75c0.88,2.27,2.79,1,5.1,1.19s0.4,6,3.8,5.45,1.86-2.52,5.73-3.3,3.27-2.18,9.24-5.34,17.82,0.23,21-1.51,9.55-.8,10.91-2.76,5.34-1.54,5.21-5.37c-0.1-3-2.92-2.65-3.45-5.24s-2.91-2.12-2.77-4-5-5-11.27-3.55-5.41,4.37-7.56,4.45-4.25,3-6.35,4.32S79.24,12,75,9.44s-2.54-.34-3.62,2-5.09.39-6.79,3.18-8.45,2.17-8.7,5S52.82,22.47,53.7,24.75Z" style="fill:#fafaf9"/><path d="M22,33.49c2.22-1.26,2.88,2.45,4.88,3.67a3.7,3.7,0,0,1,1.3,5.07q-0.09.16-.2,0.3c-1.16,1.9-2.39,5-.43,6s0.73-2.52,2.06-3.1,0.48,1.86,1.43,2.44,1.16,2.62-.39,5.16,0.61,3.51-1.17,6.43,1.08,7.8,3.44,9.24,2.31-4.86,2.06-7.11-2-5.22-1.19-6.29,0.71-5.15-.4-6.52,3.85-4.45,6-8,4.38-1.35,7.54-2.56S45.23,30.92,44,27s7-6.56,7.11-8.22c0-.85-1.19-2.82-4.37-3.71s-8.35,4.68-11.32,5.3-3.49,4.15-5.29,5-3-.09-4.31-0.89-2.68,3.08-4.33,2.07-2.3,1.91-4.87,4S19.78,34.75,22,33.49Z" style="fill:#fafaf9"/><path d="M17.75,167.12c-2.71.2,7.45,23.22,8.41,20.91S20.46,166.9,17.75,167.12Z" style="fill:#fafaf9"/><path d="M158.2,407.64c0.61-2.42-3.21-3.58-6.52-5.6s-3.48-5.61-5.22-6.66-3.16,4.12.11,8S157.53,410.29,158.2,407.64Z" style="fill:#fafaf9"/><path d="M148.3,423.9c-1.94-.72-1.58,5.78-4.84,3.33s-3,.72-4.46,3.09,2.94,2.25,2.22,3.44-2.51,6.6,2.28,4.41S150.56,424.74,148.3,423.9Z" style="fill:#fafaf9"/><path d="M205.4,441.72c5.82-3.18,2.46-6.16.2-7.77s0.33-5.14,2.14-7.06,6-6.57,3.39-7c-3.14-.51-6.77,1.91-6.08,4s-4,9.41-5.77,10.89-5.19-2.46-2-4.48-1.13-4.16.83-7.39-1.43-3-4.47-3.65-3.5,1.13-3,4.22-4.25,4.14-2.93,7.28,1.36,6.63-1.15,5.8-11.6-.79-11.84,1.38,10.28,5.79,12.92,3.23,7.19,4.84,3.2,9.61-17.56-2.33-20.21-6.5-9.72-1.74-12.89.28,3.29,1.31,7.11,1.08,9.65,6.11,12.44,9.67,4.91-.26,8.21,1.05,7-6.19,8.94-6.17S199.62,444.9,205.4,441.72Z" style="fill:#fafaf9"/><path d="M169.27,413.9c1-3.1-2.61-7.4-5.32-5.8S168.08,417.5,169.27,413.9Z" style="fill:#fafaf9"/><path d="M249.42,483.17c0-2.54-3.23-5-1.06-8.55s2.59-11-.39-10.69-3.2-2.88-2.91-4.78-6.23-2.17-7.6-3.47-5.62-5.28-4.7-7.51-4.82-2.7-8.53-3.34S216.36,454.91,212.4,455s-6.76,3.32-8.51,6.9-9.09-.66-11,0-0.59,4.52.83,6.78-1.64,3.41-1,5.63,0.78,7.21-1.37,6.13-0.54,4.09-2.89,4h-1.05c-2.47-.14-5.93-0.47-5.41,1.45,0.59,2.22-4.35-2.42-6.22-.77s-0.07,5.07,1.56,5.59,4.82,2.71,3.89,4.23,0.31,6.22,2.2,7.37,6.57-1.57,7.76-3.17,4.08,0.39,5.21-2.17a1.61,1.61,0,0,1,2.1-.89h0c1.35,0.3,2.85,1.22,3.41.3,0.91-1.49,2,2,3.27,2.89l0.09,0.09c1.26,0.77,7-2.25,9.57-5.08s4.8-.1,9.26,2.15,5.62-3.55,7.9-5.18c2.09-1.49,4.54,5,6.58,6.95a2.6,2.6,0,0,0,.57.43c2.15,1.07,9.08-2.68,8.31-5.86C246.49,489,249.38,485.7,249.42,483.17Z" style="fill:#fafaf9"/><path d="M188.07,385.18c2.05,1.41,4.06,0,6.46-.34a2.53,2.53,0,0,0,.67-0.06,5.72,5.72,0,0,1,2.21.26,7,7,0,0,1,.79.3h0.11a6.13,6.13,0,0,0,2,.59c3.87,0.49,7.86-2.45,6.49-4.95s-6.17-1.11-9.19,0c-0.49.19-.94,0.37-1.31,0.53a3,3,0,0,1-.85.19,6.43,6.43,0,0,1-.76.05c-4.23.09-13.47-2.2-14.59-1.29C178.79,381.62,185,383.1,188.07,385.18Z" style="fill:#fafaf9"/><path d="M201.9,392.21c-2.94-1.55-6.6-2.63-2.76.64s8.73,1.6,12,5.89,10.63,6.42,10.84,4.51c0.2-1.74-3.48-4.21-7.62-7S204.83,393.77,201.9,392.21Z" style="fill:#fafaf9"/></g></g></svg>