<?xml version="1.0" encoding="UTF-8" standalone="no"?>
<svg
   xmlns:osb="http://www.openswatchbook.org/uri/2009/osb"
   xmlns:dc="http://purl.org/dc/elements/1.1/"
   xmlns:cc="http://creativecommons.org/ns#"
   xmlns:rdf="http://www.w3.org/1999/02/22-rdf-syntax-ns#"
   xmlns:svg="http://www.w3.org/2000/svg"
   xmlns="http://www.w3.org/2000/svg"
   xmlns:sodipodi="http://sodipodi.sourceforge.net/DTD/sodipodi-0.dtd"
   xmlns:inkscape="http://www.inkscape.org/namespaces/inkscape"
   viewBox="0 0 33.212685 11"
   id="svg2"
   version="1.1"
   inkscape:version="0.91 r13725"
   sodipodi:docname="wave.svg"
   width="33.212685"
   height="11">
  <metadata
     id="metadata16">
    <rdf:RDF>
      <cc:Work
         rdf:about="">
        <dc:format>image/svg+xml</dc:format>
        <dc:type
           rdf:resource="http://purl.org/dc/dcmitype/StillImage" />
        <dc:title>wave_1</dc:title>
      </cc:Work>
    </rdf:RDF>
  </metadata>
  <sodipodi:namedview
     pagecolor="#ffffff"
     bordercolor="#666666"
     borderopacity="1"
     objecttolerance="10"
     gridtolerance="10"
     guidetolerance="10"
     inkscape:pageopacity="0"
     inkscape:pageshadow="2"
     inkscape:window-width="1366"
     inkscape:window-height="705"
     id="namedview14"
     showgrid="false"
     inkscape:zoom="1.7117117"
     inkscape:cx="-23.119976"
     inkscape:cy="6.0842105"
     inkscape:window-x="-8"
     inkscape:window-y="-8"
     inkscape:window-maximized="1"
     inkscape:current-layer="Layer_2"
     fit-margin-top="0"
     fit-margin-left="0"
     fit-margin-right="0"
     fit-margin-bottom="0" />
  <defs
     id="defs4">
    <linearGradient
       id="linearGradient5588"
       osb:paint="solid">
      <stop
         style="stop-color:#ffff0a;stop-opacity:1;"
         offset="0"
         id="stop5590" />
    </linearGradient>
    <style
       id="style6">.cls-1{fill:none;stroke:#e0e718;stroke-miterlimit:10;stroke-width:3px;}</style>
    <clipPath
       clipPathUnits="userSpaceOnUse"
       id="clipPath5596">
      <rect
         style="fill:#000000;fill-opacity:0;stroke:#009100;stroke-width:1.08731484;stroke-opacity:1"
         id="rect5598"
         width="33.212685"
         height="48.402161"
         x="34.512081"
         y="-21.672132" />
    </clipPath>
  </defs>
  <title
     id="title8">wave_1</title>
  <g
     id="Layer_2"
     data-name="Layer 2"
     transform="translate(-32.175239,-0.58421053)">
    <g
       id="Layer_1-2"
       data-name="Layer 1"
       transform="translate(-2.3368421,0.58421053)"
       clip-path="url(#clipPath5596)">
      <path
         class="cls-1"
         d="m 222,9.5 c -8.54,0 -8.54,-8 -17.07,-8 -8.53,0 -8.54,8 -17.07,8 -8.53,0 -8.54,-8 -17.07,-8 -8.53,0 -8.54,8 -17.08,8 -8.54,0 -8.54,-8 -17.07,-8 -8.53,0 -8.54,8 -17.08,8 -8.54,0 -8.54,-8 -17.08,-8 -8.54,0 -8.54,8 -17.08,8 -8.54,0 -8.54,-8 -17.07,-8 -8.53,0 -8.54,8 -17.08,8 -8.54,0 -8.54,-8 -17.08,-8 -8.54,0 -8.54,8 -17.08,8 C 8.55,9.5 8.54,1.5 0,1.5"
         id="path12"
         inkscape:connector-curvature="0"
         style="fill:none;stroke:#e0e718;stroke-width:3px;stroke-miterlimit:10" />
    </g>
  </g>
</svg>
