<svg data-name="Layer 1" xmlns="http://www.w3.org/2000/svg" viewBox="0 0 942.01 429.34"><title>house</title><path fill="none" stroke="#e2e71f" stroke-miterlimit="10" d="M694.57 179.04L360.69.57 26.81 179.04h667.76zM.5 429.34v-49h720.07v49M83.5 379.5v-64.07m184.77 9.91v44.25m0 0v-44.25m184.77 0v44.25m-.24 0v-44.25m184.77-9.91v64.07M242.39 179.04v136.65m-158.89 0V179.04m349.25 0v136.65m-144.19 0V179.04m349.01 0v136.65m-161.04 0V179.04"/><path d="M51.4 400.19v9.44h-1.22v-8.44H45.8v8.42h-1.22v-9.42h6.82zm1.88 4.88c0-.87 0-1.57-.06-2.21h1.11l.06 1.16a2.67 2.67 0 0 1 2.41-1.32c1.64 0 2.87 1.39 2.87 3.45 0 2.44-1.49 3.64-3.08 3.64a2.38 2.38 0 0 1-2.09-1.06v3.68h-1.22v-7.34zm1.22 1.81a2.83 2.83 0 0 0 .06.5 1.9 1.9 0 0 0 1.85 1.44c1.3 0 2.06-1.06 2.06-2.62 0-1.36-.71-2.52-2-2.52a2 2 0 0 0-1.86 1.53 2 2 0 0 0-.08.5v1.16zm7.8-4.03v2.86c0 1.08 0 1.75-.07 2.72.41-.83.64-1.3 1.09-2.09l2.12-3.5h1.44v6.78H65.7v-2.87c0-1.11 0-1.68.08-2.77-.43.87-.73 1.41-1.12 2.1-.64 1.05-1.39 2.35-2.12 3.54h-1.42v-6.78h1.16zm12.65 3.34a3.31 3.31 0 0 1-3.38 3.6 3.22 3.22 0 0 1-3.25-3.49 3.31 3.31 0 0 1 3.36-3.6 3.21 3.21 0 0 1 3.27 3.49zm-5.38.07c0 1.48.85 2.61 2.06 2.61s2.06-1.11 2.06-2.63c0-1.15-.57-2.61-2-2.61s-2.12 1.34-2.12 2.63zm6.76-1.19c0-.87 0-1.57-.06-2.21h1.11l.06 1.16a2.67 2.67 0 0 1 2.41-1.32c1.64 0 2.87 1.39 2.87 3.45 0 2.44-1.49 3.64-3.08 3.64a2.38 2.38 0 0 1-2.09-1.06v3.68h-1.22v-7.34zm1.22 1.81a2.83 2.83 0 0 0 .06.5 1.9 1.9 0 0 0 1.85 1.44c1.3 0 2.06-1.06 2.06-2.62 0-1.36-.71-2.52-2-2.52a2 2 0 0 0-1.86 1.53 2 2 0 0 0-.08.5v1.16zm7.79-4.03v2.86c0 1.08 0 1.75-.07 2.72.41-.83.64-1.3 1.09-2.09l2.12-3.5h1.44v6.78h-1.18v-2.87c0-1.11 0-1.68.08-2.77-.43.87-.73 1.41-1.12 2.1-.64 1.05-1.39 2.35-2.12 3.54h-1.42v-6.78h1.16zm11.13 0v1h-2.12v5.8h-1.22v-5.8h-2.12v-1h5.45zm1.69 3.62a2.17 2.17 0 0 0 2.33 2.35 4.45 4.45 0 0 0 1.88-.35l.21.88a5.48 5.48 0 0 1-2.25.42 3.15 3.15 0 0 1-3.33-3.42c0-2 1.21-3.66 3.18-3.66 2.21 0 2.8 1.95 2.8 3.19a4.73 4.73 0 0 1 0 .57h-4.76zm3.61-.88a1.76 1.76 0 0 0-1.71-2 2 2 0 0 0-1.89 2h3.6zm7.24-2.74v1h-2.11v5.8h-1.22v-5.8h-2.12v-1h5.45zm2.29 0v2.34a5.81 5.81 0 0 1 1.11-.08c1.46 0 2.93.6 2.93 2.27a1.92 1.92 0 0 1-.7 1.57 4.27 4.27 0 0 1-2.73.78 16.9 16.9 0 0 1-1.82-.1v-6.75h1.22zm0 5.93a6.91 6.91 0 0 0 .85.06c.94 0 2-.39 2-1.44s-1-1.43-1.9-1.43a5.62 5.62 0 0 0-.91.07v2.75zm6.11-5.93v6.78h-1.22v-6.78h1.22zm6.19 0v2.94h.29l2.55-2.94h1.5l-3 3.07c1.09.11 1.75.84 2.28 2.06a14.33 14.33 0 0 0 .73 1.65h-1.29a9 9 0 0 1-.63-1.39 2.2 2.2 0 0 0-2.24-1.6h-.24v3h-1.22v-6.78h1.22zm10.98 0v6.78h-1.22v-5.81h-2.35v1.76c0 1.91-.18 3.18-1.06 3.75a2 2 0 0 1-1.34.42l-.13-1a1.52 1.52 0 0 0 .67-.28c.63-.46.7-1.41.7-2.93v-2.73h4.71zm2.99 0v2.86c0 1.08 0 1.75-.07 2.72.41-.83.64-1.3 1.09-2.09l2.12-3.5h1.44v6.78h-1.14v-2.87c0-1.11 0-1.68.08-2.77-.43.87-.73 1.41-1.12 2.1-.64 1.05-1.39 2.35-2.12 3.54h-1.42v-6.78h1.16zm7.2 3.62a2.17 2.17 0 0 0 2.33 2.35 4.45 4.45 0 0 0 1.88-.35l.21.88a5.48 5.48 0 0 1-2.25.42 3.15 3.15 0 0 1-3.33-3.42c0-2 1.21-3.66 3.18-3.66 2.21 0 2.8 1.95 2.8 3.19a4.73 4.73 0 0 1 0 .57h-4.76zm3.61-.88a1.76 1.76 0 0 0-1.71-2 2 2 0 0 0-1.89 2h3.6zm3.79-2.74v2.73h3.22v-2.73h1.22v6.78h-1.22v-3.07h-3.22v3.07h-1.22v-6.78h1.22zm10.95 0v1h-2.11v5.8h-1.22v-5.8h-2.12v-1h5.45zm4.89 6.78l-.1-.85a2.52 2.52 0 0 1-2.07 1 1.93 1.93 0 0 1-2.07-1.95c0-1.64 1.46-2.54 4.08-2.52v-.12a1.4 1.4 0 0 0-1.54-1.57 3.38 3.38 0 0 0-1.76.5l-.28-.81a4.21 4.21 0 0 1 2.23-.6c2.07 0 2.58 1.41 2.58 2.77v2.54a9.55 9.55 0 0 0 .11 1.63h-1.18zm-.18-3.46c-1.34 0-2.87.21-2.87 1.53a1.09 1.09 0 0 0 1.16 1.18 1.69 1.69 0 0 0 1.64-1.13 1.29 1.29 0 0 0 .07-.39v-1.17zm-17.04-53.98a6 6 0 0 1-2.49.45 4.41 4.41 0 0 1-4.67-4.78 4.7 4.7 0 0 1 4.93-5 5.05 5.05 0 0 1 2.24.42l-.29 1a4.44 4.44 0 0 0-1.91-.39c-2.21 0-3.68 1.42-3.68 3.89 0 2.31 1.33 3.8 3.63 3.8a4.88 4.88 0 0 0 2-.39z"/><path d="M156.01 345.69v1h-2.12v5.8h-1.22v-5.8h-2.12v-1H156zm4.8 6.78l-.1-.85a2.53 2.53 0 0 1-2.07 1 1.93 1.93 0 0 1-2.07-1.95c0-1.64 1.46-2.54 4.08-2.52v-.14a1.4 1.4 0 0 0-1.54-1.57 3.38 3.38 0 0 0-1.76.5l-.28-.81a4.21 4.21 0 0 1 2.23-.6c2.07 0 2.58 1.41 2.58 2.77v2.54a9.55 9.55 0 0 0 .11 1.63h-1.12zm-.18-3.46c-1.34 0-2.87.21-2.87 1.53a1.09 1.09 0 0 0 1.16 1.18 1.69 1.69 0 0 0 1.64-1.13 1.29 1.29 0 0 0 .07-.39v-1.18zm4.18-3.32v2.73h3.22v-2.73h1.22v6.78h-1.24v-3.07h-3.22v3.07h-1.22v-6.78h1.22zm11.65 0v5.86h.7l-.07 3.07h-1l-.06-2.16h-4.69l-.06 2.16h-1l-.06-3.07h.57a5.28 5.28 0 0 0 .67-1.39 8.94 8.94 0 0 0 .39-2.7v-1.77h4.52zm-3.43 2.06a9 9 0 0 1-.35 2.52 6.44 6.44 0 0 1-.55 1.26h3.12v-4.9h-2.24v1.12zm9.31 4.72l-.1-.85a2.53 2.53 0 0 1-2.07 1 1.93 1.93 0 0 1-2.07-1.95c0-1.64 1.46-2.54 4.08-2.52v-.14a1.4 1.4 0 0 0-1.54-1.57 3.38 3.38 0 0 0-1.76.5l-.28-.81a4.21 4.21 0 0 1 2.23-.6c2.07 0 2.58 1.41 2.58 2.77v2.54a9.55 9.55 0 0 0 .11 1.63h-1.12zm-.18-3.46c-1.34 0-2.87.21-2.87 1.53a1.09 1.09 0 0 0 1.16 1.18 1.69 1.69 0 0 0 1.64-1.13 1.29 1.29 0 0 0 .07-.39v-1.18zm2.97-1.11c0-.87 0-1.57-.06-2.21h1.11l.06 1.16a2.67 2.67 0 0 1 2.41-1.32c1.64 0 2.87 1.39 2.87 3.45 0 2.44-1.49 3.64-3.08 3.64a2.38 2.38 0 0 1-2.09-1.06v3.68h-1.22v-7.34zm1.22 1.81a2.83 2.83 0 0 0 .06.5 1.9 1.9 0 0 0 1.85 1.44c1.3 0 2.06-1.06 2.06-2.62 0-1.36-.71-2.52-2-2.52a2 2 0 0 0-1.86 1.53 2 2 0 0 0-.08.5v1.16zm11.22-4.02v1h-2.12v5.8h-1.22v-5.8h-2.12v-1h5.45zm2.28 0V348a5.81 5.81 0 0 1 1.11-.08c1.46 0 2.93.6 2.93 2.27a1.92 1.92 0 0 1-.7 1.57 4.27 4.27 0 0 1-2.73.78 16.9 16.9 0 0 1-1.82-.1v-6.75h1.22zm0 5.93a6.91 6.91 0 0 0 .85.06c.94 0 2-.39 2-1.44s-1-1.43-1.9-1.43a5.62 5.62 0 0 0-.91.07v2.75zm6.11-5.93v6.78h-1.22v-6.78h1.22zm18.15-241.89v9.44h-1.23v-8.42h-3.12v2.86c0 2-.08 4.33-1.42 5.23a2.84 2.84 0 0 1-1.44.45l-.15-1a2.16 2.16 0 0 0 1-.5c.76-.74.83-2.58.83-4.09v-4h5.55zm2.43 2.67l1.49 4c.15.45.32 1 .43 1.39.13-.41.27-.92.43-1.42l1.34-4h1.3l-1.85 4.83c-.88 2.33-1.48 3.52-2.33 4.24a3.34 3.34 0 0 1-1.51.8l-.31-1a3.26 3.26 0 0 0 1.08-.6 3.75 3.75 0 0 0 1-1.37.87.87 0 0 0 .1-.29 1.08 1.08 0 0 0-.08-.32l-2.51-6.25h1.34zm7.25 0v2.23a1.24 1.24 0 0 0 1.4 1.44 2.55 2.55 0 0 0 1.46-.48v-3.19h1.22v6.78h-1.22v-2.72a3.56 3.56 0 0 1-1.83.52 2 2 0 0 1-2.23-2.21v-2.37h1.23zm7.1 0v5.81h2.37v-5.81h1.21v5.81h2.37v-5.81h1.22v6.78h-8.36v-6.78h1.21zm9.76 3.61a2.17 2.17 0 0 0 2.33 2.35 4.45 4.45 0 0 0 1.88-.35l.21.88a5.48 5.48 0 0 1-2.25.42 3.15 3.15 0 0 1-3.33-3.42c0-2 1.21-3.66 3.18-3.66 2.21 0 2.8 1.95 2.8 3.19a4.73 4.73 0 0 1 0 .57h-4.76zm3.61-.88a1.76 1.76 0 0 0-1.71-2 2 2 0 0 0-1.89 2h3.6zm3.38.88a2.17 2.17 0 0 0 2.33 2.35 4.45 4.45 0 0 0 1.88-.35l.21.88a5.48 5.48 0 0 1-2.25.42 3.15 3.15 0 0 1-3.33-3.42c0-2 1.21-3.66 3.18-3.66 2.21 0 2.8 1.95 2.8 3.19a4.73 4.73 0 0 1 0 .57h-4.76zm3.61-.88a1.76 1.76 0 0 0-1.71-2 2 2 0 0 0-1.89 2h3.6zm6.9-2.73v2.94h.29l2.55-2.94h1.5l-3 3.07c1.09.11 1.75.84 2.28 2.06a14.33 14.33 0 0 0 .73 1.65h-1.29a9 9 0 0 1-.63-1.39 2.2 2.2 0 0 0-2.24-1.6h-.24v3h-1.22v-6.78h1.22zm9.2 6.78l-.1-.85a2.52 2.52 0 0 1-2.07 1 1.93 1.93 0 0 1-2.07-1.95c0-1.64 1.46-2.54 4.08-2.52v-.14a1.4 1.4 0 0 0-1.54-1.57 3.38 3.38 0 0 0-1.76.5l-.28-.81a4.21 4.21 0 0 1 2.23-.6c2.07 0 2.58 1.41 2.58 2.77v2.54a9.55 9.55 0 0 0 .11 1.63h-1.12zm-.18-3.46c-1.34 0-2.87.21-2.87 1.53a1.09 1.09 0 0 0 1.16 1.18 1.69 1.69 0 0 0 1.64-1.13 1.29 1.29 0 0 0 .07-.39v-1.18zm3.84-3.32v2.23a1.24 1.24 0 0 0 1.4 1.44 2.55 2.55 0 0 0 1.46-.48v-3.19h1.22v6.78h-1.22v-2.72a3.56 3.56 0 0 1-1.83.52 2 2 0 0 1-2.23-2.21v-2.37h1.23zm6.67 3.61a2.17 2.17 0 0 0 2.33 2.35 4.45 4.45 0 0 0 1.88-.35l.21.88a5.48 5.48 0 0 1-2.25.42 3.15 3.15 0 0 1-3.33-3.42c0-2 1.21-3.66 3.18-3.66 2.21 0 2.8 1.95 2.8 3.19a4.73 4.73 0 0 1 0 .57h-4.76zm3.61-.88a1.76 1.76 0 0 0-1.71-2 2 2 0 0 0-1.89 2h3.6zm7.52 3.79a4.55 4.55 0 0 1-1.95.39 3.22 3.22 0 0 1-3.38-3.46 3.44 3.44 0 0 1 3.64-3.6 4.11 4.11 0 0 1 1.71.35l-.28 1a2.86 2.86 0 0 0-1.43-.32 2.56 2.56 0 0 0 0 5.1 3.5 3.5 0 0 0 1.51-.34zm6.2-6.52v1h-2.12v5.8h-1.22v-5.8h-2.12v-1H305zm1.09.08a14.47 14.47 0 0 1 2.16-.15c1.13 0 3 .18 3 1.69a1.6 1.6 0 0 1-1.41 1.53 1.73 1.73 0 0 1 1.72 1.68c0 1.78-2.24 2-3.57 2-.76 0-1.54-.06-1.91-.08v-6.7zm1.16 5.88a7.47 7.47 0 0 0 1 .06c.83 0 2.06-.2 2.06-1.18s-1-1.19-2.16-1.19h-.9v2.31zm0-3.12h.92c.91 0 1.85-.27 1.85-1.06s-.59-1-1.82-1a8.79 8.79 0 0 0-1 .06v2zm11.92.49a3.31 3.31 0 0 1-3.38 3.6 3.22 3.22 0 0 1-3.25-3.49 3.31 3.31 0 0 1 3.36-3.6 3.21 3.21 0 0 1 3.27 3.49zm-5.38.07c0 1.48.85 2.61 2.06 2.61s2.06-1.11 2.06-2.63c0-1.15-.57-2.61-2-2.61s-2.12 1.34-2.12 2.63zm-196.68 42.39v9.44h-1.23v-8.42h-3.12v2.91c0 2-.08 4.33-1.41 5.23a2.84 2.84 0 0 1-1.44.45l-.15-1a2.16 2.16 0 0 0 1-.5c.76-.74.83-2.58.83-4.09v-4h5.55zm2.43 2.67l1.49 4c.15.45.32 1 .43 1.39.13-.41.27-.92.43-1.42l1.34-4h1.3l-1.85 4.83c-.88 2.33-1.48 3.52-2.33 4.24a3.34 3.34 0 0 1-1.51.8l-.31-1a3.26 3.26 0 0 0 1.08-.6 3.75 3.75 0 0 0 1-1.37.87.87 0 0 0 .1-.29 1.08 1.08 0 0 0-.08-.32l-2.51-6.25h1.34zm7.25 0v2.26a1.24 1.24 0 0 0 1.4 1.44 2.55 2.55 0 0 0 1.46-.48v-3.19h1.22v6.78h-1.22v-2.72a3.56 3.56 0 0 1-1.83.52 2 2 0 0 1-2.23-2.21v-2.37h1.23zm7.1 0v5.81h2.37v-5.81h1.21v5.81h2.37v-5.81h1.22v6.78h-8.36v-6.78h1.21zm12.78 6.78l-.1-.85a2.52 2.52 0 0 1-2.07 1 1.93 1.93 0 0 1-2.07-1.95c0-1.64 1.46-2.54 4.08-2.52v-.14a1.4 1.4 0 0 0-1.54-1.57 3.38 3.38 0 0 0-1.76.5l-.28-.81a4.21 4.21 0 0 1 2.23-.6c2.07 0 2.58 1.41 2.58 2.77v2.54a9.55 9.55 0 0 0 .11 1.63h-1.12zm-.18-3.46c-1.34 0-2.87.21-2.87 1.53a1.09 1.09 0 0 0 1.16 1.18 1.69 1.69 0 0 0 1.64-1.13 1.29 1.29 0 0 0 .07-.39v-1.18zm8.1 3.46h-1.22v-2.84h-.91a1.6 1.6 0 0 0-1.13.38 4.71 4.71 0 0 0-1 1.9 4.19 4.19 0 0 1-.28.56h-1.32a4.39 4.39 0 0 0 .42-.77 5.2 5.2 0 0 1 1.06-2 1.62 1.62 0 0 1 .77-.39 1.8 1.8 0 0 1-1.79-1.68 1.63 1.63 0 0 1 .9-1.47 4.75 4.75 0 0 1 2.27-.46 18.91 18.91 0 0 1 2.18.14v6.72zm-1.22-6a6.9 6.9 0 0 0-1-.07c-.84 0-1.83.24-1.83 1.18s1.08 1.18 1.81 1.18h1.05v-2.28zm11.31-3.08a9.24 9.24 0 0 1-1.42.31 3.32 3.32 0 0 0-2.41 1.27 4.83 4.83 0 0 0-.74 2.24 2.57 2.57 0 0 1 2.35-1.53c1.67 0 2.88 1.19 2.88 3.35s-1.15 3.59-3.14 3.59c-2.38 0-3.17-2.28-3.17-4.54a6 6 0 0 1 1.05-3.75 4.07 4.07 0 0 1 2.91-1.6 9.84 9.84 0 0 0 1.68-.36zm-2.42 3.21a1.65 1.65 0 0 0-1.53.92 3 3 0 0 0-.34 1.44c0 1.12.55 2.73 1.89 2.73s1.86-1.32 1.86-2.56-.42-2.53-1.88-2.53zm5.34 2.7a2.17 2.17 0 0 0 2.33 2.35 4.45 4.45 0 0 0 1.88-.35l.21.88a5.48 5.48 0 0 1-2.25.42 3.15 3.15 0 0 1-3.33-3.42c0-2 1.21-3.66 3.18-3.66 2.21 0 2.8 1.95 2.8 3.19a4.73 4.73 0 0 1 0 .57h-4.76zm3.61-.88a1.76 1.76 0 0 0-1.71-2 2 2 0 0 0-1.89 2h3.6zm3.12.11h.59c1 0 1.74-.48 1.74-1.11a1.12 1.12 0 0 0-1.32-1 3.27 3.27 0 0 0-1.64.48l-.31-.76a4.3 4.3 0 0 1 2.25-.62c1 0 2.3.46 2.3 1.78a1.73 1.73 0 0 1-1.53 1.54 1.8 1.8 0 0 1 1.85 1.69c0 1.47-1.5 2-2.93 2a4.64 4.64 0 0 1-2.2-.55l.32-.83a3.91 3.91 0 0 0 1.79.46c1 0 1.67-.49 1.67-1.16 0-.91-1-1.16-2-1.16h-.62v-.84zm11.53.49a3.31 3.31 0 0 1-3.38 3.6 3.22 3.22 0 0 1-3.25-3.49 3.31 3.31 0 0 1 3.36-3.6 3.21 3.21 0 0 1 3.27 3.49zm-5.38.07c0 1.48.85 2.61 2.06 2.61s2.06-1.11 2.06-2.63c0-1.15-.57-2.61-2-2.61s-2.12 1.34-2.12 2.63zm12.39-3.4v6.78h-1.23v-5.8h-3.15v5.8h-1.22v-6.78h5.6zm5.6 6.78l-.1-.85a2.53 2.53 0 0 1-2.07 1 1.93 1.93 0 0 1-2.07-1.95c0-1.64 1.46-2.54 4.08-2.52v-.14a1.4 1.4 0 0 0-1.54-1.57 3.38 3.38 0 0 0-1.76.5l-.28-.81a4.21 4.21 0 0 1 2.23-.6c2.07 0 2.58 1.41 2.58 2.77v2.54a9.55 9.55 0 0 0 .11 1.63h-1.12zm-.18-3.46c-1.34 0-2.87.21-2.87 1.53a1.09 1.09 0 0 0 1.16 1.18 1.69 1.69 0 0 0 1.64-1.13 1.29 1.29 0 0 0 .07-.39v-1.18zm7.8 3.2a4.55 4.55 0 0 1-1.95.39 3.22 3.22 0 0 1-3.38-3.46 3.44 3.44 0 0 1 3.64-3.6 4.11 4.11 0 0 1 1.71.35l-.28 1a2.86 2.86 0 0 0-1.43-.32 2.56 2.56 0 0 0 0 5.1 3.5 3.5 0 0 0 1.51-.34zm2.42-6.52v2.73h3.22v-2.73h1.22v6.78h-1.22v-3.07h-3.22v3.07h-1.22v-6.78h1.22zm12.49 3.33a3.31 3.31 0 0 1-3.38 3.6 3.22 3.22 0 0 1-3.25-3.49 3.31 3.31 0 0 1 3.36-3.6 3.21 3.21 0 0 1 3.27 3.49zm-5.38.07c0 1.48.85 2.61 2.06 2.61s2.06-1.11 2.06-2.63c0-1.15-.57-2.61-2-2.61s-2.13 1.34-2.13 2.63zm11.71 3.12a4.55 4.55 0 0 1-1.95.39 3.22 3.22 0 0 1-3.38-3.46 3.44 3.44 0 0 1 3.64-3.6 4.11 4.11 0 0 1 1.71.35l-.28 1a2.86 2.86 0 0 0-1.43-.32 2.56 2.56 0 0 0 0 5.1 3.5 3.5 0 0 0 1.51-.34zm6.24-6.52v1h-2.12v5.8h-1.22v-5.8h-2.12v-1h5.45zm2.27 0v2.3a6.86 6.86 0 0 1 1.12-.07c1.53 0 3.14.48 3.14 2.28a1.92 1.92 0 0 1-.71 1.55 4.71 4.71 0 0 1-2.94.78 16.9 16.9 0 0 1-1.82-.1v-6.75h1.22zm0 5.93a7.16 7.16 0 0 0 .91.06c.92 0 2.12-.31 2.12-1.44s-1.23-1.43-2.14-1.43a5.79 5.79 0 0 0-.88.07v2.75zm86.16-8.6v9.44h-1.23v-8.42h-3.12v2.91c0 2-.08 4.33-1.42 5.23a2.84 2.84 0 0 1-1.44.45l-.15-1a2.16 2.16 0 0 0 1-.5c.76-.74.83-2.58.83-4.09v-4h5.55zm2.4 2.67l1.49 4c.15.45.32 1 .43 1.39.13-.41.27-.92.43-1.42l1.34-4h1.3l-1.85 4.83c-.88 2.33-1.48 3.52-2.33 4.24a3.34 3.34 0 0 1-1.51.8l-.31-1a3.26 3.26 0 0 0 1.08-.6 3.75 3.75 0 0 0 1-1.37.87.87 0 0 0 .1-.29 1.08 1.08 0 0 0-.08-.32l-2.51-6.25h1.34zm7.25 0v2.26a1.24 1.24 0 0 0 1.4 1.44 2.55 2.55 0 0 0 1.46-.48v-3.19h1.22v6.78h-1.22v-2.72a3.56 3.56 0 0 1-1.83.52 2 2 0 0 1-2.23-2.21v-2.37h1.23zm7.1 0v5.81h2.37v-5.81h1.21v5.81h2.37v-5.81h1.22v6.78h-8.36v-6.78h1.21zm10.14 0v2.86c0 1.08 0 1.75-.07 2.72.41-.83.64-1.3 1.09-2.09l2.12-3.5h1.44v6.78h-1.18v-2.87c0-1.11 0-1.68.08-2.77-.43.87-.73 1.41-1.12 2.1-.64 1.05-1.39 2.35-2.12 3.54h-1.42v-6.78h1.16zm7.2 3.61a2.17 2.17 0 0 0 2.33 2.35 4.45 4.45 0 0 0 1.88-.35l.21.88a5.48 5.48 0 0 1-2.25.42 3.15 3.15 0 0 1-3.33-3.42c0-2 1.21-3.66 3.18-3.66 2.21 0 2.8 1.95 2.8 3.19a4.73 4.73 0 0 1 0 .57h-4.76zm3.61-.88a1.76 1.76 0 0 0-1.71-2 2 2 0 0 0-1.89 2h3.6zm10.52 3.79a4.55 4.55 0 0 1-1.95.39 3.22 3.22 0 0 1-3.38-3.46 3.44 3.44 0 0 1 3.64-3.6 4.11 4.11 0 0 1 1.71.35l-.28 1a2.86 2.86 0 0 0-1.43-.32 2.56 2.56 0 0 0 0 5.1 3.5 3.5 0 0 0 1.51-.34zm1.25-4.31c0-.87 0-1.57-.06-2.21h1.11l.06 1.16a2.67 2.67 0 0 1 2.41-1.32c1.64 0 2.87 1.39 2.87 3.45 0 2.44-1.49 3.64-3.08 3.64a2.38 2.38 0 0 1-2.09-1.06v3.68h-1.22v-7.34zm1.22 1.81a2.83 2.83 0 0 0 .06.5 1.9 1.9 0 0 0 1.85 1.44c1.3 0 2.06-1.06 2.06-2.62 0-1.36-.71-2.52-2-2.52a2 2 0 0 0-1.86 1.53 2 2 0 0 0-.08.5v1.16zm12.84-.69a3.31 3.31 0 0 1-3.38 3.6 3.22 3.22 0 0 1-3.25-3.49 3.31 3.31 0 0 1 3.36-3.6 3.21 3.21 0 0 1 3.27 3.49zm-5.38.07c0 1.48.85 2.61 2.06 2.61s2.06-1.11 2.06-2.63c0-1.15-.57-2.61-2-2.61s-2.12 1.34-2.12 2.63zm8.02-3.4v2.94h.29l2.55-2.94h1.5l-3 3.07c1.09.11 1.75.84 2.28 2.06a14.33 14.33 0 0 0 .73 1.65h-1.29a9 9 0 0 1-.63-1.39 2.2 2.2 0 0 0-2.24-1.6h-.24v3h-1.12v-6.78h1.22zm6.59 0v2.86c0 1.08 0 1.75-.07 2.72.41-.83.64-1.3 1.09-2.09l2.12-3.5h1.44v6.78h-1.18v-2.87c0-1.11 0-1.68.08-2.77-.43.87-.73 1.41-1.12 2.1-.64 1.05-1.39 2.35-2.12 3.54h-1.42v-6.78h1.16zm98.96-2.67v9.44h-1.23v-8.42h-3.12v2.91c0 2-.08 4.33-1.42 5.23a2.84 2.84 0 0 1-1.44.45l-.15-1a2.16 2.16 0 0 0 1-.5c.76-.74.83-2.58.83-4.09v-4h5.55zm2.42 2.67l1.49 4c.15.45.32 1 .43 1.39.13-.41.27-.92.43-1.42l1.34-4h1.3l-1.85 4.83c-.88 2.33-1.48 3.52-2.33 4.24a3.34 3.34 0 0 1-1.51.8l-.31-1a3.26 3.26 0 0 0 1.08-.6 3.75 3.75 0 0 0 1-1.37.87.87 0 0 0 .1-.29 1.08 1.08 0 0 0-.08-.32l-2.51-6.25h1.34zm7.26 0v2.26a1.24 1.24 0 0 0 1.4 1.44 2.55 2.55 0 0 0 1.46-.48v-3.19h1.22v6.78h-1.22v-2.72a3.56 3.56 0 0 1-1.83.52 2 2 0 0 1-2.23-2.21v-2.37h1.23zm7.1 0v5.81h2.37v-5.81h1.21v5.81h2.37v-5.81h1.22v6.78h-8.36v-6.78h1.21zm12.78 6.78l-.1-.85a2.53 2.53 0 0 1-2.07 1 1.93 1.93 0 0 1-2.07-1.95c0-1.64 1.46-2.54 4.08-2.52v-.14a1.4 1.4 0 0 0-1.54-1.57 3.38 3.38 0 0 0-1.76.5l-.28-.81a4.21 4.21 0 0 1 2.23-.6c2.07 0 2.58 1.41 2.58 2.77v2.54a9.55 9.55 0 0 0 .11 1.63h-1.12zm-.18-3.46c-1.34 0-2.87.21-2.87 1.53a1.09 1.09 0 0 0 1.16 1.18 1.69 1.69 0 0 0 1.64-1.13 1.29 1.29 0 0 0 .07-.39v-1.18zm8.1 3.46h-1.2v-2.84h-.91a1.6 1.6 0 0 0-1.13.38 4.69 4.69 0 0 0-1 1.9 4.08 4.08 0 0 1-.28.56h-1.32a4.39 4.39 0 0 0 .42-.77 5.2 5.2 0 0 1 1.06-2 1.62 1.62 0 0 1 .77-.39 1.8 1.8 0 0 1-1.79-1.68 1.63 1.63 0 0 1 .9-1.47 4.75 4.75 0 0 1 2.27-.46 18.91 18.91 0 0 1 2.18.14v6.72zm-1.22-6a6.9 6.9 0 0 0-1-.07c-.84 0-1.83.24-1.83 1.18s1.08 1.18 1.81 1.18h1.05v-2.28zm6.25-.78h1.51l1.23 3.42c.17.5.46 1.33.62 1.86.15-.5.53-1.58.8-2.33l1.09-3h1.53l.48 6.78h-1.18l-.15-3.24c0-.73-.1-1.6-.13-2.42-.18.62-.36 1.16-.74 2.2l-1.3 3.42h-.9l-1.21-3.35c-.21-.64-.5-1.62-.67-2.26h-.06c0 .8-.07 1.69-.11 2.44l-.17 3.21h-1.13zm14.96 3.33a3.31 3.31 0 0 1-3.38 3.6 3.22 3.22 0 0 1-3.25-3.49 3.31 3.31 0 0 1 3.36-3.6 3.21 3.21 0 0 1 3.27 3.49zm-5.38.07c0 1.48.85 2.61 2.06 2.61s2.06-1.11 2.06-2.63c0-1.15-.57-2.61-2-2.61s-2.12 1.34-2.12 2.63zm11.37-3.4v1h-2.11v5.8h-1.22v-5.8h-2.12v-1h5.45zm2.22 0v2.86c0 1.08 0 1.75-.07 2.72.41-.83.64-1.3 1.09-2.09l2.12-3.5h1.44v6.78h-1.18v-2.87c0-1.11 0-1.68.08-2.77-.43.87-.73 1.41-1.12 2.1-.64 1.05-1.39 2.35-2.12 3.54h-1.42v-6.78h1.16zm6.43.08a14.47 14.47 0 0 1 2.16-.15c1.13 0 3 .18 3 1.69a1.6 1.6 0 0 1-1.41 1.53 1.73 1.73 0 0 1 1.72 1.68c0 1.78-2.24 2-3.57 2-.76 0-1.54-.06-1.91-.08v-6.7zm1.16 5.88a7.47 7.47 0 0 0 1 .06c.83 0 2.06-.2 2.06-1.18s-1-1.19-2.16-1.19h-.9v2.31zm0-3.12h.92c.91 0 1.85-.27 1.85-1.06s-.59-1-1.82-1a8.79 8.79 0 0 0-1 .06v2zm9.61 3.94l-.1-.85a2.52 2.52 0 0 1-2.07 1 1.93 1.93 0 0 1-2.07-1.95c0-1.64 1.46-2.54 4.08-2.52v-.14a1.4 1.4 0 0 0-1.54-1.57 3.38 3.38 0 0 0-1.76.5l-.28-.81a4.21 4.21 0 0 1 2.23-.6c2.07 0 2.58 1.41 2.58 2.77v2.54a9.55 9.55 0 0 0 .11 1.63h-1.12zm-.18-3.46c-1.34 0-2.87.21-2.87 1.53a1.09 1.09 0 0 0 1.16 1.18 1.69 1.69 0 0 0 1.64-1.13 1.29 1.29 0 0 0 .07-.39v-1.18zm4.18-3.32v5.81h3.12v-5.81h1.22v5.86h.7l-.07 3.07h-1l-.06-2.16h-5.18v-6.78h1.22zm7.53 0v2.86c0 1.08 0 1.75-.07 2.72.41-.83.64-1.3 1.09-2.09l2.12-3.5h1.44v6.78h-1.18v-2.87c0-1.11 0-1.68.08-2.77-.43.87-.73 1.41-1.12 2.1-.64 1.05-1.39 2.35-2.12 3.54h-1.37v-6.78h1.16zm11.52 6.78h-1.22v-2.84h-.91a1.6 1.6 0 0 0-1.13.38 4.69 4.69 0 0 0-1 1.9 4.08 4.08 0 0 1-.28.56h-1.32a4.39 4.39 0 0 0 .42-.77 5.2 5.2 0 0 1 1.06-2 1.62 1.62 0 0 1 .77-.39 1.8 1.8 0 0 1-1.79-1.68 1.63 1.63 0 0 1 .9-1.47 4.75 4.75 0 0 1 2.27-.46 18.91 18.91 0 0 1 2.18.14v6.72zm-1.22-6a6.9 6.9 0 0 0-1-.07c-.84 0-1.83.24-1.83 1.18s1.08 1.18 1.81 1.18h1.05v-2.28zM407.5 113.76a6 6 0 0 1-2.49.45 4.41 4.41 0 0 1-4.67-4.78 4.7 4.7 0 0 1 4.93-5 5.05 5.05 0 0 1 2.24.42l-.29 1a4.44 4.44 0 0 0-1.91-.39c-2.21 0-3.68 1.42-3.68 3.89 0 2.31 1.33 3.8 3.63 3.8a4.88 4.88 0 0 0 2-.39zm5.13.31l-.1-.85a2.53 2.53 0 0 1-2.07 1 1.93 1.93 0 0 1-2.07-1.95c0-1.64 1.46-2.54 4.08-2.52v-.14a1.4 1.4 0 0 0-1.54-1.57 3.38 3.38 0 0 0-1.76.5l-.28-.81a4.21 4.21 0 0 1 2.23-.6c2.07 0 2.58 1.41 2.58 2.77v2.54a9.55 9.55 0 0 0 .11 1.63h-1.12zm-.18-3.46c-1.34 0-2.87.21-2.87 1.53a1.09 1.09 0 0 0 1.16 1.18 1.69 1.69 0 0 0 1.64-1.13 1.29 1.29 0 0 0 .07-.39v-1.18zm3.17-3.32h1.51l1.23 3.42c.17.5.46 1.33.62 1.86.15-.5.53-1.58.8-2.33l1.09-3h1.53l.48 6.78h-1.18l-.15-3.24c0-.73-.1-1.6-.13-2.42-.18.62-.36 1.16-.74 2.2l-1.3 3.42h-.9l-1.21-3.35c-.21-.64-.5-1.62-.67-2.26h-.06c0 .8-.07 1.69-.11 2.44l-.17 3.21h-1.13zm12.57 6.78l-.1-.85a2.52 2.52 0 0 1-2.07 1 1.93 1.93 0 0 1-2.07-1.95c0-1.64 1.46-2.54 4.08-2.52v-.14a1.4 1.4 0 0 0-1.54-1.57 3.38 3.38 0 0 0-1.76.5l-.28-.81a4.21 4.21 0 0 1 2.23-.6c2.07 0 2.58 1.41 2.58 2.77v2.54a9.55 9.55 0 0 0 .11 1.63h-1.12zm-.18-3.46c-1.34 0-2.87.21-2.87 1.53a1.09 1.09 0 0 0 1.16 1.18 1.69 1.69 0 0 0 1.64-1.13 1.29 1.29 0 0 0 .07-.39v-1.18zm8.1 3.46h-1.22v-2.88h-.88a1.6 1.6 0 0 0-1.13.38 4.71 4.71 0 0 0-1 1.9 4.19 4.19 0 0 1-.28.56h-1.32a4.39 4.39 0 0 0 .42-.77 5.2 5.2 0 0 1 1.06-2 1.62 1.62 0 0 1 .77-.39 1.8 1.8 0 0 1-1.79-1.68 1.63 1.63 0 0 1 .9-1.47 4.75 4.75 0 0 1 2.27-.46 18.91 18.91 0 0 1 2.18.14v6.72zm-1.22-6a6.9 6.9 0 0 0-1-.07c-.84 0-1.83.24-1.83 1.18s1.08 1.18 1.81 1.18h1.05v-2.28zm7.38-.78v2.73h3.22v-2.73h1.22v6.78h-1.22V111h-3.22v3.07h-1.26v-6.78h1.22zm7.42 0v2.9c0 1.08 0 1.75-.07 2.72.41-.83.64-1.3 1.09-2.09l2.12-3.5h1.44v6.78h-1.18v-2.91c0-1.11 0-1.68.08-2.77-.43.87-.73 1.41-1.12 2.1-.64 1.05-1.39 2.35-2.12 3.54h-1.42v-6.78h1.16zm6.99 2.84h.59c1 0 1.74-.48 1.74-1.11a1.12 1.12 0 0 0-1.32-1 3.27 3.27 0 0 0-1.64.48l-.31-.76a4.3 4.3 0 0 1 2.25-.62c1 0 2.3.46 2.3 1.78a1.73 1.73 0 0 1-1.53 1.54 1.8 1.8 0 0 1 1.85 1.69c0 1.47-1.5 2-2.93 2a4.64 4.64 0 0 1-2.2-.55l.32-.83a3.91 3.91 0 0 0 1.79.46c1 0 1.67-.49 1.67-1.16 0-.91-1-1.16-2-1.16h-.62v-.84zm6.57-2.84v2.9h.29l2.55-2.94h1.5l-3 3.07c1.09.11 1.75.84 2.28 2.06a14.33 14.33 0 0 0 .73 1.65h-1.29a9 9 0 0 1-.63-1.39 2.2 2.2 0 0 0-2.24-1.6h-.24v3h-1.19v-6.78h1.22zm9.19 6.78l-.1-.85a2.53 2.53 0 0 1-2.07 1 1.93 1.93 0 0 1-2.07-1.95c0-1.64 1.46-2.54 4.08-2.52v-.14a1.4 1.4 0 0 0-1.54-1.57 3.38 3.38 0 0 0-1.76.5l-.28-.81a4.21 4.21 0 0 1 2.23-.6c2.07 0 2.58 1.41 2.58 2.77v2.54a9.55 9.55 0 0 0 .11 1.63h-1.12zm-.18-3.46c-1.34 0-2.87.21-2.87 1.53a1.09 1.09 0 0 0 1.16 1.18 1.69 1.69 0 0 0 1.64-1.13 1.29 1.29 0 0 0 .07-.39v-1.18zm8.1 3.46h-1.22v-2.88h-.91a1.6 1.6 0 0 0-1.13.38 4.69 4.69 0 0 0-1 1.9 4.08 4.08 0 0 1-.28.56h-1.32a4.39 4.39 0 0 0 .42-.77 5.2 5.2 0 0 1 1.06-2 1.62 1.62 0 0 1 .77-.39 1.8 1.8 0 0 1-1.79-1.68 1.63 1.63 0 0 1 .9-1.47 4.75 4.75 0 0 1 2.27-.46 18.91 18.91 0 0 1 2.18.14v6.72zm-1.22-6a6.9 6.9 0 0 0-1-.07c-.84 0-1.83.24-1.83 1.18s1.08 1.18 1.81 1.18h1.05v-2.28zm7.38-.78v5.81h3.12v-5.81h1.22v5.9h.7l-.07 3.07h-1l-.06-2.16h-5.18v-6.78h1.22zm7.03 3.61a2.17 2.17 0 0 0 2.33 2.35 4.45 4.45 0 0 0 1.88-.35l.21.88a5.48 5.48 0 0 1-2.25.42 3.15 3.15 0 0 1-3.33-3.42c0-2 1.21-3.66 3.18-3.66 2.21 0 2.8 1.95 2.8 3.19a4.73 4.73 0 0 1 0 .57h-4.76zm3.61-.88a1.76 1.76 0 0 0-1.71-2 2 2 0 0 0-1.89 2h3.6zm3.79-2.73v2.73h3.22v-2.73h1.22v6.78h-1.22V111h-3.22v3.07h-1.22v-6.78h1.22zm10.06 6.78l-.1-.85a2.52 2.52 0 0 1-2.07 1 1.93 1.93 0 0 1-2.07-1.95c0-1.64 1.46-2.54 4.08-2.52v-.14a1.4 1.4 0 0 0-1.54-1.57 3.38 3.38 0 0 0-1.76.5l-.28-.81a4.21 4.21 0 0 1 2.23-.6c2.07 0 2.58 1.41 2.58 2.77v2.54a9.55 9.55 0 0 0 .11 1.63h-1.18zm-.18-3.46c-1.34 0-2.87.21-2.87 1.53a1.09 1.09 0 0 0 1.16 1.18 1.69 1.69 0 0 0 1.64-1.13 1.29 1.29 0 0 0 .07-.39v-1.18zM338.2 46.19v14.43h7.42V46.19h2.11v14.47h1.42l-.14 5.54h-1.66l-.14-3.89h-11.09V46.19h2.09zm14.24 10.76a3.72 3.72 0 0 0 4 4 7.64 7.64 0 0 0 3.22-.6l.36 1.51a9.41 9.41 0 0 1-3.86.72c-3.58 0-5.71-2.35-5.71-5.86s2.06-6.26 5.45-6.26c3.79 0 4.8 3.34 4.8 5.47a7.88 7.88 0 0 1-.07 1h-8.16zm6.19-1.51c0-1.34-.55-3.43-2.93-3.43-2.14 0-3.07 2-3.24 3.43h6.17zm13.38-4.69v11.62h-2.09v-10h-4v3c0 3.26-.31 5.45-1.82 6.43a3.39 3.39 0 0 1-2.3.72l-.22-1.66a2.62 2.62 0 0 0 1.15-.48c1.08-.79 1.2-2.42 1.2-5V50.7h8.06zm5 0v4.9c0 1.85 0 3-.12 4.66h.07c.7-1.42 1.1-2.23 1.87-3.58l3.62-6h2.47v11.62h-2v-4.92c0-1.9 0-2.88.14-4.75h-.05c-.74 1.49-1.25 2.42-1.92 3.6-1.1 1.8-2.38 4-3.62 6.07h-2.46V50.73h2zm536.64 32.78v8.42h4.33v-8.42h1.23v8.45h.83l-.08 3.24h-1l-.08-2.27h-6.47v-9.44h1.22zm8.36 6.27a2.17 2.17 0 0 0 2.33 2.35 4.45 4.45 0 0 0 1.88-.35l.21.88a5.48 5.48 0 0 1-2.25.42 3.15 3.15 0 0 1-3.33-3.42c0-2 1.21-3.66 3.18-3.66 2.21 0 2.8 1.95 2.8 3.19a4.73 4.73 0 0 1 0 .57h-4.82zm3.61-.88a1.76 1.76 0 0 0-1.71-2 2 2 0 0 0-1.89 2h3.6zm7.81-2.73v6.78h-1.22v-5.78h-2.33v1.76c0 1.91-.18 3.18-1.06 3.75a2 2 0 0 1-1.34.42l-.13-1a1.52 1.52 0 0 0 .67-.28c.63-.46.7-1.41.7-2.93v-2.72h4.71zm2.98 0v2.86c0 1.08 0 1.75-.07 2.72.41-.83.64-1.3 1.09-2.09l2.12-3.5h1.44v6.78h-1.18v-2.87c0-1.11 0-1.68.08-2.77-.43.87-.73 1.41-1.12 2.1-.64 1.05-1.39 2.35-2.12 3.54h-1.42v-6.77h1.16zm-27.01 158c0 3.25-2 5-4.38 5s-4.25-1.93-4.25-4.79 1.86-5 4.38-5 4.25 1.99 4.25 4.79zm-7.33.15c0 2 1.09 3.82 3 3.82s3-1.78 3-3.92c0-1.88-1-3.84-3-3.84s-3 1.87-3 3.94zm14.36-2.15v6.78h-1.23v-5.78h-3.19v5.8h-1.22v-6.8h5.6zm8.03 3.37a3.31 3.31 0 0 1-3.38 3.6 3.22 3.22 0 0 1-3.25-3.49 3.31 3.31 0 0 1 3.36-3.6 3.21 3.21 0 0 1 3.27 3.49zm-5.38.07c0 1.48.85 2.61 2.06 2.61s2.06-1.11 2.06-2.63c0-1.15-.57-2.61-2-2.61s-2.11 1.34-2.11 2.63zm6.76-1.19c0-.87 0-1.57-.06-2.21h1.11l.06 1.16a2.67 2.67 0 0 1 2.41-1.32c1.64 0 2.87 1.39 2.87 3.45 0 2.44-1.49 3.64-3.08 3.64a2.38 2.38 0 0 1-2.09-1.06v3.68h-1.22v-7.34zm1.22 1.81a2.83 2.83 0 0 0 .06.5 1.9 1.9 0 0 0 1.85 1.44c1.3 0 2.06-1.06 2.06-2.62 0-1.36-.71-2.52-2-2.52a2 2 0 0 0-1.86 1.53 2 2 0 0 0-.08.5v1.16zm7.85-4.06v2.31a5.81 5.81 0 0 1 1.11-.08c1.46 0 2.93.6 2.93 2.27a1.92 1.92 0 0 1-.7 1.57 4.27 4.27 0 0 1-2.73.78 16.9 16.9 0 0 1-1.82-.1v-6.75h1.22zm0 5.93a6.91 6.91 0 0 0 .85.06c.94 0 2-.39 2-1.44s-1-1.43-1.9-1.43a5.62 5.62 0 0 0-.91.07v2.81zm6.11-5.93v6.78h-1.22v-6.78h1.22zm-72.68 16.84v5.86h.7l-.07 3.07h-1l-.06-2.16h-4.69l-.06 2.16h-1l-.06-3.07h.57a5.28 5.28 0 0 0 .67-1.39 8.94 8.94 0 0 0 .39-2.7v-1.77h4.52zm-3.43 2.06a9 9 0 0 1-.35 2.52 6.44 6.44 0 0 1-.55 1.26h3.12v-4.9h-2.23v1.12zm10.94-2.06v6.78h-1.22V260h-2.33v1.76c0 1.91-.18 3.18-1.06 3.75a2 2 0 0 1-1.34.42l-.13-1a1.52 1.52 0 0 0 .67-.28c.63-.46.7-1.41.7-2.93v-2.73h4.71zm6.9 6.78h-1.22v-2.84h-.91a1.6 1.6 0 0 0-1.13.38 4.69 4.69 0 0 0-1 1.9 4.08 4.08 0 0 1-.28.56h-1.32a4.39 4.39 0 0 0 .42-.77 5.2 5.2 0 0 1 1.06-2 1.62 1.62 0 0 1 .77-.39 1.8 1.8 0 0 1-1.79-1.68 1.63 1.63 0 0 1 .9-1.47 4.75 4.75 0 0 1 2.27-.46 18.91 18.91 0 0 1 2.18.14v6.72zm-1.22-6a6.9 6.9 0 0 0-1-.07c-.84 0-1.83.24-1.83 1.18s1.08 1.18 1.81 1.18h1.05v-2.28zm6.19 1.43c0-.87 0-1.57-.06-2.21h1.11l.06 1.16a2.67 2.67 0 0 1 2.41-1.32c1.64 0 2.87 1.39 2.87 3.45 0 2.44-1.49 3.64-3.08 3.64a2.38 2.38 0 0 1-2.09-1.06v3.68h-1.22v-7.34zm1.22 1.81a2.83 2.83 0 0 0 .06.5 1.9 1.9 0 0 0 1.85 1.44c1.3 0 2.06-1.06 2.06-2.62 0-1.36-.71-2.52-2-2.52a2 2 0 0 0-1.86 1.53 2 2 0 0 0-.08.5v1.16zm10.43 2.76l-.1-.85a2.53 2.53 0 0 1-2.07 1 1.93 1.93 0 0 1-2.07-1.95c0-1.64 1.46-2.54 4.08-2.52v-.14a1.4 1.4 0 0 0-1.54-1.57 3.38 3.38 0 0 0-1.76.5l-.28-.81a4.21 4.21 0 0 1 2.23-.6c2.07 0 2.58 1.41 2.58 2.77v2.55a9.55 9.55 0 0 0 .11 1.63h-1.12zm-.18-3.46c-1.34 0-2.87.21-2.87 1.53a1.09 1.09 0 0 0 1.16 1.18 1.69 1.69 0 0 0 1.64-1.13 1.29 1.29 0 0 0 .07-.39v-1.18zm3.59-.48h.59c1 0 1.74-.48 1.74-1.11a1.12 1.12 0 0 0-1.32-1 3.27 3.27 0 0 0-1.64.48l-.31-.76a4.3 4.3 0 0 1 2.25-.62c1 0 2.3.46 2.3 1.78a1.73 1.73 0 0 1-1.53 1.54 1.8 1.8 0 0 1 1.85 1.69c0 1.47-1.5 2-2.93 2a4.64 4.64 0 0 1-2.2-.55l.32-.83a3.91 3.91 0 0 0 1.79.46c1 0 1.67-.49 1.67-1.16 0-.91-1-1.16-2-1.16h-.62v-.84zm5.33-2.76a14.47 14.47 0 0 1 2.16-.15c1.13 0 3 .18 3 1.69a1.6 1.6 0 0 1-1.41 1.53 1.73 1.73 0 0 1 1.72 1.68c0 1.78-2.24 2-3.57 2-.76 0-1.54-.06-1.91-.08v-6.7zm1.16 5.88a7.47 7.47 0 0 0 1 .06c.83 0 2.06-.2 2.06-1.18s-1-1.19-2.16-1.19h-.9v2.31zm0-3.12h.92c.91 0 1.85-.27 1.85-1.06s-.59-1-1.82-1a8.81 8.81 0 0 0-1 .06v2zm6.89-2.84v2.86c0 1.08 0 1.75-.07 2.72.41-.83.64-1.3 1.09-2.09l2.12-3.5h1.44v6.78h-1.18v-2.87c0-1.11 0-1.68.08-2.77-.43.87-.73 1.41-1.12 2.1-.64 1.05-1.39 2.35-2.12 3.54h-1.39v-6.78h1.16zm11.13 0v1h-2.12v5.8h-1.22v-5.8h-2.12v-1h5.45zm2.22 0v2.86c0 1.08 0 1.75-.07 2.72.41-.83.64-1.3 1.09-2.09l2.12-3.5h1.44v6.78h-1.18v-2.87c0-1.11 0-1.68.08-2.77-.43.87-.73 1.41-1.12 2.1-.64 1.05-1.39 2.35-2.12 3.54h-1.42v-6.78h1.16zm11.5 6.78h-1.22v-2.84h-.91a1.6 1.6 0 0 0-1.13.38 4.69 4.69 0 0 0-1 1.9 4.08 4.08 0 0 1-.28.56h-1.32a4.39 4.39 0 0 0 .42-.77 5.2 5.2 0 0 1 1.06-2 1.62 1.62 0 0 1 .77-.39 1.8 1.8 0 0 1-1.79-1.68 1.63 1.63 0 0 1 .9-1.47 4.75 4.75 0 0 1 2.27-.46 18.91 18.91 0 0 1 2.18.14v6.72zm-1.22-6a6.9 6.9 0 0 0-1-.07c-.84 0-1.83.24-1.83 1.18s1.08 1.18 1.81 1.18h1.05v-2.28zm-91.53 83.13a14.12 14.12 0 0 1 2.34-.18 3.88 3.88 0 0 1 2.65.78 2.54 2.54 0 0 1 .83 2 2.78 2.78 0 0 1-.73 2 3.91 3.91 0 0 1-2.89 1 4.18 4.18 0 0 1-1-.08v3.78h-1.22v-9.33zm1.22 4.55a4.1 4.1 0 0 0 1 .1c1.47 0 2.37-.71 2.37-2s-.88-1.85-2.23-1.85a5.14 5.14 0 0 0-1.15.1v3.67zm9.66 4.78l-.1-.85a2.52 2.52 0 0 1-2.07 1 1.93 1.93 0 0 1-2.07-1.95c0-1.64 1.46-2.54 4.08-2.52v-.14a1.4 1.4 0 0 0-1.54-1.57 3.38 3.38 0 0 0-1.76.5l-.28-.81a4.21 4.21 0 0 1 2.23-.6c2.07 0 2.58 1.41 2.58 2.77v2.54a9.55 9.55 0 0 0 .11 1.63h-1.12zm-.18-3.46c-1.34 0-2.87.21-2.87 1.53a1.09 1.09 0 0 0 1.16 1.18 1.69 1.69 0 0 0 1.64-1.13 1.29 1.29 0 0 0 .07-.39v-1.18zm8.16-5.62a9.24 9.24 0 0 1-1.42.31 3.32 3.32 0 0 0-2.41 1.27 4.83 4.83 0 0 0-.74 2.24 2.57 2.57 0 0 1 2.35-1.53c1.67 0 2.88 1.19 2.88 3.35s-1.15 3.59-3.14 3.59c-2.38 0-3.17-2.28-3.17-4.54a6 6 0 0 1 1.05-3.75 4.07 4.07 0 0 1 2.91-1.6 9.83 9.83 0 0 0 1.68-.36zm-2.42 3.21a1.65 1.65 0 0 0-1.53.92 3 3 0 0 0-.34 1.44c0 1.12.55 2.73 1.89 2.73s1.86-1.32 1.86-2.56-.42-2.53-1.88-2.53zm10.79 2.42a3.31 3.31 0 0 1-3.38 3.6 3.22 3.22 0 0 1-3.25-3.49 3.31 3.31 0 0 1 3.36-3.6 3.21 3.21 0 0 1 3.27 3.49zm-5.38.07c0 1.48.85 2.61 2.06 2.61s2.06-1.11 2.06-2.63c0-1.15-.57-2.61-2-2.61s-2.12 1.34-2.12 2.63zm7.8-3.4v2.23a1.24 1.24 0 0 0 1.4 1.44 2.55 2.55 0 0 0 1.46-.48v-3.19h1.22v6.78h-1.22v-2.72a3.56 3.56 0 0 1-1.83.52 2 2 0 0 1-2.23-2.21v-2.37h1.23zm9.68 6.78l-.1-.85a2.53 2.53 0 0 1-2.07 1 1.93 1.93 0 0 1-2.07-1.95c0-1.64 1.46-2.54 4.08-2.52v-.14a1.4 1.4 0 0 0-1.54-1.57 3.38 3.38 0 0 0-1.76.5l-.28-.81a4.21 4.21 0 0 1 2.23-.6c2.07 0 2.58 1.41 2.58 2.77v2.54a9.55 9.55 0 0 0 .11 1.63h-1.12zm-.18-3.46c-1.34 0-2.87.21-2.87 1.53a1.09 1.09 0 0 0 1.16 1.18 1.69 1.69 0 0 0 1.64-1.13 1.29 1.29 0 0 0 .07-.39v-1.18zm8.1 3.46h-1.22v-2.84h-.91a1.6 1.6 0 0 0-1.13.38 4.69 4.69 0 0 0-1 1.9 4.08 4.08 0 0 1-.28.56h-1.32a4.39 4.39 0 0 0 .42-.77 5.2 5.2 0 0 1 1.06-2 1.62 1.62 0 0 1 .77-.39 1.8 1.8 0 0 1-1.79-1.68 1.63 1.63 0 0 1 .9-1.47 4.75 4.75 0 0 1 2.27-.46 18.91 18.91 0 0 1 2.18.14v6.72zm-1.22-6a6.9 6.9 0 0 0-1-.07c-.84 0-1.83.24-1.83 1.18s1.08 1.18 1.81 1.18h1.05v-2.28zm12.33 2.55a3.31 3.31 0 0 1-3.38 3.6 3.22 3.22 0 0 1-3.25-3.49 3.31 3.31 0 0 1 3.36-3.6 3.21 3.21 0 0 1 3.27 3.49zm-5.38.07c0 1.48.85 2.61 2.06 2.61s2.06-1.11 2.06-2.63c0-1.15-.57-2.61-2-2.61s-2.12 1.34-2.12 2.63zm11.77 3.12a4.55 4.55 0 0 1-1.95.39 3.22 3.22 0 0 1-3.38-3.46 3.44 3.44 0 0 1 3.64-3.6 4.11 4.11 0 0 1 1.71.35l-.28 1a2.86 2.86 0 0 0-1.43-.32 2.56 2.56 0 0 0 0 5.1 3.5 3.5 0 0 0 1.51-.34zm2.37-6.52v2.7h3.22v-2.73h1.22v6.78h-1.22v-3.05h-3.22v3.07h-1.22v-6.78h1.22zm12.48 3.33a3.31 3.31 0 0 1-3.38 3.6 3.22 3.22 0 0 1-3.25-3.49 3.31 3.31 0 0 1 3.36-3.6 3.21 3.21 0 0 1 3.27 3.49zm-5.38.07c0 1.48.85 2.61 2.06 2.61s2.06-1.11 2.06-2.63c0-1.15-.57-2.61-2-2.61s-2.12 1.34-2.12 2.63zm6.79-3.32a14.47 14.47 0 0 1 2.16-.15c1.13 0 3 .18 3 1.69a1.6 1.6 0 0 1-1.41 1.53 1.73 1.73 0 0 1 1.72 1.68c0 1.78-2.24 2-3.57 2-.76 0-1.54-.06-1.91-.08v-6.7zm1.16 5.88a7.47 7.47 0 0 0 1 .06c.83 0 2.06-.2 2.06-1.18s-1-1.19-2.16-1.19h-.9v2.31zm0-3.12h.92c.91 0 1.85-.27 1.85-1.06s-.59-1-1.82-1a8.81 8.81 0 0 0-1 .06v2zm9.58 3.94l-.1-.85a2.53 2.53 0 0 1-2.07 1 1.93 1.93 0 0 1-2.07-1.95c0-1.64 1.46-2.54 4.08-2.52v-.14a1.4 1.4 0 0 0-1.54-1.57 3.38 3.38 0 0 0-1.76.5l-.28-.81a4.21 4.21 0 0 1 2.23-.6c2.07 0 2.58 1.41 2.58 2.77v2.54a9.55 9.55 0 0 0 .11 1.63h-1.18zm-.18-3.46c-1.34 0-2.87.21-2.87 1.53a1.09 1.09 0 0 0 1.16 1.18 1.69 1.69 0 0 0 1.64-1.13 1.29 1.29 0 0 0 .07-.39v-1.18zm-115.3 56c0 3.25-2 5-4.38 5s-4.25-1.93-4.25-4.79 1.86-5 4.38-5 4.25 1.99 4.25 4.79zm-7.33.15c0 2 1.09 3.82 3 3.82s3-1.78 3-3.92c0-1.88-1-3.84-3-3.84s-2.99 1.87-2.99 3.95zm13.65 4.42a4.55 4.55 0 0 1-1.95.39 3.22 3.22 0 0 1-3.38-3.46 3.44 3.44 0 0 1 3.64-3.6 4.11 4.11 0 0 1 1.71.35l-.28 1a2.86 2.86 0 0 0-1.43-.32 2.56 2.56 0 0 0 0 5.1 3.5 3.5 0 0 0 1.51-.34zm2.42-6.53v2.73h3.22v-2.73h1.22v6.78h-1.22v-3.07h-3.22v3.07h-1.26v-6.78h1.22zm12.48 3.34a3.31 3.31 0 0 1-3.38 3.6 3.22 3.22 0 0 1-3.25-3.49 3.31 3.31 0 0 1 3.36-3.6 3.21 3.21 0 0 1 3.27 3.49zm-5.38.07c0 1.48.85 2.61 2.06 2.61s2.06-1.11 2.06-2.63c0-1.15-.57-2.61-2-2.61s-2.12 1.34-2.12 2.63zm6.79-3.32a14.47 14.47 0 0 1 2.16-.15c1.13 0 3 .18 3 1.69a1.6 1.6 0 0 1-1.41 1.53 1.73 1.73 0 0 1 1.72 1.68c0 1.78-2.24 2-3.57 2-.76 0-1.54-.06-1.91-.08v-6.7zm1.16 5.88a7.47 7.47 0 0 0 1 .06c.83 0 2.06-.2 2.06-1.18s-1-1.19-2.16-1.19h-.9v2.31zm0-3.12h.92c.91 0 1.85-.27 1.85-1.06s-.59-1-1.82-1a8.79 8.79 0 0 0-1 .06v2zm6.95-2.85v2.73h3.22v-2.73h1.22v6.78h-1.22v-3.07h-3.22v3.07h-1.26v-6.78h1.22zm7.48 0v2.34a5.81 5.81 0 0 1 1.11-.08c1.46 0 2.93.6 2.93 2.27a1.92 1.92 0 0 1-.7 1.57 4.27 4.27 0 0 1-2.73.78 16.9 16.9 0 0 1-1.82-.1v-6.75h1.22zm0 5.93a6.91 6.91 0 0 0 .85.06c.94 0 2-.39 2-1.44s-1-1.43-1.9-1.43a5.61 5.61 0 0 0-.91.07v2.75zm6.11-5.93v6.78h-1.22v-6.78h1.22zm2.59 3.62a2.17 2.17 0 0 0 2.33 2.35 4.45 4.45 0 0 0 1.88-.35l.21.88a5.48 5.48 0 0 1-2.25.42 3.15 3.15 0 0 1-3.33-3.42c0-2 1.21-3.66 3.18-3.66 2.21 0 2.8 1.95 2.8 3.19a4.73 4.73 0 0 1 0 .57h-4.76zm3.61-.88a1.76 1.76 0 0 0-1.71-2 2 2 0 0 0-1.89 2h3.6zm11.26-2.74v6.78h-1.23v-5.8h-3.15v5.8h-1.22v-6.78h5.6zm1.84 2.22c0-.87 0-1.57-.06-2.21h1.11l.06 1.16a2.67 2.67 0 0 1 2.41-1.32c1.64 0 2.87 1.39 2.87 3.45 0 2.44-1.49 3.64-3.08 3.64a2.38 2.38 0 0 1-2.09-1.06v3.68h-1.22v-7.34zm1.22 1.81a2.83 2.83 0 0 0 .06.5 1.9 1.9 0 0 0 1.85 1.44c1.3 0 2.06-1.06 2.06-2.62 0-1.36-.71-2.52-2-2.52a2 2 0 0 0-1.86 1.53 2 2 0 0 0-.08.5v1.16zm7.79-4.03v2.86c0 1.08 0 1.75-.07 2.72.41-.83.64-1.3 1.09-2.09l2.12-3.5h1.44v6.78h-1.18v-2.87c0-1.11 0-1.68.08-2.77-.43.87-.73 1.41-1.12 2.1-.64 1.05-1.39 2.35-2.12 3.54h-1.4v-6.78h1.16zm7.66 0v2.73h3.22v-2.73h1.22v6.78h-1.26v-3.07h-3.22v3.07h-1.22v-6.78h1.22zm7.48 0v5.81h3.12v-5.81h1.22v5.86h.7l-.07 3.07h-1l-.06-2.16h-5.18v-6.78h1.22zm7.53 0v2.86c0 1.08 0 1.75-.07 2.72.41-.83.64-1.3 1.09-2.09l2.12-3.5h1.44v6.78h-1.18v-2.87c0-1.11 0-1.68.08-2.77-.43.87-.73 1.41-1.12 2.1-.64 1.05-1.39 2.35-2.12 3.54h-1.42v-6.78h1.16zm12.04 0v6.78h-1.23v-5.8h-3.15v5.8h-1.22v-6.78h5.6zm3.03 0v2.34a5.81 5.81 0 0 1 1.11-.08c1.46 0 2.93.6 2.93 2.27a1.92 1.92 0 0 1-.7 1.57 4.27 4.27 0 0 1-2.73.78 16.9 16.9 0 0 1-1.82-.1v-6.75h1.22zm0 5.93a6.91 6.91 0 0 0 .85.06c.94 0 2-.39 2-1.44s-1-1.43-1.9-1.43a5.61 5.61 0 0 0-.91.07v2.75zm6.11-5.93v6.78h-1.22v-6.78h1.22zm-417.8-59.82h1.22v4.55c.25-.36.5-.7.74-1l2.89-3.54h1.51l-3.42 4 3.68 5.44h-1.44l-3.11-4.64-.9 1v3.6h-1.22V343zm9.5 6.47l-1 3h-1.26l3.21-9.44h1.47l3.22 9.44h-1.3l-1-3h-3.35zm3.1-1l-.92-2.72c-.21-.62-.35-1.18-.49-1.72-.14.56-.29 1.13-.48 1.71l-.92 2.73h2.84zm4.97-5.47v9.44h-1.22v-9.44h1.22zm1.22 8.72l5.24-7.66h-4.79v-1h6.37v.74l-5.21 7.63h5.28v1h-6.89v-.71zm13-3.71h-3.67v3.4h4.09v1h-5.31V343h5.1v1h-3.88v3h3.67v1zm1.79 4.43v-9.44h1.33l3 4.78a26.73 26.73 0 0 1 1.7 3.07c-.11-1.26-.14-2.41-.14-3.88v-3.95h1.15v9.44h-1.23l-3-4.79a30.08 30.08 0 0 1-1.76-3.15c.07 1.19.1 2.33.1 3.89v4h-1.15zm-232.79-18.54a11.79 11.79 0 0 1 2.23-.2 3.9 3.9 0 0 1 2.59.69 2 2 0 0 1 .79 1.67 2.24 2.24 0 0 1-1.6 2.07 2.43 2.43 0 0 1 1.95 2.37 2.55 2.55 0 0 1-.8 1.89 4.75 4.75 0 0 1-3.26.88 14.33 14.33 0 0 1-1.89-.11v-9.29zm1.22 3.87h1.11c1.29 0 2-.67 2-1.58 0-1.11-.84-1.54-2.07-1.54a5.23 5.23 0 0 0-1.08.08v3zm0 4.52a6.52 6.52 0 0 0 1 .06c1.26 0 2.42-.46 2.42-1.83s-1.11-1.82-2.44-1.82h-1v3.6zm7.35-5.85v2.86c0 1.08 0 1.75-.07 2.72.41-.83.64-1.3 1.09-2.09l2.12-3.5h1.44v6.78h-1.15v-2.87c0-1.11 0-1.68.08-2.77-.43.87-.73 1.41-1.12 2.1-.64 1.05-1.39 2.35-2.12 3.54h-1.42v-6.78h1.16zm6.99 2.84h.59c1 0 1.74-.48 1.74-1.11a1.12 1.12 0 0 0-1.32-1 3.27 3.27 0 0 0-1.64.48l-.31-.76a4.3 4.3 0 0 1 2.25-.62c1 0 2.3.46 2.3 1.78a1.73 1.73 0 0 1-1.53 1.54 1.8 1.8 0 0 1 1.85 1.69c0 1.47-1.5 2-2.93 2a4.64 4.64 0 0 1-2.2-.55l.32-.83a3.91 3.91 0 0 0 1.79.46c1 0 1.67-.49 1.67-1.16 0-.91-1-1.16-2-1.16h-.62v-.84zm5.72-2.84l1.49 4c.15.45.32 1 .43 1.39.13-.41.27-.92.43-1.42l1.34-4h1.3l-1.85 4.83c-.88 2.33-1.48 3.52-2.33 4.24a3.34 3.34 0 0 1-1.51.8l-.31-1a3.26 3.26 0 0 0 1.08-.6 3.75 3.75 0 0 0 1-1.37.87.87 0 0 0 .1-.29 1.08 1.08 0 0 0-.08-.32l-2.51-6.25h1.34zm9.8 6.78l-.1-.85a2.52 2.52 0 0 1-2.07 1 1.93 1.93 0 0 1-2.07-1.95c0-1.64 1.46-2.54 4.08-2.52v-.14a1.4 1.4 0 0 0-1.54-1.57 3.38 3.38 0 0 0-1.76.5l-.28-.81a4.21 4.21 0 0 1 2.23-.6c2.07 0 2.58 1.41 2.58 2.77v2.54a9.55 9.55 0 0 0 .11 1.63h-1.12zm-.18-3.46c-1.34 0-2.87.21-2.87 1.53a1.09 1.09 0 0 0 1.16 1.18 1.69 1.69 0 0 0 1.64-1.13 1.29 1.29 0 0 0 .07-.39v-1.18zm8.28-3.32v6.78h-1.18v-5.81h-2.33v1.75c0 1.91-.18 3.18-1.06 3.75a2 2 0 0 1-1.34.42l-.13-1a1.52 1.52 0 0 0 .67-.28c.63-.46.7-1.41.7-2.93v-2.73h4.71zm3.04 0v2.3a6.86 6.86 0 0 1 1.12-.07c1.53 0 3.14.48 3.14 2.28a1.92 1.92 0 0 1-.71 1.55 4.71 4.71 0 0 1-2.94.78 16.9 16.9 0 0 1-1.82-.1v-6.75h1.22zm0 5.93a7.16 7.16 0 0 0 .91.06c.92 0 2.12-.31 2.12-1.44s-1.23-1.43-2.14-1.43a5.79 5.79 0 0 0-.88.07v2.75zm6.72-5.93v2.72h3.22v-2.73h1.22v6.78h-1.22v-3.05h-3.22v3.07h-1.22v-6.78h1.22zm7.48 0v2.31a5.81 5.81 0 0 1 1.11-.08c1.46 0 2.93.6 2.93 2.27a1.92 1.92 0 0 1-.7 1.57 4.27 4.27 0 0 1-2.73.78 16.9 16.9 0 0 1-1.82-.1v-6.75h1.22zm0 5.93a6.91 6.91 0 0 0 .85.06c.94 0 2-.39 2-1.44s-1-1.43-1.9-1.43a5.62 5.62 0 0 0-.91.07v2.75zm6.11-5.93v6.78h-1.22v-6.78h1.22zm2.99 0v2.86c0 1.08 0 1.75-.07 2.72.41-.83.64-1.3 1.09-2.09l2.12-3.5h1.44v6.78h-1.1v-2.87c0-1.11 0-1.68.08-2.77-.43.87-.73 1.41-1.12 2.1-.64 1.05-1.39 2.35-2.12 3.54h-1.42v-6.78h1.16zm.8-2.76a1 1 0 0 0 .9 1.06 1 1 0 0 0 1-1.06h.88a1.7 1.7 0 0 1-1.86 1.74 1.63 1.63 0 0 1-1.76-1.74h.9zm-67.02 19.56h1.51l1.23 3.42c.17.5.46 1.33.62 1.86.15-.5.53-1.58.8-2.33l1.09-3h1.53l.48 6.78h-1.18l-.15-3.24c0-.73-.1-1.6-.13-2.42-.18.62-.36 1.16-.74 2.2l-1.3 3.42h-.9l-1.21-3.35c-.21-.64-.5-1.62-.67-2.26h-.06c0 .8-.07 1.69-.11 2.44l-.17 3.21h-1.13zm9.54 3.61a2.17 2.17 0 0 0 2.33 2.35 4.45 4.45 0 0 0 1.88-.35l.21.88a5.48 5.48 0 0 1-2.25.42 3.15 3.15 0 0 1-3.33-3.42c0-2 1.21-3.66 3.18-3.66 2.21 0 2.8 1.95 2.8 3.19a4.73 4.73 0 0 1 0 .57h-4.76zm3.61-.88a1.76 1.76 0 0 0-1.71-2 2 2 0 0 0-1.89 2h3.6zm3.79-2.73V356h3.22v-2.73h1.22v6.78h-1.22v-3.07h-3.22v3.07h-1.24v-6.78h1.22zm7.03 3.61a2.17 2.17 0 0 0 2.33 2.35 4.45 4.45 0 0 0 1.88-.35l.21.88a5.48 5.48 0 0 1-2.25.42 3.15 3.15 0 0 1-3.33-3.42c0-2 1.21-3.66 3.18-3.66 2.21 0 2.8 1.95 2.8 3.19a4.73 4.73 0 0 1 0 .57h-4.76zm3.61-.88a1.76 1.76 0 0 0-1.71-2 2 2 0 0 0-1.89 2h3.6zm7.96-2.73v5.86h.7l-.07 3.07h-1l-.06-2.16h-4.69l-.06 2.16h-1l-.06-3.07h.57a5.28 5.28 0 0 0 .67-1.39 8.94 8.94 0 0 0 .39-2.7v-1.77h4.52zm-3.43 2.06a9 9 0 0 1-.35 2.52 6.44 6.44 0 0 1-.55 1.26h3.12v-4.92h-2.23v1.12zm6.4-2.06l2.24 3h.25v-3h1.18v3h.24l2.24-3h1.42l-2.68 3.08a2.37 2.37 0 0 1 2 1.79 16.38 16.38 0 0 0 .74 1.91h-1.23a9.94 9.94 0 0 1-.62-1.55 1.87 1.87 0 0 0-1.93-1.44h-.21v3h-1.18v-3h-.22a1.86 1.86 0 0 0-1.95 1.46 11.84 11.84 0 0 1-.64 1.54h-1.19a19.72 19.72 0 0 0 .74-1.89 2.4 2.4 0 0 1 2-1.81l-2.69-3.08h1.42zm8.99 0h1.51l1.23 3.42c.17.5.46 1.33.62 1.86.15-.5.53-1.58.8-2.33l1.09-3h1.53l.48 6.78h-1.18l-.15-3.24c0-.73-.1-1.6-.13-2.42-.18.62-.36 1.16-.74 2.2l-1.3 3.42h-.9l-1.21-3.35c-.21-.64-.5-1.62-.67-2.26h-.06c0 .8-.07 1.69-.11 2.44l-.17 3.21h-1.13zm9.54 3.61a2.17 2.17 0 0 0 2.33 2.35 4.45 4.45 0 0 0 1.88-.35l.21.88a5.48 5.48 0 0 1-2.25.42 3.15 3.15 0 0 1-3.33-3.42c0-2 1.21-3.66 3.18-3.66 2.21 0 2.8 1.95 2.8 3.19a4.73 4.73 0 0 1 0 .57h-4.76zm3.61-.88a1.76 1.76 0 0 0-1.71-2 2 2 0 0 0-1.89 2h3.6zm3.79-2.73V356h3.22v-2.73h1.22v6.78h-1.18v-3.07h-3.22v3.07h-1.22v-6.78h1.22zm10.96 0v1h-2.11v5.8h-1.22v-5.8h-2.12v-1h5.45zM158.26 242.54h1.22v6.32c0 2.51-1.23 3.28-2.86 3.28a4 4 0 0 1-1.3-.22l.18-1a2.9 2.9 0 0 0 1 .18c1.09 0 1.74-.49 1.74-2.34v-6.22zm4.4 0v9.44h-1.22v-9.44h1.22zm3.88 1.03h-2.87v-1h7v1h-2.89v8.4h-1.23v-8.4zm345.14 3.09h4.4a3.23 3.23 0 0 0-3.24-3.26 4.92 4.92 0 0 0-2 .48l-.29-.94a6 6 0 0 1 2.38-.55c3 0 4.48 2.14 4.48 4.89 0 3.1-2 4.86-4.55 4.86a6 6 0 0 1-2.47-.49l.27-1a5.2 5.2 0 0 0 2 .43 3.35 3.35 0 0 0 3.42-3.47h-4.41v-1zm11.23-4.63v3a3.52 3.52 0 0 1 0 7v2.65h-1.12v-2.63a3.35 3.35 0 0 1-3.4-3.47 3.41 3.41 0 0 1 3.4-3.57v-3h1.12zm-1.12 3.88a2.73 2.73 0 0 0 0 5.35v-5.35zm1.12 5.35a2.55 2.55 0 0 0 2.19-2.69 2.52 2.52 0 0 0-2.19-2.66v5.35zm8.95-9.23v3a3.52 3.52 0 0 1 0 7v2.65h-1.12v-2.63a3.35 3.35 0 0 1-3.4-3.47 3.41 3.41 0 0 1 3.4-3.57v-3h1.12zm-1.12 3.88a2.73 2.73 0 0 0 0 5.35v-5.35zm1.12 5.35a2.55 2.55 0 0 0 2.19-2.69 2.52 2.52 0 0 0-2.19-2.66v5.35zm5.6-2.45a2.17 2.17 0 0 0 2.33 2.35 4.45 4.45 0 0 0 1.88-.35l.21.88a5.48 5.48 0 0 1-2.25.42 3.15 3.15 0 0 1-3.33-3.42c0-2 1.21-3.66 3.18-3.66 2.21 0 2.8 1.95 2.8 3.19a4.73 4.73 0 0 1 0 .57h-4.76zm3.61-.88a1.76 1.76 0 0 0-1.71-2 2 2 0 0 0-1.89 2h3.6zm3.81-2.74v3h.29l2.55-2.94h1.5l-3 3.07c1.09.11 1.75.84 2.28 2.06a14.33 14.33 0 0 0 .73 1.65h-1.22a9 9 0 0 1-.63-1.39 2.2 2.2 0 0 0-2.24-1.6h-.24v3h-1.22v-6.85h1.22zm10.42 0v1h-2.12v5.8h-1.17v-5.8h-2.12v-1h5.45zm2.22 0v2.86c0 1.08 0 1.75-.07 2.72.41-.83.64-1.3 1.09-2.09l2.12-3.5h1.44v6.78h-1.09v-2.87c0-1.11 0-1.68.08-2.77-.43.87-.73 1.41-1.12 2.1-.64 1.05-1.39 2.35-2.12 3.54h-1.42v-6.77h1.16zm6.44.09a14.47 14.47 0 0 1 2.16-.15c1.13 0 3 .18 3 1.69a1.6 1.6 0 0 1-1.41 1.53 1.73 1.73 0 0 1 1.72 1.68c0 1.78-2.24 2-3.57 2-.76 0-1.54-.06-1.91-.08v-6.7zm1.16 5.88a7.47 7.47 0 0 0 1 .06c.83 0 2.06-.2 2.06-1.18s-1-1.19-2.16-1.19h-.9v2.34zm0-3.12h.92c.91 0 1.85-.27 1.85-1.06s-.59-1-1.82-1a8.79 8.79 0 0 0-1 .06v2zm6.94-2.85v2.73h3.22v-2.73h1.22v6.78h-1.22v-3.07h-3.22v3.07h-1.22v-6.78h1.22zm12.48 3.34a3.31 3.31 0 0 1-3.38 3.6 3.22 3.22 0 0 1-3.25-3.49 3.31 3.31 0 0 1 3.36-3.6 3.21 3.21 0 0 1 3.27 3.49zm-5.38.07c0 1.48.85 2.61 2.06 2.61s2.06-1.11 2.06-2.63c0-1.15-.57-2.61-2-2.61s-2.12 1.34-2.12 2.63zm11.72 3.13a4.55 4.55 0 0 1-1.95.39 3.22 3.22 0 0 1-3.38-3.46 3.44 3.44 0 0 1 3.64-3.6 4.11 4.11 0 0 1 1.71.35l-.28 1a2.86 2.86 0 0 0-1.43-.32 2.56 2.56 0 0 0 0 5.1 3.5 3.5 0 0 0 1.51-.34zm6.24-6.54v1h-2.11v5.8h-1.22v-5.8h-2.12v-1h5.45zm2.27 0v2.3a6.86 6.86 0 0 1 1.12-.07c1.53 0 3.14.48 3.14 2.28a1.92 1.92 0 0 1-.71 1.55 4.71 4.71 0 0 1-2.94.78 16.9 16.9 0 0 1-1.82-.1v-6.74h1.22zm0 5.93a7.16 7.16 0 0 0 .91.06c.92 0 2.12-.31 2.12-1.44s-1.23-1.43-2.14-1.43a5.79 5.79 0 0 0-.88.07v2.75zm-264.66-17.8v4.19h.38l3.24-4.19h1.47l-3.57 4.33c1.55.21 2.16 1.16 2.65 2.44a24.71 24.71 0 0 0 1 2.68h-1.32a16.74 16.74 0 0 1-.85-2.23c-.43-1.25-1-2.1-2.63-2.1h-.39v4.33h-1.21v-9.44h1.21zm12.18 5.99a3.31 3.31 0 0 1-3.38 3.6 3.22 3.22 0 0 1-3.25-3.49 3.31 3.31 0 0 1 3.36-3.6 3.21 3.21 0 0 1 3.27 3.49zm-5.38.07c0 1.48.85 2.61 2.06 2.61s2.06-1.11 2.06-2.63c0-1.15-.57-2.61-2-2.61s-2.12 1.34-2.12 2.63zm6.94-3.4h1.51l1.23 3.42c.17.5.46 1.33.62 1.86.15-.5.53-1.58.8-2.33l1.09-3h1.53l.48 6.78h-1.18l-.15-3.24c0-.73-.1-1.6-.13-2.42-.18.62-.36 1.16-.74 2.2l-1.3 3.42h-.9l-1.21-3.35c-.21-.64-.5-1.62-.67-2.26h-.06c0 .8-.07 1.69-.11 2.44l-.17 3.21h-1.1zm9 0h1.51l1.23 3.42c.17.5.46 1.33.62 1.86.15-.5.53-1.58.8-2.33l1.09-3h1.53l.48 6.78h-1.18l-.15-3.24c0-.73-.1-1.6-.13-2.42-.18.62-.36 1.16-.74 2.2l-1.3 3.42h-.9l-1.21-3.35c-.21-.64-.5-1.62-.67-2.26h-.06c0 .8-.07 1.69-.11 2.44l-.17 3.21h-1.1zm12.54 6.78l-.1-.85a2.53 2.53 0 0 1-2.07 1 1.93 1.93 0 0 1-2.07-1.95c0-1.64 1.46-2.54 4.08-2.52v-.14a1.4 1.4 0 0 0-1.54-1.57 3.38 3.38 0 0 0-1.76.5l-.28-.81a4.21 4.21 0 0 1 2.23-.6c2.07 0 2.58 1.41 2.58 2.77v2.54a9.55 9.55 0 0 0 .11 1.63h-1.18zm-.18-3.46c-1.34 0-2.87.21-2.87 1.53a1.09 1.09 0 0 0 1.16 1.18 1.69 1.69 0 0 0 1.64-1.13 1.29 1.29 0 0 0 .07-.39v-1.18zm4.18-3.32v2.73h3.22v-2.73h1.22v6.78h-1.22v-3.07h-3.22v3.07h-1.22v-6.78h1.22zm11.67 0v5.86h.7l-.07 3.07h-1l-.06-2.16h-4.69l-.06 2.16h-1l-.06-3.07h.57a5.28 5.28 0 0 0 .67-1.39 8.94 8.94 0 0 0 .39-2.7v-1.77h4.52zm-3.43 2.06a9 9 0 0 1-.35 2.52 6.44 6.44 0 0 1-.55 1.26h3.12v-4.9h-2.23v1.12zm9.32 4.72l-.1-.85a2.52 2.52 0 0 1-2.07 1 1.93 1.93 0 0 1-2.07-1.95c0-1.64 1.46-2.54 4.08-2.52v-.14a1.4 1.4 0 0 0-1.54-1.57 3.38 3.38 0 0 0-1.76.5l-.28-.81a4.21 4.21 0 0 1 2.23-.6c2.07 0 2.58 1.41 2.58 2.77v2.54a9.55 9.55 0 0 0 .11 1.63h-1.12zm-.18-3.46c-1.34 0-2.87.21-2.87 1.53a1.09 1.09 0 0 0 1.16 1.18 1.69 1.69 0 0 0 1.64-1.13 1.29 1.29 0 0 0 .07-.39v-1.18zm-72.78 13.48v6.78h-1.23v-5.8h-3.15v5.8h-1.22v-6.78h5.6zm1.84 2.21c0-.87 0-1.57-.06-2.21h1.11l.06 1.16a2.67 2.67 0 0 1 2.41-1.32c1.64 0 2.87 1.39 2.87 3.45 0 2.44-1.49 3.64-3.08 3.64a2.38 2.38 0 0 1-2.09-1.06v3.68h-1.22v-7.34zm1.22 1.81a2.83 2.83 0 0 0 .06.5 1.9 1.9 0 0 0 1.85 1.44c1.3 0 2.06-1.06 2.06-2.62 0-1.36-.71-2.52-2-2.52a2 2 0 0 0-1.86 1.53 2 2 0 0 0-.08.5v1.16zm12.84-.69a3.31 3.31 0 0 1-3.38 3.6 3.22 3.22 0 0 1-3.25-3.49 3.31 3.31 0 0 1 3.36-3.6 3.21 3.21 0 0 1 3.27 3.49zm-5.38.07c0 1.48.85 2.61 2.06 2.61s2.06-1.11 2.06-2.63c0-1.15-.57-2.61-2-2.61s-2.12 1.34-2.12 2.64zm10.88-6.57v3a3.52 3.52 0 0 1 0 7v2.65h-1.12v-2.63a3.35 3.35 0 0 1-3.4-3.47 3.41 3.41 0 0 1 3.4-3.57v-3h1.12zm-1.12 3.88a2.73 2.73 0 0 0 0 5.35v-5.35zm1.12 5.35a2.55 2.55 0 0 0 2.19-2.69 2.52 2.52 0 0 0-2.19-2.66v5.35zm5.65-2.45a2.17 2.17 0 0 0 2.33 2.35 4.45 4.45 0 0 0 1.88-.35l.21.88a5.48 5.48 0 0 1-2.25.42 3.15 3.15 0 0 1-3.33-3.42c0-2 1.21-3.66 3.18-3.66 2.21 0 2.8 1.95 2.8 3.19a4.73 4.73 0 0 1 0 .57h-4.76zm3.61-.88a1.76 1.76 0 0 0-1.71-2 2 2 0 0 0-1.89 2h3.6zm7.52 3.79a4.55 4.55 0 0 1-1.95.39 3.22 3.22 0 0 1-3.38-3.46 3.44 3.44 0 0 1 3.64-3.6 4.11 4.11 0 0 1 1.71.35l-.28 1a2.86 2.86 0 0 0-1.43-.32 2.56 2.56 0 0 0 0 5.1 3.5 3.5 0 0 0 1.51-.34zm5.95 0a4.55 4.55 0 0 1-1.95.39 3.22 3.22 0 0 1-3.38-3.46 3.44 3.44 0 0 1 3.64-3.6 4.11 4.11 0 0 1 1.71.35l-.28 1a2.86 2.86 0 0 0-1.43-.32 2.56 2.56 0 0 0 0 5.1 3.5 3.5 0 0 0 1.51-.34zm2.36-6.52v2.86c0 1.08 0 1.75-.07 2.72.41-.83.64-1.3 1.09-2.09l2.12-3.5h1.44v6.78h-1.18v-2.87c0-1.11 0-1.68.08-2.77-.43.87-.73 1.41-1.12 2.1-.64 1.05-1.39 2.35-2.12 3.54h-1.42v-6.78h1.16zm12.66 3.33a3.31 3.31 0 0 1-3.38 3.6 3.22 3.22 0 0 1-3.25-3.49 3.31 3.31 0 0 1 3.36-3.6 3.21 3.21 0 0 1 3.27 3.49zm-5.38.07c0 1.48.85 2.61 2.06 2.61s2.06-1.11 2.06-2.63c0-1.15-.57-2.61-2-2.61s-2.12 1.34-2.12 2.64zm8.01-3.4v2.73h3.22v-2.73h1.22v6.78h-1.22v-3.07h-3.22v3.07h-1.22v-6.78h1.22zm10.04 6.78l-.1-.85a2.53 2.53 0 0 1-2.07 1 1.93 1.93 0 0 1-2.07-1.95c0-1.64 1.46-2.54 4.08-2.52v-.14a1.4 1.4 0 0 0-1.54-1.57 3.38 3.38 0 0 0-1.76.5l-.28-.81a4.21 4.21 0 0 1 2.23-.6c2.07 0 2.58 1.41 2.58 2.77v2.54a9.55 9.55 0 0 0 .11 1.63h-1.12zm-.18-3.46c-1.34 0-2.87.21-2.87 1.53a1.09 1.09 0 0 0 1.16 1.18 1.69 1.69 0 0 0 1.64-1.13 1.29 1.29 0 0 0 .07-.39v-1.18zm8.28-3.32v6.78h-1.22v-5.81h-2.3v1.76c0 1.91-.18 3.18-1.06 3.75a2 2 0 0 1-1.34.42l-.13-1a1.52 1.52 0 0 0 .67-.28c.63-.46.7-1.41.7-2.93v-2.73h4.71zm8.04 3.33a3.31 3.31 0 0 1-3.38 3.6 3.22 3.22 0 0 1-3.25-3.49 3.31 3.31 0 0 1 3.36-3.6 3.21 3.21 0 0 1 3.27 3.49zm-5.38.07c0 1.48.85 2.61 2.06 2.61s2.06-1.11 2.06-2.63c0-1.15-.57-2.61-2-2.61s-2.12 1.34-2.12 2.64zm6.82-3.32a14.47 14.47 0 0 1 2.16-.15c1.13 0 3 .18 3 1.69a1.6 1.6 0 0 1-1.41 1.53 1.73 1.73 0 0 1 1.72 1.68c0 1.78-2.24 2-3.57 2-.76 0-1.54-.06-1.91-.08v-6.7zm1.16 5.88a7.47 7.47 0 0 0 1 .06c.83 0 2.06-.2 2.06-1.18s-1-1.19-2.16-1.19h-.9v2.31zm0-3.12h.92c.91 0 1.85-.27 1.85-1.06s-.59-1-1.82-1a8.81 8.81 0 0 0-1 .06v2zM303.75 400.19l1.88 4c.24.56.46 1.11.69 1.67.17-.49.35-1 .59-1.71l1.47-4h1.29l-2 4.85a18.22 18.22 0 0 1-1.76 3.59 2.67 2.67 0 0 1-2.14 1.16 2.1 2.1 0 0 1-.69-.08l.13-1a1.72 1.72 0 0 0 .45 0 2.31 2.31 0 0 0 1.85-1.62.57.57 0 0 0 0-.57l-3.14-6.36h1.39zm6.39 2.75a14.47 14.47 0 0 1 2.16-.15c1.13 0 3 .18 3 1.69a1.6 1.6 0 0 1-1.41 1.53 1.73 1.73 0 0 1 1.72 1.68c0 1.78-2.24 2-3.57 2-.76 0-1.54-.06-1.91-.08v-6.7zm1.16 5.88a7.47 7.47 0 0 0 1 .06c.83 0 2.06-.2 2.06-1.18s-1-1.19-2.16-1.19h-.9v2.31zm0-3.12h.92c.91 0 1.85-.27 1.85-1.06s-.59-1-1.82-1a8.79 8.79 0 0 0-1 .06v2zm9.6 3.93l-.1-.85a2.52 2.52 0 0 1-2.07 1 1.93 1.93 0 0 1-2.07-1.95c0-1.64 1.46-2.54 4.08-2.52v-.12a1.4 1.4 0 0 0-1.54-1.57 3.38 3.38 0 0 0-1.76.5l-.28-.81a4.21 4.21 0 0 1 2.23-.6c2.07 0 2.58 1.41 2.58 2.77v2.54a9.55 9.55 0 0 0 .11 1.63h-1.12zm-.18-3.46c-1.34 0-2.87.21-2.87 1.53a1.09 1.09 0 0 0 1.16 1.18 1.69 1.69 0 0 0 1.64-1.13 1.29 1.29 0 0 0 .07-.39v-1.17zm3.76-3.32l2.24 3h.25v-3h1.18v3h.24l2.24-3h1.42l-2.68 3.08a2.37 2.37 0 0 1 2 1.79 16.38 16.38 0 0 0 .74 1.91h-1.23a9.94 9.94 0 0 1-.62-1.55 1.87 1.87 0 0 0-1.93-1.44h-.21v3h-1.11v-3h-.22a1.86 1.86 0 0 0-1.95 1.46 11.84 11.84 0 0 1-.64 1.54h-1.19a19.72 19.72 0 0 0 .74-1.89 2.4 2.4 0 0 1 2-1.81l-2.69-3.08h1.42zm9.27 3.62a2.17 2.17 0 0 0 2.33 2.35 4.45 4.45 0 0 0 1.88-.35l.21.88a5.48 5.48 0 0 1-2.25.42 3.15 3.15 0 0 1-3.33-3.42c0-2 1.21-3.66 3.18-3.66 2.21 0 2.8 1.95 2.8 3.19a4.73 4.73 0 0 1 0 .57h-4.76zm3.61-.88a1.76 1.76 0 0 0-1.71-2 2 2 0 0 0-1.89 2h3.6zm3.79-2.74v2.73h3.22v-2.73h1.22v6.78h-1.22v-3.07h-3.22v3.07h-1.22v-6.78h1.22zm7.42 0v2.86c0 1.08 0 1.75-.07 2.72.41-.83.64-1.3 1.09-2.09l2.12-3.5h1.44v6.78h-1.14v-2.87c0-1.11 0-1.68.08-2.77-.43.87-.73 1.41-1.12 2.1-.64 1.05-1.39 2.35-2.12 3.54h-1.42v-6.78h1.16zm7.21 3.62a2.17 2.17 0 0 0 2.33 2.35 4.45 4.45 0 0 0 1.88-.35l.21.88a5.48 5.48 0 0 1-2.25.42 3.15 3.15 0 0 1-3.33-3.42c0-2 1.21-3.66 3.18-3.66 2.21 0 2.8 1.95 2.8 3.19a4.73 4.73 0 0 1 0 .57h-4.76zm3.61-.88a1.76 1.76 0 0 0-1.71-2 2 2 0 0 0-1.89 2h3.6zm6.9-2.74v2.94h.29l2.55-2.94h1.5l-3 3.07c1.09.11 1.75.84 2.28 2.06a14.33 14.33 0 0 0 .73 1.65h-1.29a9 9 0 0 1-.63-1.39 2.2 2.2 0 0 0-2.24-1.6h-.24v3h-1.22v-6.78h1.22zm13.54 0v6.78h-1.22v-5.81h-2.33v1.76c0 1.91-.18 3.18-1.06 3.75a2 2 0 0 1-1.34.42l-.13-1a1.52 1.52 0 0 0 .67-.28c.63-.46.7-1.41.7-2.93v-2.73h4.71zm3.03 0v2.86h1.16a3.09 3.09 0 0 1 3-3c1.77 0 3 1.4 3 3.49s-1.34 3.6-3.05 3.6-2.82-1.21-3-3.14h-1.13v3h-1.21v-6.78h1.21zm5.91 3.36c0-1.27-.57-2.59-1.78-2.59s-1.82 1.29-1.82 2.66.6 2.59 1.79 2.59 1.81-1.37 1.81-2.68zm7.88-3.36v5.86h.7l-.07 3.07h-1l-.06-2.16h-4.69l-.06 2.16h-1l-.06-3.07h.57a5.28 5.28 0 0 0 .67-1.39 8.94 8.94 0 0 0 .39-2.7v-1.77h4.52zm-3.43 2.06a9 9 0 0 1-.35 2.52 6.44 6.44 0 0 1-.55 1.26h3.12v-4.9h-2.23v1.12zm10.73 4.72h-1.22v-2.84h-.91a1.6 1.6 0 0 0-1.13.38 4.71 4.71 0 0 0-1 1.9 4.19 4.19 0 0 1-.28.56h-1.32a4.39 4.39 0 0 0 .42-.77 5.2 5.2 0 0 1 1.06-2 1.62 1.62 0 0 1 .77-.39 1.8 1.8 0 0 1-1.79-1.68 1.63 1.63 0 0 1 .9-1.47 4.75 4.75 0 0 1 2.27-.46 18.91 18.91 0 0 1 2.18.14v6.72zm-1.22-6a6.9 6.9 0 0 0-1-.07c-.84 0-1.83.24-1.83 1.18s1.08 1.18 1.81 1.18h1.05v-2.28zm3.28-.78h1.51l1.23 3.42c.17.5.46 1.33.62 1.86.15-.5.53-1.58.8-2.33l1.09-3h1.53l.48 6.78h-1.18l-.15-3.24c0-.73-.1-1.6-.13-2.42-.18.62-.36 1.16-.74 2.2l-1.3 3.42h-.9l-1.21-3.35c-.21-.64-.5-1.62-.67-2.26h-.06c0 .8-.07 1.69-.11 2.44l-.17 3.21h-1.13zm115.51-2.66v4h4.57v-4h1.23v9.44h-1.23v-4.44h-4.57v4.43h-1.22v-9.43h1.22zm8.42 6.28a2.17 2.17 0 0 0 2.33 2.35 4.45 4.45 0 0 0 1.88-.35l.21.88a5.48 5.48 0 0 1-2.25.42 3.15 3.15 0 0 1-3.33-3.42c0-2 1.21-3.66 3.18-3.66 2.21 0 2.8 1.95 2.8 3.19a4.73 4.73 0 0 1 0 .57H530zm3.61-.88a1.76 1.76 0 0 0-1.71-2 2 2 0 0 0-1.89 2h3.6zm8.18-2.74v6.78h-1.23v-5.8h-3.15v5.8h-1.22v-6.78h5.6zm1.84 2.22c0-.87 0-1.57-.06-2.21h1.11l.06 1.16a2.67 2.67 0 0 1 2.41-1.32c1.64 0 2.87 1.39 2.87 3.45 0 2.44-1.49 3.64-3.08 3.64a2.38 2.38 0 0 1-2.09-1.06v3.68h-1.22v-7.34zm1.22 1.81a2.83 2.83 0 0 0 .06.5 1.9 1.9 0 0 0 1.85 1.44c1.3 0 2.06-1.06 2.06-2.62 0-1.36-.71-2.52-2-2.52a2 2 0 0 0-1.86 1.53 2 2 0 0 0-.08.5v1.16zm7.39-.41a2.17 2.17 0 0 0 2.33 2.35 4.45 4.45 0 0 0 1.88-.35l.21.88a5.48 5.48 0 0 1-2.25.42 3.15 3.15 0 0 1-3.33-3.42c0-2 1.21-3.66 3.18-3.66 2.21 0 2.8 1.95 2.8 3.19a4.73 4.73 0 0 1 0 .57h-4.76zm3.61-.88a1.76 1.76 0 0 0-1.71-2 2 2 0 0 0-1.89 2h3.6zm2.56-.52c0-.87 0-1.57-.06-2.21h1.11l.06 1.16a2.67 2.67 0 0 1 2.41-1.32c1.64 0 2.87 1.39 2.87 3.45 0 2.44-1.49 3.64-3.08 3.64a2.38 2.38 0 0 1-2.09-1.06v3.68h-1.22v-7.34zm1.22 1.81a2.83 2.83 0 0 0 .06.5 1.9 1.9 0 0 0 1.85 1.44c1.3 0 2.06-1.06 2.06-2.62 0-1.36-.71-2.52-2-2.52a2 2 0 0 0-1.86 1.53 2 2 0 0 0-.08.5v1.16zm7.85-4.03v2.34a5.81 5.81 0 0 1 1.11-.08c1.46 0 2.93.6 2.93 2.27a1.92 1.92 0 0 1-.7 1.57 4.27 4.27 0 0 1-2.73.78 16.9 16.9 0 0 1-1.82-.1v-6.75h1.22zm0 5.93a6.91 6.91 0 0 0 .85.06c.94 0 2-.39 2-1.44s-1-1.43-1.9-1.43a5.62 5.62 0 0 0-.91.07v2.75zm6.11-5.93v6.78h-1.22v-6.78h1.22zm1.82.09a14.47 14.47 0 0 1 2.16-.15c1.13 0 3 .18 3 1.69a1.6 1.6 0 0 1-1.41 1.53 1.73 1.73 0 0 1 1.72 1.68c0 1.78-2.24 2-3.57 2-.76 0-1.54-.06-1.91-.08v-6.7zm1.16 5.88a7.47 7.47 0 0 0 1 .06c.83 0 2.06-.2 2.06-1.18s-1-1.19-2.16-1.19h-.9v2.31zm0-3.12h.92c.91 0 1.85-.27 1.85-1.06s-.59-1-1.82-1a8.81 8.81 0 0 0-1 .06v2zm6.95-2.85v2.73h3.22v-2.73h1.22v6.78h-1.22v-3.07h-3.22v3.07h-1.22v-6.78h1.22zm12.48 3.34a3.31 3.31 0 0 1-3.38 3.6 3.22 3.22 0 0 1-3.25-3.49 3.31 3.31 0 0 1 3.36-3.6 3.21 3.21 0 0 1 3.27 3.49zm-5.38.07c0 1.48.85 2.61 2.06 2.61s2.06-1.11 2.06-2.63c0-1.15-.57-2.61-2-2.61s-2.12 1.34-2.12 2.63zm7.58.21a2.17 2.17 0 0 0 2.33 2.35 4.45 4.45 0 0 0 1.88-.35l.21.88a5.48 5.48 0 0 1-2.25.42 3.15 3.15 0 0 1-3.33-3.42c0-2 1.21-3.66 3.18-3.66 2.21 0 2.8 1.95 2.8 3.19a4.73 4.73 0 0 1 0 .57h-4.76zm3.61-.88a1.76 1.76 0 0 0-1.71-2 2 2 0 0 0-1.89 2h3.6zm6.13-2.74l1.49 4c.15.45.32 1 .43 1.39.13-.41.27-.92.43-1.42l1.34-4h1.3l-1.85 4.83c-.88 2.33-1.48 3.52-2.33 4.24a3.34 3.34 0 0 1-1.51.8l-.31-1a3.26 3.26 0 0 0 1.08-.6 3.75 3.75 0 0 0 1-1.37.87.87 0 0 0 .1-.29 1.08 1.08 0 0 0-.08-.32l-2.51-6.25h1.34zm10.97 0v6.78h-1.22v-5.81h-2.33v1.76c0 1.91-.18 3.18-1.06 3.75a2 2 0 0 1-1.34.42l-.13-1a1.52 1.52 0 0 0 .67-.28c.63-.46.7-1.41.7-2.93v-2.73h4.71zm2.4 0l1.49 4c.15.45.32 1 .43 1.39.13-.41.27-.92.43-1.42l1.34-4h1.3l-1.85 4.83c-.88 2.33-1.48 3.52-2.33 4.24a3.34 3.34 0 0 1-1.51.8l-.31-1a3.26 3.26 0 0 0 1.08-.6 3.75 3.75 0 0 0 1-1.37.87.87 0 0 0 .1-.29 1.08 1.08 0 0 0-.08-.32l-2.51-6.25h1.34zm7.25 0v2.23a1.24 1.24 0 0 0 1.4 1.44 2.55 2.55 0 0 0 1.46-.48v-3.19h1.22v6.78h-1.22v-2.72a3.56 3.56 0 0 1-1.83.52 2 2 0 0 1-2.23-2.21v-2.37h1.23zm7.1 0v5.81h2.37v-5.81h1.21v5.81h2.37v-5.81h1.22v6.78h-8.36v-6.78h1.21zm9.76 3.62a2.17 2.17 0 0 0 2.33 2.35 4.45 4.45 0 0 0 1.88-.35l.21.88a5.48 5.48 0 0 1-2.25.42 3.15 3.15 0 0 1-3.33-3.42c0-2 1.21-3.66 3.18-3.66 2.21 0 2.8 1.95 2.8 3.19a4.73 4.73 0 0 1 0 .57h-4.76zm3.61-.88a1.76 1.76 0 0 0-1.71-2 2 2 0 0 0-1.89 2h3.6zm3.79-2.74v2.73h3.22v-2.73h1.22v6.78h-1.19v-3.07h-3.22v3.07h-1.22v-6.78h1.22zm7.43 0v2.86c0 1.08 0 1.75-.07 2.72.41-.83.64-1.3 1.09-2.09l2.12-3.5h1.44v6.78h-1.18v-2.87c0-1.11 0-1.68.08-2.77-.43.87-.73 1.41-1.12 2.1-.64 1.05-1.39 2.35-2.12 3.54h-1.42v-6.78h1.16zm7.2 3.62a2.17 2.17 0 0 0 2.33 2.35 4.45 4.45 0 0 0 1.88-.35l.21.88a5.48 5.48 0 0 1-2.25.42 3.15 3.15 0 0 1-3.33-3.42c0-2 1.21-3.66 3.18-3.66 2.21 0 2.8 1.95 2.8 3.19a4.73 4.73 0 0 1 0 .57h-4.76zm3.61-.88a1.76 1.76 0 0 0-1.71-2 2 2 0 0 0-1.89 2h3.6z"/><path fill="none" stroke="#e2e71f" stroke-miterlimit="10" d="M114.09 133.21h494.73M201.84 85.04h319.02m116.71 230.65H84.5m370.14-175.47v31.48m-186.37-31.48v31.48m92.26-78.74v31.48m-119.9 293.9v-27m0 0v27m239.81 0v-27"/><path fill="none" stroke="#ccc" stroke-miterlimit="10" d="M942.01 179.04h-231m231 136.39h-268m268 64.49h-208M942.01.57h-555"/><path d="M461.14 54.26a65.3 65.3 0 0 1 115.17 61.56" fill="#e2e71f"/></svg>