<svg data-name="Layer 1" xmlns="http://www.w3.org/2000/svg" viewBox="0 0 942 429.54"><title>house</title><path fill="none" stroke="#e2e71f" stroke-miterlimit="10" d="M694.56 179.04L360.69.57 26.81 179.04h667.75zM.5 429.54v-48.5h720v48.5m-637-50v-64m185 10v44m0 0v-44m185 0v44m-1 0v-44m185-10v64m-395-200v136m-159 0v-136m349 0v136m-144 0v-136m349 0v136m-161 0v-136"/><text transform="translate(43.51 409.98)" font-size="14" font-family="ProximaNova Regular">П<tspan x="8.74" y="0">р</tspan><tspan x="16.62" y="0">и</tspan><tspan x="24.27" y="0">о</tspan><tspan x="31.79" y="0">р</tspan><tspan x="39.67" y="0">и</tspan><tspan x="47.35" y="0">т</tspan><tspan x="52.94" y="0">е</tspan><tspan x="59.9" y="0">т</tspan><tspan x="65.57" y="0">ы </tspan><tspan x="77.84" y="0">к</tspan><tspan x="84.96" y="0">л</tspan><tspan x="91.89" y="0">и</tspan><tspan x="99.55" y="0">е</tspan><tspan x="106.44" y="0">нт</tspan><tspan x="119.68" y="0">а</tspan></text><text transform="translate(143.11 352.82)" font-size="14" font-family="ProximaNova Regular">С<tspan x="7.24" y="0">т</tspan><tspan x="12.91" y="0">а</tspan><tspan x="19.47" y="0">н</tspan><tspan x="27.06" y="0">д</tspan><tspan x="34.45" y="0">а</tspan><tspan x="40.99" y="0">р</tspan><tspan x="48.85" y="0">т</tspan><tspan x="54.51" y="0">ы</tspan></text><text transform="translate(216.84 113.6)" font-size="14" font-family="ProximaNova Regular">Л<tspan x="8.22" y="0">у</tspan><tspan x="14.8" y="0">ч</tspan><tspan x="21.85" y="0">ш</tspan><tspan x="32.1" y="0">е</tspan><tspan x="39.09" y="0">е </tspan><tspan x="49.07" y="0">к</tspan><tspan x="55.73" y="0">а</tspan><tspan x="62.02" y="0">ч</tspan><tspan x="69.12" y="0">е</tspan><tspan x="76.11" y="0">с</tspan><tspan x="82.6" y="0">тв</tspan><tspan x="95.17" y="0">о</tspan></text><text transform="translate(109.84 162.06)" font-size="14" font-family="ProximaNova Regular">Л<tspan x="8.22" y="0">у</tspan><tspan x="14.8" y="0">ч</tspan><tspan x="21.85" y="0">ш</tspan><tspan x="32.05" y="0">а</tspan><tspan x="38.78" y="0">я </tspan><tspan x="48.69" y="0">б</tspan><tspan x="56.04" y="0">е</tspan><tspan x="62.91" y="0">з</tspan><tspan x="68.85" y="0">о</tspan><tspan x="76.43" y="0">п</tspan><tspan x="83.85" y="0">ас</tspan><tspan x="96.45" y="0">н</tspan><tspan x="103.99" y="0">о</tspan><tspan x="111.63" y="0">с</tspan><tspan x="118.12" y="0">т</tspan><tspan x="123.78" y="0">ь</tspan></text><text transform="translate(314.71 162.06)" font-size="14" font-family="ProximaNova Regular">Л<tspan x="8.22" y="0">у</tspan><tspan x="14.8" y="0">ч</tspan><tspan x="21.85" y="0">ш</tspan><tspan x="32.03" y="0">и</tspan><tspan x="39.68" y="0">е </tspan><tspan x="49.66" y="0">с</tspan><tspan x="55.74" y="0">р</tspan><tspan x="63.67" y="0">о</tspan><tspan x="71.23" y="0">к</tspan><tspan x="77.89" y="0">и</tspan></text><text transform="translate(486.45 162.06)" font-size="14" font-family="ProximaNova Regular">Л<tspan x="8.22" y="0">у</tspan><tspan x="14.8" y="0">ч</tspan><tspan x="21.85" y="0">ш</tspan><tspan x="32.05" y="0">а</tspan><tspan x="38.78" y="0">я </tspan><tspan x="48.69" y="0">м</tspan><tspan x="57.58" y="0">о</tspan><tspan x="65.12" y="0">т</tspan><tspan x="70.79" y="0">и</tspan><tspan x="78.39" y="0">в</tspan><tspan x="85.37" y="0">а</tspan><tspan x="91.94" y="0">ц</tspan><tspan x="99.52" y="0">и</tspan><tspan x="107.23" y="0">я</tspan></text><text transform="translate(399.83 114.42)" font-size="14" font-family="ProximaNova Regular">С<tspan x="8.02" y="0">а</tspan><tspan x="14.69" y="0">м</tspan><tspan x="23.57" y="0">а</tspan><tspan x="30.3" y="0">я </tspan><tspan x="40.21" y="0">н</tspan><tspan x="47.69" y="0">и</tspan><tspan x="55.26" y="0">з</tspan><tspan x="61.17" y="0">к</tspan><tspan x="67.83" y="0">а</tspan><tspan x="74.56" y="0">я </tspan><tspan x="84.47" y="0">ц</tspan><tspan x="92" y="0">е</tspan><tspan x="98.89" y="0">н</tspan><tspan x="106.37" y="0">а</tspan></text><text transform="translate(334.28 62.72)" font-size="24" font-family="ProximaNova Light">Ц<tspan x="15.22" y="0">е</tspan><tspan x="27.21" y="0">л</tspan><tspan x="39.03" y="0">и</tspan></text><text transform="translate(911.36 93.32)" font-size="14" font-family="ProximaNova Regular">Ц<tspan x="8.92" y="0">е</tspan><tspan x="15.95" y="0">л</tspan><tspan x="22.89" y="0">и</tspan></text><text transform="translate(900.25 249.36)" font-size="14" font-family="ProximaNova Regular">О<tspan x="9.57" y="0">п</tspan><tspan x="17.04" y="0">о</tspan><tspan x="24.56" y="0">р</tspan><tspan x="32.44" y="0">ы</tspan><tspan x="-38.2" y="16.8">д</tspan><tspan x="-30.53" y="16.8">л</tspan><tspan x="-23.48" y="16.8">я </tspan><tspan x="-13.57" y="16.8">р</tspan><tspan x="-5.67" y="16.8">а</tspan><tspan x=".93" y="16.8">зв</tspan><tspan x="13.74" y="16.8">и</tspan><tspan x="21.42" y="16.8">т</tspan><tspan x="27.09" y="16.8">и</tspan><tspan x="34.8" y="16.8">я</tspan></text><text transform="translate(847.19 352.62)" font-size="14" font-family="ProximaNova Regular">Р<tspan x="7.16" y="0">а</tspan><tspan x="13.78" y="0">б</tspan><tspan x="21.13" y="0">о</tspan><tspan x="28.57" y="0">ч</tspan><tspan x="35.62" y="0">а</tspan><tspan x="42.35" y="0">я </tspan><tspan x="52.26" y="0">о</tspan><tspan x="59.91" y="0">с</tspan><tspan x="65.97" y="0">но</tspan><tspan x="81.08" y="0">в</tspan><tspan x="88.06" y="0">а</tspan></text><text transform="translate(815.39 409.98)" font-size="14" font-family="ProximaNova Regular">О<tspan x="9.59" y="0">с</tspan><tspan x="15.66" y="0">нов</tspan><tspan x="37.66" y="0">н</tspan><tspan x="45.14" y="0">ы</tspan><tspan x="54.34" y="0">е </tspan><tspan x="64.33" y="0">п</tspan><tspan x="71.74" y="0">р</tspan><tspan x="79.62" y="0">и</tspan><tspan x="87.22" y="0">н</tspan><tspan x="94.7" y="0">ц</tspan><tspan x="102.28" y="0">ип</tspan><tspan x="117.3" y="0">ы</tspan></text><text transform="translate(522.14 352.82)" font-size="14" font-family="ProximaNova Regular">K<tspan x="7.98" y="0">A</tspan><tspan x="16.35" y="0">I</tspan><tspan x="19.43" y="0">Z</tspan><tspan x="26.92" y="0">E</tspan><tspan x="33.58" y="0">N</tspan></text><text transform="translate(322.98 343.6)" font-size="14" font-family="ProximaNova Regular">В<tspan x="7.43" y="0">и</tspan><tspan x="15" y="0">з</tspan><tspan x="20.83" y="0">у</tspan><tspan x="27.33" y="0">а</tspan><tspan x="34.09" y="0">л</tspan><tspan x="41.03" y="0">ь</tspan><tspan x="47.75" y="0">н</tspan><tspan x="55.23" y="0">ы</tspan><tspan x="64.38" y="0">й </tspan><tspan x="-.76" y="16.8">м</tspan><tspan x="8.16" y="16.8">е</tspan><tspan x="15.05" y="16.8">н</tspan><tspan x="22.59" y="16.8">е</tspan><tspan x="29.59" y="16.8">д</tspan><tspan x="37.23" y="16.8">ж</tspan><tspan x="46.74" y="16.8">м</tspan><tspan x="55.66" y="16.8">е</tspan><tspan x="62.55" y="16.8">н</tspan><tspan x="70.12" y="16.8">т</tspan></text><text transform="translate(155.25 252.33)" font-size="14" font-family="ProximaNova Regular">J<tspan x="5.11" y="0">I</tspan><tspan x="8.42" y="0">T</tspan></text><text transform="translate(509.95 252.33)" font-size="14" font-family="ProximaNova Regular">Э<tspan x="7.9" y="0">фф</tspan><tspan x="25.8" y="0">е</tspan><tspan x="32.68" y="0">к</tspan><tspan x="39.74" y="0">т</tspan><tspan x="45.4" y="0">и</tspan><tspan x="53" y="0">вн</tspan><tspan x="67.42" y="0">о</tspan><tspan x="75.07" y="0">с</tspan><tspan x="81.56" y="0">т</tspan><tspan x="87.22" y="0">ь</tspan></text><text transform="translate(332.45 243.11)" font-size="14" font-family="ProximaNova Regular">К<tspan x="7.3" y="0">о</tspan><tspan x="14.92" y="0">м</tspan><tspan x="23.92" y="0">м</tspan><tspan x="32.8" y="0">а</tspan><tspan x="39.36" y="0">н</tspan><tspan x="46.95" y="0">д</tspan><tspan x="54.33" y="0">а</tspan><tspan x="-20.45" y="16.8">п</tspan><tspan x="-13.03" y="16.8">ро</tspan><tspan x="2.54" y="16.8">фе</tspan><tspan x="18.48" y="16.8">с</tspan><tspan x="24.42" y="16.8">с</tspan><tspan x="30.49" y="16.8">и</tspan><tspan x="38.14" y="16.8">о</tspan><tspan x="45.72" y="16.8">н</tspan><tspan x="53.2" y="16.8">а</tspan><tspan x="59.96" y="16.8">ло</tspan><tspan x="74.53" y="16.8">в</tspan></text><text transform="translate(302.33 409.98)" font-size="14" font-family="ProximaNova Regular">У<tspan x="6.81" y="0">в</tspan><tspan x="13.79" y="0">а</tspan><tspan x="20.55" y="0">ж</tspan><tspan x="29.7" y="0">е</tspan><tspan x="36.6" y="0">н</tspan><tspan x="44.08" y="0">и</tspan><tspan x="51.73" y="0">е к </tspan><tspan x="71.39" y="0">л</tspan><tspan x="78.32" y="0">ю</tspan><tspan x="88.04" y="0">д</tspan><tspan x="95.65" y="0">я</tspan><tspan x="102.54" y="0">м</tspan></text><text transform="translate(519.23 409.98)" font-size="14" font-family="ProximaNova Regular">Н<tspan x="9" y="0">е</tspan><tspan x="15.89" y="0">п</tspan><tspan x="23.31" y="0">р</tspan><tspan x="31.23" y="0">е</tspan><tspan x="38.09" y="0">р</tspan><tspan x="45.97" y="0">ы</tspan><tspan x="55.12" y="0">вн</tspan><tspan x="69.54" y="0">о</tspan><tspan x="77.19" y="0">е </tspan><tspan x="87.17" y="0">у</tspan><tspan x="93.51" y="0">л</tspan><tspan x="100.54" y="0">у</tspan><tspan x="107.12" y="0">ч</tspan><tspan x="114.16" y="0">ш</tspan><tspan x="124.42" y="0">е</tspan><tspan x="131.31" y="0">н</tspan><tspan x="138.79" y="0">и</tspan><tspan x="146.44" y="0">е</tspan></text><path fill="none" stroke="#e2e71f" stroke-miterlimit="10" d="M114 134.04h495m-407-49h319m117 231H84m370.5-175.5v32m-186-32v32m92-79v31m-120 294v-27m0 0v27m240 0v-27"/><path fill="none" stroke="#ccc" stroke-miterlimit="10" d="M942 179.04H711m231 137H674m268 64H734m208-379H387"/><path d="M461.13 54.61a65.3 65.3 0 0 1 115.17 61.56" fill="#e2e71f"/></svg>