<svg id="Layer_1" data-name="Layer 1" xmlns="http://www.w3.org/2000/svg" viewBox="0 0 1139.54 1846.2"><title>through-service-line</title><path d="M6461.91,900.22H6087.12a200,200,0,0,0-118,38.52l-299.49,221.31a90,90,0,0,0-36.51,72.24l-0.08,50.2" transform="translate(-5622.76 -119.91)" style="fill:none;stroke:#d1d1d1;stroke-miterlimit:10;stroke-width:10px"/><path d="M5632.83,1698.82v32.25a10,10,0,0,0,5.51,8.94l27.51,13.81a20,20,0,0,1,12.91,18.7v49.42a16,16,0,0,1-16,16H5643.8a16,16,0,0,1-16-16V1803a16,16,0,0,1,16-16h51.48a70,70,0,0,1,49.5,20.5l155.1,155.1" transform="translate(-5622.76 -119.91)" style="fill:none;stroke:#d1d1d1;stroke-miterlimit:10;stroke-width:10px"/><path d="M6757.3,609.91V839.63a21,21,0,0,1-21,21H6598.76a21,21,0,0,0-21,21V924.8a24.58,24.58,0,0,0,24.58,24.58h52.84a24.58,24.58,0,0,0,24.58-24.58h0a24.58,24.58,0,0,0-24.58-24.58h-0.42a20,20,0,0,0-20,20V959a20,20,0,0,1-20,20H6552.1a20,20,0,0,1-20-20V920.22a20,20,0,0,0-20-20h-50.19" transform="translate(-5622.76 -119.91)" style="fill:none;stroke:#e2e71f;stroke-miterlimit:10;stroke-width:10px"/><line x1="10.28" y1="1162.58" x2="10.28" y2="1168.58" style="fill:none;stroke:#d1d1d1;stroke-miterlimit:10;stroke-width:10px"/><line x1="10.27" y1="1180.85" x2="9.95" y2="1567.34" style="fill:none;stroke:#d1d1d1;stroke-miterlimit:10;stroke-width:10px;stroke-dasharray:12.269413948059082,12.269413948059082"/><line x1="9.95" y1="1573.47" x2="9.94" y2="1579.47" style="fill:none;stroke:#d1d1d1;stroke-miterlimit:10;stroke-width:10px"/><path d="M6616.78,119.91v22.5c0,11-7,20-18,20h-11a15.41,15.41,0,0,0-15.41,15.41V394a15.48,15.48,0,0,0,15.46,15.48l60,0.06A15.55,15.55,0,0,0,6663.33,394V321.31a15.55,15.55,0,0,1,15.55-15.55h21.37a15.55,15.55,0,0,1,15.55,15.56l-0.07,293.37a15.55,15.55,0,0,1-15.55,15.54h-38.77a15.55,15.55,0,0,1-15.55-15.55v-4.9a15.55,15.55,0,0,1,15.55-15.55h80.2a15.74,15.74,0,0,1,15.69,15.69" transform="translate(-5622.76 -119.91)" style="fill:none;stroke:#e2e71f;stroke-miterlimit:10;stroke-width:10px"/></svg>