<?xml version="1.0" standalone="no"?>
<!DOCTYPE svg PUBLIC "-//W3C//DTD SVG 20010904//EN"
 "http://www.w3.org/TR/2001/REC-SVG-20010904/DTD/svg10.dtd">
<svg version="1.0" xmlns="http://www.w3.org/2000/svg"
 width="1024.000000pt" height="1024.000000pt" viewBox="0 0 1024.000000 1024.000000"
 preserveAspectRatio="xMidYMid meet">
<metadata>
Created by potrace 1.11, written by Peter Selinger 2001-2013
</metadata>
<g transform="translate(0.000000,1024.000000) scale(0.100000,-0.100000)"
fill="#000000" stroke="none">
<path d="M0 5120 l0 -5120 5120 0 5120 0 0 5120 0 5120 -5120 0 -5120 0 0
-5120z m5158 3985 c28 -9 72 -31 97 -50 25 -19 47 -35 49 -35 2 0 27 16 56 35
104 70 -23 66 1820 63 l1665 -3 57 -27 c75 -35 138 -95 174 -165 l29 -58 0
-770 0 -770 -22 -47 c-30 -66 -105 -143 -172 -175 l-56 -28 -504 -5 c-346 -3
-505 -8 -508 -16 -2 -6 74 -114 169 -240 l173 -229 306 4 c331 4 376 -1 458
-53 50 -32 109 -100 135 -155 l21 -46 0 -2450 0 -2450 -28 -56 c-33 -69 -99
-132 -175 -167 l-57 -27 -430 0 -430 0 -57 28 c-73 36 -149 119 -179 195 -21
53 -23 75 -27 345 -3 233 -7 287 -18 287 -7 0 -148 -90 -313 -199 -165 -110
-318 -209 -340 -220 -102 -52 -255 -63 -378 -26 -34 10 -160 87 -378 231 -179
119 -332 213 -340 210 -11 -4 -14 -61 -17 -298 l-3 -293 -27 -57 c-34 -73
-103 -142 -176 -176 l-57 -27 -2115 0 -2115 0 -56 26 c-79 37 -133 90 -171
167 l-33 67 0 310 0 310 29 62 c33 73 103 144 174 176 44 20 66 22 322 27
l275 5 0 185 0 185 -275 5 -275 5 -63 34 c-75 41 -125 94 -161 170 l-26 56 0
2940 0 2940 26 55 c46 99 120 164 222 195 34 11 385 14 1858 14 1600 1 1821
-1 1867 -14z"/>
<path d="M1462 8903 c-18 -9 -43 -30 -55 -47 l-22 -31 -3 -1667 c-1 -918 1
-1668 4 -1668 3 0 29 7 58 15 46 13 200 15 1227 13 l1174 -3 60 -28 c79 -37
147 -104 181 -181 26 -56 28 -73 32 -218 2 -87 8 -158 12 -158 19 0 75 49 91
80 17 31 19 61 19 283 0 234 -1 251 -21 287 -11 20 -35 45 -52 56 -31 18 -68
19 -892 24 l-860 5 -57 27 c-76 35 -142 98 -175 167 -28 55 -28 60 -31 267
l-3 211 -107 5 c-89 4 -117 9 -168 32 -76 34 -144 102 -181 181 l-28 60 0
1115 c0 1028 1 1118 17 1153 l17 37 -102 0 c-73 0 -111 -5 -135 -17z"/>
<path d="M1940 8898 c-18 -13 -43 -36 -54 -51 l-21 -28 0 -1089 c0 -1084 0
-1089 21 -1116 43 -58 68 -69 170 -72 l94 -4 -2 1134 c-3 1123 -3 1133 -24
1168 -44 75 -122 100 -184 58z"/>
<path d="M2325 8879 c13 -35 15 -210 15 -1190 l0 -1149 550 0 550 0 -2 303 -3
302 -275 5 -275 5 -63 34 c-75 41 -125 94 -161 170 l-26 56 0 315 0 315 29 62
c33 73 103 144 174 176 44 20 66 22 321 27 l275 5 11 45 c27 106 97 195 186
238 79 38 142 44 498 40 l336 -3 67 -32 c81 -38 142 -97 176 -172 25 -53 27
-68 33 -256 4 -110 7 -421 8 -690 1 -488 1 -491 24 -535 16 -33 34 -51 67 -67
40 -21 58 -23 207 -23 l163 0 -2 979 c-3 976 -3 980 -24 1008 -11 15 -36 38
-54 51 l-33 22 -1393 0 -1393 0 14 -41z"/>
<path d="M5490 8902 c-19 -9 -45 -32 -57 -51 l-23 -34 0 -978 0 -979 153 0
c165 0 207 7 245 42 55 52 53 25 60 771 l7 692 33 67 c40 81 110 148 190 180
l57 23 1304 3 c1229 2 1344 0 1429 -24 22 -6 22 -5 22 98 0 93 -3 109 -23 139
-12 19 -38 42 -57 51 -33 17 -133 18 -1670 18 -1537 0 -1637 -1 -1670 -18z"/>
<path d="M3723 8420 c-40 -18 -83 -68 -83 -97 0 -9 70 -13 273 -15 l272 -3 56
-28 c69 -33 132 -99 167 -175 l27 -57 0 -315 0 -315 -26 -56 c-36 -76 -86
-129 -161 -170 l-63 -34 -277 -3 -278 -3 0 -305 0 -304 725 0 c794 0 766 -2
818 59 48 57 46 58 -155 63 -160 4 -190 7 -242 27 -79 31 -165 117 -197 197
l-24 59 -5 690 -5 690 -23 37 c-13 21 -40 45 -66 57 -40 20 -59 21 -367 21
-298 0 -327 -2 -366 -20z"/>
<path d="M6176 8430 c-16 -5 -40 -19 -54 -32 -49 -46 -52 -65 -53 -400 -1
-172 -4 -484 -8 -693 -8 -433 -7 -429 -98 -526 -89 -96 -167 -119 -398 -119
l-155 0 0 -385 0 -385 543 2 542 3 5 1240 c4 961 8 1246 18 1268 6 16 12 30
12 33 0 8 -325 2 -354 -6z"/>
<path d="M6808 8430 c-37 -11 -68 -34 -89 -67 -18 -27 -19 -78 -19 -1252 l0
-1224 85 5 c92 6 133 23 169 71 l21 28 0 1174 c0 1170 0 1174 -21 1201 -41 55
-95 79 -146 64z"/>
<path d="M7154 8418 c4 -13 11 -43 16 -68 7 -29 10 -456 8 -1215 l-3 -1170
-27 -57 c-35 -76 -98 -142 -167 -175 -49 -24 -70 -28 -169 -32 l-114 -3 4 -99
c3 -98 3 -99 39 -135 21 -21 52 -39 75 -44 54 -13 1984 -13 1984 0 0 5 -160
223 -355 484 l-355 474 -232 4 c-231 3 -233 3 -290 31 -75 37 -134 98 -172
177 -29 62 -30 72 -34 220 -3 122 -1 170 12 220 29 114 96 193 203 243 48 22
54 22 643 27 l595 5 33 23 c63 46 62 34 62 543 0 447 -1 463 -20 495 -12 18
-40 42 -64 53 -42 21 -53 21 -860 21 l-818 0 6 -22z"/>
<path d="M2953 8110 c-45 -10 -81 -36 -103 -73 -18 -30 -20 -52 -20 -302 0
-302 3 -318 69 -362 33 -22 41 -23 288 -23 l253 0 -2 383 -3 382 -225 2 c-124
0 -240 -2 -257 -7z"/>
<path d="M3637 8114 c-4 -4 -7 -178 -7 -386 l0 -378 254 0 c246 0 254 1 287
23 67 45 70 59 67 369 -3 263 -4 278 -24 305 -12 15 -36 37 -55 48 -31 18 -55
20 -274 23 -132 2 -243 0 -248 -4z"/>
<path d="M7588 7033 c-22 -36 -23 -48 -23 -195 0 -174 4 -187 75 -235 30 -21
44 -23 166 -23 l134 0 -135 181 c-138 184 -165 230 -165 280 0 41 -23 37 -52
-8z"/>
<path d="M8340 6383 c0 -5 129 -179 285 -387 l285 -379 0 334 c0 316 -1 336
-20 367 -11 18 -34 41 -52 52 -30 18 -51 20 -265 20 -128 0 -233 -3 -233 -7z"/>
<path d="M5140 6354 c-35 -9 -212 -13 -778 -13 l-734 -1 4 -167 c3 -188 13
-218 80 -258 32 -20 51 -20 763 -20 l730 0 3 238 c2 187 0 237 -10 236 -7 -1
-33 -7 -58 -15z"/>
<path d="M2342 6158 c3 -201 10 -226 71 -272 28 -21 38 -21 553 -24 l525 -3
-23 43 c-21 40 -23 57 -26 241 l-4 197 -550 0 -550 0 4 -182z"/>
<path d="M4390 5696 c0 -2 10 -26 23 -53 21 -46 22 -58 22 -348 l0 -300 -26
-56 c-15 -31 -43 -75 -64 -97 -39 -44 -134 -97 -191 -108 l-34 -6 0 -82 c0
-45 -7 -108 -15 -139 -8 -32 -15 -60 -15 -62 0 -3 119 -5 264 -5 l264 0 4 198
c3 194 3 198 32 252 37 73 113 143 184 172 l57 23 1488 3 c1015 1 1487 6 1487
13 0 24 -33 71 -63 89 -31 19 -59 20 -1152 20 -1247 0 -1191 -3 -1294 68 -105
72 -151 172 -151 329 l0 93 -410 0 c-225 0 -410 -2 -410 -4z"/>
<path d="M5410 5612 c0 -104 18 -146 76 -179 39 -23 40 -23 542 -23 276 0 502
2 502 4 0 3 -5 17 -12 33 -6 15 -14 78 -17 138 l-6 110 -542 3 -543 2 0 -88z"/>
<path d="M1456 5297 c-58 -33 -76 -75 -76 -177 0 -97 17 -136 72 -170 32 -20
53 -20 1251 -20 l1218 0 -3 144 c-3 157 -8 173 -72 220 -27 21 -33 21 -1189
23 l-1162 3 -39 -23z"/>
<path d="M8875 5232 c-26 -15 -79 -17 -427 -20 -219 -2 -398 -6 -398 -10 1 -4
7 -29 14 -57 l13 -50 379 -5 c282 -4 387 -9 412 -19 18 -7 35 -11 38 -8 3 2 3
45 2 95 l-3 90 -30 -16z"/>
<path d="M4900 4871 c-19 -10 -45 -33 -57 -51 -22 -31 -23 -43 -23 -206 l0
-173 163 -3 c151 -3 166 -5 219 -30 104 -49 176 -142 198 -257 5 -30 10 -161
10 -291 0 -130 -5 -261 -10 -291 -21 -112 -83 -196 -182 -250 l-63 -34 -167
-3 -168 -4 0 -468 0 -468 153 -4 c129 -4 161 -8 212 -28 81 -31 163 -113 196
-195 24 -59 24 -66 24 -360 0 -263 -2 -305 -17 -338 l-18 -39 138 4 c123 3
140 5 168 25 60 43 64 63 64 352 0 147 5 282 11 310 28 130 141 197 272 160
21 -6 173 -100 337 -209 164 -109 318 -209 342 -221 55 -28 156 -36 218 -16
25 8 187 108 360 222 173 115 331 214 350 221 47 17 123 17 163 0 39 -16 91
-70 109 -111 9 -21 14 -118 18 -332 5 -286 6 -303 26 -330 11 -15 36 -38 54
-50 33 -23 35 -23 419 -23 368 0 388 1 419 20 18 11 41 34 52 52 20 32 20 53
20 972 0 863 -1 938 -16 932 -64 -25 -154 -27 -1114 -24 l-1015 3 -67 33 c-74
36 -132 95 -170 170 l-23 47 0 430 0 430 27 57 c49 104 142 176 257 198 32 6
245 10 515 10 430 0 464 1 496 19 39 21 80 89 80 133 l0 28 -1473 0 c-1414 0
-1474 -1 -1507 -19z"/>
<path d="M8074 4821 c-6 -38 -21 -90 -34 -115 -31 -65 -101 -133 -168 -164
l-57 -27 -505 -5 c-561 -6 -546 -4 -589 -73 -20 -33 -21 -46 -21 -419 0 -384
0 -385 23 -419 49 -74 -22 -69 1082 -69 1104 0 1033 -5 1082 69 l23 34 0 577
0 577 -22 33 c-48 69 -52 70 -448 70 l-356 0 -10 -69z"/>
<path d="M1380 3893 c0 -968 -4 -912 69 -960 33 -22 41 -23 287 -23 l253 0 3
643 3 642 27 50 c36 69 102 133 168 164 l55 26 790 5 c744 5 793 6 819 23 44
29 66 89 66 185 l0 82 -1227 0 c-1043 1 -1234 3 -1268 15 -22 8 -41 15 -42 15
-2 0 -3 -390 -3 -867z"/>
<path d="M2466 4230 c-71 -22 -106 -82 -106 -186 0 -96 24 -144 86 -175 42
-20 53 -20 726 -17 l683 3 47 -22 c69 -31 112 -67 152 -126 36 -53 66 -145 66
-204 l0 -33 248 2 247 3 3 383 2 382 -1062 -1 c-585 0 -1076 -5 -1092 -9z"/>
<path d="M4820 3854 l0 -386 138 4 c162 4 193 16 230 88 21 42 22 55 22 301 0
247 -1 257 -23 299 -36 69 -67 80 -229 80 l-138 0 0 -386z"/>
<path d="M2180 3391 l0 -481 209 0 c114 0 232 -5 262 -10 115 -22 208 -94 257
-198 25 -52 27 -67 27 -182 0 -114 -2 -130 -26 -181 -50 -107 -148 -179 -270
-199 -35 -5 -153 -10 -262 -10 l-198 0 3 -324 c3 -311 4 -326 24 -353 11 -15
36 -38 54 -51 l33 -22 757 0 757 0 33 23 c18 12 43 35 54 50 20 27 21 42 24
358 l3 329 -78 1 c-43 0 -166 4 -273 8 -184 7 -198 9 -246 33 -101 53 -161
126 -189 233 -20 80 -22 699 -1 786 25 107 93 191 195 241 43 22 61 23 316 28
l270 5 3 28 c6 47 -34 115 -82 139 -41 21 -42 21 -697 15 -733 -8 -728 -8
-826 60 -32 21 -69 59 -93 95 l-40 60 0 -481z"/>
<path d="M3427 3266 c-49 -18 -64 -32 -88 -77 -18 -36 -19 -62 -19 -376 0
-331 0 -340 23 -383 40 -80 56 -85 335 -88 l242 -4 0 471 0 471 -227 0 c-164
-1 -239 -5 -266 -14z"/>
<path d="M4120 2810 l0 -470 250 0 250 0 -2 468 -3 467 -247 3 -248 2 0 -470z"/>
<path d="M2182 2523 l3 -188 225 0 c216 0 226 1 261 23 51 31 69 74 69 167 0
95 -22 138 -84 166 -36 16 -68 19 -259 19 l-217 0 2 -187z"/>
<path d="M4118 1798 c-3 -297 -5 -348 -20 -380 l-17 -38 284 0 283 0 -14 47
c-11 36 -14 122 -14 380 l0 333 -249 0 -250 0 -3 -342z"/>
<path d="M4820 1813 c0 -310 1 -330 20 -361 34 -55 73 -72 171 -72 94 0 130
15 173 73 20 27 21 43 24 290 3 256 2 263 -20 307 -37 73 -83 90 -240 90
l-128 0 0 -327z"/>
<path d="M1452 2110 c-18 -11 -41 -34 -52 -52 -19 -31 -20 -51 -20 -296 0
-292 3 -312 64 -355 30 -21 40 -22 303 -25 l272 -3 -14 42 c-12 33 -15 107
-15 375 l0 334 -252 0 c-235 0 -255 -2 -286 -20z"/>
</g>
</svg>
