<svg xmlns="http://www.w3.org/2000/svg" xmlns:xlink="http://www.w3.org/1999/xlink" viewBox="0 0 225.77 398.14"><defs><clipPath id="clip-path" transform="translate(-389.34 -1132.77)"><rect x="325.9" y="1178.63" width="202.19" height="380.6" style="fill:none"/></clipPath></defs><title>bg-map</title><g style="isolation:isolate"><g id="Layer_1" data-name="Layer 1"><g style="clip-path:url(#clip-path)"><path d="M503.8,1524.16c-0.92,1.28-4.24,2.15-4.59,3.33-0.27.91,2.8,2.16,4.16,3s6.07,0.79,6.55-3S504.72,1522.89,503.8,1524.16Z" transform="translate(-389.34 -1132.77)" style="fill:#e6e6e5"/><path d="M478.78,1488.4c-0.83-.51-0.77-2,0.83-3.47s-0.33-3-2.78-3.38-0.36-2.21-2.54-3.08-3.24-5.19-2.21-5.94,2.48-4.31,1-4-2.25-1.68-.43-2.56,0.32-3.79,1.1-5.77-1.15-1.16-1.76.31-1,1.1-2.92,1.29-1.53,2.75-1.86,5.15,3.2,3.63,2.11,5.42,0.85,3.73.35,4.81,1.89,3.91,4.33,3.86-0.7,2.33-.34,4.54-3.11,3-5.66,3.91-2.51,5.06-3.53,6.27-1.19,1.72-.19,1.72,2.92,3.62,4.81,3.54,5.14-8.2,6.1-8.38,0.7,2.07,1.39,1.46C477.5,1493.3,479.61,1488.91,478.78,1488.4Z" transform="translate(-389.34 -1132.77)" style="fill:#e6e6e5"/><path d="M472.81,1455.21c0.08-2.24,2,.74,3.2-0.81s2.38,1,3.09-.41,2.07,1.26,2.64,2.67,3.78-.6,5.61-0.1,4.82-2.55,3.73-3.09c-1.31-.65-3,0.77-4.2-0.11s-1.65.83-3.21-.57,3.16-6.35,1-8.25-1.26-3.53-2.4-4.22-2,3.7-2.82,4.86-2.56-1.4-4.76-.6-2.64,6.2-4.27,8.88S472.73,1457.46,472.81,1455.21Z" transform="translate(-389.34 -1132.77)" style="fill:#e6e6e5"/><path d="M479.41,1472.4c1.76,0.61,4.31-4.78,2.93-5.27-0.59-.2-1.77-1.08-2.55,0s0-2.77,1.52-3.21,3.25-3.23,2-4.45-7.21,2.5-7.41,3.76,2.07,0.34.94,1.49S477.65,1471.79,479.41,1472.4Z" transform="translate(-389.34 -1132.77)" style="fill:#e6e6e5"/><path d="M493.94,1471.44c-2.75.32-3.19,1.73-3.38,3.45s2.64-1.3,5.32-2.43,8.18-2.36,8.27-3.54C504.27,1467.32,496.69,1471.13,493.94,1471.44Z" transform="translate(-389.34 -1132.77)" style="fill:#e6e6e5"/><path d="M475.08,1459.19c0.15,1.62,3.48.82,3.68-.21C479,1457.62,474.93,1457.57,475.08,1459.19Z" transform="translate(-389.34 -1132.77)" style="fill:#e6e6e5"/><path d="M481.55,1481.51c0.64-1.76,1.89-5.44-.87-6S481.09,1482.77,481.55,1481.51Z" transform="translate(-389.34 -1132.77)" style="fill:#e6e6e5"/><path d="M423.28,1342.18c-2.8-1.71-9.1-1.41-9.65-.52s-3.26,1.39-3.08,2.72,2.56,0.95,3.17-.06,2.61-.56,5.89-0.09,6.53,5.73,7.68,4.21C428,1347.51,426.08,1343.89,423.28,1342.18Z" transform="translate(-389.34 -1132.77)" style="fill:#e6e6e5"/><path d="M408.78,1341.93c-2.31-.64-2.15,2.37-1.17,4.49s2,3.8,1.17.41S410.22,1342.33,408.78,1341.93Z" transform="translate(-389.34 -1132.77)" style="fill:#e6e6e5"/><path d="M476,1399.83c-1.35-.82-0.67-1.94-0.41-3.77s-4.09-3.1-5.4-3.75-0.37-2.67,1-.93,2.31,0.18,3.35,1.27,3,1.62,2.64.34-0.66-3.83.09-5-1.64-2.68-2.39-1.45-1.2-.83-3.18-3,0.18-1.94-2.14-3.5-6.61-6.66-7.67-9.6,1.05-3.13.65-5.52,0.27-4.4,2.13-3.26,5.05,0.34,5.15-1-6.92-3.59-8.37-4.47c-1-.58-0.8-3-1.83-5.41a7.93,7.93,0,0,0-2.93-3.61c-4.43-3-5,.48-5.82,0s-2.1.87-3.78,1.53-5.12-2.81-6.28-6.27-0.35-11.1-3.19-12.06-4.13-4.66-6.49-5.94-1.43,1.88-.91,2.66,1.57,3.25.92,4.09,1.6,2,2.44,3.93-1.65,4.81-.57,6.55,0.73,4.88-1.07,3.63-2.79-.32-2.22,2,5.52,6.12,4.44,8.37,5.29,13,8.83,16.56a30.38,30.38,0,0,1,2.1,2.4c3.5,4.37,7.93,11.19,9.27,11.88,1.63,0.83,3.6-1.94,5-1.12s5.05-1.06,8.09-.44-2.1,9.29-2,11.66,5.53,7.5,7.31,6,3.33,0.8,4.51-.63S477.3,1400.65,476,1399.83Z" transform="translate(-389.34 -1132.77)" style="fill:#e6e6e5"/><path d="M393.19,1312.52c-1.21.06,2.42,6.86,3.17,5.84S394.4,1312.46,393.19,1312.52Z" transform="translate(-389.34 -1132.77)" style="fill:#e6e6e5;mix-blend-mode:multiply"/><path d="M390,1310.84c1.9-1.37.73-6.45,0.31-6.82S388.59,1311.89,390,1310.84Z" transform="translate(-389.34 -1132.77)" style="fill:#e6e6e5;mix-blend-mode:multiply"/><path d="M396,1309.3c0.71-1.87-1-4.29-2.3-4.28S395.27,1311.23,396,1309.3Z" transform="translate(-389.34 -1132.77)" style="fill:#e6e6e5;mix-blend-mode:multiply"/><path d="M404.56,1335.07c0.83-.88.73-8.22-1-8.13C400.31,1327.11,403.75,1336,404.56,1335.07Z" transform="translate(-389.34 -1132.77)" style="fill:#e6e6e5"/><path d="M400.78,1326.34c0.33-.37-0.58-4.49-1.38-4.4S400.18,1327,400.78,1326.34Z" transform="translate(-389.34 -1132.77)" style="fill:#e6e6e5;mix-blend-mode:multiply"/><path d="M391.87,1301.73c0.1-.51-0.7-3.76-2.17-3.62S391.7,1302.6,391.87,1301.73Z" transform="translate(-389.34 -1132.77)" style="fill:#e6e6e5;mix-blend-mode:multiply"/><path d="M463.1,1249.41c-0.93.12-1.63,3.37-.83,3.29s-2,4.52-3.67,6.38-1.28,1.75.4,1.28,0.83,3.37.55,4.35-0.54,4,1,4.51-0.76,2.3.64,2.8,0.3,2.83-1.15,4.7,0.6,0.94.64,2.11,1.06,0.88,2.12,1.07,0,2.42-.73,3.12-1,1.94-.36,3.57a3.15,3.15,0,0,1-.52,3.48c-0.74,1,3.71,8.8,5,10s-1,2.15-.72,3.12-0.83,3.29-2,5.13,0.7,3.76-.3,5.22-1.16,3.31-2.34,4.9,1,3.47.5,4.44,1.35,0.94,2.78,1.57,0.12,2.6-1.21,4.44-2.57,5.44-2,7-1.33,4.82-1.1,5.65,3.36-.25,3.94-1.39a4.62,4.62,0,0,1,2.69-2.5c1.11-.24,1.52-3.55,3-3.91s2.88-4.56,4.39-6.51,2.81-4.26,4.61-5.12,3.33-3,5.66-2.64,3.85,3.49,3.11,4.54,1,3,2.14,3.49,0.79,2.55,1.64,5,3.24,1.51,2.76,3.52-0.09,2.59.6,4.27,0.29,1.44-1.44,1.65-2.21,1.53-2.25,3-1.21.41-3.33,0.39-1.22,2-2.7,1.8-1.44,1.31-.34,2.32,1.67-.82,2.24-0.7-0.34,2.66.1,2.81,3.24-1.12,3.36.44,3.91,5.14,5.47,6.43,0.67,4,1.94,4.17,0.56-1.27.21-3.32,5.27,0.11,6.44,1.51,0.48-1.31,1.67-.47,2.86-1.36,4.58-1.92,1.54-1.82,3.09-1.91,2.13-.88,1.78-3.28,1.65-1.3,2,.67,1.57,2.68,2.36,1.2,1.86,0.1.66,1.55,1.12,1.84.87,2.95,0.47,3.62,1.53,4.15,1.78-.64,2.79,0,1.6,0.17,2.16-1.09,1.5,1,2.78,1.57,1-1.59,1.64-1.3,1.39-.88,2.4-0.26,2.33-1.91,2.94-3.26,1.2,1.54,2.42,1.81,0.63-1.57,1.19-3.18,1.36-1,2.26-1.26,0.43,2.45-.33,3.7,1.27,0.89,3.64.15,2-4.31,2.86-4.35a49.68,49.68,0,0,0,8.33-2.28c2.91-1.1,5.65,2.29,7.35,1.95s2.41,1.13,4.06.87,4.75-.79,4.31.44,2.89,2.1,4.87,1.47,4.57-.66,5.94.05,2.7-1.46,3.55-1.63-0.68,2-1,2.58,1.86-.25,3.47-1.67,0.16-3.24,2.45-4.37,4.5-2.31,4.3-5.66-0.22-5.42,1-6.26,0.28,3.39.93,3.2-0.31-2.82.62-3.3,0.41,4.16,1.27,3.53,0.43-8.59,1.62-10.73-0.61-6,1.38-8.93,2.15-9.49,2.14-10.53,2.77-2.1,3.84-4.55,2.59-2.67,3.91-1.87,2-2,.6-3.08-0.17-1.83-1.09-4-5.07-4.12-6.39-4.93-3,1.14-4.88.13-2-.32-3.62.33-5.41-2.15-9.38-4.92-6.58-2.51-8.33-1c-1.49,1.25-4.52-.46-6.4,0s-2.94-.07-5.88-2.09-6.81-2-9.26-2.31-5.83-2.86-8-3.5-0.65-3.84-2.9-4.87-2.63-2.52-3.77-3.1-0.43-1.41-1.36-2.32-0.17-1.83,1.2-2.49-1-2-1.18-5.08,1.45-2.56,1.7-4.71-0.56-2.06-3.54-.66-3.78-1.15-5.23.71-4.53,3.22-5,1.55,1.7-1,4.75-4.46,3.07-.66,4-1.6-2.25-3.67-3.47-1.66-2.41,2.55-2.61-.1,2.82-2.88,3-3.91-1.94-.84-2.67-1.39c-1.29-1-1.18-5.43.21-7s2.87-3,1.09-6-0.62-2.67-2.56-3.85a18.23,18.23,0,0,1-5.45-7c-0.48-1.67-4.35-1.61-6.12.07s-2.62-1.48-1.12-1.49,0.83-2.6.09-1.55-1.77,1.68-1.39.18-1-2.35-1-3.68-0.1-2.47-.61-1.63a2.45,2.45,0,0,1-2.83,1.15c-1.55-.25-2.89.19-4.93,0.56s-7.64-2.7-8.18-3-3.91,4.5-5.81,6.91-4.17,1.6-6.17,4.17-7.83,6-8.69,5.85a3.51,3.51,0,0,0-3.68,1.32c-1,1.55-3.91,2.22-5.08,4.14s-3.57,3.57-3.76,4.25-0.7,2.91-2.69,3.54S464,1249.29,463.1,1249.41Z" transform="translate(-389.34 -1132.77)" style="fill:#e6e6e5"/><path d="M544,1252.63c-0.35-1.36-3.38-2.86-4.56-2S544.35,1253.85,544,1252.63Z" transform="translate(-389.34 -1132.77)" style="fill:#e6e6e5;mix-blend-mode:multiply"/><path d="M506.36,1364.09c-0.37-1.15-4.77-2.68-5.23-1.58S506.92,1365.83,506.36,1364.09Z" transform="translate(-389.34 -1132.77)" style="fill:#e6e6e5;mix-blend-mode:multiply"/><path d="M523,1207.92c2.26,1,4,5.26,4.88,5.49s0.95-7.69,3-8.53,0.23-7.56-1.1-8.71-1.9,1-2.86.32-1.29.71-2,1.45-0.61-1.63-1.77-1.65-2.27,4.25-3.51,3.49-2.89,4.21-3.36,5.87S520.79,1206.89,523,1207.92Z" transform="translate(-389.34 -1132.77)" style="fill:#e6e6e5"/><path d="M424.75,1149.09c0.58,1.5,1.84.66,3.36,0.78s0.26,3.95,2.51,3.59,1.23-1.66,3.78-2.18,2.16-1.44,6.1-3.52,11.75,0.15,13.83-1,6.3-.53,7.19-1.82,3.52-1,3.43-3.54c-0.07-2-1.92-1.75-2.27-3.45s-1.92-1.4-1.83-2.61-3.33-3.29-7.43-2.34-3.57,2.88-5,2.93-2.8,2-4.19,2.85-2.67,1.94-5.48.23-1.68-.22-2.39,1.3-3.35.26-4.48,2.1-5.57,1.43-5.73,3.28S424.17,1147.59,424.75,1149.09Z" transform="translate(-389.34 -1132.77)" style="fill:#e6e6e5"/><path d="M403.84,1154.85c1.47-.83,1.9,1.62,3.22,2.42a2.44,2.44,0,0,1,.73,3.54c-0.76,1.26-1.58,3.29-.28,4s0.48-1.66,1.36-2,0.32,1.23.94,1.61,0.76,1.73-.26,3.4,0.4,2.31-.77,4.24,0.71,5.14,2.27,6.09,1.53-3.21,1.36-4.69-1.32-3.44-.78-4.15a5.15,5.15,0,0,0-.26-4.3c-0.73-.91,2.54-2.93,4-5.28s2.89-.89,5-1.69-1.12-4.81-1.92-7.36,4.65-4.32,4.69-5.42c0-.56-0.79-1.86-2.88-2.45s-5.5,3.08-7.47,3.5-2.3,2.74-3.49,3.28-2-.06-2.84-0.58-1.77,2-2.86,1.36-1.52,1.26-3.21,2.64S402.38,1155.69,403.84,1154.85Z" transform="translate(-389.34 -1132.77)" style="fill:#e6e6e5"/><path d="M401,1243c-1.79.13,4.91,15.31,5.55,13.79S402.83,1242.84,401,1243Z" transform="translate(-389.34 -1132.77)" style="fill:#e6e6e5"/><path d="M493.66,1401.58c0.4-1.59-2.12-2.36-4.3-3.69s-2.3-3.7-3.44-4.39-2.08,2.72.07,5.25S493.22,1403.33,493.66,1401.58Z" transform="translate(-389.34 -1132.77)" style="fill:#e6e6e5"/><path d="M487.13,1412.31c-1.28-.47-1,3.81-3.19,2.19s-2,.47-2.94,2,1.94,1.48,1.46,2.27-1.65,4.35,1.5,2.91S488.62,1412.86,487.13,1412.31Z" transform="translate(-389.34 -1132.77)" style="fill:#e6e6e5"/><path d="M554.37,1411c-1.41.67-1-3.05-4.08-2.64s2.81,3.09,2.1,4.5,4.08,2.64,5.51,4.73-3.2.35-5.09,0.43,0.08,1.73,4.08,2.63,5.66,6.82,6.72,5.32,5.61,4.34,6.38,6.34,5.49,6.87,7.93,5.44,2.26,1.07,3-1.23c0.51-1.53-1.32-1.57-2.25-2.14s0.64-2.22-.58-3.26-4.86-5.11-5.89-4.35-4.57-2.78-5.55-5.83-5.69-6.07-7.77-6.87S555.78,1410.31,554.37,1411Z" transform="translate(-389.34 -1132.77)" style="fill:#e6e6e5"/><path d="M524.79,1424.06c3.84-2.1,1.62-4.06.13-5.13s0.21-3.39,1.41-4.65,3.93-4.33,2.24-4.61c-2.07-.34-4.46,1.26-4,2.61s-2.64,6.21-3.8,7.18-3.42-1.63-1.33-3-0.75-2.75.55-4.87-0.94-2-2.94-2.41-2.31.74-2,2.78-2.8,2.73-1.93,4.8,0.9,4.37-.76,3.82-7.65-.52-7.81.91,6.78,3.82,8.52,2.13,4.74,3.19,2.11,6.34-11.58-1.54-13.32-4.28-6.41-1.15-8.5.18,2.17,0.86,4.69.71,6.36,4,8.21,6.38,3.24-.17,5.41.69,4.62-4.08,5.89-4.07S520.95,1426.16,524.79,1424.06Z" transform="translate(-389.34 -1132.77)" style="fill:#e6e6e5"/><path d="M591.64,1485.75c0.89-1,1.72-4.92-.34-4.34S590.76,1486.73,591.64,1485.75Z" transform="translate(-389.34 -1132.77)" style="fill:#e6e6e5"/><path d="M592.4,1473c0.54-.43.76-3.36-0.37-3.13S590.67,1474.41,592.4,1473Z" transform="translate(-389.34 -1132.77)" style="fill:#e6e6e5"/><path d="M574.11,1444.91c-0.85,1.63-2.42,2.81-2.9,3.6s-1.2.8-2,0-2.13,1.62-1.53,2.28-0.7,3.71,1.07,4.79,2.4-.68,1.43-1.43a1.64,1.64,0,0,1-.26-2.61c0.79-.59.25,1.22,1.77,2s-0.64,2.22,1,3.34-0.69,4.17,1.07,5.25,0.91,2.7-.91,3.12,0.47,3.2-.35,4.54,1.53,1.69.85,2.81,0.49,1.06.61,3,1.28,0.93,1.5,2.44,1,2.76,1.95,2.87,1.5,2.91,1,5.08c-0.37,1.73,3,7,2.45,9.3s0.65,4.07,3.52,5.67,2.11,5.33,3.68,4.24c2-1.4.73-8-.35-10.17s0.43-6.78-1.51-8.27,2.14-8.65.79-9.93-1.34-8.78-.09-12-1.29-6.76-1.14-9.58-2.64-8.5-2.72-9.77,0.52-3.66-.61-3-2.7-1.64-3.67-2.39S575,1443.28,574.11,1444.91Z" transform="translate(-389.34 -1132.77)" style="fill:#e6e6e5"/><path d="M501,1405.72c0.68-2-1.72-4.88-3.51-3.82S500.18,1408.08,501,1405.72Z" transform="translate(-389.34 -1132.77)" style="fill:#e6e6e5"/><path d="M553.81,1451.39c0-1.67-2.13-3.29-.7-5.64s1.71-7.23-.26-7-2.11-1.9-1.92-3.16-4.11-1.43-5-2.29-3.71-3.48-3.1-5-3.18-1.78-5.63-2.2-5.19,6.65-7.8,6.74-4.46,2.19-5.61,4.55-6-.43-7.27,0-0.39,3,.55,4.47-1.08,2.25-.69,3.71,0.52,4.76-.9,4-0.36,2.7-1.91,2.67l-0.69,0c-1.63-.09-3.91-0.31-3.57,1,0.39,1.46-2.87-1.59-4.1-.51s0,3.34,1,3.69,3.18,1.79,2.57,2.79,0.2,4.1,1.45,4.86,4.33-1,5.12-2.09,2.69,0.26,3.43-1.43a1.06,1.06,0,0,1,1.4-.58c0.89,0.2,1.88.81,2.25,0.2,0.6-1,1.35,1.32,2.16,1.9l0.06,0.06c0.83,0.5,4.6-1.49,6.31-3.35s3.17-.06,6.11,1.42,3.7-2.34,5.21-3.41,3,3.29,4.34,4.58a1.72,1.72,0,0,0,.38.29c1.42,0.71,6-1.77,5.48-3.86C551.88,1455.26,553.79,1453.06,553.81,1451.39Z" transform="translate(-389.34 -1132.77)" style="fill:#e6e6e5"/><path d="M562.62,1445.57c-0.61,1,2.36,2.15,2.41.24S563.23,1444.56,562.62,1445.57Z" transform="translate(-389.34 -1132.77)" style="fill:#e6e6e5"/><path d="M538.57,1393.24c-0.32-1.11-2-4.14-3.18-2.25s5.29,7.36,5.28,5.82C540.65,1395.43,538.89,1394.36,538.57,1393.24Z" transform="translate(-389.34 -1132.77)" style="fill:#e6e6e5;mix-blend-mode:multiply"/><path d="M542.52,1405.45c1-.76,2.93.1,3.49,1.51s3,0.35,2.89-1a5,5,0,0,0-4.54-4c-3.41-.24-4.43-2.54-5.93-1.47S541.49,1406.2,542.52,1405.45Z" transform="translate(-389.34 -1132.77)" style="fill:#e6e6e5;mix-blend-mode:multiply"/><path d="M513.35,1386.77c1.35,0.93,2.67,0,4.26-.23l0.44,0a3.77,3.77,0,0,1,1.46.17,4.62,4.62,0,0,1,.52.2l0.07,0a4,4,0,0,0,1.31.39c2.55,0.33,5.18-1.61,4.28-3.26s-4.07-.73-6.06,0l-0.86.35a2,2,0,0,1-.56.13,4.24,4.24,0,0,1-.5,0c-2.79.06-8.88-1.45-9.62-.85S511.34,1385.4,513.35,1386.77Z" transform="translate(-389.34 -1132.77)" style="fill:#e6e6e5;mix-blend-mode:multiply"/><path d="M522.48,1391.41c-1.94-1-4.35-1.73-1.82.42s5.76,1.06,7.88,3.88,7,4.24,7.15,3-2.29-2.78-5-4.59S524.41,1392.44,522.48,1391.41Z" transform="translate(-389.34 -1132.77)" style="fill:#e6e6e5;mix-blend-mode:multiply"/></g></g></g></svg>