<svg xmlns="http://www.w3.org/2000/svg" viewBox="0 0 92.24 47.98"><defs><style>.cls-1{opacity:0.6;}.cls-2,.cls-3{fill:none;stroke:#141414;stroke-miterlimit:10;}.cls-3{stroke-dasharray:6;}</style></defs><title>calendar</title><g id="Layer_2" data-name="Layer 2"><g id="Layer_1-2" data-name="Layer 1"><g class="cls-1"><line class="cls-2" x1="6.13" y1="3.27" x2="6.13" y2="10.19"/><line class="cls-2" x1="42.33" y1="3.26" x2="42.33" y2="10.17"/><line class="cls-2" x1="24.26" y1="3.27" x2="24.26" y2="10.18"/><rect class="cls-2" x="8.94" y="32.76" width="6.74" height="4.77"/><rect class="cls-2" x="20.89" y="32.76" width="6.74" height="4.77"/><rect class="cls-2" x="32.84" y="32.75" width="6.74" height="4.77"/><rect class="cls-2" x="8.94" y="24.98" width="6.74" height="4.77"/><rect class="cls-2" x="20.89" y="24.98" width="6.74" height="4.77"/><rect class="cls-2" x="32.83" y="24.97" width="6.74" height="4.77"/><rect class="cls-2" x="8.94" y="17.2" width="6.74" height="4.77"/><rect class="cls-2" x="20.88" y="17.2" width="6.74" height="4.77"/><rect class="cls-2" x="32.83" y="17.19" width="6.74" height="4.77"/><rect class="cls-2" x="0.51" y="7.1" width="47" height="37" rx="2" ry="2"/></g><g class="cls-1"><circle class="cls-2" cx="68.25" cy="23.99" r="13.08" transform="translate(-1.69 5.48) rotate(-4.54)"/><polyline class="cls-2" points="66.91 11.2 67.93 24.02 72.6 10.78"/></g><g class="cls-1"><path class="cls-3" d="M55.66,4.16A23.49,23.49,0,1,1,53.11,42"/></g></g></g></svg>