<svg xmlns="http://www.w3.org/2000/svg" viewBox="0 0 30.36 43.56"><defs><style>.cls-1{opacity:0.3;}.cls-2,.cls-3{fill:none;stroke:#000;stroke-miterlimit:10;}.cls-3{stroke-width:0.25px;}</style></defs><title>Asset 9</title><g id="Layer_2" data-name="Layer 2"><g id="Layer_1-2" data-name="Layer 1"><g class="cls-1"><path class="cls-2" d="M8.84,2.19H2.13A1.68,1.68,0,0,0,.5,3.92V41.33a1.68,1.68,0,0,0,1.63,1.73H28.23a1.68,1.68,0,0,0,1.63-1.73V3.92a1.68,1.68,0,0,0-1.63-1.73H21.52"/><rect class="cls-2" x="8.84" y="0.5" width="12.68" height="3.45"/><line class="cls-2" x1="4.51" y1="37.72" x2="25.85" y2="37.72"/><line class="cls-3" x1="4.51" y1="19.28" x2="18.62" y2="19.28"/><polyline class="cls-2" points="25.85 29.08 4.51 29.08 4.51 13.75"/><line class="cls-2" x1="4.51" y1="34.23" x2="15.18" y2="34.23"/><path class="cls-2" d="M21.1,16.3,14.72,24a1.28,1.28,0,0,1-2,0l-1.27-1.52a1.28,1.28,0,0,0-2,0L6.61,25.77"/><path class="cls-3" d="M20.14,25.93"/><line class="cls-3" x1="18.62" y1="29.08" x2="18.62" y2="19.28"/></g></g></g></svg>