<svg id="Layer_1" data-name="Layer 1" xmlns="http://www.w3.org/2000/svg" viewBox="0 0 289.14 515.52"><defs><style>.cls-1{fill:none;stroke:#000;stroke-miterlimit:10;stroke-width:10px;}</style></defs><title>line-team-2</title><path class="cls-1" d="M628,809.5v-96a15,15,0,0,0-13-15c-20-1-41,1-61-1-4,0-9,0-12-5s-5-11-2-16c3-4,7-8,12-9,85-2,170,3,255-2,6,0,9-6,10-12,1-23,1-47-1-70,0-6-6-12-13-12-33-1-66-1-99,1-13,0-16,18-11,28,3,4,8,7,13,6,18,0,39,8,53-7,2-3,1-6,1-9,2-62,2-125,1-187,0-3-2-6-3-9-3-5-8-6-13-7-29-1-57-1-86,0-8,1-16,6-16,14,0,11,0,28-14,29-20,1-41,0-61,0a18.45,18.45,0,0,1-12-5c-2-2-4-5-4-8,0-35-1-69,0-104,1-8,8-14,15-13,16,0,37-7,47,9,0,48,1,97-1,145,0,3,1,6-1,9-6,10-16,10-26.43,9" transform="translate(-533.52 -293.98)"/></svg>