<?xml version="1.0" encoding="utf-8"?>
<!-- Generator: Adobe Illustrator 19.2.0, SVG Export Plug-In . SVG Version: 6.00 Build 0)  -->
<svg version="1.1" id="Layer_1" xmlns="http://www.w3.org/2000/svg" xmlns:xlink="http://www.w3.org/1999/xlink" x="0px" y="0px"
	 viewBox="0 0 521.3 565.5" style="enable-background:new 0 0 521.3 565.5;" xml:space="preserve">
<style type="text/css">
	.st0{fill:none;stroke:#E0E718;stroke-width:10;stroke-miterlimit:10;}
</style>
<title>line-mission</title>
<g id="Layer_2">
	<g id="Layer_1-2">
		<path vector-effect="non-scaling-stroke" class="st0" d="M388.3,0v312.3c0,8.4,6.8,15.3,15.3,15.3h58.3c8.5,0,15.5-6.9,15.5-15.5
			c0,0,0,0,0-0.1v-76.7c0-8.7-7.1-15.8-15.8-15.8h-28.4c-8.7,0-15.8,7.1-15.8,15.8v40.9c0,8.4,6.8,15.3,15.3,15.3h3.3
			c8.5,0,15.5-6.9,15.5-15.5l0,0v-81.7c0-8.7,7.1-15.8,15.8-15.8h33.5c8.6,0,15.6,7,15.7,15.7v237.4c0,0,0,113.5,0,113.5
			c0,8.5-6.9,15.5-15.5,15.5h-229l-0.1,0.1c-11,0-20-9-20-20l-0.5-11.5c0-11,9-20,20-20c0,0,0,0,0,0h186.8c6.6,0,12-5.4,12-12l0,0
			v-3.5c0-6.6-5.4-12-12-12h-27.8c-13,0-26,0-39,0c-5,1-11,4-12,9c-2,15,6,38-14,42c-14,2-18-13-23-23c-2-2-4-4-5-7
			c-20-38-39-73-60-110c-1-2-1-4-2-6c-0.8-1.8-2.2-3.2-4-4c-20-9-38-20-57-29c-15-21-31-41-45.7-61c-1.5,2,0.7,0.9,0,0
			c-38.3,52-75.3,102-115.3,156c-15,19-26,38-43,54c-2,2-4,5-9.4,4"/>
	</g>
</g>
</svg>
