<?xml version="1.0" encoding="utf-8"?>
<!-- Generator: Adobe Illustrator 19.2.0, SVG Export Plug-In . SVG Version: 6.00 Build 0)  -->
<svg version="1.1" id="Layer_1" xmlns="http://www.w3.org/2000/svg" xmlns:xlink="http://www.w3.org/1999/xlink" x="0px" y="0px"
	 viewBox="0 0 192.5 395.3" style="enable-background:new 0 0 192.5 395.3;" xml:space="preserve">
<style type="text/css">
	.st0{fill:none;stroke:#000000;stroke-width:10;stroke-miterlimit:10;}
</style>
<title>line-advantages-2</title>
<path vector-effect="non-scaling-stroke" id="Layer_1-2" class="st0" d="M74.8,198.8c0,19.3,0.2,38.2-8.7,55.3L4.6,393.3 M74.8,203.5v-84.8 M90.1,94.9h26.5
	 M136.2,106.5c0-6.4-8.7-11.6-19.5-11.6 M136.2,106.5V130 M136.2,130c0,5.9-6.7,10.7-15,10.7 M121.2,140.7H42.8 M30.1,130.1
	c0,5.9,5.7,10.7,12.7,10.7 M30.1,130.1V15.1 M30.1,15.1C30.1,9.5,38,5,47.6,5 M67.5,15.1C67.5,9.5,58.6,5,47.6,5 M95.5,37.7h97.1
	 M74.8,118.7c0-13.1,6.8-23.8,15.3-23.8 M67.5,15.1c0,12.5,12.5,22.6,28,22.6"/>
</svg>
