<svg xmlns="http://www.w3.org/2000/svg" viewBox="0 0 1189.64 565.52"><defs><style>.cls-1,.cls-2{fill:none;stroke-miterlimit:10;stroke-width:20px;}.cls-1{stroke:none;}.cls-2{stroke:none;}</style></defs><title>line-mission</title><g id="Layer_2" data-name="Layer 2"><g id="Layer_1-2" data-name="Layer 1"><path class="cls-1" d="M1098.64,481.56h-39.16a12,12,0,0,0-12,12v22.5c0,6.63-5.37,16.34-12,16.34h-6.89c-6.11,0-11.24-8.92-11.92-10.65l-75-137.55-59.08-31-45.64-60.72L682.57,500.24a15.55,15.55,0,0,1-12.48,6.28h-71"/><path class="cls-2" d="M1056.64,0V312.25a15.27,15.27,0,0,0,15.27,15.27h58.26A15.47,15.47,0,0,0,1145.64,312v-76.7a15.88,15.88,0,0,0-15.83-15.83h-28.35a15.87,15.87,0,0,0-15.82,15.82v40.91a15.27,15.27,0,0,0,15.27,15.27h3.26A15.47,15.47,0,0,0,1119.64,276v-81.7a15.88,15.88,0,0,1,15.83-15.83H1169a15.72,15.72,0,0,1,15.67,15.67V431.52"/><path class="cls-2" d="M939.64,509.06h186.84a12,12,0,0,0,12-12v-3.5a12,12,0,0,0-12-12h-27.84"/><path class="cls-2" d="M940.12,560.52a20,20,0,0,1-20-20l-.48-11.46a20,20,0,0,1,20-20"/><path class="cls-2" d="M1184.64,431.52V545a15.47,15.47,0,0,1-15.47,15.47h-229"/><path class="cls-1" d="M97.09,506.52H34.57a15.51,15.51,0,0,1-10.35-3.9L3.33,484"/><line class="cls-1" x1="599.05" y1="506.52" x2="97.09" y2="506.52"/></g></g></svg>