<svg xmlns="http://www.w3.org/2000/svg" viewBox="0 0 378.58 327.59"><defs><style>.cls-1{fill:none;stroke:#d1d1d1;stroke-miterlimit:10;stroke-width:10px;}</style></defs><title>line-about-3</title><g id="Layer_2" data-name="Layer 2"><g id="Layer_1-2" data-name="Layer 1"><path vector-effect="non-scaling-stroke" class="cls-1" d="M1.23,4.85C15.64,8.51,25.64,20.51,38.64,28.51c4,2,8,5,12,7a202.78,202.78,0,0,0,18,13c16,11,30,21,44,31,17,2,35,1,52,2,49,2,97-1,146-1a16.5,16.5,0,0,0,15-9c1-5,2-9,0-14-2-6-8-9-14-10-19-2-39-3-57,3-4,2-7,5-7,9,0,54-2,109,0,163,0,10,0,21-1,31,0,8,2,16,11,18,30,4,59,0,89,2,3,0,5-1,8-1,6,1,12,2,15,7,8,15,1,31,3,47.48"/></g></g></svg>