<svg xmlns="http://www.w3.org/2000/svg" viewBox="0 0 186.27 396.13"><defs><style>.cls-1{fill:none;}.cls-2{fill:none;stroke:none;stroke-miterlimit:10;stroke-width:20px;}</style></defs><title>line-advant-2</title><g id="Layer_2" data-name="Layer 2"><g id="Layer_1-2" data-name="Layer 1"><path class="cls-1" d="M79.85,199.63h-10V148.55H46.12a20.73,20.73,0,0,1-20.71-20.71V24A23.58,23.58,0,0,1,44.11.63a23.58,23.58,0,0,1,27,13.07l5.67,11.88a14.07,14.07,0,0,0,12.63,8h96.89v10H89.38A24.12,24.12,0,0,1,67.72,29.89L62,18a13.63,13.63,0,0,0-15.73-7.62A13.63,13.63,0,0,0,35.41,24v103.8a10.72,10.72,0,0,0,10.71,10.71H69.85v-23a25,25,0,0,1,25-25h21a25,25,0,0,1,25,25v8a25,25,0,0,1-25,25h-36Zm0-61.08h36a15,15,0,0,0,15-15v-8a15,15,0,0,0-15-15h-21a15,15,0,0,0-15,15Z"/><path class="cls-2" d="M74.85,199.63c0,19.26.18,38.24-8.7,55.33L4.57,394.1"/></g></g></svg>