<svg xmlns="http://www.w3.org/2000/svg" viewBox="0 0 1061.39 652.12"><defs><style>.cls-1,.cls-2{fill:none;stroke-miterlimit:10;stroke-width:20px;}.cls-1{stroke:none;}.cls-2{stroke:none;}</style></defs><title>line-about</title><g id="Layer_2" data-name="Layer 2"><g id="Layer_1-2" data-name="Layer 1"><path class="cls-1" d="M239.38,329.09l445.3.83a15.52,15.52,0,0,1,11.87,5.5l93.19,64.81a15.42,15.42,0,0,0,11.9,5.4H994.7a15.43,15.43,0,0,0,15.43-15.43V388a15.34,15.34,0,0,0-15.34-15.34H946.6a15.47,15.47,0,0,0-15.47,15.47v194.1a15.39,15.39,0,0,0,15.33,15.39l94.68.79a15.3,15.3,0,0,1,15.25,15.3v38.43"/><path class="cls-2" d="M1.39,4.8,182.39,57V381.06a15.57,15.57,0,0,1-15.57,15.57h-65.9A15.53,15.53,0,0,1,85.39,381.1V317.28A15.7,15.7,0,0,1,101,301.63h24.78a15.57,15.57,0,0,1,15.57,15.57v26a15.45,15.45,0,0,1-15.45,15.45H57.36a10,10,0,0,1-10-10l0-9.88a10,10,0,0,1,10-10l182,.34"/></g></g></svg>