<svg xmlns="http://www.w3.org/2000/svg" viewBox="0 0 187.73 402.32"><defs><style>.cls-1{fill:none;stroke:#e0e718;stroke-miterlimit:10;stroke-width:10px;}</style></defs><title>line-about-1</title><g id="Layer_2" data-name="Layer 2"><g id="Layer_1-2" data-name="Layer 1"><path vector-effect="non-scaling-stroke" class="cls-1" d="M1.28,4.83c22,5.83,44,12.83,67,18.83,5,2,9,3,14,5,3,1,7,1,10,2a7.58,7.58,0,0,0,4,2c3,1,7,1,10,2a73.66,73.66,0,0,0,14,4c21,7,41,13,62,18,0,108,1,217,0,325,0,3-2,6-3,9-2,4-7,6-11,6-25,0-49,2-74-1-4-3-8-7-9-12-1-23,0-45,0-68,0-3,2-6,3-8,3-3,8-5,12-6,12,0,24-3,35,3,3,3,6,6,6,10-1,15,6,37-12,44-26-1-51,2-77-1-7-4-5-12-5-19,1-5,4-10,10-10,43,0,86,0,129.45.36"/></g></g></svg>