<svg xmlns="http://www.w3.org/2000/svg" viewBox="0 0 584.19 166.85"><defs><style>.cls-1{fill:none;stroke:none;stroke-miterlimit:10;stroke-width:20px;}</style></defs><title>line-home</title><g id="Layer_2" data-name="Layer 2"><g id="Layer_1-2" data-name="Layer 1"><path class="cls-1" d="M5,0V64.2a20,20,0,0,0,20,20H65.46"/><path class="cls-1" d="M65.46,84.13H189.7a10,10,0,0,0,9.92-10V54.74a10,10,0,0,0-9.92-10h-38a10,10,0,0,0-9.92,10h0a10,10,0,0,0,9.92,10h59.88a10,10,0,0,0,9.92-10V30.19a10,10,0,0,0-9.92-10H116.27a10,10,0,0,0-9.92,10v85.2a16,16,0,0,0,16,16H248a16,16,0,0,0,16-16V88.49a10,10,0,0,1,11.72-9.86L582.88,162"/></g></g></svg>