<svg xmlns="http://www.w3.org/2000/svg" viewBox="0 0 521.34 565.52"><defs><style>.cls-1,.cls-2{fill:none;stroke-miterlimit:10;stroke-width:10px;}.cls-1{stroke:#d1d1d1;}.cls-2{stroke:#e0e718;}</style></defs><title>line-mission</title><g id="Layer_2" data-name="Layer 2"><g id="Layer_1-2" data-name="Layer 1"><path vector-effect="non-scaling-stroke" class="cls-1" d="M430.34,481.56q-19.5-.06-39,0c-5,1-11,4-12,9-2,15,6,38-14,42-14,2-18-13-23-23-2-2-4-4-5-7-20-38-39-73-60-110-1-2-1-4-2-6a7.81,7.81,0,0,0-4-4c-20-9-38-20-57-29-15-21-31-41-45.72-61-1.49,2,.66.88,0,0-38.28,52-75.28,102-115.28,156-15,19-26,38-43,54-2,2-4,5-9.43,4"/><path vector-effect="non-scaling-stroke" class="cls-2" d="M388.34,0V312.25a15.27,15.27,0,0,0,15.27,15.27h58.26A15.47,15.47,0,0,0,477.34,312v-76.7a15.88,15.88,0,0,0-15.83-15.83H433.16a15.87,15.87,0,0,0-15.82,15.82v40.91a15.27,15.27,0,0,0,15.27,15.27h3.26A15.47,15.47,0,0,0,451.34,276v-81.7a15.88,15.88,0,0,1,15.83-15.83h33.5a15.72,15.72,0,0,1,15.67,15.67V431.52"/><path vector-effect="non-scaling-stroke" class="cls-2" d="M271.34,509.06H458.18a12,12,0,0,0,12-12v-3.5a12,12,0,0,0-12-12H430.34"/><path vector-effect="non-scaling-stroke" class="cls-2" d="M271.82,560.52a20,20,0,0,1-20-20l-.48-11.46a20,20,0,0,1,20-20"/><path vector-effect="non-scaling-stroke" class="cls-2" d="M516.34,431.52V545a15.47,15.47,0,0,1-15.47,15.47h-229"/></g></g></svg>