<?xml version="1.0" encoding="utf-8"?>
<!-- Generator: Adobe Illustrator 19.2.0, SVG Export Plug-In . SVG Version: 6.00 Build 0)  -->
<svg version="1.1" id="Layer_1" xmlns="http://www.w3.org/2000/svg" xmlns:xlink="http://www.w3.org/1999/xlink" x="0px" y="0px"
	 viewBox="0 0 822 809.5" style="enable-background:new 0 0 822 809.5;" xml:space="preserve">
<style type="text/css">
	.st0{fill:none;stroke:#000000;stroke-width:10;stroke-miterlimit:10;}
</style>
<title>line-team</title>
<path id="Layer_2" vector-effect="non-scaling-stroke" class="st0" d="M103,472.6H21c-8.8,0-16-7.2-16-16V214c0-8.6,7-15.6,15.5-15.6h0h136.9c8.6,0,15.5-6.9,15.6-15.5
	V50.5L194.4,2 M628,809.5V714c0-8.6-7-15.6-15.6-15.6l0,0h-57.5c-8.6,0-15.9-6.9-15.9-15.5l0,0c0.2-8.7,7.3-15.6,15.9-15.5h246.5
	c8.6,0,15.5-6.9,15.5-15.5v-64.8c0-8.7-7-15.7-15.7-15.7h-94.8c-8.6,0-15.5,6.9-15.5,15.5v4.9c0,8.6,7,15.5,15.5,15.5h38.8
	c8.6,0,15.5-7,15.5-15.5l0.1-188.4c0-8.6-7-15.5-15.5-15.5h-86.8c-8.6,0-15.5,7-15.5,15.5V415c0,8.6-7,15.5-15.5,15.5c0,0,0,0,0,0
	l-60-0.1c-8.5,0-15.4-7-15.4-15.5v-99.6c0-8.5,6.9-15.4,15.4-15.4h31c8.6,0,15.6,7,15.6,10.7v141.4c0,13.5-7.1,20.5-15.7,20.5H103"
	/>
</svg>
