<svg xmlns="http://www.w3.org/2000/svg" viewBox="0 0 721.14 395.3"><defs><style>.cls-1{fill:none;stroke:#d2d2d2;}.cls-1,.cls-2{stroke-miterlimit:10;stroke-width:10px;}.cls-2{fill:#d3d3d3;stroke:#d3d3d3;}</style></defs><title>line-advantages_1</title><g id="Layer_2" data-name="Layer 2"><g id="Layer_1-2" data-name="Layer 1"><path class="cls-1" d="M74.85,198.8c0,19.26.18,38.24-8.7,55.33L4.57,393.27"/><path class="cls-1" d="M717.81,71.21,684.55,41.58a15.47,15.47,0,0,0-10.35-3.86H596.37a15.62,15.62,0,0,1-8.24-2.43L553.54,13.61a15.55,15.55,0,0,0-16-.25L499.22,35.55a15.63,15.63,0,0,1-7.79,2.17H423.13"/><path class="cls-2" d="M74.85,203.51V118.72M90.13,94.94h26.52m19.52,11.57c0-6.4-8.73-11.57-19.52-11.57m19.52,11.57v23.53m0,0c0,5.9-6.72,10.67-15,10.67m0,0H42.8M30.13,130.05c0,5.9,5.67,10.67,12.67,10.67M30.13,130.05V15.15m0,0C30.13,9.54,38,5,47.64,5M67.46,15.15C67.46,9.54,58.6,5,47.64,5M95.46,37.72h97.07m-117.68,81c0-13.14,6.83-23.78,15.28-23.78"/><path class="cls-1" d="M67.46,15.15c0,12.47,12.52,22.57,28,22.57"/></g></g></svg>