<svg id="Layer_1" data-name="Layer 1" xmlns="http://www.w3.org/2000/svg" viewBox="0 0 292.61 187.27"><title>line-advantages</title><path d="M1126.91,2399.84h185.22a14,14,0,0,1,14,14v75a14,14,0,0,1-14,14h-37a14,14,0,0,1-14-14v-17a14,14,0,0,1,14-14h3a14,14,0,0,1,14,14h0a14,14,0,0,1-14,14h-37a14,14,0,0,1-14-14v-22a14,14,0,0,1,14-14h161a12,12,0,0,1,10.7,17.43l-54.52,107.41a30,30,0,0,1-26.75,16.42h-205" transform="translate(-1126.55 -2394.84)" style="fill:none;stroke:#d0d0d0;stroke-miterlimit:10;stroke-width:10px"/></svg>