<svg xmlns="http://www.w3.org/2000/svg" viewBox="0 0 192.53 395.29"><defs><style>.cls-1{fill:none;stroke:#d2d2d2;}.cls-1,.cls-2{stroke-miterlimit:10;stroke-width:10px;}.cls-2{fill:#d3d3d3;stroke:#d3d3d3;}</style></defs><title>line-advantages-2</title><g id="Layer_2" data-name="Layer 2"><g id="Layer_1-2" data-name="Layer 1"><path vector-effect="non-scaling-stroke" class="cls-1" d="M74.85,198.8c0,19.26.18,38.24-8.7,55.33L4.57,393.27"/><path vector-effect="non-scaling-stroke" class="cls-2" d="M74.85,203.51V118.72M90.13,94.94h26.52m19.52,11.57c0-6.4-8.73-11.57-19.52-11.57m19.52,11.57V130m0,0c0,5.9-6.72,10.67-15,10.67m0,0H42.8M30.13,130.05c0,5.9,5.67,10.67,12.67,10.67M30.13,130.05V15.15m0,0C30.13,9.54,38,5,47.64,5M67.46,15.15C67.46,9.54,58.6,5,47.64,5M95.46,37.72h97.07m-117.68,81c0-13.14,6.83-23.78,15.28-23.78"/><path vector-effect="non-scaling-stroke" class="cls-1" d="M67.46,15.15c0,12.47,12.52,22.57,28,22.57"/></g></g></svg>