<svg xmlns="http://www.w3.org/2000/svg" viewBox="0 0 59.91 54.53"><defs><style>.cls-1{opacity:0.3;}.cls-2{fill:none;stroke:#000;stroke-miterlimit:10;}</style></defs><title>loader</title><g id="Layer_2" data-name="Layer 2"><g id="Layer_1-2" data-name="Layer 1"><g class="cls-1"><line class="cls-2" x1="26.67" y1="47.17" x2="18.51" y2="47.17"/><path class="cls-2" d="M1.06,47.17H.5V32.55H15.73a1,1,0,0,1,1,1v4.35a1,1,0,0,0,1,1h3.81a1,1,0,0,1,1,1h0a1,1,0,0,0,1.62.69L30,34.81a1,1,0,0,1,.66-.26h4.76v6.3"/><circle class="cls-2" cx="9.79" cy="47.53" r="6.49"/><circle class="cls-2" cx="9.79" cy="47.53" r="3.23"/><circle class="cls-2" cx="35.04" cy="47.53" r="6.49"/><circle class="cls-2" cx="35.04" cy="47.53" r="3.23"/><polyline class="cls-2" points="45.85 47.17 42.11 47.17 42.11 0"/><path class="cls-2" d="M30.91,34.17"/><path class="cls-2" d="M13.91,32.17"/><path class="cls-2" d="M13.91,32.17"/><path class="cls-2" d="M7.82,32.67l.11-19.5a3,3,0,0,1,3-3H21.88a10,10,0,0,1,9.16,6c1.59,3.69,3,9.4,3,18"/><path class="cls-2" d="M7.91,21.17h1.5a3,3,0,0,1,3,2.46l1.55,8.54"/><path class="cls-2" d="M32.91,24.17h-.55a6,6,0,0,0-6,5.42l-.81,9.49"/><line class="cls-2" x1="27.67" y1="26.67" x2="25.41" y2="25.75"/><line class="cls-2" x1="26.41" y1="22.17" x2="23.58" y2="28.33"/><polyline class="cls-2" points="45.41 18.67 45.41 50.17 59.91 50.17"/><line class="cls-2" x1="45.85" y1="24.6" x2="42.11" y2="24.6"/><rect class="cls-2" x="45.41" y="32.17" width="10.67" height="18"/><rect class="cls-2" x="45.41" y="22.17" width="8.11" height="10"/></g></g></g></svg>