<svg xmlns="http://www.w3.org/2000/svg" viewBox="0 0 97.19 41.13"><defs><style>.cls-1{opacity:0.6;}.cls-2{fill:none;stroke:#141414;stroke-miterlimit:10;}</style></defs><title>money</title><g id="Layer_2" data-name="Layer 2"><g id="Layer_1-2" data-name="Layer 1"><g class="cls-1"><line class="cls-2" x1="77.36" y1="36.51" x2="77.36" y2="7.07"/><path class="cls-2" d="M77.36,7.07H88.88a7.81,7.81,0,0,1,7.81,7.81h0a7.81,7.81,0,0,1-7.81,7.81h-17"/><line class="cls-2" x1="85.42" y1="28.16" x2="71.9" y2="28.16"/></g><g class="cls-1"><polyline class="cls-2" points="28.55 38.17 9.84 38.17 9.84 12.93 25.19 12.93"/><polyline class="cls-2" points="35.68 12.93 65.06 12.93 65.06 38.17 40.14 38.17"/><polyline class="cls-2" points="26.13 33.5 5.17 33.5 5.17 8.26 25.27 8.26"/><polyline class="cls-2" points="35.68 8.26 60.39 8.26 60.39 33.5 37.73 33.5"/><polyline class="cls-2" points="25.13 28.83 0.5 28.83 0.5 3.59 25.27 3.59"/><polyline class="cls-2" points="35.68 3.59 55.72 3.59 55.72 28.83 35.79 28.83"/><polygon class="cls-2" points="32.95 30.54 32.95 0.5 28.18 0.5 28.18 30.54 33.46 40.63 38.21 40.63 32.95 30.54"/></g></g></g></svg>