<svg xmlns="http://www.w3.org/2000/svg" xmlns:xlink="http://www.w3.org/1999/xlink" viewBox="0 0 66.68 39.93"><defs><style>.cls-1,.cls-2,.cls-5{fill:none;}.cls-2,.cls-5{stroke:#000;stroke-miterlimit:10;}.cls-2,.cls-3{opacity:0.3;}</style><clipPath id="clip-path"><path class="cls-1" d="M26.73,19.77a18.3,18.3,0,0,0,9.09,15.81A18.3,18.3,0,0,0,35.83,4,18.3,18.3,0,0,0,26.73,19.77Z"/></clipPath></defs><title>pl</title><g id="Layer_2" data-name="Layer 2"><g id="Layer_1-2" data-name="Layer 1"><circle class="cls-2" cx="45.05" cy="19.53" r="17.99"/><g class="cls-3"><g class="cls-4" clip-path="url(#clip-path)"><line class="cls-5" x1="19.48" y1="39.43" x2="59.89" y2="39.43"/><line class="cls-5" x1="19.48" y1="35.1" x2="59.89" y2="35.1"/><line class="cls-5" x1="19.48" y1="30.78" x2="59.89" y2="30.78"/><line class="cls-5" x1="19.48" y1="26.45" x2="59.89" y2="26.45"/><line class="cls-5" x1="19.48" y1="22.13" x2="59.89" y2="22.13"/><line class="cls-5" x1="19.48" y1="17.8" x2="59.89" y2="17.8"/><line class="cls-5" x1="19.48" y1="13.48" x2="59.89" y2="13.48"/><line class="cls-5" x1="19.48" y1="9.15" x2="59.89" y2="9.15"/><line class="cls-5" x1="19.48" y1="4.83" x2="59.89" y2="4.83"/><line class="cls-5" x1="19.48" y1="0.5" x2="59.89" y2="0.5"/></g></g><line class="cls-2" y1="19.13" x2="16.08" y2="19.13"/><polyline class="cls-2" points="11.53 13.66 17 19.13 11.53 24.61"/><path class="cls-2" d="M11.41,28.28c3.13,6,8.89,9.07,15.5,9.07a17.94,17.94,0,1,0,0-35.88,18.6,18.6,0,0,0-15.5,8.82"/><circle class="cls-2" cx="63.04" cy="19.58" r="3.14"/></g></g></svg>