<svg xmlns="http://www.w3.org/2000/svg" viewBox="0 0 66.68 37.06"><defs><style>.cls-1{opacity:0.3;}.cls-2,.cls-3{fill:none;}.cls-2{stroke:#000;stroke-miterlimit:10;}</style></defs><title>pl</title><g id="Layer_2" data-name="Layer 2"><g id="Layer_1-2" data-name="Layer 1"><g class="cls-1"><circle class="cls-2" cx="45.05" cy="18.57" r="17.99"/><line class="cls-2" x1="32.65" y1="31.27" x2="39.02" y2="31.27"/><line class="cls-2" x1="29.53" y1="26.95" x2="42.56" y2="26.95"/><line class="cls-2" x1="27.25" y1="22.62" x2="44.7" y2="22.62"/><line class="cls-2" x1="27.06" y1="18.3" x2="44.8" y2="18.3"/><line class="cls-2" x1="27.98" y1="13.97" x2="43.8" y2="13.97"/><line class="cls-2" x1="29.6" y1="9.64" x2="42.59" y2="9.64"/><line class="cls-2" x1="32.86" y1="5.32" x2="38.87" y2="5.32"/><path class="cls-3" d="M26.73,18.81a18.3,18.3,0,0,0,9.09,15.81A18.3,18.3,0,0,0,35.83,3,18.3,18.3,0,0,0,26.73,18.81Z"/><line class="cls-2" y1="18.17" x2="16.08" y2="18.17"/><polyline class="cls-2" points="11.53 12.7 17 18.17 11.53 23.64"/><path class="cls-2" d="M11.41,27.32c3.13,6,8.89,9.07,15.5,9.07A17.94,17.94,0,1,0,26.92.5a18.6,18.6,0,0,0-15.5,8.82"/><circle class="cls-2" cx="63.04" cy="18.62" r="3.14"/></g></g></g></svg>