<svg xmlns="http://www.w3.org/2000/svg" viewBox="0 0 83.55 56.92"><defs><style>.cls-1,.cls-2{fill:none;stroke:#d3d3d3;stroke-miterlimit:10;}.cls-2{stroke-dasharray:2.07 3.1;}</style></defs><title>ship</title><g id="Layer_2" data-name="Layer 2"><g id="Layer_1-2" data-name="Layer 1"><path class="cls-1" d="M61.8,56.42H12.68a7.34,7.34,0,0,1-7-5.11l-5-15.69h81.8l-15,18.14A7.34,7.34,0,0,1,61.8,56.42Z"/><line class="cls-1" x1="10.35" y1="41" x2="78.66" y2="41"/><polyline class="cls-1" points="69.06 34.98 62.43 20.34 6.64 20.34 6.64 34.98"/><polyline class="cls-1" points="55.12 19.46 55.12 10.31 12.37 10.31 12.37 19.46"/><polyline class="cls-1" points="27.32 9.65 27.32 0.5 18.33 0.5 18.33 9.65"/><polyline class="cls-1" points="43.04 9.65 43.04 0.5 34.05 0.5 34.05 9.65"/><line class="cls-1" x1="6.64" y1="27.66" x2="65.08" y2="27.66"/><line class="cls-1" x1="18.33" y1="15.55" x2="19.33" y2="15.55"/><line class="cls-2" x1="22.43" y1="15.55" x2="46.72" y2="15.55"/><line class="cls-1" x1="48.27" y1="15.55" x2="49.27" y2="15.55"/></g></g></svg>