<?xml version="1.0" encoding="utf-8"?>
<!-- Generator: Adobe Illustrator 16.0.0, SVG Export Plug-In . SVG Version: 6.00 Build 0)  -->
<!DOCTYPE svg PUBLIC "-//W3C//DTD SVG 1.1//EN" "http://www.w3.org/Graphics/SVG/1.1/DTD/svg11.dtd">
<svg version="1.1" id="Слой_1" xmlns="http://www.w3.org/2000/svg" xmlns:xlink="http://www.w3.org/1999/xlink" x="0px" y="0px"
	 width="226.79px" height="58.129px" viewBox="0 0 226.79 58.129" enable-background="new 0 0 226.79 58.129" xml:space="preserve">
<path fill="#75716B" d="M2.583,1.443c-0.628,0-1.139,0.514-1.139,1.142v26.981c0,0.629,0.511,1.139,1.139,1.139h18.717
	c0.629,0,1.138-0.51,1.138-1.139v-3.104c0-0.625-0.509-1.134-1.138-1.134H9.667c-1.423,0-2.582-1.159-2.582-2.583V2.585
	c0-0.628-0.508-1.142-1.139-1.142H2.583z M21.299,32.148H2.583C1.157,32.148,0,30.991,0,29.566V2.585C0,1.159,1.157,0,2.583,0h3.363
	C7.37,0,8.527,1.159,8.527,2.585v20.16c0,0.628,0.511,1.139,1.139,1.139h11.633c1.424,0,2.582,1.156,2.582,2.578v3.104
	C23.881,30.991,22.723,32.148,21.299,32.148"/>
<path fill="#75716B" d="M6.125,1.444c-0.628,0-1.139,0.513-1.139,1.141v15.172c0,0.629,0.511,1.139,1.139,1.139h22.259
	c0.628,0,1.139-0.51,1.139-1.139V2.585c0-0.628-0.511-1.141-1.139-1.141H6.125z M28.384,20.339H6.125
	c-1.424,0-2.582-1.159-2.582-2.582V2.585C3.542,1.159,4.701,0,6.125,0h22.259c1.425,0,2.583,1.159,2.583,2.585v15.172
	C30.967,19.18,29.809,20.339,28.384,20.339"/>
<path fill="#75716B" d="M2.582,51.135c-0.628,0-1.139,0.509-1.139,1.137v3.275c0,0.624,0.511,1.138,1.139,1.138h16.356
	c0.627,0,1.138-0.514,1.138-1.138V41.082c0-0.621-0.504-1.127-1.125-1.127l-9.183,0.072c-1.417,0-2.571-1.147-2.579-2.563
	l-0.006-0.577c-0.005-0.687,0.26-1.338,0.747-1.829c0.486-0.485,1.133-0.758,1.821-0.758h9.187c0.627,0,1.138-0.51,1.138-1.135
	v-4.213c0-0.626-0.511-1.137-1.138-1.137H2.582c-0.628,0-1.139,0.511-1.139,1.137v15.401c0,0.628,0.511,1.141,1.139,1.141h7.753
	c1.422,0,2.579,1.157,2.579,2.581v0.478c0,1.423-1.157,2.582-2.579,2.582H2.582z M18.938,58.129H2.582
	C1.158,58.129,0,56.97,0,55.547v-3.275c0-1.425,1.158-2.58,2.582-2.58h7.753c0.626,0,1.135-0.51,1.135-1.139v-0.478
	c0-0.626-0.509-1.139-1.135-1.139H2.582C1.158,46.937,0,45.777,0,44.354V28.953c0-1.42,1.158-2.582,2.582-2.582h16.356
	c1.421,0,2.581,1.162,2.581,2.582v4.213c0,1.422-1.16,2.578-2.581,2.578H9.751c-0.3,0-0.584,0.12-0.798,0.334
	c-0.214,0.215-0.329,0.497-0.329,0.801l0.007,0.578c0.004,0.621,0.515,1.127,1.137,1.127l9.183-0.071
	c1.417,0,2.568,1.151,2.568,2.569v14.465C21.519,56.97,20.359,58.129,18.938,58.129"/>
<path fill="#75716B" d="M41.549,33.756c-0.627,0-1.137,0.51-1.137,1.135v4.915c0,0.626,0.51,1.136,1.137,1.136h13.997
	c0.624,0,1.134-0.51,1.134-1.136V21.089c0-0.618-0.5-1.12-1.115-1.12l-7.683,0.084c-1.411,0-2.563-1.148-2.57-2.559l-0.006-1.58
	c-0.006-0.688,0.259-1.339,0.747-1.828c0.488-0.489,1.135-0.758,1.824-0.758h7.669c0.624,0,1.134-0.51,1.134-1.139V6.125
	c0-0.625-0.51-1.137-1.134-1.137H41.549c-0.627,0-1.137,0.512-1.137,1.137V26c0,0.623,0.51,1.135,1.137,1.135h6.402
	c1.423,0,2.582,1.158,2.582,2.584v1.46c0,1.42-1.159,2.577-2.582,2.577H41.549z M55.546,42.385H41.549
	c-1.424,0-2.581-1.156-2.581-2.579v-4.915c0-1.419,1.157-2.576,2.581-2.576h6.402c0.628,0,1.138-0.51,1.138-1.136v-1.46
	c0-0.63-0.51-1.14-1.138-1.14h-6.402c-1.424,0-2.581-1.158-2.581-2.58V6.125c0-1.424,1.157-2.58,2.581-2.58h13.997
	c1.421,0,2.578,1.156,2.578,2.58v6.065c0,1.424-1.157,2.583-2.578,2.583h-7.669c-0.303,0-0.588,0.118-0.8,0.332
	c-0.215,0.217-0.331,0.5-0.331,0.8l0.009,1.582c0.004,0.618,0.509,1.123,1.127,1.123l7.683-0.084c1.411,0,2.559,1.146,2.559,2.563
	v18.716C58.125,41.229,56.967,42.385,55.546,42.385"/>
<path fill="#75716B" d="M47.88,50.356c0.756,0,1.524,0.562,1.524,1.818v3.372c0,0.624,0.511,1.138,1.138,1.138h5.004
	c0.624,0,1.134-0.514,1.134-1.138V32.104c0-0.627-0.51-1.14-1.134-1.14H27.77c-0.626,0-1.138,0.513-1.138,1.14v23.442
	c0,0.624,0.512,1.138,1.138,1.138h4.522c0.625,0,1.137-0.514,1.137-1.138v-3.369c0-1.255,0.767-1.814,1.524-1.814
	c0.377,0,0.761,0.128,1.147,0.387l4.167,2.764c0.289,0.191,0.708,0.304,1.148,0.304s0.86-0.112,1.152-0.304l4.169-2.774
	C47.119,50.485,47.505,50.356,47.88,50.356 M55.546,58.129h-5.004c-1.424,0-2.58-1.159-2.58-2.582v-3.372
	c0-0.23-0.051-0.345-0.077-0.377H47.88c-0.062,0-0.187,0.038-0.346,0.146l-4.169,2.771c-0.53,0.354-1.222,0.547-1.951,0.547
	c-0.725,0-1.419-0.193-1.946-0.545l-4.169-2.767c-0.16-0.105-0.283-0.145-0.347-0.145h-0.006c-0.025,0.035-0.075,0.145-0.075,0.372
	v3.369c0,1.423-1.157,2.582-2.58,2.582H27.77c-1.423,0-2.58-1.159-2.58-2.582V32.104c0-1.424,1.157-2.581,2.58-2.581h27.777
	c1.421,0,2.578,1.157,2.578,2.581v23.442C58.125,56.97,56.967,58.129,55.546,58.129"/>
<path fill="#75716B" d="M13.208,7.35c-0.628,0-1.137,0.51-1.137,1.135v3.368c0,0.63,0.509,1.14,1.137,1.14h8.091
	c0.629,0,1.138-0.51,1.138-1.14V8.485c0-0.625-0.509-1.135-1.138-1.135H13.208z M21.299,14.436h-8.091
	c-1.422,0-2.581-1.159-2.581-2.583V8.485c0-1.42,1.159-2.578,2.581-2.578h8.091c1.424,0,2.582,1.158,2.582,2.578v3.368
	C23.881,13.277,22.723,14.436,21.299,14.436"/>
<path fill="#75716B" d="M32.104,1.446c-0.628,0-1.137,0.511-1.137,1.139v23.439c0,0.63,0.509,1.139,1.137,1.139h23.443
	c0.172,0,0.269-0.028,0.319-0.048c-0.013-0.052-0.05-0.145-0.155-0.285l-7.953-10.605c-0.462-0.617-0.576-1.274-0.31-1.807
	c0.265-0.532,0.858-0.836,1.631-0.836h6.468c0.624,0,1.134-0.512,1.134-1.137v-9.86c0-0.628-0.51-1.139-1.134-1.139H32.104z
	 M55.546,28.607H32.104c-1.423,0-2.581-1.159-2.581-2.583V2.585C29.522,1.159,30.681,0,32.104,0h23.443
	c1.421,0,2.578,1.159,2.578,2.585v9.86c0,1.421-1.157,2.58-2.578,2.58h-6.468c-0.177,0-0.274,0.026-0.323,0.049
	c0.014,0.05,0.053,0.146,0.157,0.284l7.952,10.604c0.464,0.616,0.576,1.276,0.311,1.807C56.911,28.301,56.315,28.607,55.546,28.607"
	/>
<path fill="#75716B" d="M19.115,4.988c-0.629,0-1.14,0.512-1.14,1.137v16.359c0,0.626,0.511,1.134,1.14,1.134h22.256
	c0.63,0,1.139-0.508,1.139-1.134V6.125c0-0.625-0.509-1.137-1.139-1.137h-4.398c-0.63,0-1.146,0.514-1.149,1.144l-0.061,9.271
	c-0.01,1.419-1.171,2.576-2.594,2.576h-5.852c-1.419,0-2.584-1.157-2.594-2.576l-0.06-9.271c-0.004-0.63-0.52-1.144-1.15-1.144
	H19.115z M41.371,25.062H19.115c-1.423,0-2.583-1.158-2.583-2.578V6.125c0-1.423,1.16-2.58,2.583-2.58h4.398
	c1.42,0,2.583,1.155,2.593,2.578l0.061,9.272c0.004,0.625,0.52,1.138,1.15,1.138h5.852c0.631,0,1.147-0.513,1.15-1.138l0.061-9.272
	c0.011-1.423,1.174-2.578,2.593-2.578h4.398c1.425,0,2.582,1.157,2.582,2.58v16.359C43.953,23.904,42.795,25.062,41.371,25.062"/>
<path fill="#75716B" d="M8.485,35.691c-0.625,0-1.138,0.51-1.138,1.139v18.717c0,0.624,0.513,1.138,1.138,1.138h19.899
	c0.628,0,1.139-0.514,1.139-1.138v-3.293c0-0.629-0.512-1.144-1.143-1.146l-11.563-0.057c-1.418-0.008-2.579-1.17-2.579-2.59v-4.547
	c0-1.423,1.161-2.58,2.583-2.58h11.563c0.628,0,1.139-0.511,1.139-1.138V36.83c0-0.629-0.511-1.139-1.139-1.139H8.485z
	 M28.384,58.129H8.485c-1.422,0-2.581-1.159-2.581-2.582V36.83c0-1.425,1.159-2.582,2.581-2.582h19.899
	c1.425,0,2.583,1.157,2.583,2.582v3.366c0,1.423-1.158,2.579-2.583,2.579H16.821c-0.627,0-1.136,0.512-1.136,1.139v4.547
	c0,0.63,0.509,1.145,1.141,1.146l11.562,0.057c1.421,0.008,2.579,1.168,2.579,2.59v3.293C30.967,56.97,29.809,58.129,28.384,58.129"
	/>
<path fill="#75716B" d="M73.994,42.456h4.153v-4.151h-4.153V13.392h-4.152v24.913C69.842,42.456,73.994,42.456,73.994,42.456"/>
<path fill="#75716B" d="M111.36,13.392h-4.151c0,0-4.152,0-4.152,4.152v24.912h4.152V17.544h4.151V13.392z"/>
<path fill="#75716B" d="M127.97,38.304h-8.306V13.392h-4.151v24.912c0,4.152,4.151,4.152,4.151,4.152h8.306c0,0,4.151,0,4.151-4.152
	V13.392h-4.151V38.304z"/>
<path fill="#75716B" d="M148.73,25.848h-8.305v-8.304h8.305v-4.151h-8.305c0,0-4.151,0-4.151,4.151v8.304
	c0,4.152,4.151,4.152,4.151,4.152h8.305v8.305h-12.456v4.151h12.456c4.151,0,4.151-4.151,4.151-4.151V30
	C152.881,25.848,148.73,25.848,148.73,25.848"/>
<path fill="#75716B" d="M181.117,38.304V30c0,0,0-4.152-4.153-4.152h-8.303v-8.304h8.303v-4.152h-8.303
	c-4.152,0-4.152,4.152-4.152,4.152v8.304c0,0,0,4.152,4.152,4.152h8.303v8.304h-12.455v4.152h12.455
	C181.117,42.456,181.117,38.304,181.117,38.304"/>
<path fill="#75716B" d="M185.268,17.544v20.76c0,4.152,4.152,4.152,4.152,4.152h4.152v-4.152h-4.152v-20.76h4.152v-4.152h-4.152
	C189.42,13.392,185.268,13.392,185.268,17.544"/>
<path fill="#75716B" d="M222.636,13.392h-20.759c0,0-4.152,0-4.152,4.152v24.912h4.152V17.544h8.304v24.912h4.152V17.544h8.303
	v24.912h4.153V17.544C226.79,13.392,222.636,13.392,222.636,13.392"/>
<path fill="#75716B" d="M98.905,17.544c0-4.153-4.152-4.153-4.152-4.153h-8.303c0,0-4.154,0-4.154,4.153v20.76
	c0,4.151,4.154,4.151,4.154,4.151h8.303c0,0,4.152,0,4.152-4.151V17.544z M94.753,38.305H86.45v-20.76h8.303V38.305z"/>
<rect x="102.985" y="50.11" fill="#75716B" width="0.813" height="7.623"/>
<polygon fill="#75716B" points="110.929,56.204 106.882,50.11 106.112,50.11 106.112,57.733 106.926,57.733 106.926,51.62 
	110.975,57.733 111.746,57.733 111.746,50.11 110.929,50.11 "/>
<polygon fill="#75716B" points="119.422,50.11 118.426,50.11 114.872,54.488 114.872,50.11 114.057,50.11 114.057,57.733 
	114.872,57.733 114.872,55.604 116.479,53.677 118.801,57.733 119.764,57.733 117.023,53.056 "/>
<polygon fill="#75716B" points="99.86,53.526 96.238,53.526 96.238,50.111 95.425,50.111 95.425,57.733 96.238,57.733 
	96.238,54.254 99.86,54.254 99.86,57.733 100.672,57.733 100.672,50.111 99.86,50.111 "/>
<polygon fill="#75716B" points="133.346,56.256 131.667,50.11 130.938,50.11 129.258,56.256 127.77,50.11 126.902,50.11 
	128.851,57.733 129.612,57.733 131.301,51.633 132.994,57.733 133.754,57.733 135.705,50.11 134.836,50.11 "/>
<polygon fill="#75716B" points="76.531,56.256 74.852,50.11 74.122,50.11 72.442,56.256 70.953,50.11 70.085,50.11 72.035,57.733 
	72.795,57.733 74.487,51.633 76.179,57.733 76.938,57.733 78.888,50.11 78.021,50.11 "/>
<polygon fill="#75716B" points="88.667,50.838 90.875,50.838 90.875,57.733 91.688,57.733 91.688,50.838 93.895,50.838 
	93.895,50.11 88.667,50.11 "/>
<polygon fill="#75716B" points="80.269,57.733 85,57.733 85,57.006 81.083,57.006 81.083,54.254 84.423,54.254 84.423,53.526 
	81.083,53.526 81.083,50.838 85,50.838 85,50.11 80.269,50.11 "/>
<path fill="#75716B" d="M157.488,50.049c-0.761,0-1.433,0.276-1.948,0.789c-0.717,0.719-0.717,1.467-0.717,3.086
	c0,1.615,0,2.365,0.717,3.082c0.516,0.515,1.188,0.793,1.948,0.793s1.435-0.278,1.949-0.793c0.72-0.717,0.72-1.467,0.72-3.082
	c0-1.619,0-2.367-0.72-3.086C158.922,50.325,158.249,50.049,157.488,50.049 M158.807,56.526c-0.334,0.341-0.816,0.545-1.319,0.545
	c-0.502,0-0.985-0.204-1.317-0.545c-0.48-0.494-0.535-1.009-0.535-2.603c0-1.596,0.055-2.109,0.535-2.603
	c0.332-0.343,0.815-0.546,1.317-0.546c0.503,0,0.985,0.203,1.319,0.546c0.479,0.493,0.533,1.007,0.533,2.603
	C159.34,55.518,159.286,56.032,158.807,56.526"/>
<polygon fill="#75716B" points="168.025,57.733 172.758,57.733 172.758,57.006 168.84,57.006 168.84,54.254 172.18,54.254 
	172.18,53.526 168.84,53.526 168.84,50.838 172.758,50.838 172.758,50.11 168.025,50.11 "/>
<polygon fill="#75716B" points="149.565,55.518 147.079,50.111 146.266,50.111 146.266,57.733 147.079,57.733 147.079,51.943 
	149.2,56.537 149.895,56.537 151.985,51.943 151.985,57.733 152.799,57.733 152.799,50.111 151.985,50.111 "/>
<polygon fill="#75716B" points="163.891,56.279 161.911,50.11 161.052,50.11 163.558,57.733 164.224,57.733 166.729,50.11 
	165.872,50.11 "/>
<polygon fill="#75716B" points="137.084,57.733 141.817,57.733 141.817,57.006 137.901,57.006 137.901,54.254 141.241,54.254 
	141.241,53.526 137.901,53.526 137.901,50.838 141.817,50.838 141.817,50.11 137.084,50.11 "/>
<rect x="121.768" y="53.592" fill="#75716B" width="3.31" height="0.664"/>
</svg>
