<svg xmlns="http://www.w3.org/2000/svg" viewBox="0 0 217.6 55.77"><defs><style>.cls-1{fill:#e0e718;}.cls-2{fill:#7a868c;}</style></defs><title>logo</title><g id="Layer_2" data-name="Layer 2"><g id="Layer_1-2" data-name="Layer 1"><path class="cls-1" d="M2.48,1.38A1.1,1.1,0,0,0,1.38,2.48V28.37a1.09,1.09,0,0,0,1.09,1.09h18a1.09,1.09,0,0,0,1.09-1.09v-3a1.09,1.09,0,0,0-1.09-1.09H9.28A2.48,2.48,0,0,1,6.8,21.82V2.48A1.09,1.09,0,0,0,5.7,1.38Zm18,29.46h-18A2.48,2.48,0,0,1,0,28.37V2.48A2.48,2.48,0,0,1,2.48,0H5.7A2.48,2.48,0,0,1,8.18,2.48V21.82a1.09,1.09,0,0,0,1.09,1.09H20.44a2.48,2.48,0,0,1,2.48,2.47v3a2.48,2.48,0,0,1-2.48,2.48"/><path class="cls-1" d="M5.88,1.38A1.1,1.1,0,0,0,4.78,2.48V17a1.09,1.09,0,0,0,1.09,1.09H27.23A1.09,1.09,0,0,0,28.33,17V2.48a1.1,1.1,0,0,0-1.09-1.09ZM27.23,19.51H5.88A2.48,2.48,0,0,1,3.4,17V2.48A2.48,2.48,0,0,1,5.88,0H27.23a2.48,2.48,0,0,1,2.48,2.48V17a2.48,2.48,0,0,1-2.48,2.48"/><path class="cls-1" d="M2.48,49.06a1.09,1.09,0,0,0-1.09,1.09V53.3a1.1,1.1,0,0,0,1.09,1.09H18.17a1.09,1.09,0,0,0,1.09-1.09V39.42a1.08,1.08,0,0,0-1.08-1.08l-8.81.07A2.48,2.48,0,0,1,6.9,35.95v-.55a2.47,2.47,0,0,1,2.46-2.48h8.81a1.09,1.09,0,0,0,1.09-1.09v-4a1.09,1.09,0,0,0-1.09-1.09H2.48a1.09,1.09,0,0,0-1.09,1.09V42.56a1.1,1.1,0,0,0,1.09,1.09H9.92a2.48,2.48,0,0,1,2.47,2.48v.46a2.48,2.48,0,0,1-2.47,2.48Zm15.69,6.71H2.48A2.48,2.48,0,0,1,0,53.3V50.15a2.48,2.48,0,0,1,2.48-2.48H9.92A1.09,1.09,0,0,0,11,46.59v-.46A1.09,1.09,0,0,0,9.92,45H2.48A2.48,2.48,0,0,1,0,42.56V27.78A2.48,2.48,0,0,1,2.48,25.3H18.17a2.48,2.48,0,0,1,2.48,2.48v4a2.48,2.48,0,0,1-2.48,2.47H9.36a1.09,1.09,0,0,0-1.08,1.09v.56A1.09,1.09,0,0,0,9.37,37L18.18,37a2.47,2.47,0,0,1,2.46,2.47V53.3a2.48,2.48,0,0,1-2.48,2.48"/><path class="cls-1" d="M39.87,32.39a1.09,1.09,0,0,0-1.09,1.09v4.72a1.09,1.09,0,0,0,1.09,1.09H53.3a1.09,1.09,0,0,0,1.09-1.09v-18a1.07,1.07,0,0,0-1.07-1.07l-7.37.08a2.47,2.47,0,0,1-2.47-2.45V15.27a2.47,2.47,0,0,1,2.47-2.48H53.3a1.09,1.09,0,0,0,1.09-1.09V5.88A1.09,1.09,0,0,0,53.3,4.79H39.87a1.09,1.09,0,0,0-1.09,1.09V24.95A1.09,1.09,0,0,0,39.87,26H46a2.48,2.48,0,0,1,2.48,2.48v1.4A2.48,2.48,0,0,1,46,32.39ZM53.3,40.67H39.87a2.48,2.48,0,0,1-2.48-2.47V33.48A2.48,2.48,0,0,1,39.87,31H46a1.09,1.09,0,0,0,1.09-1.09v-1.4A1.09,1.09,0,0,0,46,27.42H39.87a2.48,2.48,0,0,1-2.48-2.48V5.88A2.48,2.48,0,0,1,39.87,3.4H53.3a2.48,2.48,0,0,1,2.47,2.48V11.7a2.48,2.48,0,0,1-2.47,2.48H45.94a1.09,1.09,0,0,0-1.09,1.09v1.52a1.09,1.09,0,0,0,1.08,1.08l7.37-.08a2.46,2.46,0,0,1,2.46,2.46v18a2.48,2.48,0,0,1-2.47,2.47"/><path class="cls-1" d="M45.94,48.32c.73,0,1.46.54,1.46,1.74V53.3a1.1,1.1,0,0,0,1.09,1.09h4.8a1.09,1.09,0,0,0,1.09-1.09V30.8a1.09,1.09,0,0,0-1.09-1.09H26.64a1.1,1.1,0,0,0-1.09,1.09V53.3a1.1,1.1,0,0,0,1.09,1.09H31a1.1,1.1,0,0,0,1.09-1.09V50.06c0-1.2.74-1.74,1.46-1.74a2,2,0,0,1,1.1.37l4,2.65a2.23,2.23,0,0,0,2.21,0l4-2.66a2,2,0,0,1,1.1-.37m7.36,7.46H48.5A2.48,2.48,0,0,1,46,53.3V50.06a.66.66,0,0,0-.07-.36h0a.7.7,0,0,0-.33.14l-4,2.66a3.6,3.6,0,0,1-3.74,0l-4-2.65a.71.71,0,0,0-.33-.14h0a.65.65,0,0,0-.07.36V53.3A2.48,2.48,0,0,1,31,55.77H26.64a2.48,2.48,0,0,1-2.48-2.48V30.8a2.48,2.48,0,0,1,2.48-2.48H53.3a2.48,2.48,0,0,1,2.47,2.48V53.3a2.48,2.48,0,0,1-2.47,2.48"/><path class="cls-1" d="M12.67,7.05a1.09,1.09,0,0,0-1.09,1.09v3.23a1.09,1.09,0,0,0,1.09,1.09h7.76a1.09,1.09,0,0,0,1.09-1.09V8.14a1.09,1.09,0,0,0-1.09-1.09Zm7.76,6.8H12.67a2.48,2.48,0,0,1-2.48-2.48V8.14a2.48,2.48,0,0,1,2.48-2.47h7.76a2.48,2.48,0,0,1,2.48,2.47v3.23a2.48,2.48,0,0,1-2.48,2.48"/><path class="cls-1" d="M30.8,1.39a1.09,1.09,0,0,0-1.09,1.09V25a1.09,1.09,0,0,0,1.09,1.09H53.3a.84.84,0,0,0,.31,0,.81.81,0,0,0-.15-.27L45.82,15.57a1.65,1.65,0,0,1-.3-1.73,1.64,1.64,0,0,1,1.56-.8H53.3a1.09,1.09,0,0,0,1.09-1.09V2.48A1.09,1.09,0,0,0,53.3,1.39ZM53.3,27.45H30.8A2.48,2.48,0,0,1,28.33,25V2.48A2.48,2.48,0,0,1,30.8,0H53.3a2.48,2.48,0,0,1,2.47,2.48v9.46a2.48,2.48,0,0,1-2.47,2.48H47.09a.77.77,0,0,0-.31,0,.84.84,0,0,0,.15.27l7.63,10.18a1.49,1.49,0,0,1-1.26,2.54"/><path class="cls-1" d="M18.34,4.79a1.09,1.09,0,0,0-1.09,1.09v15.7a1.09,1.09,0,0,0,1.09,1.09H39.69a1.09,1.09,0,0,0,1.09-1.09V5.88a1.09,1.09,0,0,0-1.09-1.09H35.48a1.11,1.11,0,0,0-1.1,1.1l-.06,8.9a2.49,2.49,0,0,1-2.49,2.47H26.21a2.5,2.5,0,0,1-2.49-2.47l-.06-8.9a1.11,1.11,0,0,0-1.1-1.1ZM39.69,24H18.34a2.48,2.48,0,0,1-2.48-2.47V5.88A2.48,2.48,0,0,1,18.34,3.4h4.22A2.5,2.5,0,0,1,25,5.87l.06,8.9a1.11,1.11,0,0,0,1.1,1.09h5.61a1.1,1.1,0,0,0,1.1-1.09L33,5.87A2.5,2.5,0,0,1,35.48,3.4h4.22a2.48,2.48,0,0,1,2.48,2.48v15.7A2.48,2.48,0,0,1,39.69,24"/><path class="cls-1" d="M8.14,34.25A1.09,1.09,0,0,0,7,35.34v18a1.1,1.1,0,0,0,1.09,1.09H27.23a1.1,1.1,0,0,0,1.09-1.09V50.14a1.1,1.1,0,0,0-1.1-1.1L16.14,49a2.5,2.5,0,0,1-2.47-2.49V42.14a2.48,2.48,0,0,1,2.48-2.48H27.23a1.09,1.09,0,0,0,1.09-1.09V35.34a1.09,1.09,0,0,0-1.09-1.09ZM27.23,55.77H8.14A2.48,2.48,0,0,1,5.66,53.3v-18a2.48,2.48,0,0,1,2.48-2.48H27.23a2.48,2.48,0,0,1,2.48,2.48v3.23A2.48,2.48,0,0,1,27.23,41H16.14A1.09,1.09,0,0,0,15,42.14V46.5a1.1,1.1,0,0,0,1.1,1.1l11.09.05a2.49,2.49,0,0,1,2.47,2.48V53.3a2.48,2.48,0,0,1-2.48,2.48"/><path class="cls-2" d="M71,40.74h4v-4H71V12.85H67v23.9C67,40.74,71,40.74,71,40.74Z"/><path class="cls-2" d="M106.85,12.85h-4s-4,0-4,4v23.9h4V16.83h4Z"/><path class="cls-2" d="M122.79,36.75h-8V12.85h-4v23.9c0,4,4,4,4,4h8s4,0,4-4V12.85h-4Z"/><path class="cls-2" d="M142.71,24.8h-8v-8h8v-4h-8s-4,0-4,4v8c0,4,4,4,4,4h8v8h-12v4h12c4,0,4-4,4-4v-8C146.69,24.8,142.71,24.8,142.71,24.8Z"/><path class="cls-2" d="M173.78,36.75v-8s0-4-4-4h-8v-8h8v-4h-8c-4,0-4,4-4,4v8s0,4,4,4h8v8h-12v4h12C173.78,40.74,173.78,36.75,173.78,36.75Z"/><path class="cls-2" d="M177.76,16.83V36.75c0,4,4,4,4,4h4v-4h-4V16.83h4v-4h-4S177.76,12.85,177.76,16.83Z"/><path class="cls-2" d="M213.62,12.85H193.7s-4,0-4,4v23.9h4V16.83h8v23.9h4V16.83h8v23.9h4V16.83C217.6,12.85,213.62,12.85,213.62,12.85Z"/><path class="cls-2" d="M94.9,16.83c0-4-4-4-4-4h-8s-4,0-4,4V36.75c0,4,4,4,4,4h8s4,0,4-4Zm-4,19.92h-8V16.83h8Z"/><rect class="cls-2" x="98.81" y="48.08" width="0.78" height="7.31"/><polygon class="cls-2" points="106.44 53.93 102.55 48.08 101.81 48.08 101.81 55.39 102.59 55.39 102.59 49.53 106.48 55.39 107.22 55.39 107.22 48.08 106.44 48.08 106.44 53.93"/><polygon class="cls-2" points="114.58 48.08 113.63 48.08 110.22 52.28 110.22 48.08 109.44 48.08 109.44 55.39 110.22 55.39 110.22 53.35 111.76 51.5 113.99 55.39 114.91 55.39 112.28 50.91 114.58 48.08"/><polygon class="cls-2" points="95.81 51.36 92.34 51.36 92.34 48.08 91.56 48.08 91.56 55.39 92.34 55.39 92.34 52.06 95.81 52.06 95.81 55.39 96.59 55.39 96.59 48.08 95.81 48.08 95.81 51.36"/><polygon class="cls-2" points="127.94 53.98 126.33 48.08 125.63 48.08 124.02 53.98 122.59 48.08 121.76 48.08 123.63 55.39 124.36 55.39 125.98 49.54 127.61 55.39 128.34 55.39 130.21 48.08 129.38 48.08 127.94 53.98"/><polygon class="cls-2" points="73.43 53.98 71.82 48.08 71.12 48.08 69.51 53.98 68.08 48.08 67.25 48.08 69.12 55.39 69.85 55.39 71.47 49.54 73.09 55.39 73.82 55.39 75.69 48.08 74.86 48.08 73.43 53.98"/><polygon class="cls-2" points="85.08 48.78 87.19 48.78 87.19 55.39 87.97 55.39 87.97 48.78 90.09 48.78 90.09 48.08 85.08 48.08 85.08 48.78"/><polygon class="cls-2" points="77.02 55.39 81.56 55.39 81.56 54.7 77.8 54.7 77.8 52.06 81 52.06 81 51.36 77.8 51.36 77.8 48.78 81.56 48.78 81.56 48.08 77.02 48.08 77.02 55.39"/><path class="cls-2" d="M151.11,48a2.59,2.59,0,0,0-1.87.76c-.69.69-.69,1.41-.69,3s0,2.27.69,3a2.68,2.68,0,0,0,3.74,0c.69-.69.69-1.41.69-3s0-2.27-.69-3A2.59,2.59,0,0,0,151.11,48Zm1.27,6.22a1.79,1.79,0,0,1-2.53,0c-.46-.47-.51-1-.51-2.5s.05-2,.51-2.5a1.79,1.79,0,0,1,2.53,0c.46.47.51,1,.51,2.5S152.83,53.76,152.37,54.24Z"/><polygon class="cls-2" points="161.22 55.39 165.76 55.39 165.76 54.7 162 54.7 162 52.06 165.21 52.06 165.21 51.36 162 51.36 162 48.78 165.76 48.78 165.76 48.08 161.22 48.08 161.22 55.39"/><polygon class="cls-2" points="143.51 53.27 141.12 48.08 140.34 48.08 140.34 55.39 141.12 55.39 141.12 49.84 143.16 54.25 143.82 54.25 145.83 49.84 145.83 55.39 146.61 55.39 146.61 48.08 145.83 48.08 143.51 53.27"/><polygon class="cls-2" points="157.25 54 155.35 48.08 154.53 48.08 156.93 55.39 157.57 55.39 159.97 48.08 159.15 48.08 157.25 54"/><polygon class="cls-2" points="131.53 55.39 136.07 55.39 136.07 54.7 132.31 54.7 132.31 52.06 135.52 52.06 135.52 51.36 132.31 51.36 132.31 48.78 136.07 48.78 136.07 48.08 131.53 48.08 131.53 55.39"/><rect class="cls-2" x="116.83" y="51.42" width="3.18" height="0.64"/></g></g></svg>