<svg id="Layer_1" data-name="Layer 1" xmlns="http://www.w3.org/2000/svg" viewBox="0 0 217.6 55.77"><defs><style>.cls-1{fill:#e2e71f}.cls-2{fill:#7d868c}</style></defs><title>footer-logo</title><path class="cls-1" d="M5619.91 2268.56a1.1 1.1 0 0 0-1.09 1.09v25.89a1.09 1.09 0 0 0 1.09 1.09h18a1.09 1.09 0 0 0 1.09-1.09v-3a1.09 1.09 0 0 0-1.09-1.09h-11.16a2.48 2.48 0 0 1-2.48-2.48v-19.34a1.09 1.09 0 0 0-1.09-1.09h-3.23zm18 29.46h-18a2.48 2.48 0 0 1-2.48-2.48v-25.89a2.48 2.48 0 0 1 2.48-2.48h3.23a2.48 2.48 0 0 1 2.48 2.48V2289a1.09 1.09 0 0 0 1.09 1.09h11.16a2.48 2.48 0 0 1 2.48 2.47v3a2.48 2.48 0 0 1-2.48 2.48" transform="translate(-5617.43 -2267.18)"/><path class="cls-1" d="M5623.31 2268.56a1.1 1.1 0 0 0-1.09 1.09v14.56a1.09 1.09 0 0 0 1.09 1.09h21.36a1.09 1.09 0 0 0 1.09-1.09v-14.56a1.1 1.1 0 0 0-1.09-1.09h-21.36zm21.36 18.13h-21.36a2.48 2.48 0 0 1-2.48-2.48v-14.56a2.48 2.48 0 0 1 2.48-2.48h21.36a2.48 2.48 0 0 1 2.48 2.48v14.56a2.48 2.48 0 0 1-2.48 2.48m-24.76 29.55a1.09 1.09 0 0 0-1.09 1.09v3.14a1.1 1.1 0 0 0 1.09 1.09h15.69a1.09 1.09 0 0 0 1.09-1.09v-13.88a1.08 1.08 0 0 0-1.08-1.08l-8.81.07a2.48 2.48 0 0 1-2.48-2.46v-.55a2.47 2.47 0 0 1 2.46-2.48h8.81a1.09 1.09 0 0 0 1.09-1.09v-4a1.09 1.09 0 0 0-1.09-1.09h-15.69a1.09 1.09 0 0 0-1.09 1.09v14.78a1.1 1.1 0 0 0 1.09 1.09h7.44a2.48 2.48 0 0 1 2.47 2.48v.46a2.48 2.48 0 0 1-2.47 2.48h-7.44zm15.69 6.71h-15.69a2.48 2.48 0 0 1-2.48-2.48v-3.14a2.48 2.48 0 0 1 2.48-2.48h7.44a1.09 1.09 0 0 0 1.09-1.09v-.46a1.09 1.09 0 0 0-1.09-1.09h-7.44a2.48 2.48 0 0 1-2.48-2.48V2295a2.48 2.48 0 0 1 2.48-2.48h15.69a2.48 2.48 0 0 1 2.48 2.48v4a2.48 2.48 0 0 1-2.48 2.47h-8.81a1.09 1.09 0 0 0-1.08 1.09v.56a1.09 1.09 0 0 0 1.09 1.08l8.81-.07a2.47 2.47 0 0 1 2.46 2.47v13.88a2.48 2.48 0 0 1-2.48 2.48m21.71-23.4a1.09 1.09 0 0 0-1.09 1.09v4.72a1.09 1.09 0 0 0 1.09 1.09h13.43a1.09 1.09 0 0 0 1.09-1.09v-18a1.07 1.07 0 0 0-1.07-1.07l-7.37.08a2.47 2.47 0 0 1-2.47-2.45v-1.52a2.47 2.47 0 0 1 2.47-2.48h7.36a1.09 1.09 0 0 0 1.09-1.09v-5.82a1.09 1.09 0 0 0-1.09-1.09h-13.44a1.09 1.09 0 0 0-1.09 1.09v19.07a1.09 1.09 0 0 0 1.09 1.09h6.14a2.48 2.48 0 0 1 2.48 2.48v1.4a2.48 2.48 0 0 1-2.48 2.47h-6.14zm13.43 8.28h-13.43a2.48 2.48 0 0 1-2.48-2.47v-4.72a2.48 2.48 0 0 1 2.48-2.47h6.14a1.09 1.09 0 0 0 1.09-1.09v-1.4a1.09 1.09 0 0 0-1.09-1.09h-6.14a2.48 2.48 0 0 1-2.48-2.48v-19.07a2.48 2.48 0 0 1 2.48-2.48h13.43a2.48 2.48 0 0 1 2.47 2.48v5.82a2.48 2.48 0 0 1-2.47 2.48h-7.36a1.09 1.09 0 0 0-1.09 1.09v1.56a1.09 1.09 0 0 0 1.08 1.08l7.37-.08a2.46 2.46 0 0 1 2.46 2.46v18a2.48 2.48 0 0 1-2.47 2.47" transform="translate(-5617.43 -2267.18)"/><path class="cls-1" d="M5663.37 2315.49a1.53 1.53 0 0 1 1.46 1.74v3.24a1.1 1.1 0 0 0 1.09 1.09h4.8a1.09 1.09 0 0 0 1.09-1.09V2298a1.09 1.09 0 0 0-1.09-1.09h-26.65a1.1 1.1 0 0 0-1.07 1.09v22.49a1.1 1.1 0 0 0 1.09 1.09h4.34a1.1 1.1 0 0 0 1.09-1.09v-3.23a1.52 1.52 0 0 1 1.46-1.74 2 2 0 0 1 1.1.37l4 2.65a2.23 2.23 0 0 0 2.21 0l4-2.66a2 2 0 0 1 1.1-.37m7.36 7.46h-4.8a2.48 2.48 0 0 1-2.48-2.48v-3.24a.66.66 0 0 0-.07-.36.7.7 0 0 0-.33.14l-4 2.66a3.6 3.6 0 0 1-3.74 0l-4-2.65a.71.71 0 0 0-.33-.14.65.65 0 0 0-.07.36v3.23a2.48 2.48 0 0 1-2.48 2.48h-4.34a2.48 2.48 0 0 1-2.48-2.48V2298a2.48 2.48 0 0 1 2.48-2.48h26.65a2.48 2.48 0 0 1 2.47 2.48v22.49a2.48 2.48 0 0 1-2.47 2.48m-40.66-48.74a1.09 1.09 0 0 0-1.09 1.09v3.23a1.09 1.09 0 0 0 1.09 1.09h7.76a1.09 1.09 0 0 0 1.09-1.09v-3.23a1.09 1.09 0 0 0-1.09-1.09h-7.76zm7.76 6.8h-7.76a2.48 2.48 0 0 1-2.48-2.48v-3.23a2.48 2.48 0 0 1 2.48-2.47h7.76a2.48 2.48 0 0 1 2.48 2.47v3.23a2.48 2.48 0 0 1-2.48 2.48m10.37-12.47a1.09 1.09 0 0 0-1.09 1.09v22.49a1.09 1.09 0 0 0 1.09 1.09h22.49a.84.84 0 0 0 .31 0 .81.81 0 0 0-.15-.27l-7.63-10.18a1.49 1.49 0 0 1 1.27-2.54h6.21a1.09 1.09 0 0 0 1.09-1.09v-9.46a1.09 1.09 0 0 0-1.09-1.09h-22.49zm22.49 26.06h-22.49a2.48 2.48 0 0 1-2.48-2.48v-22.49a2.48 2.48 0 0 1 2.48-2.48h22.49a2.48 2.48 0 0 1 2.47 2.48v9.46a2.48 2.48 0 0 1-2.47 2.48h-6.21a.77.77 0 0 0-.31 0 .84.84 0 0 0 .15.27l7.63 10.18a1.49 1.49 0 0 1-1.26 2.54" transform="translate(-5617.43 -2267.18)"/><path class="cls-1" d="M5635.77 2272a1.09 1.09 0 0 0-1.09 1.09v15.7a1.09 1.09 0 0 0 1.09 1.09h21.35a1.09 1.09 0 0 0 1.09-1.09v-15.7a1.09 1.09 0 0 0-1.09-1.09h-4.22a1.11 1.11 0 0 0-1.1 1.1l-.06 8.9a2.49 2.49 0 0 1-2.49 2.47h-5.61a2.5 2.5 0 0 1-2.49-2.47l-.06-8.9a1.11 1.11 0 0 0-1.1-1.1h-4.22zm21.35 19.26h-21.35a2.48 2.48 0 0 1-2.48-2.47v-15.7a2.48 2.48 0 0 1 2.48-2.48h4.23a2.5 2.5 0 0 1 2.49 2.47l.06 8.9a1.11 1.11 0 0 0 1.1 1.09h5.61a1.1 1.1 0 0 0 1.1-1.09l.06-8.9a2.5 2.5 0 0 1 2.49-2.47h4.22a2.48 2.48 0 0 1 2.48 2.48v15.7a2.48 2.48 0 0 1-2.48 2.47m-31.56 10.16a1.09 1.09 0 0 0-1.09 1.09v18a1.1 1.1 0 0 0 1.09 1.09h19.09a1.1 1.1 0 0 0 1.09-1.09v-3.16a1.1 1.1 0 0 0-1.1-1.1l-11.1-.05a2.5 2.5 0 0 1-2.47-2.49v-4.36a2.48 2.48 0 0 1 2.48-2.48h11.09a1.09 1.09 0 0 0 1.09-1.09v-3.23a1.09 1.09 0 0 0-1.09-1.09h-19.09zm19.09 21.53h-19.09a2.48 2.48 0 0 1-2.48-2.48v-18a2.48 2.48 0 0 1 2.48-2.48h19.09a2.48 2.48 0 0 1 2.48 2.48v3.23a2.48 2.48 0 0 1-2.48 2.47h-11.09a1.09 1.09 0 0 0-1.09 1.09v4.36a1.1 1.1 0 0 0 1.1 1.1l11.09.05a2.49 2.49 0 0 1 2.47 2.48v3.16a2.48 2.48 0 0 1-2.48 2.48" transform="translate(-5617.43 -2267.18)"/><path class="cls-2" d="M5688.43 2307.91h4v-4h-4V2280h-4v23.9c.01 4.01 4 4.01 4 4.01zm35.85-27.91h-4s-4 0-4 4v23.9h4V2284h4v-4zm15.94 23.93h-8V2280h-4v23.9c0 4 4 4 4 4h8s4 0 4-4V2280h-4v23.9zm19.92-11.93h-8v-8h8v-4h-8s-4 0-4 4v8c0 4 4 4 4 4h8v8h-12v4h12c4 0 4-4 4-4v-8c-.02-4-4-4-4-4zm31.07 11.93v-8s0-4-4-4h-8v-8h8v-4h-8c-4 0-4 4-4 4v8s0 4 4 4h8v8h-12v4h12c4-.02 4-4 4-4zm3.98-19.93v19.92c0 4 4 4 4 4h4v-4h-4V2284h4v-4h-4s-4 0-4 4zm35.81-4h-19.92s-4 0-4 4v23.9h4V2284h8v23.9h4V2284h8v23.9h4V2284c-.08-4-4.08-4-4.08-4zm-118.67 4c0-4-4-4-4-4h-8s-4 0-4 4v19.92c0 4 4 4 4 4h8s4 0 4-4V2284zm-4 19.92h-8V2284h8v19.92z" transform="translate(-5617.43 -2267.18)"/><path class="cls-2" d="M98.81 48.08h.78v7.31h-.78zm7.63 5.85l-3.89-5.85h-.74v7.31h.78v-5.86l3.89 5.86h.74v-7.31h-.78v5.85zm8.14-5.85h-.95l-3.41 4.2v-4.2h-.78v7.31h.78v-2.04l1.54-1.85 2.23 3.89h.92l-2.63-4.48 2.3-2.83zm-18.77 3.28h-3.47v-3.28h-.78v7.31h.78v-3.33h3.47v3.33h.78v-7.31h-.78v3.28zm32.13 2.62l-1.61-5.9h-.7l-1.61 5.9-1.43-5.9h-.83l1.87 7.31h.73l1.62-5.85 1.63 5.85h.73l1.87-7.31h-.83l-1.44 5.9zm-54.51 0l-1.61-5.9h-.7l-1.61 5.9-1.43-5.9h-.83l1.87 7.31h.73l1.62-5.85 1.62 5.85h.73l1.87-7.31h-.83l-1.43 5.9zm11.65-5.2h2.11v6.61h.78v-6.61h2.12v-.7h-5.01v.7zm-8.06 6.61h4.54v-.69H77.8v-2.64H81v-.7h-3.2v-2.58h3.76v-.7h-4.54v7.31z"/><path class="cls-2" d="M5768.54 2315.2a2.59 2.59 0 0 0-1.87.76c-.69.69-.69 1.41-.69 3s0 2.27.69 3a2.68 2.68 0 0 0 3.74 0c.69-.69.69-1.41.69-3s0-2.27-.69-3a2.59 2.59 0 0 0-1.87-.76zm1.27 6.22a1.79 1.79 0 0 1-2.53 0c-.46-.47-.51-1-.51-2.5s.05-2 .51-2.5a1.79 1.79 0 0 1 2.53 0c.46.47.51 1 .51 2.5s-.06 2.02-.51 2.49z" transform="translate(-5617.43 -2267.18)"/><path class="cls-2" d="M161.22 55.39h4.54v-.69H162v-2.64h3.21v-.7H162v-2.58h3.76v-.7h-4.54v7.31zm-17.71-2.12l-2.39-5.19h-.78v7.31h.78v-5.55l2.04 4.41h.66l2.01-4.41v5.55h.78v-7.31h-.78l-2.32 5.19zm13.74.73l-1.9-5.92h-.82l2.4 7.31h.64l2.4-7.31h-.82l-1.9 5.92zm-25.72 1.39h4.54v-.69h-3.76v-2.64h3.21v-.7h-3.21v-2.58h3.76v-.7h-4.54v7.31zm-14.7-3.97h3.18v.64h-3.18z"/></svg>